<?xml version="1.0" encoding="UTF-8" standalone="no"?>
<!-- Created with Inkscape (http://www.inkscape.org/) -->

<svg
   width="326.76041mm"
   height="171.97917mm"
   viewBox="0 0 326.76041 171.97917"
   version="1.1"
   id="svg316016"
   inkscape:version="1.1 (ce6663b3b7, 2021-05-25)"
   sodipodi:docname="DC.svg"
   inkscape:export-filename="/home/kavi/Dropbox/maps-flags/50-state-awful-flag/DC.png"
   inkscape:export-xdpi="318.39352"
   inkscape:export-ydpi="318.39352"
   xmlns:inkscape="http://www.inkscape.org/namespaces/inkscape"
   xmlns:sodipodi="http://sodipodi.sourceforge.net/DTD/sodipodi-0.dtd"
   xmlns:xlink="http://www.w3.org/1999/xlink"
   xmlns="http://www.w3.org/2000/svg"
   xmlns:svg="http://www.w3.org/2000/svg">
  <sodipodi:namedview
     id="namedview316018"
     pagecolor="#ffffff"
     bordercolor="#666666"
     borderopacity="1.0"
     inkscape:pageshadow="2"
     inkscape:pageopacity="0.0"
     inkscape:pagecheckerboard="0"
     inkscape:document-units="mm"
     showgrid="false"
     inkscape:zoom="0.5543368"
     inkscape:cx="444.67551"
     inkscape:cy="317.49651"
     inkscape:window-width="1884"
     inkscape:window-height="1037"
     inkscape:window-x="1956"
     inkscape:window-y="1085"
     inkscape:window-maximized="0"
     inkscape:current-layer="layer1" />
  <defs
     id="defs316013" />
  <g
     inkscape:label="Layer 1"
     inkscape:groupmode="layer"
     id="layer1"
     transform="translate(81.843763,-96.76902)">
    <g
       id="g316138"
       transform="matrix(0.26458333,0,0,0.26458333,-13.445673,98.754318)">
      <g
         id="g317071"
         transform="matrix(0.16666667,0,0,0.16666667,-258.51247,-7.5034899)">
        <rect
           width="7410"
           height="3900"
           fill="#b22234"
           id="rect317012"
           x="0"
           y="0"
           style="fill:#000000" />
        <path
           d="m 0,450 h 7410 m 0,600 H 0 m 0,600 h 7410 m 0,600 H 0 m 0,600 h 7410 m 0,600 H 0"
           stroke="#ffffff"
           stroke-width="300"
           id="path317014"
           style="fill:#800080" />
        <rect
           width="2964"
           height="2100"
           fill="#3c3b6e"
           id="rect317016"
           x="0"
           y="0"
           style="fill:#000000" />
        <g
           fill="#ffffff"
           id="g317044">
          <g
             id="s17">
            <g
               id="s9">
              <g
                 id="s8">
                <path
                   id="s"
                   d="M 202,130 272.53423,347.08204 87.873218,212.91796 H 316.12678 L 131.46577,347.08204 Z" />
                <use
                   xlink:href="#s"
                   x="320"
                   id="use317019"
                   y="0"
                   width="100%"
                   height="100%" />
                <use
                   xlink:href="#s"
                   x="640"
                   id="use317021"
                   y="0"
                   width="100%"
                   height="100%" />
                <use
                   xlink:href="#s"
                   x="960"
                   id="use317023"
                   y="0"
                   width="100%"
                   height="100%" />
                <use
                   xlink:href="#s"
                   x="1280"
                   id="use317025"
                   y="0"
                   width="100%"
                   height="100%" />
                <use
                   xlink:href="#s"
                   x="1600"
                   id="use317027"
                   y="0"
                   width="100%"
                   height="100%" />
                <use
                   xlink:href="#s"
                   x="1920"
                   id="use317029"
                   y="0"
                   width="100%"
                   height="100%" />
                <use
                   xlink:href="#s"
                   x="2240"
                   id="use317031"
                   y="0"
                   width="100%"
                   height="100%" />
              </g>
              <use
                 xlink:href="#s"
                 x="2560"
                 id="use317034"
                 y="0"
                 width="100%"
                 height="100%" />
            </g>
            <use
               xlink:href="#s8"
               x="150"
               y="320"
               id="use317037"
               width="100%"
               height="100%" />
          </g>
          <use
             xlink:href="#s17"
             y="640"
             id="use317040"
             x="0"
             width="100%"
             height="100%" />
          <g
             id="use317042"
             transform="translate(0,1280)">
            <g
               id="g317172">
              <g
                 id="g317168">
                <path
                   id="path317152"
                   d="M 202,130 272.53423,347.08204 87.873218,212.91796 H 316.12678 L 131.46577,347.08204 Z" />
                <path
                   id="use317154"
                   d="M 522,130 592.53423,347.08204 407.87322,212.91796 H 636.12678 L 451.46577,347.08204 Z" />
                <path
                   id="use317156"
                   d="M 842,130 912.53423,347.08204 727.87322,212.91796 H 956.12678 L 771.46577,347.08204 Z" />
                <path
                   id="use317158"
                   d="m 1162,130 70.5342,217.08204 -184.661,-134.16408 h 228.2536 l -184.661,134.16408 z" />
                <path
                   id="use317160"
                   d="m 1482,130 70.5342,217.08204 -184.661,-134.16408 h 228.2536 l -184.661,134.16408 z" />
                <path
                   id="use317162"
                   d="m 1802,130 70.5342,217.08204 -184.661,-134.16408 h 228.2536 l -184.661,134.16408 z" />
                <path
                   id="use317164"
                   d="m 2122,130 70.5342,217.08204 -184.661,-134.16408 h 228.2536 l -184.661,134.16408 z" />
                <path
                   id="use317166"
                   d="m 2442,130 70.5342,217.08204 -184.661,-134.16408 h 228.2536 l -184.661,134.16408 z" />
              </g>
              <path
                 id="use317170"
                 d="m 2762,130 70.5342,217.08204 -184.661,-134.16408 h 228.2536 l -184.661,134.16408 z" />
            </g>
            <g
               id="use317174"
               transform="translate(150,320)">
              <path
                 id="path317194"
                 d="M 202,130 272.53423,347.08204 87.873218,212.91796 H 316.12678 L 131.46577,347.08204 Z" />
              <path
                 id="use317196"
                 d="M 522,130 592.53423,347.08204 407.87322,212.91796 H 636.12678 L 451.46577,347.08204 Z" />
              <path
                 id="use317198"
                 d="M 842,130 912.53423,347.08204 727.87322,212.91796 H 956.12678 L 771.46577,347.08204 Z" />
              <path
                 id="use317200"
                 d="m 1162,130 70.5342,217.08204 -184.661,-134.16408 h 228.2536 l -184.661,134.16408 z" />
              <path
                 id="use317202"
                 d="m 1482,130 70.5342,217.08204 -184.661,-134.16408 h 228.2536 l -184.661,134.16408 z" />
              <path
                 id="use317204"
                 d="m 1802,130 70.5342,217.08204 -184.661,-134.16408 h 228.2536 l -184.661,134.16408 z" />
              <path
                 id="use317206"
                 d="m 2122,130 70.5342,217.08204 -184.661,-134.16408 h 228.2536 l -184.661,134.16408 z" />
              <path
                 style="fill:#0000ff;fill-opacity:1;stroke:none;stroke-width:0.823339;stroke-miterlimit:4;stroke-dasharray:none"
                 d="m 2416.0537,378.45062 c -0.4676,-3.74309 0.1469,-11.69222 1.5766,-20.39406 1.5167,-9.23121 1.5382,-9.7307 0.4308,-10.0203 -1.561,-0.40819 -1.9935,-3.2908 -1.8762,-12.5031 0.064,-4.98481 -0.078,-9.04548 -0.3426,-9.84772 -0.6918,-2.09632 -2.308,-3.4041 -3.8306,-3.09959 -1.7856,0.35713 -2.4838,-1.11944 -2.4503,-5.18231 0.028,-3.45693 0.5504,-4.53918 2.1891,-4.53918 1.2867,0 9.4811,-1.73298 10.1504,-2.14663 0.279,-0.17244 0.7741,-2.8915 1.1219,-6.16089 l 0.6225,-5.85218 -3.7469,-8.91974 c -3.3558,-7.98844 -3.7839,-9.31883 -4.0996,-12.74165 -0.4003,-4.33647 -1.6175,-7.29887 -4.2601,-10.36722 -2.0177,-2.34251 -3.0926,-2.20459 -3.0926,0.39678 0,2.04642 -0.8838,3.09459 -2.6095,3.09459 -1.466,0 -2.7954,-1.86489 -3.1899,-4.47519 -0.3038,-2.0098 -1.7876,-5.06148 -3.204,-6.58881 -0.7412,-0.7994 -1.4961,-1.13512 -2.5524,-1.13512 -1.364,0 -1.6009,-0.19916 -2.6134,-2.19732 -2.5763,-5.08403 -4.7171,-10.51108 -6.5882,-16.7013 -2.3299,-7.70837 -2.8148,-8.76185 -4.4106,-9.58326 -0.6549,-0.33708 -3.9973,-1.03693 -7.4276,-1.55516 -9.7356,-1.47093 -14.9208,-3.38822 -19.6727,-7.27424 -5.4113,-4.42532 -9.9406,-8.87423 -10.2353,-10.05372 -1.0012,-4.00718 -3.1449,-7.84764 -6.8514,-12.27443 -5.0388,-6.01779 -5.8292,-7.19363 -7.3528,-10.93737 -0.7,-1.72023 -1.6894,-3.7127 -2.1985,-4.42774 l -0.9257,-1.30002 6.9724,-7.04985 c 3.8349,-3.87743 22.9421,-23.12419 42.4605,-42.77065 l 35.4881,-35.7208 10.0472,9.79764 c 5.5259,5.38873 22.0751,22.05127 36.7759,37.0279 14.7008,14.9766 40.1587,40.76895 56.5731,57.31631 16.4144,16.54741 31.7815,32.18467 34.1493,34.7495 l 4.3052,4.6633 -9.9522,10.12588 c -32.7564,33.32813 -63.8474,64.74631 -77.4452,78.26023 -8.5872,8.53425 -22.7835,22.96698 -31.5473,32.07274 -8.7638,9.10581 -16.8656,17.51619 -18.0041,18.68981 l -2.0698,2.13385 z"
                 id="path318425" />
            </g>
          </g>
        </g>
      </g>
    </g>
  </g>
</svg>
