<?xml version="1.0" encoding="UTF-8" standalone="no"?>
<!-- Created with Inkscape (http://www.inkscape.org/) -->

<svg
   width="44.244282mm"
   height="27.344471mm"
   viewBox="0 0 44.244282 27.344471"
   version="1.1"
   id="svg5"
   inkscape:version="1.1 (ce6663b3b7, 2021-05-25)"
   sodipodi:docname="IN.svg"
   inkscape:export-filename="/home/kavi/Dropbox/50-state-terrible-flags/IN.png"
   inkscape:export-xdpi="2351.02"
   inkscape:export-ydpi="2351.02"
   xmlns:inkscape="http://www.inkscape.org/namespaces/inkscape"
   xmlns:sodipodi="http://sodipodi.sourceforge.net/DTD/sodipodi-0.dtd"
   xmlns="http://www.w3.org/2000/svg"
   xmlns:svg="http://www.w3.org/2000/svg">
  <sodipodi:namedview
     id="namedview7"
     pagecolor="#ffffff"
     bordercolor="#666666"
     borderopacity="1.0"
     inkscape:pageshadow="2"
     inkscape:pageopacity="0.0"
     inkscape:pagecheckerboard="0"
     inkscape:document-units="mm"
     showgrid="false"
     inkscape:zoom="4"
     inkscape:cx="72.625"
     inkscape:cy="67"
     inkscape:window-width="1884"
     inkscape:window-height="1037"
     inkscape:window-x="1956"
     inkscape:window-y="1085"
     inkscape:window-maximized="0"
     inkscape:current-layer="layer1" />
  <defs
     id="defs2"><inkscape:perspective
   id="perspective1114"
   inkscape:vp_z="689.45897 : -53.434835 : 1"
   inkscape:vp_x="0 : -53.434835 : 1"
   inkscape:vp_y="0 : 999.99997 : 0"
   sodipodi:type="inkscape:persp3d"
   inkscape:persp3d-origin="344.72949 : -125.50839 : 1">
		</inkscape:perspective>
<inkscape:perspective
   id="perspective3494"
   inkscape:vp_z="744.09447 : 256.52555 : 1"
   inkscape:vp_x="0 : 256.52555 : 1"
   inkscape:vp_y="0 : 999.99997 : 0"
   sodipodi:type="inkscape:persp3d"
   inkscape:persp3d-origin="372.04724 : 81.131851 : 1">
		</inkscape:perspective>
<inkscape:perspective
   id="perspective4297"
   inkscape:vp_z="744.09447 : 256.52555 : 1"
   inkscape:vp_x="0 : 256.52555 : 1"
   inkscape:vp_y="0 : 999.99997 : 0"
   sodipodi:type="inkscape:persp3d"
   inkscape:persp3d-origin="372.04724 : 81.131851 : 1">
		</inkscape:perspective>

	
	
	
	
	
	
	
	
	
	
	
	
	
	
	
	
	
	
	
	
	

			
		
	
		
	
		
	
		
	
		
	
		
	
		
	
		
	
		
	
		
	
		
	
		
	
		
	
		
	
		
	
		
	
		
	
		
	
		
	
		
	
		
	
		
	
		
	
		
	
		
	
		
	
		
	
		
	
		
	
		
	
		
	
		
	
		
	
		
	
		
	
		
	
		
	
		
	
		
	
		
	
		
	
		
	
		
	
		
	
		
	
		
	
		
	
		
	
		
	
		
	
		
	
		
	
		
	
		
	
		
	
		
	
		
	
		
	
		
	
		
	
		
	
		
	
		
	
		
	
		
	
		
	
		
	
		
	
		
	
		
	
		
	
		
	
		
	
		
	
		
	
		
	
		
	
		
	
		
	
		
	
		
	
		
	
		
	
		
	
		
	
		
	
		
	
		
	
		
	
		
	
		
	
		
	
		
	
		
	
		
	
		
	
		
	
		
	
		
	
		
	
		
	
		
	
		
	
		
	
		
	
		
	
		
	
		
	
		
	
		
	
		
	
		
	
		
	
		
	
		
	
		
	
		
	
		
	
		
	
		
	
		
	
		
	
		
	
		
	
		
	
		
	
		
	
		
	
		
	
		
	
		
	
		
	
		
	
		

	
	
	
		
	
		

	
	
	
	
		
	
	
	
	
	
	
	
	
	
		
	
		
	
		
	
		
	
	
	
	
	
	
	
	
	
	
	
	
	
	
	
	
	
	
	
	
	
	
	
	
	
	
	
	
	
	
	
	
	
	
	
	
		
	
	
		
	
		
	
	
	
	
	
	
		
	
	
	
	
		
	
	
	
	
		
	
	
	
		
	
	
	
		
	
	
	
	
	
	
		
	
	
	
	
	
	
	
	
	
	
	
		
	
	
	
		
	
		
	
		
	
	
	
	
	
	
	
	
	
	
	
	
		
	
	
	
	
	
	
	
	
	
	
	
	
	
	
	
	
	
	
	
		
	
	
	
	
	
	
		
	
	
	
	
	
	
		
	
		
	
	
	
	
	
		
	
		
	
		
	
	
		
	
	
	
	
	
	
	
	
	
	
		
	
	
	
	
	
	
		
	
		
	
	
	
	
	
	
	
	
	
	
	
	
	
		
	
		
	
		
	
		
	
	
	
	
		
	
	
	
	
	
	
	
	
	
	
	
		
	
	
	
	
	
	
	
		
	
	
	
	
	
	
	
	
	
	
		
	
	
		
	
	
	
	
	
	
	
	
	
	
	
	
	
	
	
	
	
	
	
	
	
	
	
	
		
	
		
	
	
	
	
	
	
	
	
	
	
	
	
	
	
	
	
	
	
	
	
	
	
	
	
	
	
		
	
	
	
	
	
	
	
	
	
	
	
	
	
	
	
	
	
	
	
	
	
	
	
	
	
	
	
	
	
	
	
	
	
	
	
	
	
	
	
	
	
	
	
	
	
	
	
	
	
	
	
	
	
	
	
	
	
	
	
	
	
	
	
	
		
	
	
	
		
	
	
	
	
		
	
	
	
	
	
	
		
	
	
	
	
	
	
	
	
	
	
	
	
	
	
	
		
	
	
	
	
	
		
	
	
		
	
		
	
		
	
	
	
	
	
	
	
	
	
		
	
	
		
	
		
	
	
	
	
	
	
	
	
	
	
	
		
	
		
	
	
	
	
	
	
	
	
	
	
	
	
	
	
	
	
	
	
	
	
	
	
	
	
		
	
	
	
	
	
	
	
	
	
	
	
	
	
	
	
	
	
	
	
	
	
	
	
	
		
	
		
	
	
	
	
	
	
	
	
	
	
	
	
	
	
	
	
	
	
	
	
	
		
	
	
	
	
	
	
	
	
	
	
		
	
	
		
	
	
		
	
	
	
	
	
	
	
	
	
	
	
	
	
	
	
	
	
	
	
	
	
	
	
	
	
	
	
		
	
	
	
	
	
	
	
	
		
	
	
	
	
	
		
	
	
	
	
	
	
	
	
	
	
	
	
	
	
	
	
	
		
	
		
	
	
	
	
	
	
	
	
	
	
	
	
	
	
	
	
	
	
	
	
	
	
	
	
	
		
	
	
	
	
	
	
	
		
	
		
	
	
	
	
	
	
	
		
	
	
	
	
	
	
	
	
	
	
	
	
	
	
	
	
	
	
	
	
	
	
	
	
	
	
	
	
	
	
	
	
	
	
		
	
	
	
	
	
	
	
	
	
	
	
	
	
	
	
	
	
	
		
	
	
	
	
	
	
	
	
		
	
	
	
	
	
	
		
	
		
	
	
	
	
	
	
	
	
	
	
	
	
	
	
	
	
	
	
	
	
	
	
	
	
	
	
	
	
	
	
	
	
	
	
	
	
	
	
	
	
	
	
		
	
		
	
	
	
	
	
	
	
		
	
	
	
	
	
	
	
	
	
	
	
	
	
	
	
	
	
	
	
	
	
	
	
	
	
	
	
	
	
	
	
	
	
	
	
	
	
	
	
		
	
	
	
	
	
	
	
		
	
	
	
		
	
	
	
	
	
	
	
	
	
	

			
		
			
		
			
				
		
			
		
			
		
			
				
		
			
				
		
			
		
			
		
			
		
			
		
			
		
			
		
			
		
			
				
		
			
		
			
				
		
			
				
		
			
				
		
			
				
		
			
		
			
		
			
		
			
		
			
		
		
	
		
	
		
	
		
	
		
	
		
	
		
	
		
	
		
	
		
	
		
	
		
	
		
	
		
	
		
	
		
	
		
	
		
	
		
	
		
	
		
	
		
		
			
	
		
		
			
	
		
		
			
	
		
		
			
	
		
		
			
	
		
		
			
	
		
		
			
	
		
		
			
	
		
		
			
	
		
		
			
	
		
		
			
	
		
		
			
	
		
		
			
	
		
		
			
	
		
		
			
	
		
		
			
	
				
				
			
		
			
		
			
		
			
		
			
		
			
		
			
		
			
		
			
		
			
		
			
		
			
		
			
		
			
		
			
		
			
		
			
		
			
		
			
		
			
		
			
		
			
		
			
		
			
		
			
		
			
		
			
		
			
		
			
		
			
		
			
		
			
		
			
		
			
		
			
		
			
		
			
		
			
		
			
		
			
		
			
		
			
		
			
		
			
		
			
		
			
		
			
		
			
		
			
		
			
		
			
		
			
		
			
		
			
		
			
		
			
		
			
		
			
		
			
		
			
		
			
		
			
		
			
		
			
		
			
		
			
		
			
		
			
		
			
		
			
		
			
		
			
		
			
		
			
		
			
		
			
		
			
		
			
		
			
		
			
		
			
		
			
		
			
		
			
		
			
		
			
		
			
		
			
		
			
		
			
		
			
		
			
		
			
		
			
		
			
		
			
		
			
		
			
		
			
		
			
		
			
		
			
		
			
		
			
		
			
		
			
		
			
		
			
		
			
		
			
		
			
		
			
		
			
		
			
		
			
		
			
		
			
		
			
		
			
		
			
		
			
		
			
		
			
		
			
		
			
	
				
				
					
				
					
			
				
				
					
				
			
				
				
					
				
			
				
				
					
				
					
			
				
				
					
				
			
				
				
					
				
			
				
				
					
			
				
				
			
				
				
					
				
			
				
				
			
				
					
				
					
			
				
				
					
			
				
					
				
					
				
					
			
				
					
				
					
			
			
			
				
			
			
				
			
		
			
			
				
			
			
		
			
			
				
			
		
			
			
		
			
			
				
			
		
			
			
			
				
			
			
				
			
		
			
			
				
			
		
			
			
				
			
		
			
			
				
			
			
		
			
			
				
			
		
			
			
				
			
			
		
			
			
				
			
		
			
			
			
		
			
			
				
			
		
			
			
		
			
			
		
			
			
		
			
			
				
			
		
			
			
				
			
		
			
			
				
			
		
		
		
			
	
		
		
			
	
		
		
			
	
		
		
			
	
		
		
			
	</defs>
  <g
     inkscape:label="Layer 1"
     inkscape:groupmode="layer"
     id="layer1"
     transform="translate(-140.43626,-131.92657)">
    <g
       id="g3404"
       transform="matrix(0.26458333,0,0,0.26458333,36.0229,95.660677)">
      <rect
         style="fill:#ffeeaa;stroke:none;stroke-width:1.33333"
         id="rect16826"
         width="167.22249"
         height="103.34918"
         x="394.63318"
         y="137.06795" />
      <g
         id="g17226"
         transform="matrix(0.83821734,0,0,0.83821734,77.706349,33.025497)">
        <g
           id="g16786"
           style="stroke:#000000">
          <path
             id="path9"
             fill="none"
             stroke="#7f7f7f"
             stroke-width="0.25"
             stroke-linecap="round"
             stroke-linejoin="round"
             stroke-miterlimit="3.8637"
             d="m 465.80001,156.72057 c -0.19285,0.26398 -0.39189,0.51497 -0.59716,0.75165 -0.20526,0.23668 -0.41675,0.45905 -0.63451,0.66579 -0.21776,0.20675 -0.44179,0.39787 -0.67213,0.57205 -0.23033,0.17418 -0.46698,0.33141 -0.70997,0.47039 -0.24299,0.13897 -0.49233,0.25969 -0.74807,0.36083 -0.25573,0.10113 -0.51785,0.1827 -0.7864,0.24336 -0.26856,0.0607 -0.54354,0.10044 -0.825,0.118 -0.28145,0.0176 -0.56938,0.0129 -0.86382,-0.0153 -0.29444,-0.0282 -0.5954,-0.0799 -0.9029,-0.15644 -0.30751,-0.0766 -0.62157,-0.17796 -0.94223,-0.30552 -0.006,7.2e-4 -0.0115,9.4e-4 -0.0166,6.9e-4 -0.005,-2.5e-4 -0.01,-9.6e-4 -0.0142,-0.002 -0.004,-0.001 -0.008,-0.003 -0.0119,-0.005 -0.004,-0.002 -0.007,-0.004 -0.01,-0.007 -0.003,-0.003 -0.005,-0.006 -0.008,-0.01 -0.002,-0.004 -0.004,-0.008 -0.006,-0.0118 -0.002,-0.004 -0.003,-0.009 -0.004,-0.0138 -0.001,-0.005 -0.002,-0.0101 -0.003,-0.0156 -6.8e-4,-0.006 -0.001,-0.0113 -0.001,-0.0173 -2.6e-4,-0.006 -3.2e-4,-0.0123 -2e-4,-0.0188 1.1e-4,-0.007 4e-4,-0.0132 8.3e-4,-0.0202 4.4e-4,-0.007 0.001,-0.0141 0.002,-0.0214 7e-4,-0.007 0.002,-0.0148 0.002,-0.0224 9.2e-4,-0.008 0.002,-0.0154 0.003,-0.0233 0.001,-0.008 0.002,-0.0159 0.003,-0.024 0.001,-0.008 0.002,-0.0163 0.004,-0.0245 10e-4,-0.008 0.003,-0.0166 0.004,-0.0249 10e-4,-0.008 0.002,-0.0167 0.004,-0.0251 0.001,-0.008 0.002,-0.0168 0.003,-0.0252 10e-4,-0.008 0.002,-0.0168 0.003,-0.0251 9.4e-4,-0.008 0.002,-0.0166 0.003,-0.0248 7.4e-4,-0.008 0.001,-0.0164 0.002,-0.0244 4.8e-4,-0.008 8.2e-4,-0.016 9.8e-4,-0.0238 1.7e-4,-0.008 1.7e-4,-0.0155 -3e-5,-0.023 -2e-4,-0.008 -5.9e-4,-0.0149 -10e-4,-0.0221 -6.2e-4,-0.007 -0.001,-0.0142 -0.003,-0.021 -10e-4,-0.007 -0.002,-0.0134 -0.004,-0.0198 -0.002,-0.006 -0.003,-0.0125 -0.006,-0.0184 -0.002,-0.006 -0.005,-0.0115 -0.007,-0.0168 -0.003,-0.005 -0.006,-0.0104 -0.009,-0.0151 -0.003,-0.005 -0.007,-0.009 -0.0115,-0.0132 -0.004,-0.004 -0.009,-0.008 -0.0138,-0.0111 l -0.0177,0.003 -0.0178,0.003 -0.0177,0.003 -0.0177,0.003 -0.0178,0.003 -0.0177,0.003 -0.0178,0.003 -0.0177,0.003 -0.0177,0.003 -0.0178,0.003 -0.0177,0.003 -0.0178,0.003 -0.0177,0.003 -0.0177,0.003 -0.0178,0.003 -0.0177,0.003 -0.0177,0.003 -0.0178,0.003 -0.0177,0.003 -0.0178,0.003 -0.0177,0.003 -0.0177,0.003 -0.0178,0.003 -0.0177,0.003 -0.0178,0.003 -0.0177,0.003 -0.0177,0.003 -0.0178,0.003 -0.0177,0.003 -0.0177,0.003 -0.0178,0.003 -0.0177,0.003 c -0.1175,-0.0537 -0.23378,-0.1178 -0.34877,-0.19184 -0.11499,-0.074 -0.22868,-0.15799 -0.34102,-0.25124 -0.11233,-0.0933 -0.22331,-0.1958 -0.33285,-0.30708"
             sodipodi:nodetypes="cssssssssscssssssssssssssssssssssssssssssscccccccccccccccccccccccccccccccccssc"
             style="stroke:#000000" />
          <polyline
             id="polyline244"
             fill="none"
             stroke="#7F7F7F"
             stroke-width="0.25"
             stroke-linecap="round"
             stroke-linejoin="round"
             stroke-miterlimit="3.8637"
             points="   455.834,224.056 455.076,223.962 455.076,223.677 455.74,223.772 455.74,223.583 454.885,222.633 455.74,222.443 455.74,222.254    454.981,222.063 455.551,221.969 455.74,221.304 455.645,220.26 455.36,220.07 456.215,219.501 456.311,219.121 455.645,219.311    455.645,219.121 456.69,218.077 456.026,217.413 455.834,216.843 456.5,215.704 456.783,215.989 457.164,215.419 457.354,215.893    457.543,215.799 457.639,214.755 458.303,214.185 458.684,213.52 458.492,212.761 459.252,212.476 459.442,212.002    459.727,212.002 459.442,211.243 460.012,210.388 459.916,209.629 460.865,208.87 461.246,207.921 461.151,207.066    460.391,205.832 460.676,204.313 459.823,203.744 459.823,202.605 458.778,201.94 458.588,201.371 459.442,200.327    459.537,199.947 458.967,198.618 459.252,198.049 459.916,197.764 456.5,158.182  "
             style="stroke:#000000;stroke-opacity:1" />
          <polyline
             id="polyline248"
             fill="none"
             stroke="#7F7F7F"
             stroke-width="0.25"
             stroke-linecap="round"
             stroke-linejoin="round"
             stroke-miterlimit="3.8637"
             points="   455.834,224.056 456.879,224.436 457.354,223.867 457.354,223.392 456.975,222.538 457.354,221.969 458.399,222.633    460.201,222.159 460.297,223.203 460.961,223.203 461.436,222.538 460.961,221.683 461.151,220.83 462.479,221.683 463.713,221.21    465.612,221.969 465.707,222.254 466.942,222.633 467.606,223.298 467.985,223.392 468.364,222.918 468.649,221.114    470.073,220.545 471.117,219.595 471.496,219.786 472.256,221.019 473.49,220.735 473.49,221.683 473.869,221.779 474.155,221.494    474.344,220.45 475.198,220.26 475.104,218.266 475.864,217.982 476.053,217.697 475.578,217.128 475.674,216.843 476.432,217.128    477.287,216.558 477.192,216.273 476.623,216.084 476.623,215.609 477.762,216.273 478.045,217.602 478.711,218.077    480.514,218.362 481.178,218.931 481.463,218.552 482.508,218.077 482.887,216.938 482.698,215.135 483.362,214.185    483.457,213.616 484.121,213.236 484.596,213.52 485.449,212.856 486.114,210.388 487.348,209.819 488.393,208.301    487.633,206.022 487.823,205.357 489.817,204.883 490.955,205.737 491.334,205.642 493.424,204.029 495.606,203.459 495.416,202.7    495.891,202.035 495.512,201.656 494.656,201.656 495.037,200.327 494.182,199.188 495.037,197.954  "
             style="stroke:#000000;stroke-opacity:1" />
          <path
             id="polyline374"
             style="fill:none;stroke:#000000;stroke-width:0.25;stroke-linecap:round;stroke-linejoin:round;stroke-miterlimit:3.8637"
             d="M 465.80001,156.72057 489.627,154.1 h 0.379 l 0.19,1.045"
             sodipodi:nodetypes="cccc" />
          <line
             id="line382"
             fill="none"
             stroke="#7F7F7F"
             stroke-width="0.25"
             stroke-linecap="round"
             stroke-linejoin="round"
             stroke-miterlimit="3.8637"
             x1="495.03699"
             y1="197.95399"
             x2="490.19601"
             y2="155.145"
             style="stroke:#000000;stroke-opacity:1" />
        </g>
        <g
           id="g16761"
           style="stroke:#ff0000;stroke-width:0.377953;stroke-miterlimit:4;stroke-dasharray:none;stroke-opacity:1">
          <line
             id="line622"
             fill="none"
             stroke="#0080ff"
             stroke-width="0.75"
             stroke-linecap="round"
             stroke-linejoin="round"
             stroke-miterlimit="3.8637"
             x1="475.19601"
             y1="188.515"
             x2="475.11899"
             y2="187.757"
             style="stroke:#ff0000;stroke-width:0.377953;stroke-miterlimit:4;stroke-dasharray:none;stroke-opacity:1" />
          <path
             id="path945"
             fill="none"
             stroke="#be2d00"
             stroke-linecap="round"
             stroke-linejoin="round"
             stroke-miterlimit="3.8637"
             d="m 495.205,214.258 c -0.197,0.066 -0.396,0.144 -0.609,0.15 v 0.039 c -1.062,-0.172 -2.187,-0.124 -3.264,-0.304 -0.953,-0.159 -4.742,-0.149 -5.049,-0.306 -0.203,0.114 -0.463,-10e-4 -0.646,0.116 -0.201,-0.043 -0.517,-0.12 -0.645,-0.306 h -0.305"
             sodipodi:nodetypes="cccccccc"
             style="stroke:#ff0000;stroke-width:0.377953;stroke-miterlimit:4;stroke-dasharray:none;stroke-opacity:1" />
          <path
             id="path1023"
             fill="none"
             stroke="#be2d00"
             stroke-linecap="round"
             stroke-linejoin="round"
             stroke-miterlimit="3.8637"
             d="m 447.823,202.068 c 1.22,-0.276 4.232,-2.144 4.402,-2.125 0.771,-0.408 1.516,-0.864 2.203,-1.366 1.001,-0.73 5.314,-2.891 6.57,-2.621 l 0.227,0.228 c 0.198,0.112 1.258,-0.08 1.596,-0.113 l 0.15,-0.19 c 0.218,-0.091 1.786,-0.42 2.088,-0.38 0.459,-0.285 0.889,-0.147 1.215,-0.34 0.684,-0.402 1.299,-1.048 2.012,-1.481 1.768,0.377 5.701,-2.335 7.141,-3.606"
             style="stroke:#ff0000;stroke-width:0.377953;stroke-miterlimit:4;stroke-dasharray:none;stroke-opacity:1" />
          <line
             id="line1025"
             fill="none"
             stroke="#be2d00"
             stroke-linecap="round"
             stroke-linejoin="round"
             stroke-miterlimit="3.8637"
             x1="476.828"
             y1="188.629"
             x2="476.828"
             y2="189.04601"
             style="stroke:#ff0000;stroke-width:0.377953;stroke-miterlimit:4;stroke-dasharray:none;stroke-opacity:1" />
          <path
             id="path1027"
             fill="none"
             stroke="#be2d00"
             stroke-linecap="round"
             stroke-linejoin="round"
             stroke-miterlimit="3.8637"
             d="m 475.426,190.072 c 0.694,-0.278 -0.005,-0.798 1.176,-0.723 l 0.227,-0.304"
             style="stroke:#ff0000;stroke-width:0.377953;stroke-miterlimit:4;stroke-dasharray:none;stroke-opacity:1" />
          <path
             id="path1029"
             fill="none"
             stroke="#be2d00"
             stroke-linecap="round"
             stroke-linejoin="round"
             stroke-miterlimit="3.8637"
             d="m 478.119,188.363 c -0.387,-0.079 -0.959,0.068 -1.291,0.266"
             style="stroke:#ff0000;stroke-width:0.377953;stroke-miterlimit:4;stroke-dasharray:none;stroke-opacity:1" />
          <path
             id="path1031"
             fill="none"
             stroke="#be2d00"
             stroke-linecap="round"
             stroke-linejoin="round"
             stroke-miterlimit="3.8637"
             d="m 501.471,184.642 c -0.875,0.096 -1.521,0.362 -2.393,0.456 -1.52,0.165 -3.25,0.829 -4.861,0.986 -1.168,0.114 -0.885,-0.627 -1.67,-0.569 -0.41,0.03 -0.67,0.342 -1.025,0.417 -1.914,0.409 -4.07,0.553 -6.037,0.772 -0.424,0.048 -0.986,0.037 -1.176,0.519 -1.945,0.434 -4.252,0.943 -6.189,1.14"
             style="stroke:#ff0000;stroke-width:0.377953;stroke-miterlimit:4;stroke-dasharray:none;stroke-opacity:1" />
          <path
             id="path1091"
             fill="none"
             stroke="#be2d00"
             stroke-linecap="round"
             stroke-linejoin="round"
             stroke-miterlimit="3.8637"
             d="m 449.379,185.212 c 0.555,0.55 5.991,-0.18 6.947,-0.303 0.32,-0.041 0.617,0.38 0.988,0.38 0.381,0 1.178,-0.358 1.668,-0.42 0.885,-0.109 1.785,-0.294 2.658,-0.379 7.379,-0.713 7.355,2.684 11.391,2.961 0.709,0.477 2.902,1.467 3.571,1.898"
             sodipodi:nodetypes="ccscccc"
             style="stroke:#ff0000;stroke-width:0.377953;stroke-miterlimit:4;stroke-dasharray:none;stroke-opacity:1" />
          <path
             id="path1345"
             fill="none"
             stroke="#be2d00"
             stroke-linecap="round"
             stroke-linejoin="round"
             stroke-miterlimit="3.8637"
             d="m 454.2658,158.74091 c 1.031,-0.211 4.2132,1.87509 5.2872,1.75609"
             sodipodi:nodetypes="cc"
             style="stroke:#ff0000;stroke-width:0.377953;stroke-miterlimit:4;stroke-dasharray:none;stroke-opacity:1" />
          <path
             id="path1777"
             fill="none"
             stroke="#be2d00"
             stroke-linecap="round"
             stroke-linejoin="round"
             stroke-miterlimit="3.8637"
             d="m 484.386,223.52 c 0.059,-0.611 0.656,-1.086 0.656,-1.556 0.125,-0.179 0.248,-0.379 0.406,-0.532 l 0.039,-0.38 c 0.673,-0.527 0.684,-2.464 0.227,-3.15 0.486,-1.768 -1.362,-3.502 -1.025,-4.253"
             sodipodi:nodetypes="cccccc"
             style="stroke:#ff0000;stroke-width:0.377953;stroke-miterlimit:4;stroke-dasharray:none;stroke-opacity:1" />
          <path
             id="path1779"
             fill="none"
             stroke="#be2d00"
             stroke-linecap="round"
             stroke-linejoin="round"
             stroke-miterlimit="3.8637"
             d="m 484.688,213.648 c -0.99,-2.666 -0.678,-5.639 -1.975,-8.236 -0.097,-0.192 -0.076,-0.394 0.039,-0.57 -0.114,-0.51 0.066,-0.775 0.037,-1.215 -0.024,-0.375 -0.629,-1.634 -0.76,-2.165 -0.222,-0.303 -0.652,-0.459 -0.947,-0.683 -0.646,-1.692 -0.617,-3.152 -1.1,-4.14 l 0.264,-0.606 c -0.227,-1.784 -1.809,-3.419 -2.316,-5.355 -0.201,-0.122 -0.477,-0.386 -0.492,-0.643"
             style="stroke:#ff0000;stroke-width:0.377953;stroke-miterlimit:4;stroke-dasharray:none;stroke-opacity:1" />
          <path
             id="path1781"
             fill="none"
             stroke="#be2d00"
             stroke-linecap="round"
             stroke-linejoin="round"
             stroke-miterlimit="3.8637"
             d="m 477.438,190.035 -0.039,-0.116 -0.381,-0.304 c -0.03,-0.193 -0.096,-0.397 -0.189,-0.569"
             style="stroke:#ff0000;stroke-width:0.377953;stroke-miterlimit:4;stroke-dasharray:none;stroke-opacity:1" />
          <path
             id="path1783"
             fill="none"
             stroke="#be2d00"
             stroke-linecap="round"
             stroke-linejoin="round"
             stroke-miterlimit="3.8637"
             d="m 475.119,187.757 c 0.125,0.149 0.291,0.28 0.457,0.38 0.305,-0.042 0.627,0.1 0.912,0.189 l 0.023,0.258 0.316,0.045"
             style="stroke:#ff0000;stroke-width:0.377953;stroke-miterlimit:4;stroke-dasharray:none;stroke-opacity:1" />
          <path
             id="path1785"
             fill="none"
             stroke="#be2d00"
             stroke-linecap="round"
             stroke-linejoin="round"
             stroke-miterlimit="3.8637"
             d="m 474.211,186.427 c 0.246,0.452 0.512,0.954 0.871,1.329 h 0.037"
             style="stroke:#ff0000;stroke-width:0.377953;stroke-miterlimit:4;stroke-dasharray:none;stroke-opacity:1" />
          <path
             id="path1787"
             fill="none"
             stroke="#be2d00"
             stroke-linecap="round"
             stroke-linejoin="round"
             stroke-miterlimit="3.8637"
             d="m 459.44,160.04 c 0.025,0.155 0.152,0.296 0.113,0.457"
             style="stroke:#ff0000;stroke-width:0.377953;stroke-miterlimit:4;stroke-dasharray:none;stroke-opacity:1" />
          <path
             id="path1789"
             fill="none"
             stroke="#be2d00"
             stroke-linecap="round"
             stroke-linejoin="round"
             stroke-miterlimit="3.8637"
             d="m 476.827,188.629 c 0.081,-0.202 1.376,-2.828 1.56,-3.038 1.123,-0.36 1.061,-0.631 2.58,-0.836 0.77,-0.382 0.846,-0.929 2.279,-1.329 0.695,-0.194 -0.315,-4.677 0.037,-6.228 l -0.189,-0.416 c 0.086,-0.666 -0.052,-1.511 -0.229,-2.165 0.456,-1.212 2.398,-3.899 2.053,-5.276 0.314,-0.671 0.525,-1.552 0.908,-2.164 l -0.076,-0.797 c 0.059,-0.266 0.439,-0.277 0.268,-0.646 0.617,-0.93 0.24,-0.404 0.988,-0.759 0.703,-0.453 0.107,-7.002 0.189,-7.86 0.196,-0.071 -0.031,-0.718 0,-0.873 0.118,-0.584 0.34,-0.428 0.34,-1.405 v -0.113"
             sodipodi:nodetypes="cccsccccccccccsc"
             style="stroke:#ff0000;stroke-width:0.377953;stroke-miterlimit:4;stroke-dasharray:none;stroke-opacity:1" />
          <path
             id="path1791"
             fill="none"
             stroke="#be2d00"
             stroke-linecap="round"
             stroke-linejoin="round"
             stroke-miterlimit="3.8637"
             d="m 486.549,145.423 c 0.245,1.173 0.014,2.263 0.15,3.341 0.043,0.333 0.562,0.601 0.646,0.985 0.05,0.225 0.189,4.976 0.189,4.976"
             style="stroke:#ff0000;stroke-width:0.377953;stroke-miterlimit:4;stroke-dasharray:none;stroke-opacity:1" />
          <path
             id="path2169"
             fill="none"
             stroke="#be2d00"
             stroke-linecap="round"
             stroke-linejoin="round"
             stroke-miterlimit="3.8637"
             d="m 459.553,160.497 c -0.092,0.254 -0.006,0.583 -0.189,0.796 0.069,0.11 0.225,2.107 0.115,2.241 0.617,1.261 0.359,2.693 1.141,3.833 l 0.148,2.429 c 1.256,1.945 2.164,3.59 3.418,5.392 l 0.152,0.039 c 0.455,0.683 1.789,2.522 2.393,2.619 0.414,0.661 1.008,2.261 1.744,2.734 1.84,1.185 2.777,2.366 3.607,4.252 0.408,0.454 1.58,1.097 2.129,1.596"
             style="stroke:#ff0000;stroke-width:0.377953;stroke-miterlimit:4;stroke-dasharray:none;stroke-opacity:1" />
        </g>
        <g
           id="g16802"
           style="fill:#000000">
          <text
             xml:space="preserve"
             style="font-style:normal;font-variant:normal;font-weight:normal;font-stretch:normal;font-size:2.46949px;line-height:1.25;font-family:'EB Garamond SC';-inkscape-font-specification:'EB Garamond SC';letter-spacing:0px;word-spacing:0px;fill:#000000;fill-opacity:1;stroke:none;stroke-width:0.0617374"
             x="442.1619"
             y="204.9843"
             id="text8245"><tspan
               sodipodi:role="line"
               id="tspan8243"
               x="442.1619"
               y="204.9843"
               style="fill:#000000;stroke-width:0.0617374">Los Angeles</tspan></text>
          <text
             xml:space="preserve"
             style="font-style:normal;font-variant:normal;font-weight:normal;font-stretch:normal;font-size:2.46949px;line-height:1.25;font-family:'EB Garamond SC';-inkscape-font-specification:'EB Garamond SC';letter-spacing:0px;word-spacing:0px;fill:#000000;fill-opacity:1;stroke:none;stroke-width:0.0617374"
             x="480.8685"
             y="226.28464"
             id="text8245-9"><tspan
               sodipodi:role="line"
               id="tspan8243-1"
               x="480.8685"
               y="226.28464"
               style="fill:#000000;stroke-width:0.0617374">Atlanta</tspan></text>
          <text
             xml:space="preserve"
             style="font-style:normal;font-variant:normal;font-weight:normal;font-stretch:normal;font-size:2.46949px;line-height:1.25;font-family:'EB Garamond SC';-inkscape-font-specification:'EB Garamond SC';letter-spacing:0px;word-spacing:0px;fill:#000000;fill-opacity:1;stroke:none;stroke-width:0.0617374"
             x="497.69846"
             y="213.72633"
             id="text8245-9-3"><tspan
               sodipodi:role="line"
               id="tspan8243-1-6"
               x="497.69846"
               y="213.72633"
               style="fill:#000000;stroke-width:0.0617374">Washington DC</tspan></text>
          <text
             xml:space="preserve"
             style="font-style:normal;font-variant:normal;font-weight:normal;font-stretch:normal;font-size:2.46949px;line-height:1.25;font-family:'EB Garamond SC';-inkscape-font-specification:'EB Garamond SC';letter-spacing:0px;word-spacing:0px;fill:#000000;fill-opacity:1;stroke:none;stroke-width:0.0617374"
             x="494.15558"
             y="183.51762"
             id="text8245-9-2"><tspan
               sodipodi:role="line"
               id="tspan8243-1-7"
               x="494.15558"
               y="183.51762"
               style="fill:#000000;stroke-width:0.0617374">Philadelphia</tspan></text>
          <text
             xml:space="preserve"
             style="font-style:normal;font-variant:normal;font-weight:normal;font-stretch:normal;font-size:2.46949px;line-height:1.25;font-family:'EB Garamond SC';-inkscape-font-specification:'EB Garamond SC';letter-spacing:0px;word-spacing:0px;fill:#000000;fill-opacity:1;stroke:none;stroke-width:0.0617374"
             x="481.26834"
             y="151.83382"
             id="text8245-9-2-0"><tspan
               sodipodi:role="line"
               id="tspan8243-1-7-9"
               x="481.26834"
               y="151.83382"
               style="fill:#000000;stroke-width:0.0617374">Detroit</tspan></text>
          <text
             xml:space="preserve"
             style="font-style:normal;font-variant:normal;font-weight:normal;font-stretch:normal;font-size:2.46949px;line-height:1.25;font-family:'EB Garamond SC';-inkscape-font-specification:'EB Garamond SC';letter-spacing:0px;word-spacing:0px;fill:#000000;fill-opacity:1;stroke:none;stroke-width:0.0617374"
             x="444.04431"
             y="159.01907"
             id="text8245-3"><tspan
               sodipodi:role="line"
               id="tspan8243-6"
               x="444.04431"
               y="159.01907"
               style="fill:#000000;stroke-width:0.0617374">Seattle</tspan></text>
          <text
             xml:space="preserve"
             style="font-style:normal;font-variant:normal;font-weight:normal;font-stretch:normal;font-size:2.46949px;line-height:1.25;font-family:'EB Garamond SC';-inkscape-font-specification:'EB Garamond SC';letter-spacing:0px;word-spacing:0px;fill:#000000;fill-opacity:1;stroke:none;stroke-width:0.0617374"
             x="441.12027"
             y="183.29288"
             id="text8245-3-7"><tspan
               sodipodi:role="line"
               id="tspan8243-6-5"
               x="441.12027"
               y="183.29288"
               style="fill:#000000;stroke-width:0.0617374">San Francisco</tspan></text>
        </g>
      </g>
      <text
         xml:space="preserve"
         style="font-style:normal;font-variant:normal;font-weight:normal;font-stretch:normal;font-size:14.5916px;line-height:1.25;font-family:'EB Garamond SC';-inkscape-font-specification:'EB Garamond SC';letter-spacing:0px;word-spacing:0px;fill:#000000;fill-opacity:1;stroke:none;stroke-width:0.364791"
         x="448.49948"
         y="149.13004"
         id="text18753"><tspan
           sodipodi:role="line"
           id="tspan18751"
           x="448.49948"
           y="149.13004"
           style="stroke-width:0.364791">INDIANA</tspan></text>
      <text
         xml:space="preserve"
         style="font-style:normal;font-variant:normal;font-weight:normal;font-stretch:normal;font-size:6.7777px;line-height:1.25;font-family:'EB Garamond SC';-inkscape-font-specification:'EB Garamond SC';letter-spacing:0px;word-spacing:0px;fill:#000000;fill-opacity:1;stroke:none;stroke-width:0.169443"
         x="443.17328"
         y="233.25294"
         id="text18753-0"><tspan
           sodipodi:role="line"
           id="tspan18751-6"
           x="443.17328"
           y="233.25294"
           style="stroke-width:0.169443">Crossroads of Amercia</tspan></text>
    </g>
  </g>
</svg>
