<?xml version="1.0" encoding="UTF-8" standalone="no"?>
<!-- Created with Inkscape (http://www.inkscape.org/) -->

<svg
   version="1.0"
   width="4395.958"
   height="2762.5044"
   id="svg2"
   sodipodi:docname="KS.svg"
   inkscape:version="1.1 (ce6663b3b7, 2021-05-25)"
   inkscape:export-filename="/home/kavi/Dropbox/maps-flags/50-state-awful-flag/KS.png"
   inkscape:export-xdpi="89.449272"
   inkscape:export-ydpi="89.449272"
   xmlns:inkscape="http://www.inkscape.org/namespaces/inkscape"
   xmlns:sodipodi="http://sodipodi.sourceforge.net/DTD/sodipodi-0.dtd"
   xmlns:xlink="http://www.w3.org/1999/xlink"
   xmlns="http://www.w3.org/2000/svg"
   xmlns:svg="http://www.w3.org/2000/svg"
   xmlns:rdf="http://www.w3.org/1999/02/22-rdf-syntax-ns#"
   xmlns:cc="http://creativecommons.org/ns#"
   xmlns:dc="http://purl.org/dc/elements/1.1/">
  <sodipodi:namedview
     id="namedview611"
     pagecolor="#ffffff"
     bordercolor="#666666"
     borderopacity="1.0"
     inkscape:pageshadow="2"
     inkscape:pageopacity="0.0"
     inkscape:pagecheckerboard="0"
     showgrid="false"
     inkscape:zoom="0.12555556"
     inkscape:cx="3213.7168"
     inkscape:cy="1369.9115"
     inkscape:window-width="1884"
     inkscape:window-height="1037"
     inkscape:window-x="1956"
     inkscape:window-y="1086"
     inkscape:window-maximized="0"
     inkscape:current-layer="svg2" />
  <metadata
     id="metadata865">
    <rdf:RDF>
      <cc:Work
         rdf:about="">
        <dc:format>image/svg+xml</dc:format>
        <dc:type
           rdf:resource="http://purl.org/dc/dcmitype/StillImage" />
      </cc:Work>
    </rdf:RDF>
  </metadata>
  <defs
     id="defs4">
    <linearGradient
       id="linearGradient2772">
      <stop
         id="stop2774"
         style="stop-color:#38b610;stop-opacity:1"
         offset="0" />
      <stop
         id="stop2777"
         style="stop-color:#f0b610;stop-opacity:1"
         offset="1" />
    </linearGradient>
    <linearGradient
       id="linearGradient2774">
      <stop
         id="stop2776"
         style="stop-color:#86e2ff;stop-opacity:1"
         offset="0" />
      <stop
         id="stop2782"
         style="stop-color:#003f99;stop-opacity:1"
         offset="1" />
    </linearGradient>
    <linearGradient
       id="linearGradient2764">
      <stop
         id="stop2766"
         style="stop-color:#29b910;stop-opacity:1"
         offset="0" />
      <stop
         id="stop2768"
         style="stop-color:#c2d110;stop-opacity:1"
         offset="1" />
    </linearGradient>
    <linearGradient
       id="linearGradient2756">
      <stop
         id="stop2758"
         style="stop-color:#541e30;stop-opacity:1"
         offset="0" />
      <stop
         id="stop2760"
         style="stop-color:#7c4790;stop-opacity:1"
         offset="1" />
    </linearGradient>
    <linearGradient
       id="linearGradient2724">
      <stop
         id="stop2726"
         style="stop-color:#ff8c00;stop-opacity:1"
         offset="0" />
      <stop
         id="stop2778"
         style="stop-color:#b6ae7f;stop-opacity:1"
         offset="0.35835636" />
      <stop
         id="stop5155"
         style="stop-color:#6ed0ff;stop-opacity:1"
         offset="0.65541363" />
      <stop
         id="stop2738"
         style="stop-color:#6ed0ff;stop-opacity:1"
         offset="1" />
    </linearGradient>
    <marker
       markerUnits="strokeWidth"
       refX="0"
       refY="5"
       markerWidth="4"
       markerHeight="3"
       orient="auto"
       viewBox="0 0 10 10"
       id="ArrowEnd">
      <path
         d="M 0,0 10,5 0,10 Z"
         id="path7" />
    </marker>
    <marker
       markerUnits="strokeWidth"
       refX="10"
       refY="5"
       markerWidth="4"
       markerHeight="3"
       orient="auto"
       viewBox="0 0 10 10"
       id="ArrowStart">
      <path
         d="M 10,0 0,5 10,10 Z"
         id="path10" />
    </marker>
    <marker
       markerUnits="strokeWidth"
       refX="10"
       refY="5"
       markerWidth="4"
       markerHeight="3"
       orient="auto"
       viewBox="0 0 10 10"
       id="marker3483">
      <path
         d="M 10,0 0,5 10,10 Z"
         id="path6" />
    </marker>
    <marker
       markerUnits="strokeWidth"
       refX="0"
       refY="5"
       markerWidth="4"
       markerHeight="3"
       orient="auto"
       viewBox="0 0 10 10"
       id="marker3480">
      <path
         d="M 0,0 10,5 0,10 Z"
         id="path4" />
    </marker>
    <linearGradient
       x1="362.29211"
       y1="167.19888"
       x2="362.29211"
       y2="191.9425"
       id="linearGradient2762"
       xlink:href="#linearGradient2756"
       gradientUnits="userSpaceOnUse" />
    <linearGradient
       x1="371.13834"
       y1="243.50557"
       x2="371.45615"
       y2="203.41556"
       id="linearGradient2770"
       xlink:href="#linearGradient2764"
       gradientUnits="userSpaceOnUse" />
    <linearGradient
       x1="420.27228"
       y1="200.4827"
       x2="420.37299"
       y2="220.63663"
       id="linearGradient2780"
       xlink:href="#linearGradient2774"
       gradientUnits="userSpaceOnUse" />
    <linearGradient
       x1="485.33765"
       y1="81.770866"
       x2="485.42194"
       y2="38.936676"
       id="linearGradient3097"
       xlink:href="#linearGradient2724"
       gradientUnits="userSpaceOnUse" />
    <linearGradient
       x1="371.13834"
       y1="243.50557"
       x2="371.45615"
       y2="203.41556"
       id="linearGradient3099"
       xlink:href="#linearGradient2764"
       gradientUnits="userSpaceOnUse" />
    <linearGradient
       x1="362.29211"
       y1="167.19888"
       x2="362.29211"
       y2="191.9425"
       id="linearGradient3101"
       xlink:href="#linearGradient2756"
       gradientUnits="userSpaceOnUse" />
    <linearGradient
       x1="336.60245"
       y1="293.40164"
       x2="393.70938"
       y2="279.00598"
       id="linearGradient3103"
       xlink:href="#linearGradient2772"
       gradientUnits="userSpaceOnUse" />
    <linearGradient
       x1="420.0687"
       y1="202.31497"
       x2="420.1694"
       y2="213.51114"
       id="linearGradient3105"
       xlink:href="#linearGradient2774"
       gradientUnits="userSpaceOnUse" />
    <linearGradient
       x1="420.0687"
       y1="202.31497"
       x2="420.1694"
       y2="213.51114"
       id="linearGradient3439"
       xlink:href="#linearGradient2774"
       gradientUnits="userSpaceOnUse"
       gradientTransform="matrix(1.040799,0,0,1.040799,45.98131,-61.8022)" />
    <linearGradient
       x1="336.60245"
       y1="293.40164"
       x2="393.70938"
       y2="279.00598"
       id="linearGradient3560"
       xlink:href="#linearGradient2772"
       gradientUnits="userSpaceOnUse"
       gradientTransform="matrix(1.040799,0,0,1.040799,45.98131,-61.8022)" />
    <linearGradient
       x1="362.29211"
       y1="167.19888"
       x2="362.29211"
       y2="191.9425"
       id="linearGradient3643"
       xlink:href="#linearGradient2756"
       gradientUnits="userSpaceOnUse"
       gradientTransform="matrix(1.040799,0,0,1.040799,45.98131,-61.8022)" />
    <linearGradient
       x1="371.13834"
       y1="243.50557"
       x2="371.45615"
       y2="203.41556"
       id="linearGradient3647"
       xlink:href="#linearGradient2764"
       gradientUnits="userSpaceOnUse"
       gradientTransform="matrix(1.040799,0,0,1.040799,45.98131,-61.8022)" />
    <linearGradient
       x1="485.33765"
       y1="81.770866"
       x2="487.16672"
       y2="30.319096"
       id="linearGradient9546"
       xlink:href="#linearGradient2724"
       gradientUnits="userSpaceOnUse" />
    <linearGradient
       x1="371.13834"
       y1="243.50557"
       x2="371.45615"
       y2="203.41556"
       id="linearGradient9548"
       xlink:href="#linearGradient2764"
       gradientUnits="userSpaceOnUse"
       gradientTransform="matrix(7.4937528,0,0,7.4937528,-41.945418,-0.1681209)" />
    <linearGradient
       x1="362.29211"
       y1="167.19888"
       x2="362.29211"
       y2="191.9425"
       id="linearGradient9550"
       xlink:href="#linearGradient2756"
       gradientUnits="userSpaceOnUse"
       gradientTransform="matrix(7.4937528,0,0,7.4937528,-41.945418,-0.1681209)" />
    <linearGradient
       x1="336.60245"
       y1="293.40164"
       x2="393.70938"
       y2="279.00598"
       id="linearGradient9552"
       xlink:href="#linearGradient2772"
       gradientUnits="userSpaceOnUse"
       gradientTransform="matrix(7.4937528,0,0,7.4937528,-41.945418,-0.1681209)" />
    <linearGradient
       x1="420.0687"
       y1="202.31497"
       x2="420.1694"
       y2="213.51114"
       id="linearGradient9554"
       xlink:href="#linearGradient2774"
       gradientUnits="userSpaceOnUse"
       gradientTransform="matrix(7.4937528,0,0,7.4937528,-41.945418,-0.1681209)" />
    <linearGradient
       x1="420.0687"
       y1="202.31497"
       x2="420.1694"
       y2="213.51114"
       id="linearGradient10284"
       xlink:href="#linearGradient2774"
       gradientUnits="userSpaceOnUse"
       gradientTransform="matrix(6.9830469,0,0,6.9830469,170.11489,121.02061)" />
    <linearGradient
       x1="336.60245"
       y1="293.40164"
       x2="393.70938"
       y2="279.00598"
       id="linearGradient10370"
       xlink:href="#linearGradient2772"
       gradientUnits="userSpaceOnUse"
       gradientTransform="matrix(6.9830469,0,0,6.9830469,170.11489,121.02061)" />
    <linearGradient
       x1="362.29211"
       y1="167.19888"
       x2="362.29211"
       y2="191.9425"
       id="linearGradient10453"
       xlink:href="#linearGradient2756"
       gradientUnits="userSpaceOnUse"
       gradientTransform="matrix(6.9830469,0,0,6.9830469,170.11489,121.02061)" />
    <linearGradient
       x1="371.13834"
       y1="243.50557"
       x2="371.45615"
       y2="203.41556"
       id="linearGradient10457"
       xlink:href="#linearGradient2764"
       gradientUnits="userSpaceOnUse"
       gradientTransform="matrix(6.9830469,0,0,6.9830469,170.11489,121.02061)" />
    <clipPath
       clipPathUnits="userSpaceOnUse"
       id="clipPath10002">
      <rect
         style="fill:#000000;fill-opacity:1;stroke-width:1.50028"
         id="rect10004"
         width="1319.0325"
         height="828.90533"
         x="2039.8915"
         y="1079.5413" />
    </clipPath>
  </defs>
  <g
     id="g10638"
     transform="translate(-324.9507,-665.85944)">
    <rect
       style="fill:#000000;fill-opacity:1;stroke-width:5"
       id="rect6365"
       width="4395.958"
       height="2762.5044"
       x="324.95084"
       y="665.85944" />
    <g
       id="g2195"
       transform="matrix(3.3327141,0,0,3.3327141,-6473.4244,-2931.9428)"
       clip-path="url(#clipPath10002)">
      <path
         d="M 396.45673,92.77647 V 34.766756 h 95.01141 95.01141 v 58.009717 l -95.01141,10e-7 z"
         transform="matrix(6.9830469,0,0,6.9830469,-728.58442,836.76333)"
         id="path2714"
         style="fill:url(#linearGradient9546);fill-opacity:1;fill-rule:nonzero;stroke:none"
         sodipodi:nodetypes="ccccccc" />
      <path
         d="m 2894.2532,1563.7896 c 6.4524,3.7708 12.3181,9.1757 16.4242,14.9157 10.265,-3.8546 22.8764,-0.9218 35.8229,-1.3826 35.9069,1.7179 71.1854,-1.7597 100.3466,-19.6504 l -1.8017,-1.7178 c -9.4272,2.1369 -22.4575,12.1086 -31.1304,-1.0055 -2.5141,-9.0082 0.5446,-20.2788 -4.0642,-27.9042 l -1.0894,-29.706 c -3.9803,-2.053 -7.8349,-1.4664 -12.5276,0 l 0.2932,31.0466 c -6.0333,0.7123 -17.6391,2.8492 -24.5523,2.2626 -2.0949,-9.469 2.5976,-22.5832 -2.9329,-32.3036 -1.2988,-0.4187 -3.0167,0.084 -3.8128,1.4664 l 0.084,3.0167 -3.1004,-2.9329 -1.6341,1.8017 c 1.4664,17.5973 -3.4357,35.9906 3.6452,52.5404 -8.9244,2.9329 -18.8543,4.1479 -26.8569,8.7568 -6.0752,-0.1678 -9.7622,-6.578 -15.7955,-6.3266 -9.4691,0.7541 -19.4409,-0.9637 -26.1027,5.74 l -1.1731,1.3827"
         id="path296"
         style="fill:#ffffff;stroke:none" />
      <path
         d="m 2513.9425,1800.85 c -5.6144,-9.3014 13.156,-20.5301 3.4776,-31.0047 l -0.084,-2.1369 c 4.6925,-0.1255 8.631,1.0057 9.9717,1.8017 -0.4609,0 -1.6759,0.084 -2.2206,-0.796 -3.2261,4.9021 2.8492,6.8712 4.3156,11.522 -3.6452,5.9914 -9.4691,12.7789 -10.8936,19.734 l -4.5669,0.8799"
         id="path302"
         style="fill:#d15b25;stroke:none" />
      <path
         d="m 2663.6032,1743.2398 c 13.0723,-4.5669 25.0551,-14.2035 38.0856,-12.1924 8.5472,9.2596 24.0495,7.7932 30.5857,20.9492 3.0167,-0.1255 6.0333,-0.6286 8.1282,-2.0111 -2.053,-8.5891 -3.729,-18.9381 -2.3044,-27.1082 3.31,-15.7119 19.4408,-23.6306 31.3399,-26.6892 5.5306,-3.1842 14.7483,0.7542 19.6084,4.4413 l 0.838,-0.9218 c 6.0333,-0.1678 11.7734,3.0585 14.5387,7.2903 6.997,2.3044 14.6225,-1.3827 20.6559,-2.1369 3.8965,1.257 9.0499,0.1677 10.9354,4.4413 -0.04,-1.7179 1.6341,-2.7235 -0.1255,-3.9385 0.2516,-5.1535 5.0278,-3.6032 6.3266,-4.106 2.2205,2.053 3.8127,-2.2625 5.9914,-1.0475 5.5725,-0.6703 6.578,2.8072 10.5166,3.5195 l 0.2931,-2.6815 c 2.5558,-0.5025 3.4776,1.2151 3.5195,2.5139 2.9747,-1.8854 7.6674,-3.7708 12.9046,-2.2206 2.5559,-0.084 4.2737,-0.1255 6.9971,2.3043 4.3575,13.659 6.5361,25.3066 6.2428,40.8509 -5.1954,11.8572 5.8239,28.2395 -1.5084,41.0604 28.9099,-1.0475 53.5042,-1.5503 82.4977,-0.5026 l 3.1006,2.9748 c -1.676,-0.4193 -2.3883,4.8183 -5.5725,0.9637 l 0.9218,0.9217 c -31.0466,1.5503 -66.5763,-2.3044 -100.095,1.9692 -33.8538,-4.3574 -68.1266,3.3519 -101.0168,1.5503 -14.413,7.416 -31.5912,-2.3044 -46.5489,1.7178 -34.9013,2.1369 -72.945,2.2625 -106.6311,13.9102 l -0.8381,0.88 c -12.4018,2.6395 -23.924,6.4941 -36.4515,6.4941 -8.0025,5.0697 -16.843,-0.2516 -23.1278,4.8183 -20.6978,0.3355 -42.0658,6.62 -64.9423,6.201 -1.2989,0.084 -5.6982,-1.9693 -6.9132,0.2516 -0.4194,0 -0.8799,-0.4187 -0.9217,-1.215 -32.5551,7.2902 -67.3725,-0.084 -102.9023,8.5052 -1.7177,0.084 -4.4413,-3.1842 -5.6144,0.2516 -1.215,0.461 -2.1368,-0.8379 -3.0585,-1.5502 -19.3571,2.7653 -31.3399,4.1479 -48.2668,3.4357 -45.5435,4.7345 -89.9557,7.2065 -136.6304,7.2065 -6.9132,-1.0056 -14.1197,2.6815 -19.776,0.7122 0.6287,-5.1534 5.4888,-1.8853 8.8825,-4.1478 -2.6815,-2.9748 -1.1732,-8.2122 -5.1116,-9.7624 -0.4609,0.6651 -1.0968,1.2544 -1.865,1.7817 -0.7682,0.5273 -1.6686,0.9926 -2.6585,1.4096 -0.99,0.417 -2.0694,0.7858 -3.1955,1.1202 -1.1262,0.3344 -2.299,0.6343 -3.4758,0.9137 -1.1767,0.2793 -2.3574,0.538 -3.4993,0.7899 -1.1418,0.2519 -2.2448,0.497 -3.2662,0.749 -1.0213,0.2521 -1.9611,0.5111 -2.7764,0.7909 -0.1019,0.035 -0.2019,0.07 -0.2998,0.106 -0.098,0.036 -0.1939,0.072 -0.2877,0.108 -0.094,0.036 -0.17,-1.0087 -0.2595,-0.9715 -0.09,0.037 0.019,-0.1902 -0.066,-0.1522 -31.6078,10.1434 -104.3143,69.8552 -104.3143,69.8552 l 1166.7787,0.8029 h 149.9531 v -182.8921 c 0,0 -77.8646,-5.8397 -90.0151,-6.6358 l 5.1983,6.8871 -4.7533,3.3331 -6.7744,-9.193 -1.2572,68.8808 c 0,0 -104.4942,-5.2374 -110.9466,-5.2374 h -124.1027 l 3.1005,3.9385 -30.2506,0.2516 20.6977,-5.2373 c 0,0 2.6566,-45.2199 2.6487,-60.4933 -1.9585,0.538 -5.3828,6.1633 -6.4507,5.4806 -1.0682,-0.6826 -0.4906,-4.1193 -2.9756,-3.2243 8.7174,-8.1937 8.9491,-10.0788 10.5485,-10.4343 l 45.5853,-51.7862 c 0,0 -33.1834,-4.6507 -51.5348,-5.8239 -18.3515,-1.0475 -105.7513,-15.6281 -105.7513,-15.6281 -18.8543,-2.6814 -66.5764,-17.3459 -85.2211,-21.5777 -18.6447,-4.1897 -187.7462,-67.4561 -194.7432,-70.1376 -7.039,-2.7234 -24.8458,-4.8183 -30.7533,-6.9552 -5.9496,-2.1368 -111.4076,-0.2516 -111.4076,-0.2516 0,0 -3.4355,-0.3348 -8.4214,-0.8379 l -42.485,-3.2681 c -6.4104,-0.2516 -14.5386,-0.7961 -17.262,-1.3826 -4.0642,-0.7542 -18.0583,-5.9077 -20.2369,-6.7038 -2.1369,-0.8379 -9.4271,-1.0474 -9.4271,-1.0474 l -51.1158,-8.2959 -10.6841,-0.6286 c -6.7877,-0.2516 -13.7428,-0.3354 -21.0749,0.4609 -19.4408,-1.3827 -31.9266,12.0249 -49.3561,8.7568 -30.7954,-4.4831 -55.0126,-27.7367 -90.1233,-20.3626 -20.4883,-6.1591 -41.3955,1.4665 -62.2189,-1.1313 -19.4828,-1.0893 -65.1678,-6.1114 -65.1678,-6.1114 v 75.0616 331.4235 c 0,0 104.3201,-68.4205 104.3143,-69.8552 -0.01,-1.4347 -0.033,-3.226 -0.087,-5.2543 -0.054,-2.0284 -0.134,-4.2939 -0.2463,-6.6771 -0.1123,-2.3832 -0.2565,-4.8842 -0.4381,-7.3836 -0.1816,-2.4993 -0.4005,-4.997 -0.6621,-7.3737 -0.2615,-2.3767 -0.5658,-4.6323 -0.918,-6.6476 -0.3522,-2.0153 -0.7525,-3.7901 -1.2061,-5.2052 -0.4535,-1.415 -0.9605,-2.4703 -1.5261,-3.0464 -5.9076,-20.9491 15.9214,-1.8854 23.8401,-9.5528 -1.8015,-1.6341 -2.3044,-3.7709 -1.0893,-5.9915 3.0586,12.4438 16.047,1.1313 24.3848,5.1535 14.3292,2.472 22.2899,-4.2317 35.7811,-1.2988 8.8826,6.1171 13.1141,15.8794 19.5246,24.7199 5.2792,2.8491 5.4469,-4.106 8.3378,-7.2065 0.7123,-4.3574 -2.3882,-6.7875 -3.8127,-9.7623 -2.7235,-3.8126 -1.634,-9.469 1.257,-12.5694 7.4159,1.8854 16.4659,1.0474 22.583,3.0167 5.9496,-1.9693 18.6029,1.8854 19.9436,-8.5054 0.4609,0.7961 1.7597,1.215 1.8017,2.1368 13.7426,-2.7234 21.0748,-2.9748 35.3621,-1.7597 7.1646,7.0388 17.1365,8.4634 24.72,14.9996 2.6815,13.3236 14.2874,-0.084 22.5832,2.6814 -4.0222,-15.0414 -9.6367,-26.3959 -11.522,-42.3591 2.6815,-32.513 34.6079,-10.726 51.5767,-18.3514 6.6618,4.6087 15.5861,0.7541 22.4575,-0.7962 22.1223,3.1006 39.6777,-13.1141 61.2134,-3.1423 6.159,4.106 12.4858,11.2287 11.522,19.9017 1.0894,6.3685 -8.0862,15.3766 -0.2094,17.6811 0.084,2.5976 -4.1899,3.1842 -2.7654,6.6199 -6.7455,4.567 -10.6421,15.8794 -15.9631,23.882 -0.5864,8.2121 5.4048,17.9325 -0.7962,25.4742 17.2202,-1.0056 32.8064,0.084 48.6858,-3.5195 2.5559,-0.084 4.1899,-2.7233 2.4302,-4.3574 -0.8379,0.4186 -1.676,2.2206 -2.9748,2.2206 -0.4193,-0.4187 -1.2989,-0.7961 -0.9218,-1.7178 -1.7597,-1.1313 -0.5447,-3.8546 1.1313,-4.3156 0.4609,0.3771 1.3408,0.3771 0.9217,1.2989 l 0.838,-0.9218 1.8017,1.634 c -1.8017,-1.634 0.2093,-5.5305 -2.8072,-5.8657 -1.2151,3.0167 -5.1116,2.2625 -6.7457,4.4831 -7.7931,0.3354 -9.8879,2.1369 -15.6699,-3.268 l -9.3014,-3.1843 c -0.7542,-0.6702 -1.4665,-1.3826 -1.676,-2.4721 -2.8071,-6.3685 2.9748,-11.2706 6.2429,-16.5916 l -0.8799,-0.838 c 9.7204,-5.9495 -2.5977,-12.9047 -1.5502,-19.3989 1.215,-1.2988 2.891,-2.2625 3.8127,-1.3827 8.9662,-2.5138 17.5135,6.2429 26.0189,2.891 l 1.3406,1.2151 c 5.0698,-2.8072 9.4272,-1.2151 14.9997,-2.7234 2.1787,-0.084 4.1898,-3.1842 5.9495,-2.3463 7.5417,-7.2065 11.522,-3.8546 19.2313,-6.3266 10.4747,3.5194 22.3319,8.5891 28.7422,18.3514 1.8017,1.634 2.0112,8.1701 6.201,4.5669 -9.5109,-12.6113 10.7678,-24.6362 -1.2989,-35.823 5.782,-6.7037 13.4494,1.6341 19.4409,0.9636 3.8965,0.3355 7.7093,-1.9692 11.6896,0.9218 l 15.8375,-1.5084"
         id="path304"
         style="fill:url(#linearGradient10457);fill-opacity:1;stroke:none"
         sodipodi:nodetypes="cccccccccccccccccccccccccccccccccccccccccccssssssssssccccccccccscccccscccccccccccccccccccccccssssssscccccccccccccccccccccccccccccccccccccccccccccccccccc" />
      <path
         d="m 2665.4048,1754.4686 c 13.617,-6.1171 27.192,-12.2763 42.1915,-15.8794 -11.1868,-10.307 -22.4155,1.2988 -31.8427,3.7708 -6.3685,2.8491 -11.9409,3.9384 -18.3513,5.9076 0,0 3.1004,1.6341 8.0025,6.201"
         id="path306"
         style="fill:#d15b25;stroke:none" />
      <path
         d="m 2465.9729,1538.4408 29.0316,-0.084 461.5934,-1.4665 c -0.4194,-12.1086 0.8798,-25.1389 -0.4194,-36.7447 0.4194,0.377 0.8379,-0.5026 1.257,-1.0057 0.2094,-4.7344 -5.4049,-4.9021 -8.8824,-6.5361 -0.461,0 -1.7178,0.5026 -2.2207,-0.838 -1.2569,1.0056 -0.3354,2.6397 -0.7122,4.0222 -4.3155,-11.522 -19.0638,-2.3463 -26.5636,-5.9494 -11.9828,-8.5892 -24.678,-1.6341 -36.9542,-6.4105 -3.5614,-2.9329 -7.7511,-0.1677 -12.1506,-1.7179 -18.3933,-18.3095 -38.6301,4.9022 -57.9033,-2.5977 -9.888,1.6341 -19.4409,-11.3962 -31.298,-4.8182 -8.5473,2.4301 -18.3515,5.7819 -27.1083,2.2625 -1.8435,-2.933 -1.9273,-5.1535 -1.634,-8.5891 0.8799,0.4186 0.8799,-0.084 1.2989,-0.5026 l -0.1256,-2.5139 c 14.2455,-1.0056 30.8791,-6.7875 46.5491,-3.0167 5.4886,-1.9692 15.9213,-1.8854 23.2954,-0.9218 19.9016,2.3044 44.2027,-5.8657 64.9842,6.7039 15.1253,0.2516 26.6474,-3.6033 40.2224,1.4664 1.9692,-5.6145 7.7092,-1.5503 11.0611,-4.2318 15.0415,-2.3044 29.9573,-7.6255 42.7363,-0.7541 6.7456,6.7037 21.9547,-2.0531 26.7312,10.7259 4.6087,7.5417 -5.0279,15.7118 2.9747,21.871 3.1006,13.7426 1.8853,27.569 6.2428,39.929 103.6983,1.8016 204.9245,7.1226 311.0949,4.902 3.6871,-0.1677 25.6908,0.9189 29.6711,1.5893 0,0 0.6421,-9.9887 1.374,-22.9169 0.733,-12.9532 0.3131,-23.6263 0.3131,-23.6263 -25.097,-1.1313 -60.4358,-5.3658 -83.6056,-1.9302 l -1.8017,-1.6341 c 1.5921,-3.9384 5.1117,-2.3881 7.6673,-2.472 -0.3354,2.6397 -0.4185,-0.4193 0.9217,1.2989 1.7598,0.3355 0.7962,-1.8016 2.5141,-2.2625 24.5944,-0.9218 51.5652,1.176 74.1063,3.8155 0.5448,-43.616 6.1994,-63.4021 -4.3591,-103.2055 -1.7179,-3.9803 -64.7963,-19.1037 -90.5165,-29.1142 -9.3754,4.2841 -95.9638,54.0796 -120.7405,62.2399 -16.6777,5.4929 50.3145,-20.4728 41.9436,-21.6422 -16.0817,-9.8671 -10.5426,-10.1773 -36.8546,-3.3479 -42.1079,5.8239 -82.4138,24.6361 -125.0663,27.9042 -1.3408,-0.7541 -9.5094,5.6538 -6.7026,0.962 14.6223,-1.4246 39.8435,-6.8705 54.6322,-11.1023 -27.9462,-8.8405 -66.9933,-14.9986 -95.0234,-26.4369 -38.9655,-14.1616 -76.7607,-39.4658 -118.5721,-61.381 -34.1873,-6.0358 -46.5919,-11.3164 -92.8018,-36.9916 -33.9795,3.8127 -59.5823,24.1288 -92.0535,33.556 -28.1975,8.8405 -49.2724,34.6079 -77.428,43.4485 -29.0355,8.8405 -58.0286,21.8706 -87.0641,29.915 11.8572,5.6562 25.0548,8.8406 37.331,13.0724 27.0245,6.7875 61.7578,3.7285 85.5142,3.7285 52.2053,-0.6703 99.8435,0.5032 148.4456,17.6817 10.0556,3.5194 21.2843,4.0223 30.5439,9.2595 0.5024,1.2151 -7.1625,-1.4652 -8.4194,-0.083 -20.9492,-5.7401 -32.3901,-9.7209 -53.3393,-15.4609 -34.5661,-11.6895 -82.2039,-10.2653 -120.7084,-10.0978 l -9.8438,1.215 c -24.5943,0.9218 -36.1191,-3.8958 -59.4146,-3.0159 -38.7559,-9.3015 -77.6788,-28.6177 -120.7921,-26.481 -6.9971,-2.8071 -18.142,0.1678 -26.815,-1.215 -23.2116,2.5977 -49.2305,0.084 -71.6042,-9.8461 -0.9217,-0.8799 -3.9803,-1.5502 -3.8546,1.0056 l -1.8436,-2.5558 c -12.276,-4.7346 -78.1529,-24.4339 -90.8482,-28.2467 -29.8461,13.0737 -24.1625,12.7024 -59.2732,20.8726 -40.5157,13.6169 -96.9714,21.7872 -136.9005,38.7978 -6.734,36.898 -7.913,52.097 -10.002,91.1318 16.9688,-8.0027 51.2487,3.2231 66.4159,5.6113 39.7195,-1.4665 74.7465,0.2516 112.0779,5.4049 23.7563,12.0248 52.3728,26.4797 78.0565,9.5528 11.941,-0.7123 24.0915,-3.1843 35.5297,-1.7178 l 36.3596,5.3615 c 0,0 23.8064,4.6103 23.8064,4.6103 1.8016,0.1677 4.2735,0.4187 6.7455,0.9217 4.8184,0.7123 24.5106,6.9552 27.6948,7.7512 3.1843,0.838 15.4605,0 15.4605,0"
         id="path308"
         style="fill:url(#linearGradient10453);fill-opacity:1;stroke:#000000;stroke-width:5.58644;stroke-miterlimit:4;stroke-dasharray:none;stroke-opacity:1" />
      <path
         d="m 2888.178,1472.4095 c 17.681,-0.6703 34.8175,-4.7765 50.7807,5.8657 1.7597,1.2568 -0.7122,4.7763 2.3044,4.6926 4.2736,-1.8854 -1.4665,-4.2737 1.5083,-6.578 6.9133,1.8854 15.67,4.1897 20.6977,10.8935 -0.04,-0.796 -1.0054,-3.4357 -1.0474,-5.1535 2.9748,0.7541 3.6032,4.1898 4.106,6.7875 l -1.6341,1.8016 c 0.3772,-0.8799 -0.5024,-1.2988 -0.9216,-1.7178 0.1255,3.4357 -3.31,4.4412 -5.9496,3.1842 -1.2988,-0.3354 -3.1005,-1.9691 -4.9021,-3.6869 l -0.796,1.0055 c -0.084,-1.2989 -5.3211,-3.7709 -7.7931,-0.6703 1.634,-2.2205 -2.6815,-2.053 -4.0223,-4.5669 -16.9268,10.1394 -30.6276,-10.0556 -48.9371,-3.3518 -9.6785,-4.3574 -22.0805,-1.8016 -30.5858,-9.6786 -8.7149,-1.3826 -20.3207,-0.084 -28.8261,3.1844 -11.7314,-1.2151 -26.2702,2.3043 -37.3732,-6.3686 -9.05,0.3355 -18.0581,1.9692 -26.1864,4.0223 -1.5502,4.8183 -6.4943,0.2516 -8.5891,2.0529 -1.7598,-1.2569 -6.0334,-0.1677 -5.7401,-3.687 15.8376,-3.6032 28.3232,-5.3211 46.4233,-5.5725 2.5558,-1.0055 5.2373,1.0475 8.6729,0.5026 26.9406,5.4467 55.8923,-7.2065 78.8107,7.0389"
         id="path312"
         style="fill:#969696;fill-opacity:1;stroke:#969696;stroke-width:6.70931;stroke-opacity:1" />
      <path
         d="m 3000.0045,1471.2363 c 3.5194,1.634 5.3629,4.9858 5.9494,8.4214 -2.6395,-0.2931 -4.3154,1.0056 -4.6506,3.2262 7.4579,3.1843 -4.7764,10.9354 5.1955,11.4383 -3.9804,-1.9692 -6.0753,-0.6703 -9.5947,-1.8016 3.687,-5.3211 -3.8129,-9.7205 -5.2793,-14.4969 -8.1701,-10.0555 -25.0133,1.4246 -32.5969,-5.2372 -1.2568,0.4187 -0.796,1.7177 -0.7541,2.5558 -10.0975,-3.9385 -17.5973,3.268 -26.5216,-5.4887 16.466,2.472 25.516,-9.9718 41.6469,-5.4049 7.9607,4.525 16.7174,7.6255 26.6054,6.7876"
         id="path316"
         style="fill:#969696;fill-opacity:1;stroke:#969696;stroke-width:6.70931;stroke-opacity:1" />
      <path
         d="m 2992.8399,1487.0319 0.5448,38.0436 -16.7593,3.2262 c -2.0949,-10.307 -1.2989,-24.1754 -5.1116,-33.4767 0.2094,-6.0753 -0.8799,-11.7315 -6.201,-15.3767 5.1117,-1.8854 15.9625,-3.3087 22.792,-5.6968 l 6.2431,10.851"
         id="path318"
         style="fill:#6d3f86;fill-opacity:1;stroke:none" />
      <path
         d="m 2372.2742,1521.0966 c -3.0586,-0.7122 -0.5447,-2.9328 -0.1677,-4.3155 l 0.1677,4.3155"
         id="path322"
         style="fill:#787878;fill-opacity:1;stroke:none" />
      <path
         d="m 3229.2301,1491.7245 c 13.8262,-0.5025 32.9321,2.5977 45.7527,-0.4186 l -2.9747,0.9636 1.8017,1.634 c -15.5024,1.8855 -38.0437,-0.7122 -52.289,-1.0474 l -2.1369,1.3826 c -0.039,-0.8799 -0.039,-1.8016 -0.9217,-2.1368 l -0.7962,0.9217 c -26.1026,6.1172 -61.7998,-1.1731 -94.1034,1.7179 12.8626,-2.6396 28.826,-3.1842 42.6105,-3.268 21.3262,4.8182 43.1133,-2.053 63.057,0.2516"
         id="path328"
         style="fill:#000000;stroke:none" />
      <path
         d="m 3065.2402,1553.0635 c -11.8573,6.8714 -9.4691,24.0916 -21.3683,30.1249 -0.7121,3.5194 -1.5082,5.6563 1.2152,8.5892 -40.1385,1.0894 -77.0091,-2.6814 -115.3461,-0.4187 l -13.8682,-1.2151 c 1.2149,-2.5977 -2.3882,-5.9495 -3.31,-8.0864 l -0.1255,-2.5557 c 38.4626,-0.1678 77.5537,5.74 113.67,-9.3853 14.7062,-0.1677 25.4741,-12.1924 39.1332,-17.0526"
         id="path344"
         style="fill:#ffffff;stroke:none" />
      <path
         d="m 2856.5448,1562.0717 c -3.7709,3.1843 -10.6003,6.0753 -12.9885,10.8097 -11.1449,3.0168 -26.396,-0.6703 -38.0436,-1.1312 -3.729,-6.7038 6.6618,-5.8238 10.5164,-7.2903 15.9633,0.2516 22.3737,-2.5558 40.5157,-2.3044"
         id="path346"
         style="fill:#ffffff;stroke:none" />
      <path
         d="m 2872.0471,1561.527 c 2.3463,5.0697 -0.4609,10.3908 -0.2932,15.5443 l -12.0667,-11.2287 c 3.8127,-1.8855 8.0863,-2.8491 12.36,-4.3156"
         id="path348"
         style="fill:#ffffff;stroke:none" />
      <path
         d="m 2890.8176,1567.309 c -2.8491,3.9384 -10.9774,6.4942 -15.0835,12.1924 l 2.2626,2.053 17.6811,-12.2762 c 4.4412,3.268 10.6421,7.374 12.1086,12.9466 -8.673,-1.8855 -17.7649,-2.3882 -25.8513,1.3827 5.8239,4.9858 12.9466,-1.0057 18.9799,-0.7543 1.3827,2.1369 3.5614,2.891 6.1172,2.3883 l 1.634,-1.8017 c 1.3827,2.1369 2.3045,4.2737 2.4301,6.8714 -18.142,-1.5503 -38.8816,0.084 -54.5935,-4.1061 -4.2317,0.6703 -9.469,-0.4609 -13.7844,-1.1312 0.796,-0.084 0.3348,-1.2989 0.2932,-2.2207 5.9495,-1.9692 14.2454,0.3355 21.2004,1.4246 -0.3355,2.1787 1.8855,3.8127 3.1843,3.7289 4.3575,1.5503 8.5054,-3.7289 11.6897,1.3408 0.8799,-0.084 2.5976,0.2932 2.9747,-1.0056 -1.4664,-4.7344 -9.2176,-4.8183 -6.4523,-11.4382 1.5503,-4.3575 2.2626,-9.1758 1.5922,-14.7482 5.6143,-0.1678 9.6365,2.6396 13.575,5.1535"
         id="path350"
         style="fill:#ffffff;stroke:none" />
      <path
         d="m 2869.7008,1580.1717 c -6.7036,4.986 -14.413,-4.6506 -23.3792,-2.1368 3.31,-4.3992 7.9606,-7.2064 10.3908,-11.1868 l 12.9884,13.3236"
         id="path352"
         style="fill:#ffffff;stroke:none" />
      <path
         d="m 2840.6235,1576.0657 c -1.2151,2.2206 -7.2904,1.5503 -5.8239,6.3266 0.04,0.7961 5.9914,-1.9691 3.9803,2.3463 -16.7593,1.4665 -27.6529,-0.6286 -43.6999,-2.1786 6.4942,0.5447 6.578,-9.8461 13.6169,-6.1591 3.3099,-3.6033 11.6478,-0.4187 17.2621,-0.6703 6.0334,0.2516 8.673,1.8016 14.6645,0.3355"
         id="path356"
         style="fill:#ffffff;stroke:none" />
      <path
         d="m 3319.7723,1557.5048 -0.039,-1.7178 2.1369,-0.084 -2.0949,1.8015"
         id="path358"
         style="fill:#000000;stroke:none" />
      <path
         d="m 3146.8159,1575.5211 c 1.4247,3.4356 -3.8545,0.1255 -4.6926,1.0474 1.6343,-2.7234 3.5196,1.5502 4.6926,-1.0474"
         id="path360"
         style="fill:#000000;stroke:none" />
      <path
         d="m 3297.7336,1592.4479 -7.4158,-2.8071 8.631,0.5025 -1.2152,2.3043"
         id="path366"
         style="fill:#000000;stroke:none" />
      <path
         d="m 3215.4036,1596.3026 c -0.8381,0.084 -1.2988,-0.3355 -1.7598,-0.7542 -1.173,3.0167 -3.0167,0.5025 -3.8965,0.084 l 5.6563,0.6703"
         id="path368"
         style="fill:#000000;stroke:none" />
      <path
         d="m 3218.4622,1597.0148 c 0.3354,-2.1367 -2.1789,-0.3354 -1.8017,-1.634 l 5.6562,0.6703 -3.8545,0.9637"
         id="path370"
         style="fill:#000000;stroke:none" />
      <path
         d="m 3100.4767,1629.0251 1.9692,84.3832 7.9606,11.6058 1.0474,53.169 -58.113,1.1731 1.5505,-52.4567 14.4965,-14.2454 6.8296,-81.7435 10.0136,-10.307 8.3797,-1.3407 5.8239,9.7622"
         id="path374"
         style="fill:#d15b25;stroke:none" />
      <path
         d="m 3150.6707,1702.3471 c -1.3827,-2.8072 -2.7653,-5.4048 -5.4049,-6.2846 -8.0025,-5.7401 -12.2761,-15.5025 -21.0329,-19.4828 -4.5251,-5.9077 -13.2819,-9.0081 -17.8067,-13.994 l 1.5501,-4.8603 c 19.776,-2.0111 39.5939,-4.483 59.7889,-6.9551 11.2705,0.9218 22.0384,0.5026 34.189,2.2207 19.1895,16.9269 31.399,31.2345 50.0685,56.8979 -29.9993,0.6286 -59.3279,0.2094 -87.5255,1.7177 l -13.8265,-9.2595"
         id="path380"
         style="fill:#ff9120;stroke:none" />
      <path
         d="m 3148.8271,1707.752 c -6.075,-5.4886 -10.1392,-16.2146 -18.4353,-16.7174 l 2.0531,-2.2626 c -8.0445,-7.4578 -17.0107,-15.7118 -25.8513,-21.4518 -0.4185,11.2287 -3.7706,47.387 9.4271,53.7555 3.1425,3.7708 -0.2929,17.0944 -0.2929,17.0944 2.1366,-0.084 2.5557,-0.084 4.7762,0.6703 l -5.5305,2.8491 c -1.7178,12.1086 1.7598,24.5524 -0.7961,37.1637 l 39.3425,0.6703 c 3.0587,-18.8542 3.4358,-44.454 3.1425,-65.2357 l -7.8351,-6.6199"
         id="path382"
         style="fill:#d15b25;stroke:none" />
      <path
         d="m 3058.7878,1714.2881 c -4.9439,6.2848 -8.8407,8.5892 -8.5474,16.4661 3.6035,4.1479 -1.2569,13.7426 0.7962,21.4937 -1.7179,0.5026 -4.3574,-0.2516 -5.6143,1.0895 0.9636,2.5139 3.5193,1.1312 5.6981,1.4664 l -0.8381,24.6362 -25.0131,0.9637 1.6759,-60.543 8.3623,-12.0292 c 14.0806,-14.1168 19.3743,-19.646 32.2372,-33.9752 -1.2989,11.3126 1.3826,37.08 -8.7568,40.4318"
         id="path388"
         style="fill:#d15b25;stroke:none" />
      <path
         d="m 2797.971,1706.7465 c 5.0697,8.5053 9.2596,17.3458 11.3544,27.2758 1.3408,0.796 1.8855,3.3518 3.9803,2.43 1.5083,-6.536 -2.2206,-14.1615 -4.6506,-21.0329 0.7961,-2.0949 3.8126,-2.2625 5.9075,-3.1842 0.838,-0.8799 3.0586,-0.1678 3.9804,1.5502 0.3355,-1.7179 3.2681,-4.4831 1.5502,-3.8965 2.5978,-0.084 7.0389,3.1004 8.1702,-1.257 l -0.377,0.9218 c 7.8768,3.1842 12.5694,12.9047 16.6755,19.3151 4.3155,-0.1678 1.5083,-5.7401 2.3463,-7.0389 -3.2261,-4.6926 -9.4271,-9.1758 -6.201,-16.2147 3.8547,1.1313 6.3686,-2.3881 9.469,0.5864 l 1.2151,-1.4246 0.04,0.4194 c 2.2206,1.634 9.0501,-0.3355 11.2706,1.3407 3.8547,-1.0056 9.8462,-2.1368 15.5443,-0.5864 4.8182,13.6588 8.0026,29.5383 2.9329,44.3283 l 2.053,9.0082 -1.7179,0.084 c -0.04,-1.2989 -1.3826,-2.1369 -2.2624,-2.9329 -19.6921,5.0696 -41.9402,11.0611 -64.4815,8.4216 -2.3044,-4.2318 -7.2903,-9.6368 -12.5277,-11.2288 -3.9383,-1.9274 -7.2902,1.1732 -11.1867,1.3407 2.891,-15.251 -1.8016,-37.4989 -16.3822,-46.8842 l -0.7962,0.8799 c -2.7233,-2.9328 -7.4578,-2.7652 -11.7733,-2.5978 0.1677,4.3156 -4.6926,1.0475 -6.7874,3.2682 l -6.7876,3.268 c 7.8768,-8.9243 21.0748,-13.7426 32.8482,-11.1449 5.6982,1.9692 10.5583,4.7764 16.5917,4.986"
         id="path390"
         style="fill:#ffffff;stroke:none" />
      <path
         d="m 2781.6725,1721.1595 c 3.4357,11.1449 6.7038,18.4352 5.0278,30.921 -5.6981,-2.3464 -11.5639,2.6395 -18.0581,2.3881 -5.9915,1.1313 -14.8739,-4.5669 -21.6195,-0.8798 -3.0167,-11.145 -4.106,-28.826 7.2903,-36.1164 -0.9218,-1.215 -3.1005,-2.053 -3.8966,-0.7123 -4.1898,3.6033 -5.782,8.0027 -7.3321,11.941 -2.5139,-10.7259 10.3069,-12.9465 16.1727,-17.4296 8.254,1.3826 19.0217,0.5448 22.4155,9.888"
         id="path394"
         style="fill:#d9d9d9;stroke:none" />
      <path
         d="m 2404.3366,1793.6854 c -0.8798,1.3826 -1.8854,2.6815 -4.2736,3.0167 -1.1313,-7.7931 -9.8042,3.3518 -14.7063,-0.3355 1.9692,5.5725 0.5448,14.2455 2.4721,20.1949 5.1115,-1.9272 15.5023,-2.2625 13.4073,-11.2706 0.5449,-3.6032 4.944,-6.7875 5.782,-9.8041 l -2.6815,-1.8017"
         id="path398"
         style="fill:#30352d;stroke:none" />
      <path
         d="m 2407.6046,1790.3755 c -3.268,-6.7876 -1.0892,-17.6392 -3.1003,-25.8513 -2.8911,-8.0864 -2.4302,-19.3151 -11.6897,-23.2955 -5.6982,-3.2261 -12.5276,-0.3354 -18.0582,1.1313 l -3.7708,4.0222 c -2.2625,-3.7708 3.1424,-8.3796 6.9551,-11.0611 12.4857,-0.5025 25.139,2.5558 37.2057,1.634 l 1.8016,2.5559 c 2.472,-3.1424 6.8714,-1.1732 9.9718,0.4608 2.5977,12.4439 12.5695,24.9715 8.4215,40.6833 0.8799,1.2988 2.6397,1.6341 3.9385,1.6341 3.6451,-6.62 2.3882,-17.0108 0,-23.3375 l -8.5472,-20.8653 c 12.8208,-3.8965 27.0243,-4.4831 40.8508,-4.5669 4.1479,6.7875 -1.5503,16.927 5.5305,20.5302 -0.6702,-6.3686 0.7123,-15.5443 -2.1368,-22.3318 11.5639,-2.2206 27.1082,-3.1004 31.4656,10.4745 -2.053,18.0164 -6.2428,34.9433 -16.3823,49.5238 l -7.4997,-0.5024 c -2.1786,-0.6703 -4.3993,-1.2152 -6.3267,-2.5558 -18.7704,-4.9022 -37.1637,22.5412 -53.4621,3.3099 -3.8547,-0.5025 -9.05,-2.7233 -12.9467,-1.6341 l -2.1786,0.04"
         id="path400"
         style="fill:#ffffff;stroke:none" />
      <path
         d="m 2480.5914,1796.5344 c -4.7763,-0.5863 -9.008,-2.7233 -14.4967,-1.3826 -3.3519,2.1787 -5.363,6.62 -7.4161,10.1394 0.2933,6.8714 0.5026,13.4075 4.1899,18.8124 2.514,-1.2988 4.2737,-0.9637 6.8294,-1.0474 6.8713,-1.5504 14.3711,2.4299 17.5554,-4.6089 0.7542,-2.5139 -1.8854,-4.5669 -1.0893,-6.3686 1.6759,-1.3826 3.1004,2.472 3.4776,0.7542 l -3.1844,-16.2985 h -5.8658"
         id="path402"
         style="fill:#30352d;stroke:none" />
      <path
         d="m 2395.2866,1748.8962 c 4.3155,11.941 6.62,27.0243 4.4831,40.0128 -7.3322,-0.5448 -11.145,2.1367 -17.6391,1.4665 -2.6816,-14.036 -17.0946,-30.3344 -6.3685,-43.3648 5.9494,-2.7653 16.2145,-5.6982 19.5245,1.8855"
         id="path406"
         style="fill:#d9d9d9;stroke:none" />
      <path
         d="m 3243.1402,1716.8439 c 3.8547,-1.4245 9.469,-0.7541 12.9048,-1.3407 2.1366,22.8346 0.4609,47.0517 -1.3408,68.6713 l 1.8015,1.2989 c -11.2286,0.4187 -26.3959,-1.6341 -36.8286,-2.514 0.4188,-12.5276 -1.8014,-25.8512 -2.6395,-37.0799 -4.4413,-2.8491 -8.3377,-2.7234 -12.6113,-2.0531 -5.1536,1.0056 -16.8851,-1.1312 -23.2117,3.3519 0.8378,10.8097 -0.039,22.1223 -0.461,34.2309 -8.17,0.2094 -12.0667,0.7961 -18.6027,-1.0893 0.084,-20.6978 -4.148,-42.6106 -1.5085,-63.3922 31.1723,0.9637 52.2055,-1.5921 82.4978,-0.084"
         id="path408"
         style="fill:#d15b25;stroke:none" />
      <path
         d="m 2637.1654,1749.9017 c -0.838,0.084 -1.257,0.4609 -1.676,0.8799 11.7734,3.4356 -1.2988,11.6896 -1.5083,17.7648 l -4.4832,7.1227 c -2.3043,-3.8547 -5.5724,0.1678 -9.0918,-1.8854 -0.838,-10.2231 7.9607,-18.3934 4.106,-29.0355 4.7345,1.1313 10.7679,0.8799 12.6951,5.1535"
         id="path410"
         style="fill:#d15b25;stroke:none" />
      <path
         d="m 2728.4199,1752.4993 c -1.6759,1.8017 -4.3156,0.1678 -5.5726,1.9693 1.4245,3.4357 4.7765,0.7542 6.201,3.6871 1.2151,9.469 3.8965,24.0496 -2.7234,31.1723 l -5.1954,0.1677 c 1.9273,-6.4523 -7.1646,-8.7568 -6.1172,-13.5751 -2.0948,0.084 -2.2625,-3.3518 -3.1842,-5.4887 1.634,-1.8015 -1.0055,-3.8546 -2.3463,-5.4885 -3.8127,2.6813 -1.7597,10.8097 -4.3155,12.6113 -8.1702,0.3355 -15.7956,4.0641 -23.1697,3.9384 -0.4187,-0.4193 -7.5418,5.363 -6.4943,-1.0893 -4.3575,-0.6287 -5.8239,6.7037 -7.835,10.2232 l 0.084,2.6395 -3.4357,0.084 2.5139,-1.8016 c -4.7344,0.1677 -3.1424,-2.9748 -5.8239,-5.4049 -2.3462,-5.0697 -8.0025,-6.6199 -4.3154,-12.779 -1.299,-0.8798 -1.8436,-3.0166 -3.9804,-2.5139 -0.7542,2.6815 -1.0894,5.6145 -1.8435,7.9188 -6.5361,-1.0474 -7.1227,5.8239 -14.1198,3.9384 -6.5361,-13.1141 15.5862,-22.5831 4.3155,-35.1108 4.1481,-3.6031 9.9718,2.2207 14.7901,3.7709 1.4665,4.2318 7.5418,5.3211 10.6422,7.3742 2.5558,-0.5865 7.3741,1.4664 8.1283,-1.6341 l -1.3408,-1.676 c 10.1813,-4.2317 24.9714,-13.4074 40.5157,-13.9939 5.2792,2.8072 11.0193,6.0752 14.6644,11.061"
         id="path412"
         style="fill:#d15b25;stroke:none" />
      <path
         d="m 2589.2756,1762.4712 c -6.7875,3.6871 -16.1727,6.2429 -23.3373,11.2287 -8.5054,3.3519 -20.2369,1.5503 -26.0188,-2.9329 16.9269,2.3463 32.3036,-13.6588 49.3561,-8.2958"
         id="path416"
         style="fill:#d15b25;stroke:none" />
      <path
         d="m 2741.7435,1763.3092 -2.9328,2.3043 c -2.2207,-1.7177 -2.3464,-5.5724 -3.352,-8.5891 l 5.1535,-1.5083 c 0.5025,2.1367 3.1843,5.1116 1.1313,7.7931"
         id="path418"
         style="fill:#29b110;fill-opacity:1;stroke:none" />
      <path
         d="m 2788.1249,1755.9351 c -5.0697,3.1842 0.084,14.2454 -9.469,12.0247 -8.5892,1.1732 -13.3237,2.2207 -21.1587,-0.084 4.6088,-3.1842 -2.3881,-5.9496 -4.1898,-7.5836 l -4.9021,7.9188 c -2.6814,-3.3519 0.5864,-8.1701 2.5977,-11.6896 11.3545,2.9329 23.882,3.4356 35.7812,-2.2206 l 1.3407,1.634"
         id="path420"
         style="fill:#30352d;stroke:none" />
      <path
         d="m 2591.7895,1799.9701 c -0.9217,-1.3826 -1.9692,-2.6814 -3.4357,-3.7709 -1.3826,-2.9328 -2.0111,-7.6673 1.8018,-9.5527 4.3992,1.9273 -1.1313,4.8183 1.9691,6.7875 2.4301,6.8713 10.2232,7.0389 11.3126,13.9103 1.2569,-1.8017 4.3155,-0.1678 5.5724,-1.9693 l -0.9217,-0.8379 c -0.9637,-2.514 -1.9693,-6.8714 0.5447,-9.0501 2.514,-0.5864 0.9637,2.5139 2.3045,3.8128 -2.4301,-7.7512 4.106,-16.1727 -0.838,-22.9184 -5.5725,-9.7204 -15.0415,-9.3852 -24.8876,-7.2484 -8.9243,4.6507 -18.1838,10.6421 -27.6947,10.9355 -10.726,1.2569 -18.8124,-6.62 -27.4434,-6.7876 10.7679,10.8936 -8.7567,20.237 -5.2791,32.1779 5.6562,1.1312 8.8404,-5.9076 15.4184,-3.6032 2.0531,-2.6396 1.0475,-6.4524 3.5615,-8.7568 7.793,0.5864 -1.0894,6.1172 2.053,9.0082 5.2791,2.4301 2.053,8.5891 2.2624,14.1616 l 8.9663,-2.0531 c 1.5921,-3.0166 2.3463,-6.5361 5.2791,-9.2594 l 1.0475,5.1534 c 6.7457,-3.2681 13.6589,-3.5195 19.5665,-6.7875 l 8.7987,-3.3519"
         id="path424"
         style="fill:#d15b25;stroke:none" />
      <path
         d="m 2583.745,1807.428 c -7.6673,2.053 -16.5078,2.5977 -19.8178,5.2373 0.461,0.3771 1.2988,0.3355 0.8798,1.2151 2.6397,0.7541 4.7346,-1.4664 6.4524,-1.0475 8.631,-0.838 19.776,-2.5558 27.4434,-5.3211 -1.7598,-0.8379 -3.0167,-1.9692 -4.0642,-3.3519 l -10.8936,3.2681"
         id="path426"
         style="fill:#29b110;fill-opacity:1;stroke:none" />
      <path
         d="m 2803.8786,1761.4237 0.04,0.838 c -2.1369,0.9636 -5.6563,-0.6703 -8.673,-1.0056 1.215,-2.1368 7.2065,-3.2681 8.631,0.1678"
         id="path428"
         style="fill:#30352d;stroke:none" />
      <path
         d="m 2334.4084,1784.4259 c -6.9132,0.2516 -14.5387,3.6033 -18.5191,1.5502 -7.7092,1.5502 -20.2787,0.3355 -27.8623,6.2009 -2.1369,0.084 -5.2792,-3.268 -6.9132,-0.1255 l 0.8798,0.377 c -6.7037,3.6871 -13.2817,-9.8879 -21.2424,-3.5194 -1.8435,8.2121 8.7568,15.1672 0.7961,22.4156 -1.7597,-1.2989 -5.363,-4.5669 -8.6729,-2.2626 -1.4665,-3.8546 5.74,-7.6254 2.9328,-12.1923 -1.3826,-3.8547 -4.5669,-8.0445 -4.2736,-11.564 9.5109,1.0056 22.5413,2.7235 33.3929,2.7235 10.7679,-10.8099 29.0356,-7.1228 43.281,-8.9244 l 6.2009,5.3211"
         id="path430"
         style="fill:#d15b25;stroke:none" />
      <path
         d="m 3202.3732,1746.2146 10.8096,0.084 1.341,35.7394 -28.114,-1.1313 -0.3354,-31.9265 c 5.0697,-3.2681 11.1869,-0.796 16.2986,-2.7653"
         id="path432"
         style="fill:#d15b25;stroke:none" />
      <path
         d="m 2808.0685,1769.8453 c 2.7652,4.2736 -1.0056,7.8769 -1.7179,11.7734 -2.0111,3.9385 -6.2847,4.525 -9.3433,4.1898 -3.6032,-4.1898 -10.307,-9.888 -7.4998,-16.1308 -0.9636,-2.053 -1.9692,-5.8658 0.5864,-7.7512 5.363,5.8657 12.5696,2.1368 17.9744,7.9188"
         id="path434"
         style="fill:#30352d;stroke:none" />
      <path
         d="m 2173.0162,1788.6576 c 13.8264,-0.4609 29.9153,2.8072 43.9931,-1.6341 4.2737,-0.9636 6.1592,3.31 9.6367,3.5195 -17.9744,4.6088 -36.9123,6.1591 -55.18,2.9749 -0.4609,-0.8381 -0.5026,-2.137 -1.3827,-2.9749 -1.6759,1.3408 -2.9328,3.1424 -2.3882,5.7401 -6.7875,3.1842 -10.9773,-5.2374 -17.8486,-4.1899 1.634,9.511 2.4719,20.2369 -6.7876,26.6055 -8.9243,-7.835 11.8992,-16.7594 2.0531,-26.4378 -0.9637,-2.514 0.7541,-2.095 2.0111,-3.0167 7.4997,4.0222 19.0637,1.3827 25.8931,-0.5864"
         id="path436"
         style="fill:#d15b25;stroke:none" />
      <path
         d="m 2884.449,1767.8761 c -0.1678,6.578 -1.6759,12.6113 -4.0641,17.9324 -6.0333,0.1677 -12.4857,1.7178 -16.5498,-3.3519 -3.1424,-2.849 -4.1899,-8.0025 -2.5977,-11.941 -0.084,-2.1368 2.0111,-3.9384 3.687,-5.74 4.2317,-1.4664 11.2288,0.5026 13.7007,-2.6815 2.1788,0.796 5.3211,3.268 5.8239,5.782"
         id="path438"
         style="fill:#30352d;stroke:none" />
      <path
         d="m 2741.9949,1769.3844 c -0.838,0.7961 -0.3355,3.4357 -2.053,3.1005 -2.2207,-1.7179 0.2932,-3.1005 2.053,-3.1005"
         id="path440"
         style="fill:#3cff16;stroke:none" />
      <path
         d="m 2858.5139,1766.7448 c -1.592,4.3574 -2.6814,9.1757 -0.7959,13.8264 l 3.2261,5.4887 c -6.578,-2.7653 -14.1197,3.5195 -14.9158,-5.9077 -1.5922,-7.6673 5.8658,-17.0944 12.4856,-13.4074"
         id="path442"
         style="fill:#30352d;stroke:none" />
      <path
         d="m 2785.3178,1777.387 c -0.8381,-2.1368 -1.6341,-4.1899 -2.6397,-5.6563 -10.1813,5.5724 -18.5609,0.6702 -28.9517,-0.6287 l 0.1677,4.7345 c 2.3883,6.7876 9.0081,10.0556 14.9577,8.0026 l 0.084,1.7179 c 4.0222,-1.3827 8.0444,-2.7654 11.5639,-3.9804 l 4.8183,-4.1898"
         id="path444"
         style="fill:#30352d;stroke:none" />
      <path
         d="m 2782.4267,1787.2749 9.4271,-0.4187 c -2.1368,-1.2149 -3.6032,-3.3517 -4.7345,-5.5305 l -4.6926,5.9496"
         id="path446"
         style="fill:#3cff16;stroke:none" />
      <path
         d="m 2839.1989,1770.5156 c 0.838,-1.3826 2.5139,-1.8015 3.8127,-1.8854 -2.3881,4.8183 -3.0167,11.2706 -0.2516,16.3822 -10.3908,-0.4186 -21.9546,2.095 -32.3036,2.095 4.567,-4.986 5.1955,-11.4383 5.363,-18.3933 8.2121,1.4664 16.8012,-0.5864 23.3793,1.7177"
         id="path448"
         style="fill:#29b110;fill-opacity:1;stroke:none" />
      <path
         d="m 2227.5259,1838.2652 c 4.2317,0.2516 7.6674,1.0474 11.6477,-1.4665 0.3771,-12.5275 5.5306,-25.3066 -6.0334,-34.7756 l 0.838,-0.4186 c -3.1843,-3.7709 -7.1227,-5.8238 -11.8991,-6.1172 -14.8739,6.201 -31.3818,4.2318 -47.387,2.6816 l 2.5558,-0.084 c 0.461,0.4186 0.9218,0.838 0.9218,1.634 l -11.1869,0.8379 -1.3825,-2.0529 c -3.8547,0.9636 -8.2121,-1.0894 -11.7735,-3.4357 1.4245,2.9329 0.2932,7.6674 4.2317,9.3014 -1.8854,6.9551 -4.2317,13.9103 -9.6366,19.8179 -0.2933,3.8547 2.8491,6.2847 4.2736,9.7623 2.1787,0.2932 3.3519,-2.3044 4.6508,-2.3044 -1.8016,-2.1368 -2.8073,-5.5725 -3.31,-7.2903 3.5613,2.053 5.3211,3.7709 5.9076,7.6255 8.212,1.3826 6.4943,-10.2232 12.4857,-11.3126 -0.2094,4.7346 1.1732,8.1703 3.1005,13.2818 2.2625,3.3519 4.6507,9.3853 9.2595,5.6981 -2.2625,-3.3518 -1.5921,-9.3851 0.4187,-12.9884 11.6478,0.4609 22.9184,0.8799 34.0215,-2.053 4.6087,-0.2516 5.9076,3.6032 6.7875,6.9551 l 1.4664,6.7037"
         id="path450"
         style="fill:#d15b25;stroke:none" />
      <path
         d="m 2225.012,1839.1869 c -1.8435,0.04 -3.8128,0.2932 -6.0334,1.0474 -8.212,0.2516 -18.5609,1.0475 -27.2338,0.084 l -1.2152,1.8017 c -4.8182,-1.5503 -1.1312,-6.8713 -2.0948,-10.726 9.8461,-1.2151 21.9965,0.5025 31.8008,-2.8491 0.7541,0.7961 1.215,1.9273 1.5502,3.1843 l 3.2262,7.4579"
         id="path452"
         style="fill:#29b110;fill-opacity:1;stroke:none" />
      <path
         d="m 2357.3267,1822.7209 c 1.0056,-5.3211 3.8128,-10.6422 2.9329,-16.7593 l 11.6058,-1.2569 c -2.8491,4.7763 -3.4775,11.3125 -1.9692,16.466 3.0587,1.5502 0.6288,5.5724 2.8072,7.5835 -3.268,0.5026 -9.7204,0.7542 -13.2817,1.0056 l -2.095,-7.0389"
         id="path454"
         style="fill:#29b110;fill-opacity:1;stroke:none" />
      <path
         d="m 2326.4896,1813.5452 c -0.9218,-2.8491 -1.1313,-6.2847 0.04,-8.5054 2.9748,-0.9636 1.8016,2.1368 3.5614,2.8491 -0.4193,11.7315 13.3655,10.726 11.6477,22.9184 2.7653,-0.1677 6.6199,-0.1677 10.8935,-0.3355 l 1.1313,-8.5053 c 0.838,-8.9662 0.838,-16.2566 -1.6341,-25.5999 -1.0474,-4.7345 -6.2847,-5.8238 -9.8042,-8.3377 l -2.0111,4.0222 c -1.7597,-0.4193 -3.5613,-2.053 -4.0222,-3.7708 -12.4437,3.0166 -20.1949,2.9328 -33.6024,3.4356 -10.0137,9.0081 -27.4433,5.3211 -38.0017,-0.7542 l -0.7961,2.1368 c 1.0056,3.8547 3.6451,4.5669 6.7037,6.201 4.4412,2.891 -1.0475,6.1591 -2.6815,8.7568 2.4301,7.2064 -10.4745,9.0081 -3.3099,16.047 4.4412,2.9329 5.9914,-1.8854 8.9662,-3.2681 0.8798,0.838 2.1787,1.1313 1.8016,2.5558 3.687,-5.8238 12.9885,0.2931 15.251,-7.9607 l 1.3826,1.6341 c -3.7289,4.525 -1.2988,12.1924 -1.5501,17.3459 l 8.6309,-0.3355 c 1.9273,-6.1171 -1.7597,-12.4019 2.4301,-16.4241 l 24.9714,-4.106"
         id="path456"
         style="fill:#d15b25;stroke:none" />
      <path
         d="m 2304.1578,1822.8885 c -0.5448,3.6871 0.6702,8.1702 0.084,10.1394 l 34.4823,-2.1368 -1.8017,-1.634 c 0.5449,-6.7038 -3.3518,-8.1702 -7.7511,-11.5221 l -25.0134,5.1535"
         id="path458"
         style="fill:#29b110;fill-opacity:1;stroke:none" />
      <path
         d="m 2837.1459,1773.5323 0.084,1.7179 c -6.0753,-0.5865 -15.0835,1.0893 -19.6085,-4.0223 6.5361,0.6703 13.4075,0.4187 19.5247,2.3044"
         id="path460"
         style="fill:#000000;stroke:none" />
      <path
         d="m 2758.2514,1788.9928 c -5.9077,3.2681 -15.1671,-2.0531 -24.6362,-0.7961 2.0111,-4.3574 7.9606,-6.3267 5.5725,-13.1141 12.7371,-6.1172 7.793,12.6114 19.0637,13.994"
         id="path462"
         style="fill:#29b110;fill-opacity:1;stroke:none" />
      <path
         d="m 2708.6438,1790.8782 c -10.3069,1.215 -21.2005,-1.3826 -31.8845,1.1732 -1.4665,-3.8547 1.5501,-4.8602 3.6451,-6.6619 6.2428,5.8239 13.4912,-8.6729 21.0749,-2.053 l 7.6254,-3.268 c 0.9637,2.9747 -1.4245,8.2959 -0.4609,10.8097"
         id="path464"
         style="fill:#29b110;fill-opacity:1;stroke:none" />
      <path
         d="m 2646.2992,1786.3113 c 2.472,-3.1004 4.6926,-1.0893 7.6674,-2.9748 1.8016,2.5558 2.7653,5.1116 2.4301,8.631 l -1.1732,1.7179 c -12.4437,2.5977 -28.6585,7.4998 -44.1189,10.6841 l -0.1255,-3.8128 2.6396,1.6341 c 1.1312,-4.4412 -0.3355,-9.511 1.6759,-13.5332 7.7512,0.5864 15.1673,-8.7568 21.033,-2.0111 l 9.9299,-0.3355"
         id="path466"
         style="fill:#29b110;fill-opacity:1;stroke:none" />
      <path
         d="m 2431.4448,1804.1599 c 0.9218,1.7179 2.2625,2.9329 1.9273,5.5307 -1.215,1.8015 -4.7763,-0.6287 -4.6506,2.3043 0.9636,2.5558 3.4774,1.2151 5.6562,1.5503 -7.0389,8.0444 -13.7007,14.3292 -24.6362,10.8097 -2.6814,-2.053 -5.2372,-1.5501 -6.2429,-5.321 0.5449,-8.254 1.9274,-17.4297 9.93,-22.8347 7.7093,-2.0529 11.8571,5.1535 18.0162,7.9607"
         id="path468"
         style="fill:#30352d;stroke:none" />
      <path
         d="m 2454.405,1806.3387 c -5.6143,-0.2516 -11.3125,-2.1788 -15.0414,2.2206 -3.3938,1.4664 -2.2206,-2.472 -3.1424,-3.7708 7.7931,0.6703 13.9941,-6.9552 22.1642,-7.6675 l -3.9804,9.2177"
         id="path470"
         style="fill:#30352d;stroke:none" />
      <path
         d="m 2716.3112,1787.5263 c 0,0.4187 0.04,1.7179 0.9218,2.1369 -0.3771,0.8798 -1.6759,0.8798 -2.5139,0.9637 l -0.1255,-3.0168 1.7177,-0.084"
         id="path472"
         style="fill:#d15b25;stroke:none" />
      <path
         d="m 2378.9463,1809.1458 -1.7179,0.084 c 0.7961,-1.3407 1.5922,-2.7234 1.5502,-4.8602 4.3156,0.2516 -2.3043,-2.9329 2.0112,-3.1004 2.2625,2.053 -0.6287,6.0752 -1.8435,7.8768"
         id="path474"
         style="fill:#30352d;stroke:none" />
      <path
         d="m 2259.4942,1814.4669 c -5.4886,3.6033 3.3938,9.7204 5.782,16.1727 7.039,3.2262 11.1031,-3.0166 16.1728,-6.2009 0.4609,0.7961 1.7597,0.7542 2.6396,0.7542 1.4245,3.4356 0.5863,4.6507 0.7541,8.5891 -12.0248,2.1788 -27.9461,4.0642 -40.9346,2.7654 1.5922,-3.5195 -0.2932,-7.7093 1.2988,-11.6059 1.3827,2.0111 2.1368,0.7123 4.1899,-2.3882 1.7597,0.838 1.5502,-4.3155 2.3463,-7.039 2.0949,-1.2988 5.9914,-1.0474 7.7093,-1.0474"
         id="path480"
         style="fill:#29b110;fill-opacity:1;stroke:none" />
      <path
         d="m 2341.1121,1814.4669 -2.5558,0.8799 -0.1677,-4.7345 c 2.5557,-0.9217 2.2625,2.5139 2.7234,3.8546"
         id="path482"
         style="fill:#000000;stroke:none" />
      <path
         d="m 2387.1164,1819.6204 c 3.0587,0.7122 5.1535,-0.5864 7.7093,-1.5502 2.6396,1.634 8.3797,5.3211 4.1899,8.8824 l -1.7179,0.084 c -0.04,-1.2988 -1.3407,-2.0949 -2.2625,-2.9328 -5.4467,4.106 -11.2287,0 -16.466,-1.5503 -1.4665,-4.7345 2.3044,-7.4578 3.4775,-10.8936 -1.1311,3.8546 1.9692,6.7875 5.0697,7.9606"
         id="path484"
         style="fill:#30352d;stroke:none" />
      <path
         d="m 2458.0921,1823.475 -29.7897,1.0475 c 10.7679,-1.215 5.8658,-17.0107 18.4772,-14.0778 11.4802,-5.5725 6.3685,8.4216 11.3125,13.0303"
         id="path486"
         style="fill:#29b110;fill-opacity:1;stroke:none" />
      <g
         id="g3803">
        <path
           d="m 3166.5545,1354.4281 c -7.7761,-7.6088 -13.5361,-10.5678 -23.1558,-13.4329 -9.7948,-2.9173 -14.4597,-2.8413 -25.3495,-0.1457 -10.7103,2.6513 -15.359,6.0943 -21.7625,12.317 -6.4996,6.3159 -11.1394,14.3675 -13.4267,25.287 -2.2871,10.9194 0.8384,16.5171 2.4768,26.1482 l 49.1882,-13.1757 c 0,0 18.6402,-4.4932 29.3038,-4.6539 11.374,-0.1719 11.8428,-1.5176 19.6443,0.2307 -1.9353,-8.3902 -9.0481,-24.8739 -16.9186,-32.5754 z"
           id="path7840"
           style="fill:#ffe400;fill-opacity:1;stroke:none" />
        <path
           d="m 3006.2815,1366.0174 c 0,0 -1.4293,-0.8516 -2.0964,2.2992 -0.6288,2.9686 0.1906,3.4426 0.1906,3.4426 l 56.197,13.8329 c 0,0 2.6458,-1.9662 3.313,-4.5254 0.6668,-2.5591 -0.6449,-5.7114 -0.6449,-5.7114"
           id="path7846"
           style="fill:#ffe400;fill-opacity:1;stroke:none" />
        <path
           d="m 2966.1314,1323.6797 c 0,0 -1.3132,-0.2818 -1.9133,1.9625 -0.7075,2.6468 0.4308,2.6954 0.4308,2.6954 l 102.8808,37.5781 c 0,0 1.9066,-1.5955 2.7218,-4.0696 0.8152,-2.474 0.5395,-5.8267 0.5395,-5.8267"
           id="path7870"
           style="fill:#ffe400;fill-opacity:1;stroke:none" />
        <path
           d="m 3191.2187,1356.0302 c 0,0 0.4697,2.3078 1.5054,4.0368 1.0352,1.7291 2.771,3.0142 2.771,3.0142 l 72.0787,-41.8416 c 0,0 0.4783,-1.4718 -0.2684,-2.5015 -0.7481,-1.0297 -2.0494,-0.8086 -2.0494,-0.8086"
           id="path7874"
           style="fill:#ffe400;fill-opacity:1;stroke:none" />
        <path
           d="m 3248.1693,1297.5901 c 0,0 1.2488,-1.3508 -0.1118,-2.7446 -1.4296,-1.4642 -2.9057,-0.6738 -2.9057,-0.6738 l -62.3507,50.6697 c 0,0 0.4025,1.3517 1.3706,2.6363 0.9678,1.2843 2.5015,2.5014 2.5015,2.5014"
           id="path7882"
           style="fill:#ffe400;fill-opacity:1;stroke:none" />
        <path
           d="m 3075.2731,1349.7951 c 0,0 2.2063,-1.0196 3.79,-3.3102 1.7967,-2.5985 1.9132,-4.6579 1.9132,-4.6579 l -84.7672,-59.7403 c 0,0 -1.7045,-0.5582 -2.8567,1.0782 -1.2164,1.7274 -0.4046,3.3102 -0.4046,3.3102"
           id="path7886"
           style="fill:#ffe400;fill-opacity:1;stroke:none" />
        <path
           d="m 3172.5327,1336.071 c 0,0 0.8208,2.0251 2.0707,3.067 1.2499,1.0421 3.7371,2.1791 3.7371,2.1791 l 51.4719,-64.1062 c 0,0 1.2004,-2.1667 -0.109,-2.9877 -1.4068,-0.8824 -2.97,-0.2958 -2.97,-0.2958"
           id="path7898"
           style="fill:#ffe400;fill-opacity:1;stroke:none" />
        <path
           d="m 3043.3074,1261.7933 c 0,0 -0.9423,-1.2063 -2.4749,-0.2698 -1.6295,0.996 -1.7519,3.0406 -1.7519,3.0406 l 47.6403,71.2708 c 0,0 2.3966,-0.7356 4.1564,-2.1828 1.7601,-1.4473 2.8831,-3.6062 2.8831,-3.6062"
           id="path7906"
           style="fill:#ffe400;fill-opacity:1;stroke:none" />
        <path
           d="m 3211.695,1251.8281 c 0,0 0.6662,-1.2665 -1.1045,-2.3175 -1.6128,-0.9572 -3.0142,-0.1348 -3.0142,-0.1348 l -47.1505,77.4494 c 0,0 0.608,1.5322 3.5534,3.363 3.0421,1.891 4.1679,2.1791 4.1679,2.1791"
           id="path7910"
           style="fill:#ffe400;fill-opacity:1;stroke:none" />
        <path
           d="m 3169.2368,1244.4584 c 0,0 1.1381,-1.8459 -2.048,-2.3176 -3.2085,-0.475 -3.1489,0.9698 -3.1489,0.9698 l -20.4207,77.977 c 0,0 2.0606,1.1953 4.2043,1.7571 2.1439,0.5615 4.3705,0.4898 4.3705,0.4898"
           id="path7922"
           style="fill:#ffe400;fill-opacity:1;stroke:none" />
        <path
           d="m 3085.0958,1247.9789 c 0,0 -0.7184,-2.7422 -3.3328,-1.6701 -2.6594,1.0904 -1.6438,2.9322 -1.6438,2.9322 l 25.0635,76.2771 c 0,0 1.8576,-0.04 4.9501,-1.1866 3.2107,-1.1914 4.2534,-2.5014 4.2534,-2.5014"
           id="path7918"
           style="fill:#ffe400;fill-opacity:1;stroke:none" />
        <path
           d="m 3128.7444,1234.5122 c 0,0 -0.034,-1.5204 -2.6099,-1.3477 -2.7078,0.1817 -2.2912,1.5354 -2.2912,1.5354 l 1.6401,85.8452 c 0,0 2.1584,0.9522 5.493,0.7229 3.2,-0.22 4.5229,-1.1008 4.5229,-1.1008"
           id="path7934"
           style="fill:#ffe400;fill-opacity:1;stroke:none" />
      </g>
      <g
         id="g3688"
         transform="matrix(0.36450819,0,0,0.36450819,1468.8225,904.83508)">
        <path
           d="m 2705.9204,971.3478 6.1172,17.63918 18.6867,0.41866 -14.8739,11.22876 5.4049,17.9325 -15.3349,-10.726 -15.3766,10.726 5.4468,-17.9325 -14.9158,-11.22876 18.6447,-0.41866 6.159,-17.63918"
           id="path740"
           style="fill:#ffffff;stroke:none" />
        <path
           d="m 2644.4976,973.23326 8.7986,16.50793 18.561,-2.51392 -12.9885,13.40743 8.1701,16.8431 -16.8431,-8.1701 -13.4912,12.9884 2.5558,-18.5609 -16.4661,-8.84053 18.3934,-3.26811 3.31,-18.3933"
           id="path742"
           style="fill:#ffffff;stroke:none" />
        <path
           d="m 2587.9349,985.34181 9.469,16.08899 18.4353,-3.26808 -12.4438,13.99398 8.7986,16.5499 -17.1364,-7.5418 -12.9884,13.4913 1.8434,-18.6447 -16.8012,-8.1702 18.2677,-4.0222 2.5558,-18.47719"
           id="path744"
           style="fill:#ffffff;stroke:none" />
        <path
           d="m 2529.4868,1002.1011 11.3125,14.832 17.8487,-5.4048 -10.6003,15.2928 10.726,15.3767 -17.9325,-5.4049 -11.1869,14.9996 -0.4609,-18.7704 -17.6811,-6.0334 17.6393,-6.2428 0.2932,-18.6448"
           id="path746"
           style="fill:#ffffff;stroke:none" />
        <path
           d="m 2468.1896,1032.1422 14.2454,12.1086 16.2984,-9.0919 -7.1227,17.2621 13.7007,12.6952 -18.6447,-1.4665 -7.835,16.927 -4.3574,-18.1839 -18.6029,-2.1787 15.9634,-9.7623 -3.6452,-18.3096"
           id="path748"
           style="fill:#ffffff;stroke:none" />
        <path
           d="m 2418.8754,1060.2979 15.5442,10.3907 15.1252,-10.9773 -5.0696,18.0163 15.0833,11.0193 -18.6866,0.6702 -5.8238,17.7648 -6.4523,-17.5973 h -18.6867 l 14.7064,-11.522 -5.7401,-17.7648"
           id="path750"
           style="fill:#ffffff;stroke:none" />
        <path
           d="m 2371.5302,1103.3274 16.5918,8.5891 13.8683,-12.5276 -3.1005,18.5191 16.2147,9.2176 -18.5191,2.8072 -3.8546,18.3095 -8.3378,-16.7593 -18.5609,1.9692 13.3237,-13.1141 -7.6256,-17.0107"
           id="path752"
           style="fill:#ffffff;stroke:none" />
        <path
           d="m 2319.7859,1151.9295 18.1838,4.4411 10.3908,-15.4604 1.4245,18.6447 17.9744,5.0697 -17.262,7.1227 0.6702,18.7286 -12.0667,-14.2455 -17.5973,6.4105 9.7624,-15.9633 -11.4802,-14.7481"
           id="path754"
           style="fill:#ffffff;stroke:none" />
        <path
           d="m 2673.3655,1048.4826 6.2848,17.5972 18.6866,0.1677 -14.7901,11.4802 5.5724,17.8067 -15.4185,-10.5164 -15.2929,10.7679 5.2791,-17.8906 -14.9996,-11.2287 18.6448,-0.5025 5.9915,-17.6811"
           id="path756"
           style="fill:#ffffff;stroke:none" />
        <path
           d="m 2603.8143,1056.1919 9.469,16.1308 18.3934,-3.1843 -12.4019,13.994 8.7986,16.4242 -17.1363,-7.4579 -12.9885,13.4493 1.8435,-18.6028 -16.8012,-8.1702 18.2676,-4.0223 2.5558,-18.5608"
           id="path758"
           style="fill:#ffffff;stroke:none" />
        <path
           d="m 2541.6792,1075.1718 12.8208,13.5751 17.2202,-7.2066 -9.0081,16.3823 12.1924,14.1616 -18.3514,-3.5195 -9.6785,15.9632 -2.3044,-18.519 -18.2258,-4.2317 16.9269,-7.9607 -1.5921,-18.6447"
           id="path760"
           style="fill:#ffffff;stroke:none" />
        <path
           d="m 2481.9322,1102.9922 14.2035,12.1087 16.3404,-9.092 -7.1647,17.304 13.7008,12.737 -18.6448,-1.4664 -7.8349,16.9269 -4.3574,-18.1419 -18.5609,-2.2206 15.9214,-9.7204 -3.6034,-18.4353"
           id="path762"
           style="fill:#ffffff;stroke:none" />
        <path
           d="m 2435.3832,1139.1086 15.5443,10.3907 15.1672,-10.9773 -5.1116,18.0162 15.0834,11.0192 -18.6866,0.7543 -5.8239,17.7648 -6.4524,-17.5973 -18.6866,-0.084 14.7063,-11.4801 -5.7401,-17.8068"
           id="path764"
           style="fill:#ffffff;stroke:none" />
        <path
           d="m 2392.8565,1180.7554 17.4297,6.7037 12.4019,-13.9102 -1.0475,18.561 17.1364,7.5417 -18.0582,4.7345 -1.8016,18.5609 -10.1394,-15.7119 -18.2677,4.1061 11.8154,-14.4969 -9.469,-16.0889"
           id="path766"
           style="fill:#ffffff;stroke:none" />
        <path
           d="m 2637.8358,1132.6143 10.9773,15.1672 18.0162,-5.1116 -11.0192,15.1671 10.3488,15.5443 -17.7648,-5.8239 -11.6058,14.6645 v -18.6448 l -17.5135,-6.578 17.8068,-5.6981 0.7542,-18.6867"
           id="path768"
           style="fill:#ffffff;stroke:none" />
        <path
           d="m 2570.17,1155.7841 12.8209,13.575 17.2202,-7.2066 -9.0081,16.3823 12.2343,14.1617 -18.3934,-3.5195 -9.6366,16.047 -2.3463,-18.6028 -18.2257,-4.2317 16.9269,-7.9607 -1.5922,-18.6447"
           id="path770"
           style="fill:#ffffff;stroke:none" />
        <path
           d="m 2506.1495,1185.7413 14.7481,11.4382 15.8795,-9.8041 -6.3266,17.5972 14.2454,12.0248 -18.6448,-0.5864 -7.0808,17.2622 -5.1953,-17.8906 -18.6448,-1.4245 15.4604,-10.4746 -4.4411,-18.142"
           id="path772"
           style="fill:#ffffff;stroke:none" />
        <path
           d="m 2767.8461,974.61591 -8.7987,16.42412 -18.519,-2.5139 12.9466,13.49117 -8.1283,16.8432 16.8013,-8.1702 13.4912,12.9466 -2.5558,-18.5191 16.5079,-8.84048 -18.4352,-3.26811 -3.31,-18.3933"
           id="path774"
           style="fill:#ffffff;stroke:none" />
        <path
           d="m 2824.4088,986.72446 -9.469,16.13084 -18.3934,-3.30993 12.4019,13.99403 -8.7987,16.466 17.1365,-7.4579 12.9884,13.4494 -1.8434,-18.6029 16.843,-8.1701 -18.2676,-4.0222 -2.5977,-18.47724"
           id="path776"
           style="fill:#ffffff;stroke:none" />
        <path
           d="m 2882.8988,1003.4 -11.3544,14.9158 -17.8906,-5.4887 10.6421,15.3767 -10.7259,15.2929 17.8905,-5.3211 11.2707,14.9158 0.4186,-18.6866 17.6392,-6.0334 -17.5973,-6.201 -0.2931,-18.6866"
           id="path778"
           style="fill:#ffffff;stroke:none" />
        <path
           d="m 2944.154,1033.4411 -14.2034,12.1086 -16.3403,-9.092 7.1646,17.2622 -13.7427,12.6951 18.6448,-1.4664 7.8768,17.0107 4.3574,-18.142 18.561,-2.2206 -15.9633,-9.8042 3.6451,-18.2676"
           id="path780"
           style="fill:#ffffff;stroke:none" />
        <path
           d="m 2993.4683,1061.5967 -15.5023,10.3909 -15.1671,-10.9775 5.0697,18.0163 -15.0835,11.0612 18.6867,0.7122 5.8238,17.6811 6.4523,-17.5134 18.6867,-0.084 -14.6644,-11.522 5.6981,-17.7649"
           id="path782"
           style="fill:#ffffff;stroke:none" />
        <path
           d="m 3040.8135,1104.6262 -16.5499,8.673 -13.8684,-12.5276 3.1005,18.4353 -16.2146,9.3432 18.4771,2.6816 3.8547,18.3514 8.3378,-16.8012 18.6027,2.053 -13.3656,-13.156 7.6257,-17.0527"
           id="path784"
           style="fill:#ffffff;stroke:none" />
        <path
           d="m 3092.5577,1153.3121 -18.142,4.3574 -10.4327,-15.4605 -1.4662,18.6448 -17.9746,5.1535 17.3042,7.1227 -0.7123,18.6446 12.1506,-14.2454 17.5552,6.4105 -9.804,-15.8794 11.5218,-14.7482"
           id="path786"
           style="fill:#ffffff;stroke:none" />
        <path
           d="m 2738.9782,1049.8233 -6.2848,17.5974 -18.6866,0.2093 14.7901,11.3964 -5.5724,17.8486 15.4604,-10.5584 15.251,10.8098 -5.2792,-17.9325 14.9996,-11.1449 -18.6867,-0.461 -5.9914,-17.7648"
           id="path788"
           style="fill:#ffffff;stroke:none" />
        <path
           d="m 2808.5293,1057.5745 -9.469,16.2146 -18.3933,-3.268 12.4019,13.9102 -8.7568,16.5079 17.0946,-7.4998 12.9884,13.4075 -1.8017,-18.561 16.8013,-8.212 -18.2677,-3.9803 -2.5977,-18.5191"
           id="path790"
           style="fill:#ffffff;stroke:none" />
        <path
           d="m 2870.6645,1076.4706 -12.779,13.7008 -17.2202,-7.2903 9.0082,16.3402 -12.2344,14.1617 18.3515,-3.5195 9.6785,16.0471 2.3464,-18.561 18.1838,-4.2735 -16.885,-7.9189 1.5502,-18.6866"
           id="path792"
           style="fill:#ffffff;stroke:none" />
        <path
           d="m 2930.4533,1104.3748 -14.2454,12.1086 -16.3404,-9.05 7.1647,17.2621 -13.7007,12.6952 18.6447,-1.5083 7.835,17.0526 4.3575,-18.2676 18.5608,-2.2206 -15.9213,-9.7205 3.6451,-18.3515"
           id="path794"
           style="fill:#ffffff;stroke:none" />
        <path
           d="m 2976.9604,1140.4912 -15.5442,10.3908 -15.1672,-10.9774 5.1116,18.0163 -15.0834,11.0192 18.6867,0.6703 5.8238,17.7649 6.4523,-17.5135 18.6867,-0.084 -14.7064,-11.522 5.7401,-17.8487"
           id="path796"
           style="fill:#ffffff;stroke:none" />
        <path
           d="m 3019.4871,1182.0543 -17.4295,6.7875 -12.402,-13.994 1.0475,18.6447 -17.1365,7.4578 18.0582,4.8184 1.8017,18.6028 10.1394,-15.7118 18.2675,3.9803 -11.8153,-14.4548 9.469,-16.1309"
           id="path798"
           style="fill:#ffffff;stroke:none" />
        <path
           d="m 2774.5079,1133.9131 -10.9773,15.1673 -18.0163,-4.986 11.0193,15.0415 -10.3489,15.6281 17.7648,-5.8239 11.6479,14.6644 -0.04,-18.6447 17.5134,-6.5781 -17.7648,-5.6982 -0.7961,-18.7704"
           id="path800"
           style="fill:#ffffff;stroke:none" />
        <path
           d="m 2842.1736,1157.0829 -12.7789,13.6589 -17.2621,-7.2484 9.0081,16.3403 -12.1924,14.1616 18.3515,-3.5194 9.6785,16.047 2.3463,-18.5609 18.1839,-4.1899 -16.927,-8.0026 1.5921,-18.6028"
           id="path802"
           style="fill:#ffffff;stroke:none" />
        <path
           d="m 2906.2361,1187.0402 -14.7901,11.522 -15.8794,-9.8879 6.3685,17.5972 -14.3292,12.0248 18.6866,-0.5864 7.0809,17.3878 5.1953,-18.0162 18.6447,-1.2989 -15.4604,-10.4746 4.4831,-18.2676"
           id="path804"
           style="fill:#ffffff;stroke:none" />
        <path
           d="m 2706.2557,1127.2933 6.1171,17.5972 18.6866,0.4193 -14.8739,11.2706 5.405,17.8488 -15.3348,-10.6422 -15.3768,10.6422 5.4469,-17.8488 -14.9158,-11.2706 18.6447,-0.4193 6.159,-17.5972"
           id="path806"
           style="fill:#ffffff;stroke:none" />
        <path
           d="m 2888.6389,1317.5534 15.7956,-0.7123 -15.7956,0.7123"
           id="path808"
           style="fill:#fff00f;fill-opacity:1;stroke:none" />
      </g>
      <path
         d="m 2614.4565,1541.4578 c 0,0 26.9825,4.8183 35.0688,8.5891 8.0864,3.7708 31.2981,13.4912 37.7504,15.7118 6.4524,2.1369 48.0155,16.7175 57.7358,20.4464 9.6785,3.7709 49.6076,17.7649 65.7803,23.2535 16.2147,5.3212 87.3998,26.354 103.5726,28.5747 16.2146,2.1368 114.927,16.1308 121.4213,16.1308 6.4522,0 34.5242,4.3156 34.5242,4.3156 v -23.1698 l 5.9076,-14.1617 7.5834,-4.1478 16.6338,-0.6703 5.8237,12.6115 1.2572,24.7199 62.5959,-7.6255 33.9377,2.2206 57.191,60.3754 97.6837,9.55 v -99.6313 -73.1934 l -337.7608,-3.3967 c 0,0 -1.634,7.039 1.634,9.7205 3.2263,2.7233 24.2592,2.7233 29.1192,0.5026 4.8604,-2.1369 18.8543,-3.1844 18.8543,-3.1844 0,0 -0.5023,2.1369 -3.7706,11.8574 -3.2264,9.7203 -8.6313,17.7647 -11.3128,19.9853 -2.6814,2.095 -4.86,9.1339 -4.86,9.1339 l 2.1786,4.8183 15.0833,-1.6341 8.631,1.0895 -38.2948,5.4048 -27.5272,-2.1368 -182.8861,-4.3575 -19.3989,-4.2317 -32.3873,-3.7708 4.3155,-3.2681 16.1727,-3.7708 3.8127,-8.0026 c 0,0 -3.8127,-5.9914 3.771,-8.212 7.4998,-2.0949 52.289,-3.1844 52.289,-3.1844 0,0 13.9939,-2.1367 16.7175,-2.6814 2.6814,-0.5026 15.6279,0.5447 17.8067,2.0948 2.1368,1.6761 2.6814,-0.4609 5.3629,-2.0948 2.7235,-1.634 22.1223,-4.2737 26.9825,-3.7709 4.8602,0.5864 13.4913,7.0389 13.4913,7.0389 l 21.5357,-8.1282 -1.5503,-10.2232 -342.6022,0.5025"
         id="path832"
         style="fill:url(#linearGradient10284);fill-opacity:1;stroke:none"
         sodipodi:nodetypes="csccccsccccccccccccccccccccccccccccccccccccccccc" />
      <path
         d="m 2750.4164,1553.4826 c 1.2989,0.4186 2.9748,-0.5865 3.8966,0.7541 -2.9329,3.1005 -6.4524,1.0475 -9.8042,3.3519 -11.0612,4.7345 -19.8179,-10.4746 -29.8315,-0.1678 -6.8296,1.9693 -11.2288,0 -17.7231,-1.0475 9.0501,0.04 19.1056,2.6816 27.9042,-4.0222 9.092,0.084 16.2985,8.3378 25.558,1.1313"
         id="path834"
         style="fill:#000000;stroke:none" />
      <path
         d="m 2779.829,1566.6805 c -6.6618,6.7037 -17.9324,-5.4049 -26.6891,2.2626 l -23.7146,1.7177 c 1.257,-1.8016 4.2319,-2.6815 7.7093,-2.43 13.5751,5.9495 23.3374,-11.2288 34.9433,-1.2569 l 7.7511,-0.2933"
         id="path836"
         style="fill:#000000;stroke:none" />
      <path
         d="m 3123.6881,1556.9182 c 15.754,5.4887 29.3709,-11.8572 44.7894,-3.3519 9.4691,0.9218 25.1809,4.2737 34.3565,-4.3155 1.299,0.3771 3.4357,-0.5025 4.3154,0.7123 l 0.8381,-0.8799 c -3.3099,3.1843 -6.8295,2.3464 -10.5585,5.9496 -0.8797,0.084 -2.6395,-0.7122 -2.9747,1.0055 -1.2149,3.1005 -5.1533,0.6287 -6.8292,2.4301 -2.2628,-3.4356 -5.5727,0.5864 -8.6729,-1.4664 -18.0584,-9.6366 -34.3148,5.6563 -54.3421,1.6341 -5.6982,-1.9692 -8.8407,-5.3212 -13.6591,-7.2904 4.7765,0.2516 8.7568,3.5195 12.7371,5.5725"
         id="path838"
         style="fill:#000000;stroke:none" />
      <path
         d="m 3301.7977,1561.1918 c 5.1956,0.6287 9.8043,-3.4356 15.3767,-4.5249 l -1.2569,1.8015 c -3.9384,-1.634 -7.1644,4.986 -11.1031,2.5558 l -0.4193,0.8799 c 0.084,2.1368 -0.039,-0.8799 -0.8798,-0.7961 -0.7962,0.8798 -5.1116,2.2625 -6.8714,1.0475 -2.2205,-2.8491 -3.8545,-0.2516 -6.536,-1.8854 -2.2625,-2.9329 -6.4944,-0.6287 -8.7987,-4.3994 -1.5502,3.9386 -6.0753,-1.0893 -9.0081,1.5503 -6.8715,0.7122 -16.1309,6.7037 -22.2481,4.7345 -1.3408,-0.3348 -3.3938,2.3044 -4.7762,0.1677 11.3544,2.6396 28.0718,-11.3544 41.6886,-5.8238 5.2375,1.0894 11.8573,5.5724 14.874,4.6088"
         id="path840"
         style="fill:#000000;stroke:none" />
      <path
         d="m 3287.7618,1626.3855 c -0.8378,0.5025 -0.7123,3.1424 -2.9328,2.3045 l -0.88,-0.796 c -2.0111,3.5194 -5.1952,0.1255 -7.7509,0.2931 -4.2739,1.0056 -11.2289,-0.084 -14.8321,-3.3518 7.8767,2.7234 18.6866,3.1842 26.3958,1.5502"
         id="path842"
         style="fill:#000000;stroke:none" />
      <path
         d="m 3197.2197,1571.4988 c 0.4193,-0.5025 0.8381,-0.9217 0.7961,-1.7178 3.5193,1.5502 6.536,1.3826 11.6896,1.2151 0.039,0.4186 0.461,0.8379 0.9217,1.2987 l 1.2152,-1.3826 c 0.4185,0.4187 1.2988,0.4187 0.9217,1.2151 -8.5893,1.6759 -20.4044,-2.1787 -28.0301,1.8854 l 0.922,0.9218 c -4.609,4.3993 -11.5222,4.6507 -17.5974,3.687 -2.7235,-3.7708 -6.9131,-1.8854 -10.4747,-2.7233 l -2.2205,-2.4302 c -0.8797,0.3771 -0.7542,1.7178 -0.7542,2.5977 -0.461,-1.2988 -2.1786,-0.796 -3.0586,-0.7123 l -1.634,1.7179 c -2.1786,-0.7542 -0.5024,-1.6341 -0.084,-2.5558 12.4019,-3.0167 25.7674,8.0863 36.6192,-2.2207 2.8489,-3.5194 8.0864,-2.0111 10.7259,-0.796"
         id="path844"
         style="fill:#000000;stroke:none" />
      <path
         d="m 3273.3908,1588.0905 c 4.6926,-1.8854 9.9717,0.9218 14.7062,-0.084 -0.2932,3.8547 -2.5976,0.084 -4.6926,1.8855 l -1.3407,-1.7178 c -11.7315,-1.2151 -21.9126,3.4356 -29.5803,6.7037 -6.3266,4.106 -16.2144,4.5251 -23.2533,1.7178 14.371,2.9748 28.2392,-7.0388 42.4009,-10.1394 l 1.7598,1.634"
         id="path846"
         style="fill:#000000;stroke:none" />
      <path
         d="m 2119.287,1668.5332 1.0913,1.0915 1.0963,2.1924 v 7.679 l 1.0963,1.0963 v 2.1876 l 1.0913,1.0963 v 1.0914 l 1.0963,1.0962 v 1.0962 h 1.0963 l 1.0914,1.0915 v 1.0963 l 1.0963,1.0963 h 1.0962 l 2.1877,2.1877 h 3.2839 v -1.0964 h 1.0963 l 1.0913,-1.0913 v -5.4912 l 1.0964,-1.0964 v -1.0963 h 4.3949 l 1.0962,1.0963 h 1.0964 l 3.2839,3.284 v 15.3823 l 1.0915,1.0914 h 2.1924 v -13.1898 l 1.0913,-1.0962 h 5.4961 l 4.395,4.3998 v 1.0914 h 1.0963 l 2.1877,2.1925 h 1.0963 l 1.0914,1.0914 h 3.2839 l 1.0962,-1.0914 v -2.1925 l -1.0962,-1.0914 h -3.2839 l -2.1877,-1.0962 -2.1877,-2.1877 v -1.0963 l -1.0963,-2.1878 -1.0962,-1.0962 v -1.0962 h 1.0962 l 2.1877,-1.0914 h 2.1926 l 1.0914,-1.0963 h 1.0963 l 2.1876,-1.0962 h 1.0962 l 2.1876,-1.0914 1.0963,-1.0963 h 1.0964 l 2.1877,-1.0913 h 3.2838 l 1.0963,-1.0964 h 5.4913 l 1.0914,1.0964 h 1.0962 l 2.1876,2.1876 v 3.2839 l -2.1876,4.395 -1.0962,1.0962 v 1.0963 l 2.1925,2.1877 h 3.2839 l 1.0914,-1.0963 v -12.0984 l 2.1925,-2.1877 h 4.3951 l 2.1925,1.0963 h 1.0913 l 3.2839,3.284 h 1.0965 v 1.0913 l 2.1876,2.1925 v 1.0914 l 2.1876,2.1925 v 1.0915 l 3.2839,3.2838 h 1.0963 l 1.0962,1.0965 h 1.0914 l 1.0964,-1.0965 v -2.1876 l -1.0964,-1.0962 h -1.0914 l -1.0962,-1.0915 -1.0963,-2.1925 -1.0914,-1.0914 v -2.1925 l -6.5875,-6.5826 v -3.284 l 1.0963,-3.2839 v -10.9874 l -2.1925,-4.3949 -1.0914,-1.0963 -1.0962,-2.1877 -2.1877,-1.0962 h -1.0964 l -2.1876,-1.0963 h -25.2931 l -1.0964,-1.0915 -13.1897,-4.3998 -2.1877,-2.1876 h -1.0963 l -2.1877,-2.1877 h -1.0962 l -1.0963,-1.0962 h -2.1876 l -1.0963,-1.0964 h -8.7752 l -1.0962,1.0964 h -2.1877 l -1.0962,1.0962 v 1.0914 l -1.0914,2.1925 -1.0963,1.0914 -2.1876,4.3998 -1.0963,3.284 -10.9826,5.4913 -2.1876,2.1876 h -4.3999 l -2.1876,1.0963 h -2.1925 v 1.0914 l -1.0914,1.0962 1.0914,1.0963 v 1.0914 l 1.0963,1.0962 h 1.0962 l 6.5875,3.284"
         id="path7538"
         style="fill:#7d3627;fill-opacity:1;stroke:#000000;stroke-width:2.79322;stroke-miterlimit:4;stroke-dasharray:none;stroke-opacity:1" />
      <path
         d="m 2272.1617,1630.0306 v 2.1877 h -2.1876 l -7.6788,1.0962 -1.0965,1.0914 h -1.0962 v 1.0963 h -1.0914 l -1.0962,1.0963 h -1.0963 l -1.0914,1.0914 h -1.0962 l -1.0963,1.0962 h -4.395 l -2.1877,1.0964 -1.0962,1.0913 v 1.0963 l 1.0962,1.0963 v 1.0913 l 7.679,7.6839 2.1876,3.2839 1.0963,4.395 2.1876,3.2839 v 2.1925 l 1.0962,3.2791 v 2.1926 l 1.0965,1.0913 v 1.0963 h 5.4912 v -1.0963 h 1.0913 l 1.0963,-1.0913 v -1.0964 h 1.0963 v -1.0962 l 1.0913,-1.0915 v -2.1876 l 1.0964,-1.0963 v -1.0962 l 1.0962,-1.0914 h 5.4913 l 1.0962,1.0914 v 2.1925 l 1.0914,1.0914 v 5.4913 h -1.0914 v 3.2838 h -1.0962 v 1.0964 l -1.0964,1.0962 v 1.0914 l -1.0912,1.0962 v 3.284 l 2.1876,2.1876 h 1.0962 l 2.1876,-2.1876 v -2.1876 l 2.1878,-4.3999 4.3998,-4.395 2.1877,1.0914 h 1.0963 l 2.1876,2.1926 v 1.0913 l 1.0963,1.0963 v 2.1877 l 1.0913,1.0962 v 1.0914 l 1.0963,1.0963 v 1.0963 l 6.5876,6.5875 h 4.3949 v -3.284 l -1.0914,-1.0962 v -1.0962 h -1.0962 v -1.0915 l -1.0963,-1.0962 h -1.0914 v -1.0964 l -1.0963,-1.0912 v -1.0964 h -1.0962 v -2.1876 l -1.0914,-1.0963 v -4.395 h 1.0914 v -1.0962 l 1.0962,-1.0963 h 1.0963 l 1.0914,-1.0914 h 7.6838 l 1.0963,-1.0963 h 1.0913 l 1.0964,-1.0962 h 1.0962 l 1.0914,-1.0914 h 1.0962 l 4.3951,-4.3998 v -1.0965 l 2.1924,-2.1876 v -1.0963 h 1.0915 l 1.0962,-1.0913 h 3.284 l 2.1876,2.1876 h 1.0964 v 1.0963 h 1.0962 l 1.0914,1.0913 v 3.2841 l -1.0914,2.1925 -1.0962,1.0914 v 2.1925 l -1.0964,1.0914 v 1.0963 l -1.0913,2.1876 v 8.7948 h 2.1877 l 2.1876,-2.1876 v -4.3949 l 1.0962,-1.0963 v -2.1877 l 1.0963,-1.0962 v -1.0963 l 1.0913,-1.0914 v -1.0963 h 2.1926 l 1.0914,-1.0962 h 4.3999 l 1.0913,1.0962 h 1.0964 l 1.0962,1.0963 h 2.1877 l 4.3998,4.395 1.0914,2.1876 1.0962,1.0963 v 1.0963 l 1.0963,2.1876 h 1.0914 l 1.0963,1.0964 h 2.1877 v -3.284 l -1.0963,-2.1926 -1.0914,-1.0913 v -1.0963 l -1.0963,-1.0963 -1.0914,-2.1877 -2.1925,-2.1877 -2.1876,-1.0962 -1.0963,-2.1877 -1.0913,-1.0962 v -1.0914 l -1.0963,-1.0962 -1.0963,-2.1877 v -1.0963 l -1.0914,-1.0964 v -4.3948 l 1.0914,-1.0963 v -2.1877 l 1.0963,-1.0963 H 2361 l 2.1876,2.1877 1.0962,2.1926 2.1877,2.1877 h 2.1877 v -1.0964 h 1.0962 v -2.1876 h -1.0962 l -2.1877,-2.1877 -1.0962,-3.284 -1.0915,-1.0962 -2.1924,-1.0963 -1.0914,-1.0913 -2.1927,-1.0964 -1.0913,-1.0962 -2.1926,-1.0914 -1.0914,-1.0963 -2.1876,-1.0913 -4.3998,-4.3999 h -1.0963 l -1.0914,-1.0962 h -1.0963 l -1.0963,-1.0915 h -1.0913 l -1.0964,-1.0962 h -3.2838 l -1.0963,-1.0963 h -12.0984 l -1.0915,-1.0914 h -2.1876 l -1.0963,1.0914 h -2.1876 l -1.0962,1.0963 h -2.1877 l -1.0963,-1.0963 h -3.2839 l -4.3999,-1.0914 -3.2839,-1.0962 h -2.1877 l -1.0964,-1.0964 v -2.1877 l -1.0912,-1.0962 -2.1926,-1.0914 -4.395,-4.3999 -2.1877,-1.0913 h -1.0962 l -1.0962,-1.0963 h -4.3951 l -1.0963,1.0963 h -2.1876 l -1.0962,1.0913 h -1.0914 l -1.0963,1.0964 h -1.0963 l -1.0914,1.0963 v 1.0913 h -1.0962 v 1.0963 l -1.0963,1.0963 v 8.7948"
         id="path7546"
         style="fill:#7d3627;fill-opacity:1;stroke:#000000;stroke-width:2.79322;stroke-miterlimit:4;stroke-dasharray:none;stroke-opacity:1" />
      <path
         d="m 2404.4497,1567.7314 v 1.0963 l 1.0914,1.0962 h 2.1925 l 9.8862,-9.8911 h 4.3999 l 2.1877,1.0963 1.0962,1.0913 v 1.0964 l 1.0914,1.0963 v 1.0913 l 1.0963,1.0964 v 4.3948 l -1.0963,1.0964 v 2.1876 l -1.0914,1.0962 v 1.0963 l -1.0962,2.1877 v 1.0962 l -1.0963,1.0914 v 1.0963 l -2.1877,2.1877 -2.1877,4.3999 -1.0963,3.2838 -1.0963,2.1877 v 1.0963 l -1.0913,1.0914 v 2.1926 h 1.0913 v 1.0913 h 1.0963 l 3.284,-3.2839 v -1.0914 l 1.0963,-1.0963 v -2.1877 l 1.0914,-1.0962 v -3.284 l 2.1925,-2.1876 v -1.0963 l 1.0914,-1.0914 h 1.0963 v -1.0962 h 3.284 l 1.0962,1.0962 h 1.0914 v 1.0914 h 1.0962 l 1.0963,1.0963 v 1.0914 h 1.0913 v 2.1926 l 1.0963,1.0913 v 3.284 l 1.0963,1.0962 v 3.2839 l 1.0914,1.0964 v 2.1877 l 2.1926,2.1876 v 1.0962 l 1.0914,1.0963 h 1.0963 l 1.0962,1.0914 h 5.4913 l 1.0914,-1.0914 -1.0914,-1.0963 v -1.0962 h -1.0962 l -1.0964,-1.0914 h -1.0913 v -1.0962 l -1.0964,-1.0964 h -1.0963 v -1.0913 l -1.0914,-1.0964 v -2.1876 l -1.0962,-1.0963 v -8.7752 l 1.0962,-2.1876 h 2.1877 l 1.0964,-1.0963 h 13.1897 l 2.1926,-1.0963 h 2.1877 l 6.5875,-3.2839 h 2.1876 l 2.1876,-1.0914 h 3.284 l 1.0963,1.0914 h 3.2839 l 1.0963,1.0963 h 1.0914 l 1.0962,1.0962 h 1.0963 l 1.0914,1.0914 h 1.0963 v 1.0963 l 1.0963,1.0963 h 1.0913 l 1.0963,1.0914 h 1.0963 l 2.1876,2.1926 h 1.0963 l 1.0914,1.0913 v 1.0963 h 3.2839 l 1.0963,1.0963 h 3.2839 l 1.0914,1.0913 h 3.2839 v 1.0963 h 1.0962 l 1.0965,1.0963 h 1.0912 v 1.0913 l 1.0964,1.0963 v 2.1877 l -1.0964,2.1877 -1.0912,1.0962 h -1.0965 v 1.0963 h -3.2838 v 1.0913 h -4.395 l -1.0963,-1.0913 h -5.4912 v -1.0963 h -2.1925 l -1.0915,1.0963 h -3.2838 l -1.0964,1.0913 h -2.1876 l -1.0963,1.0963 h -1.0914 l -3.2839,-1.0963 h -10.9873 l -1.0914,1.0963 v 3.2841 l 1.0914,1.0962 h 9.8911 l 5.4912,1.0914 h 2.1876 v 1.0962 l 1.0964,1.0963 v 4.395 l -1.0964,2.1925 v 4.395 l 1.0964,1.0963 v 12.0983 h 5.4911 v -1.0962 h 1.0963 l 1.0963,-1.0962 v -1.0914 l 1.0914,-1.0963 v -2.1876 l 1.0962,-1.0963 v -1.0964 l 1.0964,-1.0912 h 1.0913 v -1.0964 h 7.6839 l 2.1876,2.1876 v 1.0964 h 1.0962 v 1.0963 l 1.0914,1.0913 v 1.0963 l 2.1926,2.1877 v 1.0962 l 1.0913,1.0962 v 4.3951 l -1.0913,1.0963 v 1.0962 l -3.284,3.279 h -1.0962 l -3.2839,3.284 -1.0963,2.1926 -1.0913,1.0913 v 4.3999 l -1.0964,2.1876 v 3.284 h 1.0964 v 1.0963 h 1.0913 l 2.1926,-2.1877 1.0913,-2.1926 v -1.0913 l 1.0963,-2.1925 v -1.0915 l 2.1876,-2.1926 h 1.0962 l 1.0964,-1.0913 h 2.1877 l 1.0963,1.0913 h 1.0913 l 1.0963,1.0964 1.0962,2.1877 v 1.0962 l 1.0915,2.1876 v 3.284 l -1.0915,1.0963 v 2.1877 l -1.0962,1.0962 v 2.1876 l -2.1876,2.1877 v 2.1925 l -2.1927,2.1877 v 2.1877 l -1.0913,1.0963 v 1.0962 l -1.0964,1.0914 v 2.1925 l 2.1877,2.1877 1.0964,-1.0963 h 1.0963 l 1.0913,-1.0914 v -1.0962 h 1.0963 l 12.0984,-24.1969 v -3.2839 h 2.1877 v -1.0915 h 6.5875 l 1.0963,1.0915 h 3.2838 v -1.0915 h 2.1878 l 2.1876,-2.1925 2.1926,-1.0913 h 1.0913 l 3.284,-1.0963 h 3.2839 l 2.1926,-1.0963 h 5.4912 l 7.6789,7.6838 v 3.2839 h -1.0914 v 2.1877 h -1.0963 v 2.1876 l -1.0962,1.0963 v 1.0963 h -1.0914 v 1.0914 l -1.0962,1.0962 1.0962,2.1877 v 1.0962 l 1.0914,1.0963 h 1.0962 l 3.2839,-3.2839 v -3.2839 l 1.0915,-1.0963 v -3.2839 l 1.0962,-1.0963 v -1.0914 l 2.1876,-2.1925 h 1.0964 l 1.0963,-1.0914 h 12.0984 l 1.0913,1.0914 h 2.1926 l 2.1877,2.1925 2.1876,1.0914 5.4912,5.4962 1.0963,2.1877 v 1.0962 l 1.0962,2.1876 3.2841,3.2839 h 2.1876 l 1.0963,-1.0962 h 1.0914 v -1.0914 l -1.0914,-2.1925 -4.3999,-4.395 -1.0914,-4.3999 -3.2838,-4.3949 -2.1927,-2.1925 -1.0913,-2.1878 v -3.2839 l -2.1926,-2.1876 h -6.5875 l -2.1877,-1.0963 h -2.1876 l -1.0964,-1.0962 v -1.0914 l -1.0912,-1.0963 v -6.5876 l 1.0912,-2.1877 2.1926,-1.0962 h 1.0914 l 1.0963,-1.0914 h 2.1877 l 1.0962,1.0914 h 3.284 l 2.1877,1.0962 h 2.1876 l 1.0963,1.0964 h 2.1876 l 1.0962,1.0913 h 2.1877 l 4.3999,4.4 1.0914,2.1876 1.0962,1.0963 1.0964,2.1876 v 1.0963 h 1.0913 l 1.0963,1.0913 h 1.0963 v -1.0913 h 1.0913 v -4.3999 l -1.0913,-2.1876 -1.0963,-1.0963 v -1.0914 l -1.0963,-1.0962 -2.1877,-1.0964 -3.2839,-3.2839 -2.1877,-1.0914 -1.0962,-1.0963 -2.1876,-1.0963 h -1.0963 l -2.1877,-1.0913 h -1.0963 l -2.1877,-1.0963 h -1.0962 l -1.0914,-1.0962 h -3.2839 l -1.0962,-1.0914 h -1.0964 l -1.0913,1.0914 h -6.5876 l -1.0962,-1.0914 h -1.0914 l -3.2839,-3.284 v -1.0962 h -1.0962 l -2.1877,-2.1877 v -1.0962 l -2.1926,-2.1877 v -1.0963 h -1.0915 l -1.0962,-1.0963 v -1.0914 l -2.1877,-2.1926 h -1.0962 l -4.3999,-4.395 h -3.279 l -1.0962,-1.0962 h -7.6839 l -1.0914,-1.0914 h -3.2839 l -4.3998,-4.3998 v -1.0963 l -1.0914,-1.0914 v -3.2839 l 1.0914,-1.0963 v -2.1877 l -2.1877,-6.5875 v -3.2838 l -1.0962,-2.1877 -2.1877,-2.1926 h -4.3999 l -3.284,3.284 v 1.0963 l -1.0913,1.0962 v 1.0914 l -1.0964,1.0962 v 3.284 l -1.0962,2.1876 v 6.5876 l 1.0962,1.0962 v 2.1877 l -1.0962,2.1876 -1.0914,1.0963 h -1.0962 l -3.284,1.0964 h -6.5875 l -2.1877,-2.1927 v -1.0914 l 1.0963,-1.0962 v -4.395 l -1.0963,-2.1926 -9.8911,-9.8862 h -1.0914 v -1.0962 l -1.0962,-1.0962 v -1.0915 l -1.0963,-2.1926 v -2.1877 l 1.0963,-2.1876 v -1.0963 l 1.0962,-2.1876 1.0914,-1.0962 v -1.0963 l -1.0914,-2.1877 v -4.395 l 1.0914,-1.0962 v -1.0963 h 1.0962 v -1.0914 h 5.4913 l 1.0963,1.0914 h 2.1877 v 1.0963 h 1.0963 l 4.395,4.3949 2.1925,4.3999 1.0913,1.0964 h 1.0964 l 1.0962,1.0912 v -1.0912 h 1.0914 l 1.0963,-1.0964 -1.0963,-1.0963 v -1.0913 l -2.1876,-4.3999 -6.5876,-6.5876 h -1.0962 l -1.0914,-1.0913 h -2.1926 l -1.0914,-1.0963 h -1.0963 l -2.1876,-1.0963 h -3.2839 l -2.1877,-1.0913 h -5.4961 l -2.1877,-1.0963 h -5.4913 l -1.0962,-1.0964 h -7.6789 l -2.1925,1.0964 h -2.1877 l -1.0963,1.0963 h -5.4913 l -7.6789,-1.0963 h -2.1925 v -1.0964 l -1.0914,-1.0913 v -2.1926 l 1.0914,-12.0984 v -2.1876 l -1.0914,-2.1876 -1.0962,-1.0964 -1.0963,-2.1876 v -4.3999 l 4.3999,-4.395 v -2.1925 l -1.0963,-2.1877 -1.0914,-1.0963 v -2.1876 l -1.0963,-2.1877 v -2.1925 h -5.4912 l -2.1877,1.0963 h -1.0963 l -1.0962,1.0962 h -1.0914 v 1.0914 h -1.0963 v 2.1925 l -1.0962,1.0914 v 4.3998 l -1.0914,2.1878 v 5.4912 l 2.1876,2.1926 1.0963,2.1876 1.0914,1.0964 v 2.1876 l -1.0914,1.0963 h -6.5876 l -2.1924,-1.0963 h -2.1878 l -1.0963,-1.0964 h -2.1877 l -4.3948,-2.1876 h -2.1926 l -4.395,-2.1876 h -1.0962 l -2.1877,-1.0963 h -1.0963 l -1.0963,-1.0963 h -1.0914 l -2.1926,-2.1876 -2.1876,-1.0914 -3.2838,-1.0963 -2.1877,-2.1877 h -2.1877 l -1.0963,1.0914 h -1.0963 v 2.1926 h 1.0963 v 1.0914 l 1.0963,1.0963 4.3949,2.1876 15.3825,6.5875 6.5875,2.1877 2.1876,1.0962 h 3.2839 l 2.1877,1.0963 3.2839,1.0914 2.1926,1.0963 h 1.0914 v 3.284 l -4.395,4.3949 h -1.0963 l -1.0914,1.0963 h -1.0962 l -1.0963,-1.0963 h -2.1877 l -1.0963,-1.0913 h -1.0913 l -1.0963,-1.0964 h -1.0963 l -2.1876,-1.0963 -1.0963,-1.0913 h -1.0914 l -1.0962,-1.0963 h -1.0963 l -2.1877,-2.1877 -2.1876,-1.0962 h -2.1926 l -2.1877,-1.0962 -1.0963,-1.0915 -4.3948,-2.1876 h -2.1877 l -1.0964,1.0914 h -4.3998 l -1.0914,-1.0914 -2.1925,-1.0963 h -3.284 l -1.0913,2.1877 v 1.0962 l 1.0913,2.1877 1.0963,1.0962 1.0962,2.1877 1.0915,1.0963 v 13.1898 l 1.0962,3.2839 v 2.1926 l 3.284,8.7949"
         id="path7554"
         style="fill:#583b19;fill-opacity:1;stroke:#000000;stroke-width:2.79322;stroke-miterlimit:4;stroke-dasharray:none;stroke-opacity:1" />
      <path
         d="m 2168.772,1674.0245 -1.0914,-1.0963 h -1.0963 v -2.1876 l 1.0963,-1.0962 1.0914,1.0962 h 1.0963 v 2.1876 l -1.0963,1.0963"
         id="path7570"
         style="fill:#7d3627;fill-opacity:1;stroke:none" />
      <path
         d="m 2168.772,1674.0245 -1.0914,-1.0963 h -1.0963 v -2.1876 l 1.0963,-1.0962 1.0914,1.0962 h 1.0963 v 2.1876 l -1.0963,1.0963"
         id="path7572"
         style="fill:#7d3627;fill-opacity:1;stroke:none" />
      <path
         d="m 2574.9142,1633.7148 v -1.0913 l 2.1926,-2.1927 v 3.284 l -1.0963,1.0963 -1.0963,-1.0963"
         id="path7604"
         style="fill:#787878;fill-opacity:1;stroke:none" />
      <path
         d="m 2574.9142,1633.7148 v -1.0913 l 2.1926,-2.1927 v 3.284 l -1.0963,1.0963 -1.0963,-1.0963"
         id="path7606"
         style="fill:#787878;fill-opacity:1;stroke:none" />
      <path
         d="m 2075.2931,1554.1364 -2.1926,2.1876 v 2.1926 l 2.1926,2.1876 13.1897,14.2862 h 5.4913 v -2.1876 l 1.0963,-1.0963 v -3.284 l -2.1876,-1.0914 h -1.0963 v -1.0963 l 1.0963,-1.0962 2.1876,1.0962 h 1.0963 l 1.0914,-1.0962 v -1.0914 l 1.0962,-1.0963 h 6.5875 l 1.0914,1.0963 v 1.0914 l 1.0963,1.0962 v 1.0963 l 1.0963,1.0914 v 1.0963 l 2.1877,2.1877 h 1.0963 l 1.0914,1.0963 h 5.4961 v 1.0963 l 1.0914,1.0913 v 3.2839 l -1.0914,1.0962 v 4.4 h -1.0962 v 1.0913 l -1.0964,1.0963 v 1.0914 h -1.0913 l -1.0964,1.0963 h -9.8911 l -2.1876,2.1877 v 1.0962 l -1.0964,1.0963 v 1.0913 l 1.0964,1.0963 v 1.0963 l 1.0963,1.0913 v 1.0964 h 1.0913 l 5.4912,5.4912 v 2.1926 h 1.0964 v 1.0914 l 1.0963,1.0962 v 1.0963 l 2.1876,2.1877 v 1.0963 l 2.1876,2.1876 h 1.0963 v 1.0913 l 1.0963,1.0963 h 1.0913 l 1.0963,1.0963 h 5.4912 l 1.0964,-1.0963 1.0913,-2.1876 1.0964,-1.0963 h 4.3998 l 2.1876,2.1876 v 4.3999 l 1.0963,1.0963 h 2.1876 l 1.0964,1.0914 h 2.1876 l 1.0963,1.0962 h 1.0914 l 2.1925,1.0963 h 1.0914 l 1.0963,1.0914 h 2.1876 l 1.0962,1.0963 h 3.2839 l 2.1877,-2.1877 v -1.0963 h -1.0962 l -2.1878,-2.1876 h -2.1876 l -1.0962,-1.0963 h -2.1876 v -1.0963 h -1.0963 l -2.1877,-2.1876 v -4.3949 l 1.0963,-1.0963 v -1.0963 l 1.0914,-1.0914 h 9.8911 l 21.9895,3.284 4.395,4.3949 6.5875,3.2839 1.0963,1.0963 1.0913,2.1876 1.0963,1.0963 1.0963,2.1877 2.1876,1.0962 1.0964,1.0914 h 2.1876 l 2.1877,-2.1876 -1.0915,-1.0963 v -1.0914 l -7.6837,-7.6838 -2.1877,-1.0963 -2.1925,-2.1876 v -2.1876 l -1.0914,-1.0963 v -2.1877 l -1.0962,-1.0962 v -2.1877 h 1.0962 l 1.0914,-1.0963 v -1.0913 h 2.1925 l 1.0913,-1.0964 h 3.284 l 1.0963,1.0964 h 1.0962 l 1.0915,1.0913 h 1.0962 l 1.0963,1.0963 h 1.0913 v -1.0963 h 1.0963 v -2.1877 h -1.0963 l -2.1876,-2.1877 h -1.0962 l -1.0915,-1.0962 v -1.0963 l -1.0962,-1.0913 h -1.0963 v -1.0963 l -3.284,-3.2839 v -1.0963 l -4.3948,-4.395 h -1.0964 v -1.0963 l -2.1876,-2.1876 h -1.0963 l -1.0914,-1.0963 h -8.7949 l -1.0962,1.0963 h -6.5875 l -4.3999,-1.0963 -5.4912,-1.0914 -4.395,-1.0962 -3.2838,-1.0964 -1.0964,-1.0912 h -1.0962 l -2.1877,-2.1927 h -1.0914 l -1.0963,-1.0913 h -1.0962 l -1.0914,-1.0963 h -12.0984 l -1.0963,1.0963 h -4.3999 l -5.4912,-5.4962 v -2.1877 l 1.0963,-1.0962 h 1.0962 v -1.0914 h 1.0914 l 2.1926,-1.0963 h 2.1876 l 2.1877,-1.0914 h 9.8911 l 1.0914,1.0914 h 8.78 l 3.284,3.2839 v 1.0963 h 1.0913 v 1.0914 h 2.1926 l 1.0913,-1.0914 v -2.1925 l -3.2839,-3.2791 v -4.3998 l 2.1926,-1.0963 1.0913,-1.0913 v -2.1926 l -1.0913,-1.0913 v -1.0964 l -2.1926,-1.0962 v -4.3951 l -3.2839,-3.2838 h -24.1968 l -1.0914,-1.0963 -4.3998,-2.1876 -2.1877,-2.1877 v -1.0963 l -1.0964,-1.0963 h -6.5875 l -1.0914,-1.0914 h -6.5874 l -1.0964,1.0914 h -2.1876 l -1.0963,1.0963 h -1.0913 v 1.0963 l -1.0963,1.0913 h -1.0963 v 2.1926 h -1.0914 v 2.1877 h -1.0962 v 2.1876 h -1.0963 v 1.0962 h -1.0914 l -1.0963,1.0915 h -3.2839 l -1.0963,1.0962 h -2.1877 l -5.4912,6.5876"
         id="path7616"
         style="fill:#7d3627;fill-opacity:1;stroke:#000000;stroke-width:2.79322;stroke-miterlimit:4;stroke-dasharray:none;stroke-opacity:1" />
      <path
         d="m 2519.9182,1609.5179 h 2.1876 v -1.0913 h 2.1877 l 1.0963,-1.0963 h 1.0962 l 1.0914,-1.0962 h 9.8911 l 1.0963,1.0962 h 1.0914 l 1.0963,1.0963 h 1.0963 v 1.0913 h 1.0914 v 1.0963 l 1.0962,1.0963 v 6.5826 l -2.1876,2.1926 h -1.0963 v 1.0914 h -8.7752 l -1.0963,-1.0914 h -2.1876 v -1.0963 h -1.0962 l -1.0915,-1.0963 h -2.1925 v -1.0913 h -1.0914 l -1.0963,-1.0964 h -1.0963 v -4.3949 l -1.0913,-1.0963 v -1.0963"
         id="path7624"
         style="fill:#787878;fill-opacity:1;stroke:none" />
      <path
         d="m 2519.9182,1609.5179 h 2.1876 v -1.0913 h 2.1877 l 1.0963,-1.0963 h 1.0962 l 1.0914,-1.0962 h 9.8911 l 1.0963,1.0962 h 1.0914 l 1.0963,1.0963 h 1.0963 v 1.0913 h 1.0914 v 1.0963 l 1.0962,1.0963 v 6.5826 l -2.1876,2.1926 h -1.0963 v 1.0914 h -8.7752 l -1.0963,-1.0914 h -2.1876 v -1.0963 h -1.0962 l -1.0915,-1.0963 h -2.1925 v -1.0913 h -1.0914 l -1.0963,-1.0964 h -1.0963 v -4.3949 l -1.0913,-1.0963 v -1.0963 h -0.019 z"
         id="path7626"
         style="fill:#583b19;fill-opacity:1;stroke:none" />
      <path
         d="m 2562.8158,1609.5179 h 4.3999 l 2.1877,1.0963 h 1.0962 l 1.0963,1.0963 2.1876,1.0913 v 1.0963 l 1.0964,1.0963 -3.284,3.284 h -1.0963 l -1.0962,1.0913 h -5.4913 l -1.0963,-1.0913 h -2.1876 l -2.1877,-2.1926 v -2.1877 h -2.1926 v -1.0963 l 2.1926,-2.1876 h 2.1877 v -1.0963 h 2.1876"
         id="path7628"
         style="fill:#787878;fill-opacity:1;stroke:none" />
      <path
         d="m 2562.8158,1609.5179 h 4.3999 l 2.1877,1.0963 h 1.0962 l 1.0963,1.0963 2.1876,1.0913 v 1.0963 l 1.0964,1.0963 -3.284,3.284 h -1.0963 l -1.0962,1.0913 h -5.4913 l -1.0963,-1.0913 h -2.1876 l -2.1877,-2.1926 v -2.1877 h -2.1926 v -1.0963 l 2.1926,-2.1876 h 2.1877 v -1.0963 h 2.1876"
         id="path7630"
         style="fill:#9ad110;fill-opacity:1;stroke:none" />
      <path
         d="m 2301.8548,1610.2288 1.0913,1.0962 h 4.3999 v -2.1877 l -10.9874,-14.291 v -1.0913 l -1.0914,-1.0963 v -2.1876 l 1.0914,-1.0963 2.1927,-7.6789 v -4.3999 l -2.1927,-4.3949 -1.0914,-1.0963 v -1.0963 l -1.0963,-1.0914 h -6.5875 l -2.1877,-1.0963 h -3.2838 l -2.1876,-1.0962 h -4.4 l -4.3949,2.1925 h -6.5876 l -2.1926,-2.1925 h -1.0913 l -4.3999,-4.3951 h -1.0962 l -2.1877,-2.1925 h -8.7949 l -1.0962,1.0963 h -2.1877 l -1.0913,1.0962 h -1.0963 v 1.0914 h -1.0963 l -1.0913,1.0963 v 1.0964 h -1.0964 v 1.0913 l -1.0962,1.0963 v 1.0962 h -3.2839 v 2.1877 h 2.1925 v 1.0963 l -2.1925,2.1876 v 1.0964 h -1.0914 l -1.0963,1.0912 h -1.0963 l -1.0913,1.0964 h -1.0964 l -1.0963,1.0962 h -2.1876 l -1.0963,1.0914 h -2.1876 l -1.0962,1.0963 h -2.1877 l -2.1877,2.1876 h -1.0963 v 1.0963 l -2.1876,2.1877 v 2.1925 l 1.0913,1.0915 v 1.0962 h 1.0963 v 1.0963 h 1.0963 l 3.284,3.279 v 1.0962 h 1.0914 v 6.5875 l 1.0962,1.0964 v 1.0913 l 1.0963,1.0964 4.3949,2.1876 h 3.284 l 1.0962,-1.0914 h 1.0963 v -1.0962 h 1.0914 v -1.0964 h 1.0963 v -1.0913 l 2.1876,-2.1926 v -1.0914 l 2.1877,-2.1925 h 1.0963 v -1.0914 l 1.0963,1.0914 2.1876,1.0962 h 2.1876 l 4.3999,4.3999 v 10.9826 h 1.0963 v 1.0962 l 1.0914,1.0914 v 1.0962 h 5.4912 l 3.284,-1.0962 2.1925,1.0962 h 5.4912 v -2.1876 h -1.0962 l -1.0914,-1.0962 -2.1925,-1.0964 -5.4912,-5.4912 v -2.1876 l 1.0962,-1.0963 v -2.1877 l 1.0914,-1.0963 h 1.0962 v -1.0963 h 2.1876 v -1.0914 h 2.1926 l 5.4913,-5.4912 h 1.0963 l 1.0914,-1.0962 h 4.3999 l 1.0913,1.0962 v 1.0914 l 2.1925,2.1927 v 2.1876 l 1.0914,2.1876 v 2.1925 h 1.0962 l 1.0964,1.0914 v 1.0962 h 2.1876 v -1.0962 h 1.0964 v -3.2839 l -1.0964,-2.1876 v -2.1876 l 1.0964,-1.0965 h 1.0913 l 2.1925,-1.0962 1.0915,1.0962 h 2.1925 l 1.0913,1.0965 7.6838,12.0982"
         id="path7632"
         style="fill:#7d3627;fill-opacity:1;stroke:#000000;stroke-width:2.79322;stroke-miterlimit:4;stroke-dasharray:none;stroke-opacity:1" />
      <path
         d="m 2502.3285,1561.1291 -1.0962,-1.0963 1.0962,-1.0962 h 2.1877 v 2.1925 h -2.1877"
         id="path7724"
         style="fill:#787878;fill-opacity:1;stroke:none" />
      <path
         d="m 2502.3285,1561.1291 -1.0962,-1.0963 1.0962,-1.0962 h 2.1877 v 2.1925 h -2.1877"
         id="path7726"
         style="fill:#787878;fill-opacity:1;stroke:none" />
      <path
         d="m 2112.6995,1561.8399 h -1.0964 v -2.1926 h 2.1926 v 2.1926 h -1.0962"
         id="path7728"
         style="fill:#7d3627;fill-opacity:1;stroke:none" />
      <path
         d="m 2112.6995,1561.8399 h -1.0964 v -2.1926 h 2.1926 v 2.1926 h -1.0962"
         id="path7730"
         style="fill:#7d3627;fill-opacity:1;stroke:none" />
      <path
         d="m 2111.5835,1557.44 h 2.1925 v -14.2861 h -2.1925 z"
         id="path7736"
         style="fill:#7d3627;fill-opacity:1;stroke:none" />
      <path
         d="m 428.75105,229.77252 a 0.814345,0.53441387 0 1 1 -1.62869,0 0.814345,0.53441387 0 1 1 1.62869,0 z"
         transform="matrix(6.9830469,0,0,6.9830469,170.47028,118.53273)"
         id="path3572"
         style="fill:none;stroke:#000000;stroke-width:0.5;stroke-linecap:butt;stroke-linejoin:miter;stroke-miterlimit:4;stroke-dasharray:none;stroke-opacity:1" />
      <path
         d="m 428.75105,229.77252 a 0.814345,0.53441387 0 1 1 -1.62869,0 0.814345,0.53441387 0 1 1 1.62869,0 z"
         transform="matrix(6.9830469,0,0,6.9830469,170.11496,131.86064)"
         id="path4471"
         style="fill:none;stroke:#000000;stroke-width:0.5;stroke-linecap:butt;stroke-linejoin:miter;stroke-miterlimit:4;stroke-dasharray:none;stroke-opacity:1" />
      <path
         d="m 428.75105,229.77252 a 0.814345,0.53441387 0 1 1 -1.62869,0 0.814345,0.53441387 0 1 1 1.62869,0 z"
         transform="matrix(6.9830469,0,0,6.9830469,170.11496,145.0109)"
         id="path4473"
         style="fill:none;stroke:#000000;stroke-width:0.5;stroke-linecap:butt;stroke-linejoin:miter;stroke-miterlimit:4;stroke-dasharray:none;stroke-opacity:1" />
      <path
         d="m 428.75105,229.77252 a 0.814345,0.53441387 0 1 1 -1.62869,0 0.814345,0.53441387 0 1 1 1.62869,0 z"
         transform="matrix(6.9830469,0,0,6.9830469,169.75956,159.2274)"
         id="path4475"
         style="fill:none;stroke:#000000;stroke-width:0.5;stroke-linecap:butt;stroke-linejoin:miter;stroke-miterlimit:4;stroke-dasharray:none;stroke-opacity:1" />
      <path
         d="m 428.75105,229.77252 a 0.814345,0.53441387 0 1 1 -1.62869,0 0.814345,0.53441387 0 1 1 1.62869,0 z"
         transform="matrix(6.9830469,0,0,6.9830469,169.04878,172.37765)"
         id="path4477"
         style="fill:none;stroke:#000000;stroke-width:0.5;stroke-linecap:butt;stroke-linejoin:miter;stroke-miterlimit:4;stroke-dasharray:none;stroke-opacity:1" />
      <path
         d="m 3094.547,1658.3074 c 0.3556,52.9563 -0.3556,54.0225 -0.3556,54.0225"
         id="path4479"
         style="fill:none;stroke:#000000;stroke-width:4.88813;stroke-linecap:butt;stroke-linejoin:round;stroke-miterlimit:4;stroke-dasharray:none;stroke-opacity:1" />
      <path
         d="m 3100.565,1725.7664 c 0.3556,52.9564 -0.3556,54.0225 -0.3556,54.0225"
         id="path4481"
         style="fill:none;stroke:#000000;stroke-width:4.88813;stroke-linecap:butt;stroke-linejoin:round;stroke-miterlimit:4;stroke-dasharray:none;stroke-opacity:1" />
    </g>
    <text
       xml:space="preserve"
       style="font-style:normal;font-variant:normal;font-weight:normal;font-stretch:normal;font-size:198.272px;line-height:1.25;font-family:'EB Garamond SC';-inkscape-font-specification:'EB Garamond SC';letter-spacing:0px;word-spacing:0px;fill:#ffffff;fill-opacity:1;stroke:none;stroke-width:4.9568"
       x="1268.7623"
       y="952.0141"
       id="text12746"><tspan
         sodipodi:role="line"
         id="tspan12744"
         x="1268.7623"
         y="952.0141"
         style="font-style:normal;font-variant:normal;font-weight:normal;font-stretch:normal;font-family:'Baekmuk Headline';-inkscape-font-specification:'Baekmuk Headline';fill:#ffffff;stroke-width:4.9568">AD ASTRA PER ASPERA</tspan></text>
  </g>
</svg>
