<?xml version="1.0" encoding="UTF-8" standalone="no"?>
<!-- Created with Inkscape (http://www.inkscape.org/) -->

<svg
   width="186.91197mm"
   height="120.79601mm"
   viewBox="0 0 186.91197 120.79601"
   version="1.1"
   id="svg5"
   inkscape:version="1.1 (ce6663b3b7, 2021-05-25)"
   sodipodi:docname="MI.svg"
   inkscape:export-filename="/home/kavi/Dropbox/50-state-terrible-flags/MI.png"
   inkscape:export-xdpi="645.65997"
   inkscape:export-ydpi="645.65997"
   xmlns:inkscape="http://www.inkscape.org/namespaces/inkscape"
   xmlns:sodipodi="http://sodipodi.sourceforge.net/DTD/sodipodi-0.dtd"
   xmlns="http://www.w3.org/2000/svg"
   xmlns:svg="http://www.w3.org/2000/svg">
  <sodipodi:namedview
     id="namedview7"
     pagecolor="#ffffff"
     bordercolor="#666666"
     borderopacity="1.0"
     inkscape:pageshadow="2"
     inkscape:pageopacity="0.0"
     inkscape:pagecheckerboard="0"
     inkscape:document-units="mm"
     showgrid="false"
     inkscape:zoom="0.49409871"
     inkscape:cx="302.57112"
     inkscape:cy="361.26384"
     inkscape:window-width="924"
     inkscape:window-height="1016"
     inkscape:window-x="996"
     inkscape:window-y="27"
     inkscape:window-maximized="0"
     inkscape:current-layer="layer1" />
  <defs
     id="defs2" />
  <g
     inkscape:label="Layer 1"
     inkscape:groupmode="layer"
     id="layer1"
     transform="translate(15.739888,-96.153366)">
    <rect
       style="color:#000000;overflow:visible;fill:#000080;fill-rule:evenodd;stroke:none;stroke-width:0.271014;stroke-linecap:round;stroke-miterlimit:3.4375"
       id="rect11638"
       width="186.91197"
       height="120.79601"
       x="-15.739888"
       y="96.153366" />
    <g
       id="g12537"
       transform="matrix(0.72330701,0,0,0.72330701,-476.90484,17.017861)"
       style="fill:#4444c2;fill-opacity:1">
      <g
         id="Marker"
         style="display:none;fill:#4444c2;fill-opacity:1">
        <circle
           cx="997"
           cy="310"
           r="24"
           id="circle3307"
           style="opacity:0.12;fill:#4444c2;fill-opacity:1" />
        <circle
           cx="997"
           cy="310"
           r="48"
           id="circle3309"
           style="display:inline;opacity:0.12;fill:#4444c2;fill-opacity:1" />
        <circle
           cx="997"
           cy="310"
           r="48"
           id="circle3311"
           style="display:inline;fill:#4444c2;fill-opacity:1;stroke:#c12838;stroke-width:11" />
      </g>
      <g
         id="g14715"
         style="fill:#4444c2;fill-opacity:1">
        <g
           id="US_States"
           style="fill:#4444c2;fill-opacity:1">
          <path
             style="color:#000000;overflow:visible;fill:#4444c2;fill-opacity:1;fill-rule:evenodd;stroke:none;stroke-width:0.197415;stroke-linecap:round;stroke-miterlimit:3.4375"
             d="m 512.71253,758.74624 c 1.12578,-1.34923 1.91221,-3.00172 2.71506,-5.70506 0.3778,-1.27214 0.81311,-2.45963 0.96735,-2.63887 0.5472,-0.63586 1.67974,-3.12054 2.08539,-4.57513 1.06817,-3.83024 1.37882,-8.14913 0.90134,-12.53098 -0.49568,-4.54894 -0.68533,-5.22699 -2.67629,-9.56846 -0.3091,-0.67401 -0.34464,-0.90221 -0.15061,-0.96689 0.13969,-0.0466 0.46982,-0.30049 0.73361,-0.56428 0.34353,-0.34353 0.41911,-0.54015 0.26635,-0.69291 -0.15275,-0.15276 -0.2875,-0.15167 -0.47488,0.004 -0.14388,0.11942 -0.50559,0.30988 -0.8038,0.42326 l -0.5422,0.20614 -1.4336,-2.90917 c -0.78848,-1.60004 -1.62798,-3.35335 -1.86555,-3.89624 -0.23758,-0.54289 -0.61148,-1.29662 -0.83089,-1.67495 -0.59733,-1.02995 -0.51255,-1.91234 0.31436,-3.27203 1.07012,-1.75958 1.11273,-2.04456 0.55213,-3.69281 -0.28259,-0.83083 -0.43915,-1.63919 -0.3745,-1.93356 0.0797,-0.36297 -0.008,-0.61397 -0.31221,-0.88868 -0.52877,-0.47821 -1.17096,-1.71483 -1.17096,-2.25483 0,-0.2239 0.34345,-0.78267 0.76323,-1.2417 0.95222,-1.04127 1.34099,-1.79542 1.78753,-3.46756 0.19319,-0.72343 0.55203,-1.69445 0.79743,-2.15782 0.38846,-0.73351 0.43793,-1.07822 0.38245,-2.66509 -0.035,-1.00244 0.007,-2.3637 0.0927,-3.02502 0.138,-1.06077 0.0954,-1.34736 -0.36151,-2.43296 -0.28486,-0.6768 -0.46865,-1.38582 -0.40842,-1.5756 0.14017,-0.44162 1.49046,-1.20501 2.13143,-1.20501 0.81793,0 0.94545,-0.37168 0.88871,-2.59029 l -0.0524,-2.04895 0.63825,0.0615 c 0.58368,0.0563 0.67565,-0.0155 1.07576,-0.83902 0.48351,-0.9952 0.64741,-1.05646 1.50683,-0.56323 0.70791,0.40629 1.09741,0.18189 1.38387,-0.79728 0.57878,-1.97838 0.72792,-2.34408 1.01969,-2.50022 0.17695,-0.0947 0.57824,-0.84437 0.89177,-1.66592 0.31352,-0.82156 0.68575,-1.49374 0.82716,-1.49374 0.14142,0 0.43156,-0.17443 0.64476,-0.38763 0.2132,-0.21319 0.431,-0.31745 0.48401,-0.23167 0.18794,0.30409 -0.12985,1.00008 -0.59614,1.30561 -0.59955,0.39284 -0.59509,0.74854 0.0226,1.80249 0.40565,0.69219 0.44529,0.87427 0.21866,1.00441 -0.23166,0.13303 -0.91155,1.46469 -0.91155,1.78541 0,0.0537 0.17768,0.0512 0.39483,-0.006 0.33564,-0.0878 0.39483,-0.006 0.39483,0.54511 0,0.3566 -0.13325,0.96728 -0.29612,1.35708 -0.46025,1.10154 -0.377,1.92263 0.27399,2.70241 l 0.57012,0.68291 0.31484,-1.0602 c 0.17317,-0.58311 0.26326,-1.14367 0.20021,-1.24569 -0.0631,-0.10202 0.046,-0.36299 0.24232,-0.57993 0.25395,-0.28061 0.29102,-0.4352 0.12847,-0.53566 -0.14962,-0.0925 -0.16499,-0.24165 -0.0445,-0.43214 0.10118,-0.16 0.18533,-0.66846 0.18699,-1.12992 0.002,-0.60741 0.0836,-0.83901 0.29492,-0.83901 0.40484,0 0.30043,2.92438 -0.12801,3.58537 -0.39838,0.6146 -0.62804,2.5356 -0.30264,2.53146 0.5005,-0.006 0.72105,-0.36089 1.53369,-2.4653 0.78299,-2.02764 0.84432,-2.32909 0.92929,-4.56745 0.0702,-1.84998 0.0194,-2.61536 -0.2227,-3.35605 -0.59796,-1.82924 -0.60285,-2.45535 -0.026,-3.32849 0.51348,-0.77719 2.19262,-2.13429 3.35335,-2.71023 0.34925,-0.1733 0.89445,-0.25614 1.32882,-0.20191 1.37248,0.17134 3.42088,-0.87182 3.01177,-1.53377 -0.0657,-0.10633 -0.4918,-0.19366 -0.94685,-0.19407 -2.15647,-0.002 -3.53191,-2.44836 -2.613,-4.64762 0.15796,-0.37806 0.42657,-0.74086 0.5969,-0.80622 0.17032,-0.0654 0.63393,-0.60734 1.03023,-1.20439 l 0.72054,-1.08554 -0.47843,-0.36777 -0.47842,-0.36777 0.69095,-0.0399 c 0.38002,-0.0219 0.97858,-0.0202 1.33012,0.004 0.76053,0.052 1.43368,-0.26579 1.43368,-0.67686 0,-0.48177 0.53903,-0.54474 1.12813,-0.13178 0.30244,0.21202 1.03849,0.54182 1.63567,0.7329 0.59718,0.19108 1.39671,0.63602 1.77673,0.98875 0.89738,0.83294 1.4335,0.94438 2.73006,0.56745 0.98159,-0.28535 1.14991,-0.28281 2.17746,0.0329 1.36686,0.42 1.86847,0.85861 2.49388,2.18062 0.2667,0.56374 0.59826,1.0682 0.73681,1.12103 0.13855,0.0528 1.02346,0.0736 1.96647,0.0461 1.58787,-0.0463 1.74747,-0.0149 2.15997,0.42415 0.53629,0.57085 2.15356,1.08745 2.92277,0.93361 0.42572,-0.0851 0.62647,-0.0102 0.85782,0.32005 0.3549,0.50669 1.62181,0.85201 2.95591,0.80568 0.51575,-0.0179 0.93789,0.0385 0.9381,0.12526 2e-4,0.0868 0.44669,0.46201 0.99218,0.8338 0.67786,0.46201 0.92769,0.74008 0.78927,0.87849 -0.11138,0.11139 -0.19662,0.34022 -0.18941,0.50851 0.0212,0.49466 1.26678,2.07767 1.6837,2.1398 0.40935,0.061 0.94935,1.35094 0.64443,1.53939 -0.33743,0.20854 -0.15824,0.6674 0.37321,0.95572 0.48372,0.26242 0.49738,0.29538 0.12533,0.30242 -0.22965,0.004 -0.64704,-0.17261 -0.92753,-0.39324 -0.50163,-0.39458 -1.37461,-0.38445 -1.62386,0.0188 -0.32552,0.52671 -0.25398,1.91269 0.13729,2.65983 0.37362,0.71342 1.64284,1.86005 2.07355,1.87328 0.24002,0.007 0.77291,1.27765 1.15728,2.75871 0.2294,0.88395 0.3544,2.32737 0.40174,4.63924 0.0378,1.84582 0.16177,3.66638 0.2755,4.04569 0.11374,0.37931 0.20679,1.07241 0.20679,1.54023 0,0.7542 -0.0627,0.87243 -0.55301,1.04337 -0.30415,0.10603 -0.70894,0.45675 -0.89953,0.77938 -0.23145,0.39183 -0.50414,0.58661 -0.8212,0.58661 -1.07332,0 -1.52349,1.14849 -1.48103,3.77847 0.0363,2.24969 0.0178,2.34138 -0.4728,2.34138 -0.64541,0 -1.13558,0.44419 -1.17046,1.06068 -0.0257,0.45478 -0.1055,0.53117 -0.48003,0.45974 -0.26911,-0.0513 -0.51636,0.0344 -0.6168,0.21389 -0.12206,0.2181 -0.35868,0.26855 -0.87021,0.18554 -0.59009,-0.0958 -0.75163,-0.0392 -1.00888,0.35345 -0.72442,1.10561 -1.14048,3.08518 -0.705,3.35433 0.12843,0.0794 0.10548,0.25759 -0.0644,0.50016 -0.3539,0.50526 -0.24973,2.75124 0.16478,3.55282 0.35481,0.68613 1.99049,1.56685 2.91596,1.57009 0.30291,9.9e-4 0.88258,0.17122 1.28814,0.37812 0.60283,0.30754 0.81688,0.33364 1.17301,0.14304 0.46538,-0.24906 1.37538,-1.58051 1.81284,-2.65242 0.1869,-0.45798 0.32847,-0.59043 0.47472,-0.44418 0.55805,0.55805 0.85373,0.20307 1.51193,-1.8151 0.36297,-1.11293 0.82705,-2.30827 1.0313,-2.65631 0.20424,-0.34805 0.34483,-0.7483 0.31241,-0.88946 -0.0324,-0.14115 0.11825,-0.44212 0.33481,-0.66882 0.21655,-0.22669 0.53966,-0.68317 0.71801,-1.0144 0.2509,-0.46594 0.50521,-0.63279 1.12377,-0.7373 0.43972,-0.0743 0.90432,-0.26138 1.03245,-0.41576 0.12812,-0.15438 0.46838,-0.28069 0.75612,-0.28069 0.38879,0 0.61279,-0.16639 0.87203,-0.64778 0.21799,-0.40478 0.6503,-0.77837 1.15245,-0.99592 0.78131,-0.33849 0.83996,-0.3363 2.11437,0.0787 2.70764,0.8818 4.63738,3.74589 5.75049,8.53479 0.35141,1.51184 0.88952,3.22599 1.20848,3.84958 0.31625,0.61829 0.80177,2.01253 1.07893,3.09831 0.27716,1.08578 0.91051,3.17344 1.40743,4.63924 1.00167,2.95465 1.19823,4.77086 0.71573,6.61339 -0.30802,1.17626 -0.36625,2.84528 -0.16545,4.74241 0.0933,0.88109 0.0612,1.79846 -0.088,2.51704 -0.24897,1.19931 -0.60156,1.52172 -0.60156,0.55007 0,-0.66547 -0.0443,-0.70408 -1.00548,-0.87723 -0.62555,-0.11267 -0.79631,-0.0458 -1.44531,0.56632 -0.40478,0.38175 -0.81846,0.69409 -0.91931,0.69409 -0.3523,0 -0.18319,0.98383 0.21147,1.2303 0.4953,0.30932 0.51317,0.74385 0.0306,0.74385 -0.20033,0 -0.52177,0.17406 -0.7143,0.38681 -0.41717,0.46098 -0.64825,2.06514 -0.32615,2.26421 0.68096,0.42085 -0.29484,1.36099 -2.64232,2.54574 -1.06228,0.53612 -2.10885,1.8492 -2.47141,3.10073 -0.20015,0.69093 -0.10088,6.51659 0.12648,7.42249 0.0965,0.38446 0.0412,0.46801 -0.30996,0.46801 -0.40226,0 -0.40933,0.0258 -0.12011,0.43875 0.4039,0.57665 0.38777,0.72981 -0.0644,0.61156 -0.40681,-0.10639 -1.01016,0.57693 -1.01016,1.14405 0,0.18138 -0.11348,0.37333 -0.25218,0.42655 -0.13869,0.0532 -0.49929,0.5852 -0.80133,1.18217 -1.01827,2.01257 -0.66281,1.87731 -8.12627,3.09227 -2.71445,0.44188 -5.95698,0.97987 -7.20563,1.19552 -1.24864,0.21565 -3.69165,0.6169 -5.4289,0.89166 -1.73724,0.27476 -3.3938,0.53854 -3.68123,0.58618 -0.46362,0.0768 -0.53705,0.01 -0.65055,-0.59535 -0.14936,-0.79618 0.0355,-0.77485 -3.26867,-0.37704 -1.35723,0.16341 -3.26721,0.37853 -4.24442,0.47804 -0.9772,0.0995 -2.9316,0.31849 -4.34312,0.48661 -2.9916,0.3563 -5.21809,0.59789 -9.17977,0.99606 -1.57438,0.15824 -4.19506,0.42609 -5.82373,0.59524 -1.62867,0.16915 -4.24935,0.43572 -5.82373,0.59238 -1.57438,0.15666 -3.43841,0.34695 -4.1423,0.42287 l -1.27979,0.13803 0.8099,-0.97065 z m 31.41121,-67.15465 c 0.32793,-0.42715 0.31147,-0.6408 -0.0494,-0.6408 -0.16287,0 -0.48722,-0.19111 -0.72079,-0.42468 -0.23357,-0.23357 -0.6785,-0.43345 -0.98873,-0.44418 -0.36458,-0.0126 -0.53076,-0.10678 -0.46989,-0.26628 0.0598,-0.15672 -0.0859,-0.24677 -0.39937,-0.24677 -0.58796,0 -0.71384,0.27256 -0.52376,1.13405 0.26929,1.2205 2.42955,1.82957 3.15189,0.88866 z m -3.06838,-28.31691 c -0.13107,-0.13107 -0.24126,-0.68693 -0.24488,-1.23525 -0.008,-1.25851 -0.54067,-2.02894 -1.16948,-1.69241 -0.46794,0.25043 -0.47634,0.28875 -0.18341,0.8361 0.17611,0.32907 0.15647,0.44627 -0.0987,0.58908 -0.4848,0.27131 -0.38755,0.57259 0.48975,1.51731 0.74162,0.79861 0.82806,0.84046 1.12421,0.5443 0.25059,-0.25058 0.26865,-0.37299 0.0825,-0.55913 z m 1.2664,-0.89964 c 0.24128,-0.75495 0.54866,-1.23385 0.79197,-1.23385 0.41232,0 0.6432,-0.65017 0.49251,-1.38696 -0.23194,-1.13407 -0.68983,-0.97067 -1.48704,0.53067 -0.81801,1.5405 -0.93153,2.43561 -0.30888,2.43561 0.22056,0 0.45071,-0.15546 0.51144,-0.34547 z m 5.99704,-0.66324 c 0,-0.1942 -0.2971,-0.57971 -0.66023,-0.85668 -1.30241,-0.9934 -1.92913,-0.40809 -0.91469,0.85425 0.56706,0.70563 0.67921,0.76363 1.10308,0.57051 0.25951,-0.11825 0.47184,-0.37388 0.47184,-0.56808 z"
             id="path12791"
             transform="translate(254.60253,-487.2268)" />
          <path
             style="color:#000000;overflow:visible;fill:#4444c2;fill-opacity:1;fill-rule:evenodd;stroke:none;stroke-width:0.197415;stroke-linecap:round;stroke-miterlimit:3.4375"
             d="m 487.23294,675.17216 c -0.56089,-0.58544 -0.56769,-0.61841 -0.3386,-1.64208 0.12858,-0.57456 0.40969,-1.33392 0.6247,-1.68747 0.50301,-0.82713 0.49259,-1.23618 -0.0533,-2.09184 -0.37439,-0.58687 -0.55874,-0.6976 -1.1732,-0.70464 -0.40542,-0.005 -1.04908,0.18049 -1.45006,0.41706 -0.59513,0.35114 -0.75063,0.37753 -0.89056,0.15112 -0.11294,-0.18275 -0.0243,-0.42887 0.26557,-0.73733 0.35457,-0.37734 0.44707,-0.74326 0.4998,-1.9772 0.0923,-2.15984 0.0771,-2.79875 -0.0753,-3.16541 -0.0738,-0.1776 -0.14606,-0.64652 -0.16053,-1.04204 -0.0233,-0.63682 -0.18068,-0.84581 -1.37519,-1.82608 -0.89779,-0.73677 -1.52679,-1.10696 -1.88086,-1.10696 -0.29259,0 -0.73616,-0.14301 -0.98571,-0.3178 -0.30629,-0.21453 -0.65535,-0.27748 -1.07418,-0.19371 -0.48788,0.0976 -0.56905,0.0727 -0.37986,-0.11651 0.41819,-0.41819 0.26231,-1.30377 -0.39317,-2.23372 -0.8518,-1.20846 -1.59373,-1.60469 -3.33151,-1.7792 -0.79945,-0.0803 -1.64366,-0.27054 -1.87601,-0.42279 -0.23236,-0.15224 -0.67881,-0.27055 -0.99211,-0.2629 -0.3133,0.008 -1.0845,-0.0884 -1.71377,-0.21341 -0.84486,-0.16786 -1.37095,-0.17021 -2.01127,-0.009 -0.59126,0.14888 -1.03214,0.15561 -1.38576,0.0212 -0.28524,-0.10845 -1.04085,-0.19718 -1.67913,-0.19718 -1.00629,0 -1.48835,-0.15495 -3.62737,-1.16594 -2.03632,-0.96244 -2.92547,-1.25821 -5.09455,-1.69467 -1.44523,-0.29081 -2.76094,-0.57633 -2.92381,-0.63449 -0.16287,-0.0582 -0.51821,-0.12809 -0.78966,-0.1554 -0.5272,-0.053 -4.90048,-0.93266 -8.77552,-1.76508 -1.29775,-0.27877 -2.43123,-0.50686 -2.51885,-0.50686 -0.0876,0 -0.50768,-0.7329 -0.93349,-1.62867 -0.81539,-1.71537 -1.44008,-2.44583 -2.57822,-3.01478 -0.38003,-0.18998 -0.762,-0.46663 -0.84883,-0.61478 -0.0868,-0.14816 -0.34593,-0.26938 -0.57579,-0.26938 -0.52632,0 -0.33369,-0.20048 0.49058,-0.51058 4.4143,-1.66071 5.17087,-2.12463 6.64877,-4.07688 0.55357,-0.73126 1.2657,-1.4636 1.58251,-1.62743 0.31681,-0.16383 1.22532,-0.33353 2.01893,-0.37712 0.7936,-0.0436 1.70943,-0.17019 2.03516,-0.28132 0.32573,-0.11113 1.07081,-0.25825 1.65574,-0.32692 0.58492,-0.0687 1.47729,-0.33455 1.98304,-0.59084 1.13904,-0.57719 2.86169,-2.10603 3.48426,-3.09224 0.42467,-0.67272 0.5294,-0.73087 1.13841,-0.63204 0.39411,0.064 0.72658,0.0185 0.80617,-0.11033 0.0745,-0.12054 0.34032,-0.21917 0.59072,-0.21917 0.77175,0 1.46638,-0.72714 1.80396,-1.88839 0.17153,-0.59006 0.4033,-1.07283 0.51503,-1.07283 0.11173,0 0.9581,-0.75496 1.88083,-1.67768 0.92272,-0.92273 1.76183,-1.62568 1.86467,-1.56212 0.10284,0.0636 0.16733,0.5463 0.14331,1.07275 -0.0545,1.19351 0.23856,1.57481 1.21021,1.57481 0.94553,0 1.24684,0.35528 1.07557,1.26823 -0.10477,0.55848 -0.0697,0.70591 0.16811,0.70591 0.1653,0 0.54004,0.28463 0.83276,0.63251 0.46952,0.55799 0.51643,0.73825 0.39814,1.52997 -0.30965,2.07248 -0.31714,3.01804 -0.0274,3.46021 0.25477,0.38884 0.2528,0.47641 -0.0168,0.74603 -0.3973,0.3973 -0.15414,0.86356 0.26774,0.51342 0.42696,-0.35434 1.27383,-2.10171 1.20786,-2.49222 -0.0337,-0.19979 0.0742,-0.33543 0.26928,-0.33823 0.17909,-0.003 0.71211,-0.35858 1.18449,-0.7911 1.36153,-1.24669 2.17879,-1.87936 2.41596,-1.87027 0.1208,0.005 -0.15855,0.34073 -0.62077,0.74688 -1.06831,0.93873 -2.18448,3.6702 -1.14839,2.81032 0.16005,-0.13283 0.47845,-0.62872 0.70755,-1.10197 0.58183,-1.2019 1.54559,-1.5112 4.34908,-1.39572 1.13572,0.0468 2.19819,0.0988 2.36106,0.11553 0.43038,0.0443 1.7718,0.66868 1.77446,0.82594 0.005,0.28044 0.65667,0.7728 0.89975,0.67952 0.13988,-0.0537 0.30685,0.0393 0.37104,0.20654 0.0642,0.16728 0.23947,0.25703 0.38951,0.19946 0.3686,-0.14145 1.10577,0.57451 1.10577,1.07396 0,0.22144 0.35534,0.75443 0.78965,1.18443 0.43432,0.42999 0.78966,0.86911 0.78966,0.97582 0,0.10671 0.21506,0.29201 0.47791,0.41177 0.26286,0.11976 0.43607,0.32681 0.38492,0.4601 -0.10066,0.26231 0.60535,0.80401 1.19899,0.91996 0.27583,0.0539 0.3751,0.2629 0.39848,0.83911 0.05,1.23318 0.63115,1.56881 2.47138,1.42736 2.78182,-0.21383 2.81886,-0.22182 3.11837,-0.6729 0.15923,-0.23982 0.45111,-0.43604 0.64862,-0.43604 0.1975,0 0.41159,-0.0849 0.47574,-0.18873 0.18503,-0.29939 0.89212,0.0605 1.15508,0.58798 0.13198,0.26473 0.44558,0.58384 0.69688,0.70913 0.2513,0.12528 0.55604,0.32692 0.67719,0.44807 0.12115,0.12115 0.47364,0.22028 0.78331,0.22028 0.4481,0 0.60517,-0.1209 0.76948,-0.59225 0.25268,-0.72483 0.62364,-0.75217 1.20071,-0.0885 0.31666,0.36419 0.56244,0.47254 0.88707,0.39107 0.31949,-0.0802 0.44903,-0.0262 0.44903,0.18718 0,0.44024 0.54329,0.3654 0.79766,-0.10989 0.12061,-0.22537 0.39025,-0.58072 0.59919,-0.78966 0.20893,-0.20893 0.37988,-0.47912 0.37988,-0.6004 0,-0.21759 1.47832,-1.75363 1.68773,-1.75363 0.29599,0 2.4776,-1.53243 3.34634,-2.35058 1.50911,-1.42122 1.5824,-1.46336 2.04389,-1.17516 0.33746,0.21075 0.65712,0.14707 2.13767,-0.42587 1.24924,-0.48343 2.10326,-0.68439 3.02407,-0.7116 3.62273,-0.10702 6.13051,-0.34324 6.34137,-0.59732 0.12191,-0.14689 0.34804,-0.26707 0.50252,-0.26707 0.15448,0 0.92092,-0.42426 1.70321,-0.94278 1.75077,-1.16048 2.49869,-1.4262 4.01436,-1.4262 0.73376,0 1.32743,-0.10993 1.5653,-0.28984 0.21077,-0.15942 0.536,-0.29267 0.72273,-0.29612 0.29583,-0.005 0.27931,0.0824 -0.12832,0.68313 -0.51262,0.75539 -0.64034,2.42342 -0.30244,3.94983 0.11678,0.52756 0.0983,1.00364 -0.0558,1.43435 -0.20454,0.5718 -0.1823,0.69301 0.19677,1.07207 0.38117,0.38117 0.50567,0.40335 1.15148,0.20515 0.57073,-0.17516 0.77947,-0.16687 0.98552,0.0392 0.3351,0.3351 1.84944,0.56423 2.5798,0.39034 0.31002,-0.0738 0.71725,-0.26757 0.90494,-0.43058 0.30938,-0.2687 0.41433,-0.23038 1.12334,0.41017 1.32343,1.19564 1.77769,1.35394 2.98595,1.04052 0.57068,-0.14803 1.1178,-0.41247 1.21583,-0.58764 0.098,-0.17517 0.37912,-0.55203 0.62464,-0.83747 0.3887,-0.45189 0.50316,-0.48861 0.88538,-0.28405 0.24144,0.12921 0.60483,0.18229 0.80754,0.11795 0.29256,-0.0929 0.49118,0.10938 0.96301,0.98052 0.32694,0.60363 0.6528,1.44297 0.72413,1.86519 0.0713,0.42223 0.29583,0.91804 0.49888,1.10179 0.35723,0.32329 0.34563,0.35566 -0.35892,1.00111 l -0.72808,0.66702 0.54355,0.54355 c 0.46424,0.46424 0.59942,0.50868 0.92634,0.30452 0.33396,-0.20857 0.48226,-0.13756 1.16299,0.55689 0.46964,0.47911 0.83099,1.06656 0.90775,1.47577 0.0702,0.37389 0.21756,0.67981 0.32758,0.67981 0.11003,0 0.54722,0.27899 0.97153,0.61998 0.69039,0.55481 0.86556,0.60709 1.66645,0.49732 1.28296,-0.17585 1.18142,0.30052 -0.16133,0.75694 -0.83964,0.2854 -1.23444,0.32019 -1.9248,0.16961 -0.98487,-0.21481 -4.90853,-0.21931 -5.25364,-0.006 -0.12475,0.0771 -0.28261,0.0499 -0.35081,-0.0605 -0.0682,-0.11035 -0.42968,-0.20064 -0.8033,-0.20064 -0.52104,0 -0.6793,0.0823 -0.6793,0.35326 0,0.59078 -1.03553,0.45243 -1.31035,-0.17507 -0.18852,-0.43045 -0.39225,-0.53262 -1.26913,-0.63648 -1.31826,-0.15612 -1.64655,0.0741 -1.49116,1.04586 0.0907,0.56706 0.0351,0.75383 -0.28333,0.95271 -0.34567,0.21587 -0.37941,0.37871 -0.26489,1.27835 0.0722,0.56702 0.20654,1.17754 0.29858,1.3567 0.25658,0.49943 -0.27821,0.59191 -1.19672,0.20694 -0.43997,-0.1844 -0.85157,-0.49438 -0.91468,-0.68886 -0.0631,-0.19447 -0.36572,-0.40378 -0.67246,-0.46513 -0.32393,-0.0648 -0.97544,-0.55225 -1.55422,-1.16289 -0.84996,-0.89675 -1.13575,-1.07162 -1.94344,-1.18918 -0.52082,-0.0758 -1.18683,-0.25954 -1.48003,-0.40831 -0.2932,-0.14876 -0.96192,-0.27048 -1.48604,-0.27048 -0.52412,0 -1.12956,-0.1237 -1.34541,-0.2749 -0.39066,-0.27362 -1.35114,-0.27404 -3.50006,-0.002 -0.82649,0.10481 -1.01099,0.22 -1.50291,0.93826 -0.30842,0.45033 -0.62102,1.01134 -0.69466,1.24669 -0.0736,0.23534 -0.31434,0.65732 -0.53491,0.93772 -0.35237,0.44796 -0.54619,0.50981 -1.59762,0.50981 -1.20134,0 -2.60432,0.2989 -3.07296,0.65468 -0.13818,0.1049 -0.19979,0.35279 -0.13692,0.55088 0.10912,0.34379 0.0631,0.34253 -1.01352,-0.0279 -1.22227,-0.42048 -2.35226,-0.50506 -2.54663,-0.19057 -0.0671,0.10857 -0.45878,0.19741 -0.87039,0.19741 -1.15731,0 -2.22779,0.87741 -2.64444,2.16749 -0.18411,0.57007 -0.33475,1.33721 -0.33475,1.70476 0,0.58344 -0.0634,0.66828 -0.49973,0.66828 -0.27486,0 -0.55185,0.13582 -0.61555,0.30181 -0.0637,0.16599 -0.50509,0.47914 -0.98087,0.69588 -0.67316,0.30666 -0.86507,0.49953 -0.86507,0.86938 0,0.30174 -0.14401,0.52101 -0.39437,0.60047 -0.2169,0.0688 -0.45267,0.36355 -0.52393,0.6549 -0.0713,0.29135 -0.22163,0.58984 -0.33415,0.66331 -0.14053,0.0917 -0.1368,0.35445 0.0119,0.83901 0.11907,0.38799 0.17919,0.70544 0.13359,0.70544 -0.1358,0 -0.94007,-0.47279 -1.31139,-0.77091 -0.42312,-0.3397 -0.45332,-1.11961 -0.0494,-1.27463 0.16286,-0.0625 0.29612,-0.27711 0.29612,-0.47693 0,-0.19981 0.13043,-0.53573 0.28984,-0.74649 0.15941,-0.21077 0.29267,-0.53646 0.29612,-0.72375 0.005,-0.27157 0.125,-0.3168 0.59242,-0.22332 0.54087,0.10818 0.58617,0.0735 0.58662,-0.44911 2e-4,-0.31149 0.0554,-0.92959 0.12252,-1.37356 0.092,-0.60846 0.0414,-0.88785 -0.2055,-1.13474 -0.4031,-0.40309 -0.88735,-0.19129 -1.52045,0.66502 -0.47809,0.64665 -1.03457,0.74262 -1.68092,0.2899 -0.60583,-0.42434 -1.04704,-0.18146 -1.04704,0.57638 0,0.34808 -0.22209,1.09325 -0.49354,1.65593 -0.27144,0.56268 -0.49353,1.11004 -0.49353,1.21637 -1e-5,0.23252 -1.041,0.79569 -1.47081,0.79569 -0.16826,0 -0.30593,0.1385 -0.30593,0.30777 0,0.16928 -0.0888,0.25287 -0.19741,0.18577 -0.10858,-0.0671 -0.19742,-0.6085 -0.19742,-1.20309 0,-0.67568 -0.12314,-1.269 -0.32838,-1.58224 -0.31076,-0.47428 -0.30535,-0.54854 0.10067,-1.38427 0.33623,-0.69207 0.38303,-0.96909 0.21631,-1.28061 -0.31886,-0.5958 -0.64067,-0.35514 -0.97343,0.72795 -0.16414,0.53426 -0.36863,1.07974 -0.45443,1.21219 -0.0858,0.13244 -0.23875,0.9665 -0.33991,1.85346 -0.10116,0.88696 -0.20862,1.62723 -0.23881,1.64503 -0.94026,0.55463 -1.21326,0.90618 -2.03612,2.62199 -0.50911,1.06156 -0.99669,2.19663 -1.08353,2.52236 -0.59937,2.2483 -3.15939,7.34505 -4.49187,8.94288 l -0.54328,0.65146 z m 22.06188,-22.39596 c 0.35912,-0.54808 0.25655,-1.13638 -0.25367,-1.45502 -0.2911,-0.1818 -0.42687,-0.15376 -0.69613,0.14377 -0.29206,0.32272 -0.30216,0.45909 -0.0796,1.07465 0.297,0.82133 0.60053,0.8911 1.02937,0.2366 z m 9.11568,-3.79245 c 0,-0.26581 -0.16114,-0.39693 -0.54168,-0.44073 -0.45177,-0.052 -0.5197,-0.003 -0.40923,0.29613 0.26723,0.72323 0.95091,0.82719 0.95091,0.1446 z m 0.4659,-2.25938 c 0.11461,-0.32879 0.15822,-0.72855 0.0969,-0.88836 -0.0613,-0.15981 -0.0105,-0.29056 0.11302,-0.29056 0.27603,0 0.24387,-2.32632 -0.0345,-2.49838 -0.10317,-0.0638 -0.37603,0.0725 -0.60636,0.30286 -0.4072,0.4072 -0.40801,0.41897 -0.0294,0.42536 0.35984,0.006 0.35329,0.0366 -0.0864,0.40271 -0.32937,0.27423 -0.53897,0.33296 -0.68108,0.19084 -0.33357,-0.33356 -0.91599,-0.24098 -0.91599,0.14561 0,0.65473 0.57602,1.22841 1.23341,1.22841 0.53383,0 0.57492,0.0339 0.29927,0.24677 -0.28031,0.21648 -0.44084,0.72912 -0.37092,1.18449 0.0125,0.0814 0.19171,0.14806 0.39824,0.14806 0.24053,0 0.45043,-0.2149 0.58392,-0.59781 z m -67.82738,-1.04952 c 0.13745,-0.41234 0.0945,-0.65478 -0.18507,-1.0451 -0.20022,-0.27952 -0.55175,-0.8319 -0.78117,-1.22751 -0.37634,-0.64897 -0.38772,-0.7532 -0.11637,-1.06599 0.43288,-0.49897 0.11644,-0.68052 -0.5109,-0.29312 -0.66781,0.41239 -0.65294,1.02016 0.0561,2.29116 0.28074,0.50327 0.61553,1.16015 0.74399,1.45972 0.2794,0.65158 0.5501,0.61092 0.79346,-0.11916 z m 26.00314,-3.3667 c 0,-0.13903 0.22907,-0.35716 0.50905,-0.48472 0.27997,-0.12757 0.47295,-0.34171 0.42884,-0.47587 -0.12403,-0.37724 -1.61417,-0.421 -1.91685,-0.0563 -0.21636,0.26071 -0.1888,0.3059 0.18653,0.3059 0.36378,0 0.42013,0.0808 0.32389,0.46423 -0.0641,0.25532 -0.0613,0.51942 0.006,0.58687 0.17335,0.17335 0.4624,-0.0393 0.4624,-0.34011 z m 8.68624,-2.68853 c 0,-0.21117 -3.31816,-1.28478 -3.47771,-1.12523 -0.28873,0.28872 0.14053,0.73379 0.70771,0.73379 0.41178,0 0.59844,0.0965 0.59844,0.30943 0,0.21153 0.11587,0.27265 0.36622,0.19319 0.20142,-0.0639 0.57898,-0.0372 0.83901,0.0595 0.49436,0.18371 0.96633,0.10037 0.96633,-0.17064 z"
             id="path12830"
             transform="translate(254.60253,-487.2268)" />
        </g>
        <g
           id="g14193"
           style="fill:#4444c2;fill-opacity:1">
          <path
             style="color:#000000;overflow:visible;fill:#4444c2;fill-opacity:1;fill-rule:evenodd;stroke:none;stroke-width:0.189913;stroke-linecap:round;stroke-miterlimit:3.4375"
             d="m 469.01471,629.3455 -0.64,-0.76231 0.59962,-0.61866 c 0.67163,-0.69294 0.89583,-1.58968 0.64218,-2.56854 l -0.16841,-0.64992 -0.4187,0.70965 c -0.48373,0.81985 -0.52834,1.09791 -0.15304,0.9539 0.4587,-0.17603 0.52586,0.2719 0.10402,0.69374 l -0.40382,0.40382 -0.42248,-0.39689 c -0.28264,-0.26553 -0.673,-0.3969 -1.17938,-0.3969 -1.00154,0 -1.17287,-0.21406 -1.06553,-1.33126 0.0749,-0.77981 0.22836,-1.08232 0.93444,-1.84243 0.46464,-0.50019 1.02126,-1.25128 1.23693,-1.66909 0.21568,-0.41781 0.60553,-1.01479 0.86634,-1.32662 0.47939,-0.57319 2.47009,-1.66567 2.73586,-1.50142 0.0792,0.049 0.25368,-0.0914 0.38766,-0.31188 0.28601,-0.4707 1.30916,-0.95784 2.20936,-1.05191 0.35,-0.0366 0.74756,-0.15878 0.88346,-0.27156 0.1374,-0.11404 0.90872,-0.19338 1.73755,-0.17873 0.81975,0.0145 1.63648,-0.0325 1.81497,-0.10448 0.48855,-0.19694 1.5984,0.24169 1.94326,0.76802 0.23515,0.35887 0.24738,0.46518 0.0535,0.46518 -0.13819,0 -0.35814,0.10683 -0.48877,0.23739 -0.14658,0.14652 -0.76788,0.2374 -1.623,0.2374 -0.77247,0 -1.50348,0.0976 -1.65213,0.22058 -0.14665,0.12133 -0.51643,0.24952 -0.82173,0.28487 -0.86676,0.10038 -0.82529,0.51124 0.066,0.65376 0.42568,0.0681 0.77396,0.18934 0.77396,0.26947 0,0.0801 -0.22701,0.34697 -0.50446,0.59295 -0.93242,0.82663 -2.72406,2.67323 -2.72406,2.80761 0,0.0732 -0.29778,0.27511 -0.66173,0.44867 -0.54532,0.26004 -0.68291,0.44793 -0.78205,1.06797 -0.0662,0.41383 -0.23843,0.79774 -0.38279,0.85313 -0.14436,0.0554 -0.26247,0.2167 -0.26247,0.35845 0,0.14175 -0.21087,0.45582 -0.46858,0.69793 -0.25772,0.24212 -0.60265,0.83387 -0.76651,1.31502 -0.16386,0.48115 -0.40179,1.06169 -0.52872,1.29011 -0.22717,0.40877 -0.24085,0.40331 -0.87079,-0.34702 z"
             id="path14033"
             transform="translate(254.60253,-487.2268)" />
          <path
             style="color:#000000;overflow:visible;fill:#4444c2;fill-opacity:1;fill-rule:evenodd;stroke:none;stroke-width:0.189913;stroke-linecap:round;stroke-miterlimit:3.4375"
             d="m 454.59358,609.43309 c -0.46627,-0.38869 -0.39234,-0.79941 0.23804,-1.32258 0.43393,-0.36013 0.36027,-0.62458 -0.13057,-0.46879 -0.37258,0.11825 -0.39458,0.0975 -0.17595,-0.16593 0.29559,-0.35616 3.2967,-2.41721 4.11516,-2.82613 1.32818,-0.66359 2.34608,-1.30711 2.92928,-1.8519 0.3425,-0.31994 0.68981,-0.54025 0.77181,-0.48957 0.082,0.0507 0.25894,-0.0402 0.3932,-0.202 0.25136,-0.30287 1.62869,-1.03107 1.95018,-1.03107 0.0994,0 0.28326,-0.14015 0.40851,-0.31144 0.15928,-0.21782 0.31996,-0.25981 0.53459,-0.1397 0.37391,0.20925 0.25246,0.40601 -0.68549,1.11049 -0.5905,0.44352 -0.70348,0.62891 -0.61008,1.00104 0.0935,0.37245 -0.0531,0.61207 -0.7946,1.29863 -0.51443,0.47635 -1.2377,0.93215 -1.6657,1.04974 -1.13325,0.31134 -2.56825,1.08473 -3.42162,1.84409 -0.93868,0.83526 -1.00486,0.98287 -0.44313,0.98833 0.32485,0.003 0.13898,0.16855 -0.69635,0.6196 -0.62671,0.33841 -1.35078,0.76377 -1.60904,0.94525 -0.57333,0.4029 -0.56695,0.40317 -1.10824,-0.0481 z"
             id="path14072"
             transform="translate(254.60253,-487.2268)" />
        </g>
      </g>
    </g>
    <g
       id="g19942"
       transform="translate(2.9058456e-6,-1.9408273)">
      <text
         xml:space="preserve"
         style="font-size:10.5833px;line-height:125%;font-family:'Ford Script';-inkscape-font-specification:'Ford Script';letter-spacing:0px;word-spacing:0px;fill:#ffffff;stroke:none;stroke-width:0.264583px;stroke-linecap:butt;stroke-linejoin:miter;stroke-opacity:1"
         x="36.870884"
         y="125.05623"
         id="text9853"><tspan
           sodipodi:role="line"
           id="tspan9851"
           style="fill:#ffffff;stroke:none;stroke-width:0.264583px"
           x="36.870884"
           y="125.05623">E Pluribus Unum</tspan></text>
      <text
         xml:space="preserve"
         style="font-size:10.5833px;line-height:125%;font-family:'Ford Script';-inkscape-font-specification:'Ford Script';letter-spacing:0px;word-spacing:0px;fill:#ffffff;stroke:none;stroke-width:0.264583px;stroke-linecap:butt;stroke-linejoin:miter;stroke-opacity:1"
         x="61.174202"
         y="148.98729"
         id="text9853-3"><tspan
           sodipodi:role="line"
           id="tspan9851-6"
           style="fill:#ffffff;stroke:none;stroke-width:0.264583px"
           x="61.174202"
           y="148.98729">Tuebor</tspan></text>
      <text
         xml:space="preserve"
         style="font-size:10.5833px;line-height:125%;font-family:'Ford Script';-inkscape-font-specification:'Ford Script';letter-spacing:0px;word-spacing:0px;fill:#ffffff;stroke:none;stroke-width:0.264583px;stroke-linecap:butt;stroke-linejoin:miter;stroke-opacity:1"
         x="-4.3149047"
         y="172.80193"
         id="text9853-3-7"><tspan
           sodipodi:role="line"
           id="tspan9851-6-5"
           style="fill:#ffffff;stroke:none;stroke-width:0.264583px"
           x="-4.3149047"
           y="172.80193">Si Quaeris Peninsulam Amoenam</tspan></text>
      <text
         xml:space="preserve"
         style="font-size:10.5833px;line-height:125%;font-family:'Ford Script';-inkscape-font-specification:'Ford Script';letter-spacing:0px;word-spacing:0px;fill:#ffffff;stroke:none;stroke-width:0.264583px;stroke-linecap:butt;stroke-linejoin:miter;stroke-opacity:1"
         x="48.956039"
         y="196.71182"
         id="text9853-3-7-3"><tspan
           sodipodi:role="line"
           id="tspan9851-6-5-5"
           style="fill:#ffffff;stroke:none;stroke-width:0.264583px"
           x="48.956039"
           y="196.71182">Circumspice</tspan></text>
    </g>
  </g>
</svg>
