<?xml version="1.0" encoding="UTF-8" standalone="no"?>
<!-- Created with Inkscape (http://www.inkscape.org/) -->

<svg
   width="264.5834mm"
   height="158.75mm"
   viewBox="0 0 264.5834 158.75"
   version="1.1"
   id="svg5"
   inkscape:version="1.1 (ce6663b3b7, 2021-05-25)"
   sodipodi:docname="MS.svg"
   inkscape:export-filename="/home/kavi/Dropbox/50-state-terrible-flags/MS.png"
   inkscape:export-xdpi="400.14999"
   inkscape:export-ydpi="400.14999"
   xmlns:inkscape="http://www.inkscape.org/namespaces/inkscape"
   xmlns:sodipodi="http://sodipodi.sourceforge.net/DTD/sodipodi-0.dtd"
   xmlns:xlink="http://www.w3.org/1999/xlink"
   xmlns="http://www.w3.org/2000/svg"
   xmlns:svg="http://www.w3.org/2000/svg">
  <sodipodi:namedview
     id="namedview7"
     pagecolor="#ffffff"
     bordercolor="#666666"
     borderopacity="1.0"
     inkscape:pageshadow="2"
     inkscape:pageopacity="0.0"
     inkscape:pagecheckerboard="0"
     inkscape:document-units="mm"
     showgrid="false"
     inkscape:zoom="0.49926882"
     inkscape:cx="167.24457"
     inkscape:cy="451.66049"
     inkscape:window-width="1848"
     inkscape:window-height="1016"
     inkscape:window-x="72"
     inkscape:window-y="27"
     inkscape:window-maximized="1"
     inkscape:current-layer="layer1" />
  <defs
     id="defs2">
    <path
       id="s"
       transform="scale(3)"
       fill="#ffffff"
       d="M 0,-1 0.58779,0.80902 -0.95106,-0.30902 H 0.95106 L -0.58779,0.80902 Z" />
    <clipPath
       clipPathUnits="userSpaceOnUse"
       id="clipPath896">
      <rect
         fill="#bf0a30"
         width="100.00002"
         height="60"
         id="rect898"
         x="-5.7804809e-06"
         y="1.7814961e-06"
         style="stroke-width:0.999999" />
    </clipPath>
  </defs>
  <g
     inkscape:label="Layer 1"
     inkscape:groupmode="layer"
     id="layer1"
     transform="translate(109.76065,-111.11466)">
    <g
       id="g867"
       transform="matrix(2.6458333,0,0,2.6458333,-109.76063,111.11466)"
       clip-path="url(#clipPath896)">
      <g
         id="g5886">
        <rect
           fill="#bf0a30"
           width="100"
           height="60"
           id="rect827"
           x="0"
           y="0" />
        <path
           stroke="#ffffff"
           stroke-width="12"
           d="M 0,0 100,60 M 0,60 100,0"
           id="path829"
           style="fill:#d69a2d;fill-opacity:1;stroke:#d69a2d;stroke-opacity:1;stroke-width:13.22834662;stroke-miterlimit:4;stroke-dasharray:none" />
        <path
           stroke="#002868"
           stroke-width="9"
           d="M 0,0 100,60 M 0,60 100,0"
           id="path831"
           style="stroke-width:9.45335445;stroke-miterlimit:4;stroke-dasharray:none" />
        <g
           id="s6">
          <use
             xlink:href="#s"
             x="10"
             y="6"
             id="use833"
             width="100%"
             height="100%" />
          <use
             xlink:href="#s"
             x="23.333"
             y="14"
             id="use835"
             width="100%"
             height="100%" />
          <use
             xlink:href="#s"
             x="36.667"
             y="22"
             id="use837"
             width="100%"
             height="100%" />
          <use
             xlink:href="#s"
             x="63.333"
             y="38"
             id="use839"
             width="100%"
             height="100%" />
          <use
             xlink:href="#s"
             x="76.667"
             y="46"
             id="use841"
             width="100%"
             height="100%" />
          <use
             xlink:href="#s"
             x="90"
             y="54"
             id="use843"
             width="100%"
             height="100%" />
        </g>
        <use
           xlink:href="#s6"
           transform="scale(-1,1)"
           x="-100"
           id="use846"
           y="0"
           width="100%"
           height="100%" />
        <use
           xlink:href="#s"
           x="50"
           y="30"
           id="use848"
           width="100%"
           height="100%" />
      </g>
      <g
         id="g5872"
         transform="matrix(0.7832346,0,0,0.7832346,10.83827,6.0330194)">
        <circle
           style="color:#000000;overflow:visible;fill:#041e42;fill-opacity:1;fill-rule:evenodd;stroke:none;stroke-width:0.154597;stroke-linecap:round;stroke-miterlimit:3.4375;stroke-opacity:1"
           id="path3464"
           cx="50"
           cy="30.600002"
           r="26.379395" />
        <g
           id="g3315"
           transform="matrix(0.00333333,0,0,0.00333333,-9.99994,-6.027464)">
          <path
             fill="#d69a2d"
             d="m 17136,4073.5 h 590.9 l 183.1,250.9 -295,97.1 -479,-348 m 1699.2,0 h -590.9 l -183.1,250.9 295,97.1 479,-348 m -848.8,-616.8 179.2,559.2 -180.9,250.8 -179.1,-249.1 180.8,-560.9 m 520,1612.8 -474,-342.3 v -309.3 l 293.1,96.6 180.9,555 m -1040.4,0 474,-342.3 v -309.3 l -293.1,96.6 -180.9,555"
             id="path906" />
          <path
             fill="#ffffff"
             d="m 12038.6,6724.5 407.5,135.7 256.2,-344.8 -2.8,427.4 405.9,137.3 -409.9,130.9 -4.4,427.3 -249.4,-349.2 -408.3,131.1 254.6,-346.5 -249.4,-349.2 m -816.6,1435.2 427.4,40.9 171.5,-392.4 94.2,417.8 427.2,44.1 -370.9,215.8 95.8,417.9 -323.8,-282.1 -372.5,215.7 174.7,-392.2 -323.6,-285.5 m 19,1102.4 187.4,387.7 425.3,-58.5 -308,297.8 187.6,384.4 -378.5,-203.2 -311.3,297.6 75.3,-420.3 -378.5,-203.2 423.6,-58.7 77.1,-423.6 m -611.7,2110.8 401.9,-153.9 -20.8,-429.1 270.2,335.4 400.3,-153.9 -234,358.9 271.9,335.4 -417.4,-111.3 -235.6,358.8 -20.8,-429.1 -415.7,-111.2 m 248.8,1634.4 357.6,-239.8 -119.6,-412.9 340.6,265.3 357.6,-239.7 -148.3,402.3 339,263.6 -430.3,-13.3 -146.7,400.7 -119.7,-409.6 -430.2,-16.6 m 701.9,850.4 388.9,184.7 298,-309 -58.1,423.8 387.2,186.4 -423,77.5 -59.8,425.4 -200.7,-377 -424.8,75.9 296.4,-310.7 -204.1,-377 m 789.5,1354.7 416.2,99.7 223.6,-366.7 36,427 417.7,98 -395.3,165.7 36.1,428.7 -282.2,-327.4 -395.2,167.4 223.6,-365.1 -280.5,-327.3 m 3667.2,-11242.7 236.3,357.2 416.1,-111.9 -269.4,336.1 236.4,355.5 -404.1,-151.6 -267.8,336.2 17.7,-428.3 -402.5,-151.5 416.2,-111.9 21.1,-429.8 m -1534.2,604.7 310.4,298.2 377.5,-202.4 -187.3,386.9 310.5,296.5 -425.3,-58.9 -187.4,388.5 -77.1,-422.1 -425.3,-59 380.9,-202.2 -76.9,-425.5 m -649.5,883.8 -104.2,418.4 365.6,225.5 -427.4,32.8 -104.2,416.8 -161.9,-397.9 -429.2,32.7 329.7,-278.8 -161.9,-397.8 363.9,227.1 329.6,-278.8 m 10108.4,1266.3 -407.5,135.7 -256.2,-344.8 2.7,427.4 -405.8,137.3 409.9,130.9 4.4,427.3 249.4,-349.2 408.3,131.1 -254.6,-346.5 249.4,-349.2 m 816.6,1435.2 -427.4,40.9 -171.5,-392.4 -94.2,417.8 -427.2,44.1 370.9,215.8 -95.8,417.9 323.8,-282.1 372.5,215.7 -174.7,-392.2 323.6,-285.5 m -19,1102.4 -187.4,387.7 -425.3,-58.5 308,297.8 -187.6,384.4 378.5,-203.2 311.3,297.6 -75.3,-420.3 378.5,-203.2 -423.6,-58.7 -77.1,-423.6 m 611.7,2110.8 -401.9,-153.9 20.8,-429.1 -270.2,335.4 -400.3,-153.9 234,358.9 -271.9,335.4 417.4,-111.3 235.6,358.8 20.8,-429.1 415.7,-111.2 m -248.8,1634.4 -357.6,-239.8 119.6,-412.9 -340.6,265.3 -357.6,-239.7 148.3,402.3 -339,263.6 430.3,-13.3 146.7,400.7 119.7,-409.6 430.2,-16.6 m -701.9,850.4 -388.9,184.7 -298,-309 58.1,423.8 -387.2,186.4 423,77.5 59.8,425.4 200.7,-377 424.8,75.9 -296.4,-310.7 204.1,-377 m -789.5,1354.7 -416.2,99.7 -223.6,-366.7 -36,427 -417.7,98 395.3,165.7 -36.1,428.7 282.2,-327.4 395.2,167.4 -223.6,-365.1 280.5,-327.3 M 19963.3,3969.7 19727,4326.9 19310.9,4215 l 269.4,336.1 -236.4,355.5 404.1,-151.6 267.8,336.2 -17.7,-428.3 402.5,-151.5 -416.2,-111.9 -21.1,-429.8 m 1534.2,604.7 -310.4,298.2 -377.5,-202.4 187.3,386.9 -310.5,296.5 425.3,-58.9 187.4,388.5 77.1,-422.1 425.3,-59 -380.9,-202.2 76.9,-425.5 m 649.4,883.8 104.3,418.4 -365.6,225.5 427.4,32.8 104.2,416.8 161.9,-397.9 429.2,32.7 -329.7,-278.8 161.9,-397.8 -363.9,227.1 -329.7,-278.8 m -8591.2,11112 c 2.5,-3.2 5.5,-7 8.4,-10.7 24.9,3.1 49.9,-3.3 74.1,-20.7 24,-15.8 61.8,-57.2 113.7,-123.2 8,-10.1 16,-20.3 24,-30.5 56.9,-72.4 113.9,-144.7 171.2,-217.6 17.7,-22.5 27.6,-39.1 29.6,-49.6 1.5,-10.1 -1,-21.6 -8,-34.1 3,-3.7 5.9,-7.5 8.5,-10.7 25.1,21.5 44.1,37.4 56.7,48.1 12.6,10.8 23.8,20.5 34.9,29.2 11,8.7 23.1,17.3 36.5,27 13.4,9.7 32.7,24 59.5,43.3 -2.5,3.2 -5.5,7 -8.4,10.8 -13.1,-3.4 -24.9,-3.1 -34.3,0.8 -9.8,4.4 -23.5,17.9 -41.2,40.4 -65.4,83.1 -130.3,165.6 -195.2,248.2 -51.9,65.9 -83.2,112.4 -93.6,138.9 -10.6,28.2 -10.9,54 -2,77.4 -2.9,3.8 -5.9,7.5 -8.4,10.7 -16.1,-14.3 -33.8,-29.2 -51.6,-44 -18.4,-15.3 -37.9,-30.7 -59.3,-47.5 -21.4,-16.9 -40.9,-32.2 -60.2,-46.5 -18.6,-13.7 -37.2,-27.5 -54.9,-39.7 m 672.2,-127.2 c -37.3,57.2 -74.7,114.3 -112.1,171.5 -59.5,90.8 -92.5,154.9 -100.4,191.4 -7.9,36.4 -1.2,70.2 19.8,101.9 -2.6,4 -5.2,8 -7.5,11.4 -13.2,-10.2 -28.1,-20.8 -43,-31.4 -15,-10.6 -31.7,-21.5 -49.8,-33.4 -18.1,-11.8 -35.5,-23.2 -51.2,-32.6 -16.3,-9.9 -31.3,-18.9 -46.7,-27.3 2.2,-3.5 4.9,-7.5 7.5,-11.5 36.3,8.3 70.3,1.9 100.5,-19.9 29.5,-22.3 75.4,-78.8 136,-171.4 38.1,-58.3 76.2,-116.6 114.4,-174.9 23.2,-35.4 34.4,-63.2 35.4,-82.9 0.6,-19.2 -8.7,-40 -26.1,-62 2.2,-3.4 4.5,-6.9 6.4,-9.7 7.6,5 24.3,15.9 50,34.4 25.4,17.4 44.5,30.7 59.1,40.3 8.4,5.4 20.6,12.6 35.9,22.6 15.7,9.5 27.9,16.6 34.9,21.2 13.7,156.7 31.4,313.6 44.8,470.9 12.3,-18.9 24.7,-37.8 36.6,-56.1 60.2,-92 93.2,-156.1 101.5,-191.5 7.5,-35.8 -0.3,-69.5 -21,-100.2 2.7,-4 5.3,-8 7.9,-12 10.8,7.9 22.9,16.6 36.1,25.3 12.9,9.2 32.4,22 58.8,39.3 26.5,17.3 46,30 59.6,38.1 12.5,8.2 25.4,15.8 36.9,22.5 l -7.8,12 c -37.1,-8.7 -71,-2.3 -101.6,20.1 -30.6,22.4 -75.8,79.4 -135.3,170.2 -66.9,102.3 -133.8,204.7 -200.4,306.4 -6.2,-4.1 -11.8,-7.8 -17.4,-11.4 -18,-223.2 -43,-447.7 -61.8,-671.3 m 1291.2,879.8 c -0.5,3.5 -1.8,6.7 -3.1,9.8 -22.2,-0.2 -41.7,8 -57.6,27.3 -15.7,18.7 -39.1,62.9 -67.9,133.6 -3.4,8.2 -7,17 -10.4,25.2 -4.1,10.1 -8.2,20.2 -12.6,31 -47.6,11.5 -95.4,14.8 -142.3,11.1 -47,-3 -92.5,-14.2 -137,-32.3 -43.7,-17.8 -79.9,-40.7 -108.2,-70 -28.6,-28.6 -50.5,-62.5 -64.7,-102.2 -13.5,-41.6 -21.8,-84.8 -19.8,-128.9 1.9,-44.2 10.2,-86.4 27.2,-128.1 16.2,-39.8 37.8,-75.2 65.8,-106.5 26.9,-30.9 59.3,-55.3 95.6,-76.6 41.5,-22.8 87.4,-34.3 135.7,-36.7 47.9,-3.3 95.2,5.7 140.4,24.2 39.1,15.9 74.3,37 106.2,64 31.4,26 64.6,60.9 96.2,104 -36.5,47.7 -73.7,95.2 -110.2,142.9 -4.1,-3.2 -7.4,-6 -11.5,-9.1 15.8,-69.4 17.8,-124.6 6.7,-167.5 -11.4,-42.2 -37.2,-71.1 -76.3,-87 -49,-20.1 -99.2,-11.1 -149.7,29.4 -50.3,39.9 -93.2,103.4 -129.3,191.8 -34.5,84.6 -50,155.6 -46.6,213 3.6,56.7 26.8,94.2 67.4,110.7 27.6,11.3 54,10.3 76.5,-5.6 23.1,-14.9 43.4,-42.7 59.6,-82.4 24.8,-60.7 36.4,-102.3 35.2,-125.6 -1.2,-23.4 -13.2,-42.2 -35.6,-59.5 1.2,-3.2 2.5,-6.3 3.6,-8.8 21.9,9.7 43.1,19.1 65.1,28.8 20.7,8.4 42.7,18.1 64.9,27.2 21.5,8.7 44,17.2 67,26.6 23.2,8.7 46.5,17.5 69.7,26.2 m 288.3,470.2 c 45.6,15.5 88.5,2.7 127.7,-38 38.3,-40.3 74.2,-110.2 107.5,-208.4 33.4,-98.1 47.1,-174.8 41.5,-230.7 -6.6,-55.5 -32.3,-90.9 -78.6,-106.6 -44.8,-15.2 -87.3,-3.7 -125.3,35.9 -37.5,40.6 -73.2,109.9 -107.2,210 -33.7,99.4 -47.7,176.8 -42.7,231.8 5.8,55.2 32.3,90.8 77.1,106 z m -206.9,-397.8 c 16.2,-47.8 39,-89 68.3,-123.7 29.5,-35.4 66.3,-61.1 107.5,-81.7 36.7,-17.8 75.7,-26.9 116.7,-28.8 41.2,-2.6 81.9,4 122.8,17.9 42.4,14.4 79.5,34.2 110.1,60.4 30.5,26.2 55.8,57.8 74.6,95.2 21.3,43.2 34.6,86.6 36.4,130.4 1.6,44.5 -4.2,90.1 -20.6,138.5 -12.1,35.5 -27.8,66.2 -46.7,93.6 -18.2,27.7 -41.4,52.2 -67.9,73.5 -44.2,34.7 -93.5,56.1 -146.1,66.3 -52.6,10.3 -105.3,5.4 -156.4,-12 -41.6,-14.1 -78.5,-34.5 -110.2,-62.6 -31.7,-28 -58.3,-60.8 -75.4,-98.3 -20.5,-40.1 -32.3,-83 -34,-129.6 -1.9,-46 4.9,-92 20.9,-139.1 m 978.8,-20.1 c -29.8,140.8 -59.6,281.5 -89.3,422.3 -13.2,62 -16.5,101.7 -11,120.3 5.4,18.6 20,30 45.3,35.4 50.6,10.7 94.1,-5.9 130.6,-49.7 36.4,-43.2 64.7,-112.5 84.8,-207.2 20.4,-96.7 22.3,-170.2 6.7,-220.9 -14.9,-50.5 -51,-81.2 -105.6,-92.7 -8.2,-1.8 -17.2,-3.7 -26.3,-4.9 -10.8,-0.9 -21.7,-1.8 -35.2,-2.6 z m -352.1,549.3 c 0.8,-4 1.8,-8.7 2.8,-13.4 24.8,-8.7 44.7,-26.1 59.7,-52.8 15,-26.8 31.3,-83.3 49.5,-169.4 1.9,-9.3 3.9,-18.7 5.8,-27.3 19,-90.1 38.1,-180.1 57.3,-270.9 5.6,-26.6 7.1,-45.8 4.2,-56.2 -2.9,-10.4 -11,-20.5 -22.9,-28.6 1,-4.6 2,-9.3 2.8,-13.3 25,6.7 49.3,12.5 72.8,18.2 22.7,5.5 45.4,11 66.6,15.5 22,4.6 48.2,9.5 78.5,15.2 29.5,5.6 48.3,9.5 56.4,11.2 105.2,22.3 181.5,64.2 225,128.5 43.6,63.6 56.5,143.6 35.9,241 -22.6,106.8 -67.7,182.9 -133.9,230.3 -66.3,47.3 -149.9,60.2 -248.6,39.4 -13,-2.8 -36.4,-9.1 -68.6,-18 -33,-9.1 -58.9,-15.3 -78.5,-19.4 -12.2,-2.6 -27.9,-5.2 -49.2,-9 -21.2,-4.5 -59.8,-11.3 -115.6,-21 m 1970.1,-431.4 c -0.2,4.1 -0.5,8.9 -0.8,13.6 -26.1,6.7 -51.3,25.8 -75.6,57.2 -24.3,32.1 -50.3,78.4 -76.3,139.9 -63,152.3 -129.2,303.8 -192.2,456.1 -2.5,-0.1 -5,-0.3 -7.5,-0.4 -43.5,-147.7 -89.6,-294.2 -132.3,-441.2 -56.5,141.1 -116.3,281.3 -172.8,423.1 -2.5,-0.1 -5,-0.3 -8.3,-0.5 -53.8,-184.6 -110.9,-368.7 -164.7,-553.3 -15.2,-51.5 -29,-85.2 -42,-103.8 -12.3,-17.1 -28.3,-27.6 -47.9,-31.5 0.2,-4.8 0.5,-9.6 0.8,-13.7 5.8,0.4 14,0.8 26.4,2.3 51.1,5 86.6,8.5 105.6,9.6 22.4,1.4 66.3,2.6 130.9,4.4 16.6,0.3 29,1 37.3,1.5 -0.3,4.1 -0.6,8.9 -0.8,13.6 -16,2.5 -28.6,6.6 -36.6,15 -7.9,7.7 -12,19.8 -12.9,34.8 -0.5,8.2 0.6,18.5 2.4,30.3 1.8,11.7 5.2,23.6 8.6,37.5 24,84.9 49.6,169.9 73.6,255.5 55.4,-135.6 113.1,-270.5 168.5,-406.2 2.5,0.2 5,0.3 7.4,0.5 46.2,145.1 94.9,289 140.3,433.4 15,-42.9 30.9,-85.8 45.8,-128.7 13.1,-39 25.2,-73.9 32.8,-104.2 7.6,-30.4 12.2,-52 13,-65.6 1.3,-21.9 -2.6,-39.9 -10.9,-54.1 -9.2,-13.5 -22,-21.8 -39.2,-24.9 0.3,-4.8 0.6,-9.5 0.8,-13.6 21.5,1.9 41.3,3.8 60.2,5.6 19.1,1.1 37.2,2.9 55.4,4 14.1,0.8 30.7,1.1 49.7,2.2 18.2,0.4 38.9,1 61.3,1.6 m 96,644.1 c -0.3,-4.1 -0.7,-8.8 -1.1,-13.6 20.5,-14.6 34.6,-36.3 40.7,-64.1 7,-27.3 7.6,-71.8 2.6,-133 l -28.2,-350.7 c -2.3,-28.6 -6.3,-47.4 -12,-56.5 -4.9,-8.5 -14.6,-15.3 -28.3,-19.6 -0.4,-4.8 -0.8,-9.6 -1.1,-13.6 40.7,-1.9 78.9,-4.3 114.5,-6.5 36.5,-2.3 68.1,-4.1 94.6,-6.3 84.4,-6.8 168.1,-13.5 251.8,-20.2 17,56.1 34.9,112.8 51.9,169.6 -4.9,0.4 -9.9,0.8 -14.9,1.2 -45.5,-48.4 -89.9,-81.7 -130.7,-101.7 -41.7,-20.6 -85.6,-28 -132,-24.3 -8.3,0.7 -13.2,1.1 -17.4,1.4 -3.3,0.3 -6.6,1.2 -10.6,2.2 6.7,84.3 13.6,169.3 20.4,253.6 9.2,0.6 16.6,0 21.7,0.3 5,0.3 9.1,-0.1 12.4,-0.3 44.8,-3.6 78.8,-15.3 103.2,-34.3 24.3,-19.1 40.3,-47.1 48.3,-83.3 4.9,-0.4 9.9,-0.8 14.9,-1.2 6.5,80.9 13.1,162.5 19.6,244.1 -5,0.4 -9.9,0.8 -14.9,1.2 -13.7,-35.9 -34,-60.2 -61.1,-75.9 -27.1,-14.9 -62.5,-20.2 -107.2,-16.6 -3.3,0.2 -7.5,0.6 -12.4,1.6 -4.9,1.1 -12.4,1.7 -21.4,3.8 4.1,50.3 8.1,99.9 12.1,150.2 3.9,47.6 13.2,80.4 28.9,99.7 15.7,19.2 39.7,27.5 72,24.9 37.3,-3 75.8,-21.8 113.9,-56.3 38,-34.6 76.7,-82.8 113.3,-146 5,1 9.3,2 14.4,3 -10.8,74 -23.2,147.6 -34.7,221.7 -96.1,7.7 -192.2,15.5 -289.1,23.2 -19,1.6 -49.7,4 -91.9,8.1 -42.1,4.1 -89.3,8.6 -142.2,14.2 m 1142.4,-147.1 c -0.9,-4 -1.9,-8.7 -3,-13.3 19,-17.6 29,-40.8 31.6,-70.8 2,-28.4 -6.2,-83.9 -24.7,-165.8 -2.8,-12.6 -5.7,-25.3 -8.5,-37.9 -21.6,-95.9 -43.1,-191.1 -64.6,-286.9 -2.7,-12 -5.4,-19.8 -8.7,-23.2 -3.1,-2.8 -7.6,-3.9 -14.1,-2.5 -20.2,4.6 -43.3,22.4 -68.3,54.6 -24.1,32 -48.8,73.2 -70.5,123.6 -5,0.4 -10,0.8 -15,1.3 -1.4,-62.7 -1.8,-124.8 -2.2,-187 164.6,-37.1 329.3,-74.2 493.9,-111.3 25.5,56.5 51.8,112.9 76.6,170.2 -4.7,1.8 -9.4,3.6 -14.1,5.3 -41.2,-36.2 -80.4,-63 -116.7,-81.4 -36.4,-18.4 -64.1,-24.7 -84.3,-20.2 -6.5,1.5 -10.9,4.6 -12.5,8.4 -1.6,4.6 -0.6,12.7 2.1,24.7 2,8.7 3.9,17.3 5.9,26 22.5,99.8 45,199.7 67.3,298.8 18.5,81.9 34.8,135.6 49.7,160.2 14.3,26.1 34.2,42.7 58.8,50.4 1.1,4.7 2.1,9.3 3,13.3 -22.1,3.6 -44,7.8 -67.6,12.4 -22.7,4.5 -48.6,10.3 -74.4,16.1 -26.6,6 -51.7,11.6 -74.1,17.4 -23.3,5.9 -44.9,11.5 -65.6,17.6 m 556,-141 c -1.3,-3.9 -2.9,-8.4 -4.5,-12.9 16.9,-19.6 25.1,-44.1 23.5,-73.9 -1.1,-28.5 -15.6,-82.6 -43.2,-161.8 -4.3,-12.3 -8.6,-24.5 -12.8,-36.8 -30.3,-86.9 -60.6,-173.8 -91.1,-261.4 -9.4,-27 -18.1,-44.3 -25.1,-51.9 -7.6,-6.7 -18.7,-10.8 -33.1,-11.6 -1.5,-4.5 -3.1,-9 -4.4,-12.9 22.1,-7 45.1,-14.3 69.6,-22.1 23.5,-8.2 56.6,-19 97.3,-33.2 25.1,-8.7 49.4,-17.2 74.5,-25.9 98.7,-34.4 173.8,-48.3 224.2,-39.9 50.6,9.1 84.8,39.1 102.7,90.6 13.9,39.9 9.2,77 -12.8,112.1 -22.8,35.4 -63.2,68.2 -122.7,99.1 42.7,-8.4 80.1,-7 111.9,3.6 32.1,11.2 60.8,30.8 87.3,61.3 10.2,11.6 24,28.5 41.3,50.6 57.3,71 102.7,102.9 135,97.4 1.4,3.8 2.7,7.7 3.8,10.9 -36,12.6 -62.9,21.2 -83.5,27.7 -21.1,7.3 -39.1,13.6 -56.4,19.6 -23.5,8.2 -40.7,14.2 -53.3,18.6 -12.5,4.3 -23.5,8.2 -33.4,12.4 -7.9,-12.5 -19.9,-29.2 -34.7,-51.5 -100.3,-149.2 -177.3,-214.1 -229.8,-195.8 -3.2,1.1 -9.4,3.3 -16.8,7.3 -0.8,0.3 -1.6,0.5 -2.1,1.5 8,23.1 16.3,47 24.6,70.8 28.1,80.5 51.4,132.3 68.7,156.6 18,24.1 38.9,38.5 64.3,43.3 1.5,4.5 3.1,9.1 4.5,12.9 -21.6,6.1 -43,12.8 -66,20.1 -22.1,7 -46.4,15.5 -72.3,24.5 -25,8.7 -49.3,17.2 -71,25.5 -22.5,8.5 -44.3,16.8 -64.2,25.2 z m 98.1,-416.9 c 5.7,-1.3 10.7,-2.3 16.1,-4.2 5.8,-1.3 12.8,-3.7 23.8,-7.5 39.1,-13.7 65,-32.8 75.7,-57.5 10.8,-24.7 9.6,-58.2 -5,-100.1 -13.7,-39.3 -32.4,-65.2 -56.6,-79.2 -23.9,-13.3 -53.9,-13.7 -89.2,-1.4 -11.7,4.1 -20.4,7.1 -27.2,10.2 -6,2.8 -12.1,5.7 -18.3,7.8 l 80.7,231.9 m 327.3,-378.4 c -2,-4.4 -3.2,-9.1 -5,-12.8 36.9,-15.4 64.4,-27.3 82.8,-35.1 18.4,-7.7 35.3,-14.7 50.4,-21.7 28.7,-13.2 70.2,-34.5 126.7,-62.9 0.8,-0.3 1.5,-0.6 3.1,-1.3 1.7,3.7 3.7,8 5.7,12.4 -15,21.2 -20.5,47 -16.6,75.3 4.1,28.9 23.8,81.6 58.7,157.3 5.4,11.8 11.1,24.2 16.5,36 16.3,35.3 32.6,70.7 48.9,106.1 31.4,68.2 64.1,113.4 98.8,135 35,22.3 73.8,23.2 119.2,2.3 21.1,-9.8 38.2,-24.4 51.7,-44.9 13.4,-20.5 21.1,-43.6 23.8,-69.6 1.2,-17.1 -0.5,-36.7 -5.8,-58.3 -5.9,-20.6 -17,-50.8 -35,-89.9 -12,-26.1 -23.7,-51.5 -35.7,-77.6 -46,-99.9 -82.9,-161.9 -109.5,-188 -25.9,-26.4 -58.6,-37.7 -95.6,-36.5 -2,-4.3 -4,-8.7 -5.7,-12.4 12.1,-5.6 26,-11.2 40.6,-17.2 13.9,-5.6 35.8,-15.7 64.5,-28.9 28.7,-13.3 49.9,-23 63.2,-29.9 14.1,-7.2 27.4,-14.1 38.7,-19.3 1.7,3.7 3.7,8.1 5.7,12.4 -24.9,27.3 -36.8,59.1 -34.1,96.9 2,38.2 26,106.2 71.7,205.5 12,26 23.7,51.5 35.5,76.9 40.8,88.8 51.4,161.4 33.9,216.8 -17,56.7 -67,103.1 -146.4,139.6 -76.3,35.1 -141.2,43.2 -193.9,22.3 -52.3,-20.2 -96.8,-69 -133,-147.8 -19.8,-42.8 -39.8,-86.2 -59.5,-129.1 -41.7,-90.6 -72.9,-148.4 -94.1,-172.5 -20.4,-24.4 -44.4,-36.7 -70.2,-39.1 m 966.2,213.2 c -21.4,-58.5 -41.7,-116.9 -63.4,-175.9 4.8,-1.8 9.3,-4.2 14.8,-6.5 43.2,44.6 89.3,72 136.4,83.6 47.2,11.5 89,4.2 123.5,-20.4 29.1,-20.9 46.8,-47.7 52.2,-80.1 4.4,-32.5 -3.2,-63.1 -24.6,-93.1 -18.2,-25.5 -39.3,-40.6 -62.8,-46.4 -24.6,-4.3 -54.2,0.1 -89.8,14.7 -6.9,3.2 -17.6,6.8 -31.1,12.2 -65.7,26.9 -112.9,39.6 -143,36 -22.6,-1.4 -43,-8.6 -62.5,-21.5 -19.5,-12.9 -38.2,-30.5 -55.7,-55 -35.7,-49.9 -44.3,-104.9 -29,-163.6 15.7,-58.2 55.3,-110 118.3,-155 28.4,-20.3 59.9,-37.8 93.8,-50.4 34.3,-13.6 72.7,-24.3 114.7,-30 17.9,50.9 34.9,103.3 52.9,154.2 -4.1,2.9 -8.5,5.2 -12.6,8.1 -33.1,-39.2 -70.9,-63.3 -109.7,-73.3 -39.2,-10.5 -75,-3.3 -106.1,18.9 -24.4,17.5 -38.1,39.8 -41.5,66.5 -3.4,26.8 3.6,53.7 21.8,79.2 17.5,24.4 37.4,37.9 58.3,41.3 21.3,4.1 58.7,-5.1 111.6,-27 68.8,-28.2 123.2,-39.4 164.3,-31.9 40.5,7.9 76.6,34.1 108.3,78.4 39.7,55.5 50,114.3 33.6,177.2 -17.1,63.4 -60,119.2 -128.4,168.1 -37.9,27.1 -77.6,48.8 -119.5,64.5 -43,15.7 -84,25.7 -124.8,27.2 m 703.6,-428.5 c -2.5,-3.3 -5.3,-7.2 -8.2,-11 9.6,-23.3 10.1,-49.1 0.3,-77.6 -9.6,-26.9 -39.7,-74.2 -89.8,-141.6 -7.7,-10.4 -15.4,-20.8 -23.2,-31.2 -58.6,-78.8 -116.9,-157.1 -175.5,-235.9 -7.3,-9.8 -12.9,-15.9 -17.3,-17.7 -4.1,-1.3 -8.6,-0.4 -14,3.5 -16.6,12.5 -30.7,38.2 -40.5,77.9 -9.9,39.6 -15.2,86.9 -14.7,141.8 -4.4,2.5 -8.8,4.9 -13.9,7.8 -26,-57.2 -51.6,-113.8 -77.8,-170 136.1,-101.3 272.2,-202.5 409,-304.3 46.2,41.3 92.5,82.6 139.1,124.4 -3.5,3.5 -7.1,7 -10.7,10.6 -52.5,-16.3 -100,-24.3 -140.2,-26.8 -40.8,-1.9 -69.5,4.1 -85.5,16 -6,4.5 -8.1,8.6 -8.1,12.9 0.5,4.7 4.7,11.8 12,21.7 l 15.9,21.3 c 61.1,82.1 122.2,164.2 182.9,245.8 50.1,67.3 86.8,109.7 110.4,126.2 23.8,18 48.7,25 73.8,22.5 2.8,3.8 5.7,7.6 8.1,10.9 -18.1,11.8 -37.2,25.2 -56.3,38.5 -19.8,13.9 -40.4,29.3 -61.8,45.2 -22,16.3 -42.7,31.7 -61,46.2 -18.9,14.9 -36.5,28.9 -53,42.9 m -548.8,-4111 c -4,-2 120.5,-14 120.5,-14 0,0 100.5,0 202.9,-4 86.3,-10 174.7,-20 198.8,-24 26.1,-12 54.2,-24.1 78.3,-38.1 l 56.3,-30 50.2,-38.1 c 68.3,-46 128.5,-108.1 176.7,-174.2 100.5,-132.2 134.6,-300.4 88.4,-458.6 -46.2,-158.2 -152.6,-300.4 -279.2,-414.5 -90.3,-82.1 -192.8,-150.2 -301.2,-204.3 -10.1,-4 -22.1,-8 -38.2,-14 -38.2,-14 -88.4,-34 -142.6,-44.1 -28.1,-6 -54.2,-14 -78.3,-20 -26.1,-4 -50.2,-4 -70.3,-6 -40.2,-4 -66.3,-6 -66.3,-6 -26.1,-4 -52.2,-2 -78.3,-4 l -100.4,-2 -144.6,10 c -48.3,6 -98.5,14 -146.7,20 -192.8,34.1 -383.6,92.2 -576.4,154.2 -259.1,82.1 -524.2,180.3 -801.3,236.3 -56.3,16.1 -114.5,28.1 -172.8,40.1 -20.1,20 -38.1,42 -56.2,62.1 -108.5,126.1 -222.9,250.3 -345.5,366.4 -26.1,26.1 -54.2,52.1 -82.3,76.1 l 26.1,26.1 c 120.5,100.1 257.1,182.2 401.7,246.3 72.3,32 146.6,54.1 222.9,78.1 76.3,16 150.7,34 233,38 l 239,26.1 245,14 359.5,20 c 0,0 170.8,20 291.3,44.1 202.8,34 120.5,54 -6.1,62.1 12.1,2 -305.2,4 -305.2,4 l -371.6,-20.1 c -80.3,-4 -160.7,-8 -241,-14 l -243,-26 c -78.4,-4 -162.7,-24.1 -243,-42.1 -78.4,-26 -158.7,-50 -233,-86.1 -82.4,-36 -162.7,-78.1 -237,-126.1 44.2,72 90.4,140.1 144.6,200.2 176.7,202.3 431.8,330.4 694.9,398.5 259.1,60.1 538.3,40.1 809.4,-4 72.3,-18 144.6,-38 218.9,-58.1 78.3,-24 160.7,-48 241,-72.1 84.4,-26 168.7,-48 253.1,-66 30.1,-8 60.2,-14.1 90.4,-20.1 -24.1,-8 -60.3,-18 -90.4,-30 -80.3,-34 -40.2,-54.1 8,-62.1 m -6369.2,50.3 c 6,2 -148.6,22 -148.6,22 h -154.7 c 10.1,4 20.1,8 30.1,10 54.3,20.1 108.5,40.1 150.7,54.1 40.1,16 68.3,24 68.3,24 l 72.3,28 c 26.1,10 38.1,12 102.4,32.1 52.2,14 104.4,22 158.7,32 52.2,2 104.4,12 158.6,6 215,-8 433.9,-64.1 636.7,-154.1 212.9,-94.1 411.8,-224.2 590.5,-378.4 -251,128.1 -524.2,202.2 -795.3,256.3 -34.2,6 -68.3,12 -104.5,18 0,0 -172.7,16 -295.2,12 -206.9,-4 -126.6,-38.1 -4,-62.1 -6.1,-2 68.3,-14 144.6,-30 74.3,-16 150.6,-34 150.6,-34 l 54.2,-8 60.3,-12 c 52.2,-10.1 102.4,-22.1 154.7,-34.1 102.4,-24 202.8,-52 301.2,-86.1 120.5,-42 237,-94 347.5,-154.1 -16.1,-16 -32.1,-32 -46.2,-48 -60.3,-68.1 -114.5,-138.1 -164.7,-208.2 -26.1,6 -52.2,14 -78.3,18 l -96.4,8 c -64.3,8 -126.6,2 -188.8,2 -36.2,0 -70.3,-4 -106.5,-8 0,0 -174.7,-26 -291.2,-64 -198.9,-62.1 -110.5,-70.1 14,-62.1 -6,-2 70.3,8 146.7,10 76.3,6 154.6,6 154.6,6 28.1,2 58.3,6 86.4,6 58.2,-2 118.5,6 176.7,-2 l 88.4,-8 24.1,-6 c -22.1,-34 -46.2,-68.1 -68.3,-102.1 l -68.3,-108.1 -42.1,-74 c 0,0 -6.1,-14.1 -18.1,-40.1 -12.1,-24 -26.1,-56 -46.2,-94.1 -2,-2 -2,-4 -4,-6 -198.9,-26 -399.7,-62 -596.6,-112.1 -60.2,-14 -120.5,-38 -180.7,-58 -60.3,-22 -120.5,-36 -178.8,-64.1 -76.3,-38 -152.6,-70 -228.9,-108.1 -12.1,-2 -26.2,-4 -38.2,-4 -152.7,-10 -307.3,-40 -464,-20 -156.6,12 -317.3,46.1 -474,96.1 -156.6,50 -311.3,120.1 -445.9,218.2 -132.5,96.1 -243,230.2 -255,386.3 -14.1,158.2 70.3,314.3 178.7,446.4 106.5,132.1 255.1,220.2 423.8,264.2 140.6,40.1 291.2,60.1 443.9,98.1 0,-2 2,-4 2,-4 2,0 36.1,2 84.3,4 48.3,4 112.5,8 176.8,6 h 259.1 c 0,0 82.3,10 142.6,28.1 100.4,24 62.3,48 0,62 m 4007.3,-36.4 -70.3,-86 -62.2,-94.1 -112.5,-178.1 c -16,-24 -30.1,-44 -46.1,-68 -182.8,144.1 -387.6,264.1 -616.4,336.2 6,30 12,64 18,100 10.1,82.1 12.1,168.1 12.1,168.1 0,0 -4,12.1 -12.1,32.1 -6,20 -14,42 -28.1,60 -42.2,60 -56.2,16 -62.2,-16 2,4 -12.1,-82.1 -12.1,-82.1 0,0 0,-72 -10,-148 -4,-30.1 -10.1,-60.1 -14.1,-84.1 -54.2,12 -108.4,22 -162.6,30 2,58.1 0,116.1 -2,174.1 -6,86.1 -14.1,172.1 -32.1,258.2 -8.1,36 -14.1,70 -24.1,106 0,0 -4.1,10 -10.1,28 -8,16.1 -16,42.1 -30.1,68.1 -24.1,56 -60.2,124.1 -98.4,172.1 -50.2,64 -78.3,88 -90.3,90 -4,0 -6.1,-2 -6.1,-6 -4,-12 8.1,-38 24.1,-74 l 152.6,-638.4 c 0,-4 2,-8 2,-10 2.1,-54 2.1,-106 0,-160.1 -46.1,2 -92.3,2 -138.5,0 -2,6 -4,14 -8,20 -12.1,32.1 -32.2,74.1 -50.2,114.1 -22.1,40 -42.2,80.1 -60.3,110.1 -18,28 -32.1,48 -32.1,48 0,0 -10,8 -26.1,24 -16.1,14 -38.1,28 -60.2,38 -66.3,32.1 -60.3,-10 -44.2,-46 -2,0 12,-16 20.1,-40 10,-22 20.1,-44 20.1,-44 0,0 12,-16.1 28.1,-42.1 16,-26 34.1,-62 54.2,-100 14,-32 30.1,-64.1 40.1,-90.1 -140.5,-16 -285.1,-56 -413.6,-120 -58.2,-30.1 -112.4,-64.1 -166.6,-102.1 -220.9,210.1 -477.9,384.2 -759,506.3 -72.3,30 -144.6,56 -216.8,78 -14.1,84.1 -10.1,170.1 22,254.2 26.1,78 68.3,152.1 118.5,224.1 l 152.6,78.1 c 214.8,106 429.7,210.1 652.6,294.1 32.1,12 64.2,26 98.3,36 0,0 36.2,16 90.4,38.1 26.1,12 54.2,26 86.3,40 28.1,10 58.3,22 90.4,32 190.7,72 110.4,78 -20.1,60 8,2 -70.3,-6 -146.6,-28 -76.3,-20 -152.6,-42 -152.6,-42 -30.1,-8 -58.2,-20 -86.3,-32 -192.8,-72.1 -377.5,-158.1 -562.2,-248.2 232.9,220.2 516,396.3 817.2,520.3 160.6,66.1 325.3,116.1 493.9,106.1 170.7,-4 343.4,-34 510,-74 315.3,-76.1 618.4,-194.2 873.4,-366.3 -269,84.1 -546.1,136.1 -821.2,172.1 l -106.4,12 c 0,0 -40.2,2 -100.4,4 -60.2,0 -134.5,-2 -194.7,-4 -206.9,-14 -124.5,-42 0,-64 -6.1,0 68.2,-12 144.5,-22 76.3,-14 152.6,-26 152.6,-26 l 88.4,-12 c 311.2,-40 620.4,-98.1 911.5,-202.1 l 168.7,-68.1 c 44.2,-50 82.3,-102 110.4,-158.1 68.3,-130 72.3,-280.1 56.2,-424.2 -10,-60 -24.1,-118.1 -40.1,-176.1 -112.5,-70.1 -214.9,-156.1 -301.2,-256.2 M 15989.3,9479 c -132.5,-60 -273.1,-112.1 -417.6,-154.2 -150.6,-44 -307.2,-78.1 -463.8,-92.1 -158.6,-16 -321.3,-12 -467.8,40.1 -72.3,24 -136.5,66.1 -184.7,120.1 -52.2,54.1 -78.3,124.2 -102.4,200.3 -44.2,152.2 -36.2,316.4 8,472.6 28.1,94.1 66.3,186.3 114.4,272.4 6.1,8 12.1,18 20.1,32 12.1,16 26.1,36.1 40.2,58.1 16,20 34.1,40 50.2,62.1 18,22 36.1,44 52.2,64.1 18,20 36.1,38 50.2,54 30.1,30.1 48.2,50.1 48.2,50.1 18,20 36.1,38 54.2,58.1 20,20 26.1,28 78.3,78.1 86.3,76.1 176.6,152.2 275,210.3 46.2,32 100.4,56 152.6,80.1 l 158.6,76.1 166.7,56 c 56.2,18.1 110.4,38.1 168.6,50.1 144.6,36 293.2,64.1 441.7,86.1 -12,-26 -22.1,-52.1 -30.1,-78.1 -10,-30 -16.1,-56.1 -20.1,-80.1 -84.3,-26 -170.6,-56.1 -252.9,-88.1 -178.7,-68.1 -353.4,-144.2 -524.1,-230.3 -84.3,-42.1 -168.6,-84.1 -250.9,-130.2 l -106.4,-58.1 c 0,0 -144.6,-94.1 -239,-172.2 -162.6,-128.2 -78.3,-106.1 36.2,-52.1 -6.1,-4 62.2,30.1 130.5,66.1 70.2,34.1 140.5,68.1 140.5,68.1 l 120.5,66.1 c 80.3,42.1 162.6,84.1 244.9,124.2 164.7,82.1 333.3,156.2 504,220.3 68.2,26 138.5,50 206.8,72.1 4,-2 6,-2 10,2 16.1,14 38.2,82.1 88.4,158.2 -4.1,-10 50.1,82.1 120.4,176.2 34.2,46.1 68.3,94.1 94.4,136.2 24.1,36 40.1,60.1 40.1,60.1 l 40.2,68 20.1,34.1 32.1,48.1 c 20.1,34 42.2,68 64.2,100.1 92.4,132.2 182.7,260.3 295.2,366.5 110.4,106.1 236.9,192.2 377.4,246.3 138.6,56.1 293.2,78.1 445.8,76.1 154.6,0 307.1,-28 451.7,-80.1 196.8,-68.1 377.5,-182.2 544.1,-316.4 l -2,2 22.1,-18 c 2,-2 4,-2 6,-4.1 l 48.2,-42 2,-2 c 6,-4 12,-10 16.1,-14 l 8,-6 c 42.2,-40.1 86.3,-78.1 126.5,-118.2 114.4,-112.1 218.8,-228.3 327.2,-356.5 28.2,-30 54.3,-58 76.3,-86.1 10.1,-14 20.1,-28 28.2,-42 4,-6 8,-12 10,-18.1 l 2,-4 -18.1,-10 c -28.1,-16 -60.2,-30 -96.3,-40 -34.2,-12 -72.3,-22.1 -112.5,-32.1 l -60.2,-14 c -18.1,-6 -36.2,-10 -54.2,-14 -74.3,-14 -148.6,-22 -224.9,-22 -152.6,-2 -307.2,26 -459.8,66.1 -76.3,20 -152.6,44 -228.8,70 -38.2,12.1 -74.3,26.1 -120.5,38.1 -42.2,12 -84.3,22 -124.5,30 -82.3,16.1 -164.6,28.1 -244.9,42.1 l -120.5,18 c -54.2,8 -106.4,2 -152.6,-8 -92.4,-20 -172.7,-58.1 -246.9,-100.1 -76.3,-42.1 -146.6,-94.2 -210.9,-140.2 -132.5,-96.1 -261,-186.3 -397.5,-234.3 -80.3,-26.1 -158.6,-36.1 -236.9,-24.1 -4,0 -6,2 -10.1,-2 -18,-10 -42.1,-24 -56.2,-50 -14,-24.1 -18,-60.1 26.1,-106.2 2,0 8.1,-8 14.1,-8 6,-2 12,-2 20.1,-2 -92.4,-94.1 -174.7,-198.2 -241,-312.4 -34.1,-62.1 -74.3,-122.1 -98.3,-192.2 l -40.2,-100.2 -28.1,-106.1 c -22.1,-68.1 -24.1,-142.2 -32.1,-216.3 -4.1,-72.1 2,-144.2 6,-214.3 12,-96.1 30.1,-192.2 52.2,-284.4 m 2989.6,-301.2 c -36.2,-132.1 -96.4,-254.2 -170.7,-366.2 l -54.2,-72.1 c -16.1,-22 -34.2,-40 -52.3,-60 0,0 -10,-10 -26.1,-30.1 -16,-20 -36.1,-50 -66.2,-80 -30.1,-32 -66.3,-68.1 -102.4,-106.1 -88.4,-70 -180.8,-138.1 -279.2,-208.1 -166.6,-138.2 -289.1,-300.3 -439.7,-434.4 -74.3,-66 -154.7,-124.1 -241,-152.1 -80.3,-24 -168.7,4 -255,52.1 -168.7,100 -315.3,252.1 -449.8,408.3 -132.6,158.1 -257.1,326.2 -365.5,500.3 -44.2,76.1 -84.3,154.1 -122.5,234.2 -16.1,38 -40.2,102.1 -62.3,168.1 -18,54.1 -36.1,108.1 -46.1,150.1 -12.1,42.1 -20.1,70.1 -20.1,70.1 -8.1,24 -18.1,50 -24.1,76 l -32.1,114.1 c -18.1,62.1 -28.2,126.1 -42.2,188.2 -10.1,62 -20.1,126.1 -26.1,190.1 -20.1,250.2 50.2,492.4 184.7,708.5 98.4,152.2 222.9,286.3 363.5,404.3 6,2 12,2 18.1,4 152.6,54.1 281.1,142.1 401.6,226.2 10,-32 34.1,-62 72.3,-66 46.2,4 68.2,44 82.3,74 v 4 c 0,10 -6,22 -16.1,26 -6,2 -12,2 -20,-2 2,10 4,20.1 4,28.1 0,-2 0,8 -2,22 12,10 24.1,18 38.1,26 -2,-14 0,-30 4,-42 10.1,-34.1 36.2,-66.1 76.3,-70.1 46.2,2 68.3,44 80.4,72.1 0,2 2,2 0,4 0,12 -4.1,22 -14.1,26 h -2 c -4,2 -12.1,2 -20.1,0 4,8 6,18 6,28 0,-2 0,8 -6,26 0,6 -6,16 -14,22 16,10 32.1,18.1 48.2,24.1 2,-8 2,-18.1 6,-26.1 10,-34 34.1,-66 74.3,-70 46.2,2 68.2,42 82.3,72 v 4 c 0,10.1 -6,22.1 -16.1,26.1 -6,2 -12,2 -20,-2 2,10 4,20 4,30 0,-2 2,2 0,10 h 2 c 36.1,6 60.2,8 94.4,2 l 122.5,-20 c 12,-2 22,-4 32.1,-6 2,-6 2,-12 4,-16 -6,2 -16.1,6 -26.1,2 -6,-4 -12.1,-10 -14.1,-24.1 0,-2 -2,-4 0,-6 12.1,-30 34.2,-70 80.4,-72 40.1,4 66.2,36 76.3,70 2,8 2,16.1 4,26.1 14,-4 30.1,-6 44.2,-10 -12.1,-14.1 -18.1,-34.1 -16.1,-50.1 -2,-12 2,-20 6,-26 -6,2 -16,6 -26.1,2 -6,-2 -12,-10 -16,-24 v -6 c 14,-28 36.1,-70.1 82.3,-72.1 40.1,4 64.2,36 74.3,70.1 8,22 8,46 0,70 2,0 -2,6 -8,16 20,-4 38.1,-10 56.2,-16 l 16,-4 16.1,-28 c -2,0 -2,0 -4,-2 -18.1,-16 -24.1,-38 -22.1,-56 0,-12 4,-20.1 8,-28.1 -6,4 -18,8 -28.1,4 -6,-4 -12,-10 -14,-24 v -6 c 12,-30 34.1,-70 80.3,-74 32.1,4 52.2,24 66.3,48 20,-40 38.1,-82.1 60.2,-120.1 32.1,-62 62.2,-124.1 84.3,-190.1 22.1,-64.1 48.2,-128.1 70.3,-194.2 l 46.2,-200.1 c 30.1,-134.1 46.2,-274.2 56.2,-410.3 4,-70.1 4,-138.1 0,-206.2 -2,-46 -6,-72 -10,-110.1 0,0 -12.1,-162.1 -56.2,-272.2 -18.1,-46 -32.2,-74 -38.2,-94 -8,-18 -6,-26.1 2,-24.1 14.1,2 56.2,36.1 94.4,92.1 -2,-6 40.2,62.1 68.3,140.1 28.1,76.1 42.1,158.1 42.1,158.1 l 8.1,56.1 4,74 c 2,72.1 2,142.1 -4,214.2 -10.1,142.1 -26.1,280.2 -58.3,418.3 l -50.2,208.2 -72.3,198.1 c -22,68.1 -56.2,130.1 -86.3,194.1 -32.1,60.1 -58.2,124.1 -96.4,180.2 58.2,-18 118.5,-36 178.7,-52.1 26.1,-6 54.3,-12 82.4,-18 222.9,-374.2 401.6,-774.5 479.9,-1196.9 50.2,-274.2 44.2,-552.4 -34.1,-816.6 m -2136.6,-536.4 c 4,-6 -34.2,58.1 -72.3,126.1 -36.2,66.1 -70.3,136.1 -70.3,136.1 l -44.2,76.1 c -54.2,102.1 -102.4,204.1 -140.6,310.2 -20,58.1 -38.1,116.1 -52.2,174.1 0,2.1 -2,2.1 -4,6.1 -22.1,18 -70.3,46 -104.4,-24.1 0,0 -2,-6 -2,-10 16.1,-62 34.1,-124.1 56.2,-184.1 42.2,-112.1 92.4,-220.2 148.6,-324.2 l 52.2,-92.1 c 0,0 98.4,-146.1 182.8,-234.2 142.5,-152.1 112.4,-70 50.2,40 m 1122.5,2081.6 c 40.1,4 64.2,38 74.3,72 8,20.1 8,46.1 0,70.1 0,-2 -10.1,34 -42.2,48 -14,6 -40.2,10 -58.2,-6 -18.1,-16 -22.1,-38 -22.1,-56 0,-12 4,-20 8,-26 -6,2 -16,6 -26.1,2 h -2 2 c -8,-4 -12,-10 -16.1,-24.1 v -6 c 14.1,-30 36.2,-70 82.4,-74 m -233,-60.1 c 12.1,-30 34.2,-72 80.4,-74 40.1,4 66.2,38 76.3,70 6,22.1 8,48.1 0,72.1 0,-2 -12.1,32 -44.2,46 -14.1,8 -38.2,12 -56.2,-4 -18.1,-16 -24.1,-38 -22.1,-56 0,-12 2,-20 6,-28 -6,4 -16.1,8 -26.1,4 -6,-4 -12.1,-10 -14.1,-26.1 0,0 -2,-4 0,-4 m 0,226.2 c 12.1,-30 34.2,-70 80.4,-74 40.1,4 66.2,38 76.3,72 6,20 8,46 0,70.1 0,-2 -12.1,32 -44.2,46 -14.1,8 -38.2,12 -56.2,-4 -18.1,-16 -24.1,-38 -22.1,-56.1 0,-12 2,-20 6,-28 -6,4 -16.1,8 -26.1,4 -6,-4 -12.1,-10 -14.1,-26 0,0 -2,-4 0,-4 m -162.6,-302.2 c 10,-34 36.1,-66.1 74.3,-70.1 48.2,2 70.3,44.1 82.3,72.1 v 6 c 0,10 -4,20 -14,24 v 2 l -2,-2 c -4.1,2 -12.1,2 -20.1,0 4,8 6,18 6,28 0,-2 0,8 -6,26 -4,16.1 -26.1,44.1 -54.2,40.1 -24.1,-4 -44.2,-18 -54.3,-34 -12,-16.1 -16,-32.1 -16,-32.1 -4,-20 -2,-42 4,-60 m 0,226.2 c 10,-34.1 36.1,-66.1 74.3,-70.1 48.2,2 70.3,44 82.3,72.1 v 6 c 0,10 -4,20 -14,24 v 2 h -2 c -4.1,2 -12.1,2 -20.1,-2 4,8 6,18 6,28 0,-2 0,10 -6,26 -4,18 -26.1,44 -54.2,40 -24.1,-4 -44.2,-16 -54.3,-34 -12,-16 -16,-32 -16,-32 -4,-20 -2,-40 4,-60 m -176.7,-154.2 c 10,-34 34.1,-66 74.3,-70 46.2,2 68.2,44 82.3,74 v 4 c 0,10 -6,20.1 -16.1,24.1 v 2 c -6,2 -12,2 -20,-2 2,8 6,18 4,28 0,-2 2,10 -4,26 -4.1,18 -28.2,44 -54.3,40 -24.1,-4 -44.1,-16 -56.2,-34 -10,-16 -14,-30 -14,-30 -4.1,-22 -2,-42 4,-62.1 m -156.7,130.1 c 10.1,-34 34.2,-66 74.3,-70 46.2,2 70.3,42 82.4,72 v 4 c 0,10 -6,22.1 -16.1,26.1 h 2 -2 c -6,2 -12,2 -20.1,-2 4,10 6.1,20 4,28 0,-2 2.1,10 -4,28 -4,16 -26.1,44 -54.2,38 -24.1,-2 -44.2,-16 -54.2,-32 -12.1,-18 -16.1,-32 -16.1,-32 -4,-20 -2,-42.1 4,-60.1 m 2.1,192.2 c -6.1,2 -12.1,2 -22.1,-2 4,8 6,18 6,28 0,-2 2,10 -4,26 -4,18 -28.1,44 -54.2,40 -24.1,-4 -44.2,-16 -56.3,-34 -12,-16 -14,-30 -14,-30 -4,-22 -4,-42 4,-62 10,-34.1 34.1,-66.1 74.3,-70.1 46.2,2 68.3,44 82.3,74.1 v 4 c 0,10 -6,20 -16,26 z m 130.5,68 c 4,8 6,18 6,28 0,-2 0,10.1 -6,28.1 -4,16 -26.1,42 -54.2,38 -24.1,-4 -44.2,-16 -54.3,-34 -12,-16 -16,-30.1 -16,-30.1 -4,-22 -2,-42 4,-62 10,-32 36.1,-66 74.3,-70 48.2,2 70.3,44 82.3,74 v 4 c 0,10 -4,20 -14,26 h -2 c -4.1,2 -12.1,2 -20.1,-2 m 168.7,102.1 h -2.1 c -6,2 -12,2 -20,-2 4,8 6,18 6,28 0,-2 0,10 -6,28 -4,16.1 -26.1,42.1 -54.3,38.1 -24,-4 -42.1,-16 -54.2,-34.1 -12,-16 -16,-30 -16,-30 -4,-22 -2,-42 4,-60 10,-34 36.1,-68.1 74.3,-72.1 48.2,4 70.3,44.1 82.3,74.1 v 4 c 0,10 -4,22 -14,26 m 6,-226.2 h 2 -2 c -6,2 -12.1,2 -20.1,-2 4,8 6,18 4,28.1 0,-2 2,10 -4,28 -4,16 -26.1,42 -54.2,38 -24.1,-4 -44.2,-16 -54.2,-34 -12.1,-16 -16.1,-30 -16.1,-30 -4,-22.1 -2,-42.1 4,-60.1 10.1,-34 34.2,-68 74.3,-72 48.2,4 70.3,44 82.3,74 v 4 c 0,10 -6,22 -16,26 m 26.1,116.1 c 10,-34 36.1,-68 74.3,-72 48.2,4 70.3,44 82.3,74 v 4 c 0,10 -4,22 -14,26 h -2 c -4.1,2 -12.1,2 -20.1,-2 4,8 6,18.1 6,28.1 0,-2 0,10 -6,28 -4,16 -26.1,42 -54.2,38 -24.1,-4 -44.2,-16 -54.3,-34 -12,-16 -16,-30 -16,-30 -4,-22.1 -2,-42.1 4,-60.1 m 142.6,258.2 h -2 c -4.1,2 -12.1,2 -20.1,-2 4,10 6,20 6,28 0,-2 0,10 -6,28.1 -4,16 -26.1,44 -54.2,38 -24.1,-4 -44.2,-16 -54.3,-34 -12,-16.1 -16,-30.1 -16,-30.1 -4,-22 -2,-42 4,-60 10,-34 36.1,-68.1 74.3,-72.1 48.2,4 70.3,44.1 82.3,74.1 v 4 c 0,10 -4,22 -14,26 m 170.6,-110.1 c 0,0 -12,34.1 -44.1,48.1 -14.1,6 -38.2,12 -58.3,-6 -16,-14 -22.1,-38.1 -20,-56.1 0,-10 2,-20 6,-26 -6,4 -16.1,8 -26.1,2 v 2 -2 c -6.1,-2 -12.1,-8 -14.1,-24 -2,0 -2,-4 0,-6 12.1,-28 34.2,-70.1 80.3,-72.1 40.2,4 66.3,36.1 76.3,70.1 6.1,22 6.1,48 0,70 m 152.7,-90 c 0,0 -12.1,34 -44.2,48 -14.1,6 -38.2,12 -56.2,-4 -18.1,-16 -24.1,-40 -22.1,-58 0,-10.1 2,-18.1 6,-26.1 -6,4 -16.1,8 -26.1,2 -6,-2 -12.1,-8 -14.1,-24 0,0 -2,-4 0,-6 12.1,-28 34.2,-70 80.4,-72 40.1,4 66.2,36 76.3,70 6,22 8,48 0,70.1 m 150.6,-78.1 c 2,-2 -10.1,34 -42.2,48 -14.1,6 -40.2,12 -58.2,-6 -18.1,-16 -22.1,-38 -22.1,-56 0,-12 4,-20 8,-26 -6,2 -16.1,6 -26.1,2 -6,-4 -12,-10 -16.1,-24 v -6 c 14.1,-30.1 36.2,-70.1 82.4,-72.1 40.1,2 64.2,36 74.3,70.1 8,20 8,46 0,70 m 3340.7,-1252.6 c -2,-88.2 -10.1,-170.3 -34.2,-250.4 -20,-78.1 -58.2,-150.2 -112.4,-204.3 -24.1,-26 -54.2,-46.1 -86.3,-62.1 -6.1,10 -12.1,20 -18.1,30.1 -102.4,180.2 -92.4,94.1 -56.2,-28.1 -4,6 20.1,-64.1 42.1,-138.2 20.1,-72.1 34.2,-146.2 34.2,-146.2 4,-18 8,-34.1 12,-50.1 l 4,-26 v -6 l 4.1,-32.1 c 4,-28 4,-56.1 2,-82.1 -6.1,-106.2 -68.3,-184.3 -170.7,-222.3 -100.4,-38.1 -220.9,-46.1 -337.3,-50.1 -232.9,-4 -465.8,46.1 -674.7,148.2 -208.8,102.2 -395.5,250.4 -556.1,422.6 -140.6,154.3 -261.1,324.5 -367.5,504.8 6,162.2 -8,322.5 -38.1,476.7 -74.3,378.5 -218.9,731.1 -401.6,1061.6 34.1,-20.1 68.3,-44.1 100.4,-68.1 46.2,-36.1 90.3,-76.2 134.5,-114.2 l 469.9,-456.7 c 66.2,-70.1 130.5,-140.2 192.7,-208.3 l 70.3,-78.1 c 0,0 122.5,-120.2 214.8,-200.3 58.3,-52.1 88.4,-74.1 100.4,-74.1 18.1,-2 -10,54.1 -56.2,118.2 6,-4 -40.2,58 -88.3,118.1 l -96.4,124.2 -184.7,202.3 c -72.3,78.1 -144.6,154.2 -218.9,228.3 -136.5,138.3 -277.1,274.5 -429.7,398.6 l 38.2,-14 c 54.2,-18 108.4,-46.1 162.6,-68.1 32.1,-14 62.2,-30 92.4,-46.1 0,0 122.4,-50 271,-110.1 70.3,-32.1 106.4,-42.1 118.5,-38.1 18.1,4 -28.1,46.1 -92.4,94.2 6.1,-4 -56.2,40 -122.5,80.1 -66.2,42 -136.5,82.1 -136.5,82.1 -28.1,12 -54.2,26 -82.3,38.1 -34.1,14 -66.3,30 -98.4,44 32.1,6 64.3,10 96.4,18.1 80.3,22 160.6,38 249,72.1 22,8 44.1,18 66.2,30 12.1,6 22.1,12 32.1,20 10.1,6 30.2,22.1 44.2,36.1 28.1,28 42.2,68.1 38.2,110.1 0,10.1 -2,22.1 -6.1,34.1 235,-66.1 459.8,-176.3 654.6,-324.5 188.7,-142.2 353.4,-320.4 485.9,-518.7 l 94.4,-152.3 c 22.1,-52 50.2,-100.1 62.2,-156.2 l 14.1,-46.1 c 4,-12 6,-24 8,-36 l 14.1,-76.1 c 0,0 4,-16.1 8,-40.1 4,-26 10,-62.1 18.1,-104.1 14,-84.2 28.1,-194.3 52.2,-286.5 38.1,-152.2 74.3,-192.2 84.3,-172.2 6,10 8,34 10,68.1 -2,32 -2,74.1 -2,122.2 2,-10 0,100.1 2,216.3 0,58.1 -2,118.2 -4,164.2 0,46.1 -6,78.1 -6,78.1 l -14.1,86.2 c -8,30 -12,42 -36.1,120.1 -10,32.1 -26.1,62.1 -40.2,92.2 -14,30 -28.1,62.1 -44.1,86.1 -34.2,54.1 -64.3,110.2 -102.4,160.2 -122.5,178.3 -271.1,338.5 -437.7,476.7 192.7,-62 389.5,-120.1 596.3,-152.2 70.3,-12 142.5,-18 214.8,-22 6.1,-12 14.1,-22 20.1,-34.1 156.6,-304.4 214.9,-658.9 224.9,-1005.4 2,-88.2 2,-174.3 -2,-262.4 m -1501.9,863.2 c -6,6 -24.1,24.1 -40.2,38.1 -16,16 -32.1,30 -32.1,30 0,0 -16,14.1 -34.1,28.1 -16.1,16 -40.2,28 -48.2,34 -14.1,8 -28.1,2 -48.2,-12 2,-28 2,-42 12.1,-50.1 6,-4 24.1,-12 40.1,-28 16.1,-14 32.1,-26 32.1,-26 0,0 14.1,-12.1 30.2,-26.1 14,-16 32.1,-32 38.1,-38 10,-10 24.1,-6 50.2,0 8,24 10,40 0,50"
             id="path908" />
          <path
             fill="#d69a2d"
             d="m 18123.4,11334.5 c -108.6,31.2 -328.5,67.5 -535.9,96.2 -176.1,-26.2 -557.1,-126.2 -550.9,-295 7.5,-27.5 374.8,-646.2 575.9,-671.2 201.1,-25 587.1,542.5 667.1,566.2 -99.9,187.5 -56.2,195 -156.2,303.8"
             id="path912" />
        </g>
      </g>
    </g>
  </g>
</svg>
