<?xml version="1.0" encoding="UTF-8" standalone="no"?>
<!-- Created with Inkscape (http://www.inkscape.org/) -->

<svg
   width="600mm"
   height="400mm"
   viewBox="0 0 600 400"
   version="1.1"
   id="svg5"
   inkscape:version="1.1.1 (eb90963e84, 2021-10-02)"
   sodipodi:docname="RI.svg"
   inkscape:export-filename="/home/kavi/temp.png"
   inkscape:export-xdpi="173.355"
   inkscape:export-ydpi="173.355"
   xmlns:inkscape="http://www.inkscape.org/namespaces/inkscape"
   xmlns:sodipodi="http://sodipodi.sourceforge.net/DTD/sodipodi-0.dtd"
   xmlns="http://www.w3.org/2000/svg"
   xmlns:svg="http://www.w3.org/2000/svg">
  <sodipodi:namedview
     id="namedview7"
     pagecolor="#ffffff"
     bordercolor="#666666"
     borderopacity="1.0"
     inkscape:pageshadow="2"
     inkscape:pageopacity="0.0"
     inkscape:pagecheckerboard="0"
     inkscape:document-units="mm"
     showgrid="false"
     inkscape:zoom="0.29966032"
     inkscape:cx="744.17594"
     inkscape:cy="385.43642"
     inkscape:window-width="1848"
     inkscape:window-height="1016"
     inkscape:window-x="72"
     inkscape:window-y="27"
     inkscape:window-maximized="1"
     inkscape:current-layer="layer1" />
  <defs
     id="defs2">
    <style
       type="text/css"
       id="style1789">
.state {fill:#D0D0D0}                        /* default color for all states not specified below */
.borders {stroke:#FFFFFF; stroke-width:1}    /* color and width of borders between states */
.dccircle {display:yes}                      /* set display to yes to show the circle for the District of Columbia, or none to hide it */
.separator1 {stroke:#B0B0B0; stroke-width:2} /* color and width of lines around Alaska and Hawaii */

/* Individual states can be colored as follows:
.ks,.mt,.pa {fill:#0000FF}
.ca,.de {fill:#FF0000}
In this example, Kansas, Montana and Pennsylvania are colored blue, and California and Delaware are colored red.
Place this code in the empty space below. */



</style>
  </defs>
  <g
     inkscape:label="Layer 1"
     inkscape:groupmode="layer"
     id="layer1"
     transform="translate(621.00018,583.66376)">
    <rect
       style="color:#000000;font-variation-settings:normal;overflow:visible;opacity:1;vector-effect:none;fill:#3f3f69;fill-opacity:1;fill-rule:evenodd;stroke:none;stroke-width:5.94131;stroke-linecap:butt;stroke-linejoin:miter;stroke-miterlimit:4;stroke-dasharray:none;stroke-dashoffset:0;stroke-opacity:1;-inkscape-stroke:none;stop-color:#000000;stop-opacity:1"
       id="rect9392"
       width="600"
       height="400"
       x="-621.00018"
       y="-583.66376" />
    <g
       id="g16025"
       transform="translate(-5.7127372)">
      <text
         xml:space="preserve"
         style="font-size:48.1007px;line-height:125%;font-family:'Ford Script';-inkscape-font-specification:'Ford Script';letter-spacing:0px;word-spacing:0px;fill:#ffffff;stroke:none;stroke-width:1.20252px;stroke-linecap:butt;stroke-linejoin:miter;stroke-opacity:1"
         x="-191.04671"
         y="-367.57407"
         id="text13622"><tspan
           sodipodi:role="line"
           id="tspan13620"
           style="font-style:normal;font-variant:normal;font-weight:normal;font-stretch:normal;font-family:Caladea;-inkscape-font-specification:Caladea;fill:#ffffff;stroke:none;stroke-width:1.20252px"
           x="-191.04671"
           y="-367.57407">ISLAND</tspan></text>
      <text
         xml:space="preserve"
         style="font-size:48.1007px;line-height:125%;font-family:'Ford Script';-inkscape-font-specification:'Ford Script';letter-spacing:0px;word-spacing:0px;fill:#ffffff;stroke:none;stroke-width:1.20252px;stroke-linecap:butt;stroke-linejoin:miter;stroke-opacity:1"
         x="-598.64508"
         y="-367.57407"
         id="text13622-9"><tspan
           sodipodi:role="line"
           id="tspan13620-1"
           style="font-style:normal;font-variant:normal;font-weight:normal;font-stretch:normal;font-family:Caladea;-inkscape-font-specification:Caladea;fill:#ffffff;stroke:none;stroke-width:1.20252px"
           x="-598.64508"
           y="-367.57407">RHODE</tspan></text>
      <g
         id="g15975"
         transform="translate(2.0570903,-2.6253179)">
        <g
           id="g7617"
           transform="matrix(0.80719143,0,0,0.80719143,-94.980043,-365.59363)">
          <path
             id="path7492"
             style="color:#000000;overflow:visible;fill:#151593;fill-opacity:1;fill-rule:evenodd;stroke:none;stroke-width:23.717;stop-color:#000000"
             d="m 376.50781,7.0996094 -65.65625,1.5351562 c -36.11103,0.844176 -92.74808,2.2221294 -125.85937,3.0625004 l -60.20117,1.527343 1.4707,68.771485 c 0.80903,37.823866 3.23419,187.998346 5.38867,333.720706 l 3.91602,264.94922 -7.46094,184.76757 c -4.10418,101.62217 -7.97635,188.11601 -8.60352,192.20901 l -1.14062,7.4414 -12.4043,-4.7461 -12.404296,-4.7461 -15.351562,10.0859 -15.353516,10.0879 0.0039,13.9453 c 0.0024,10.3052 1.190169,15.462 4.548829,19.7559 5.73251,7.3286 5.721486,10.1272 -0.126953,33.0332 l -4.775391,18.7012 6.388672,12.2011 c 5.9252,11.317 6.177983,12.9003 3.501953,21.8321 -2.26225,7.5507 -5.360736,11.2493 -14.353516,17.1289 -6.37476,4.1679 -11.488419,9.2891 -11.511718,11.5293 -0.02296,2.2168 -2.916411,7.2377 -6.431641,11.1582 -5.37569,5.9954 -8.607158,7.3442 -20.335938,8.4863 C 4.3583496,1245.0364 0,1247.3099 0,1253.8457 c 0,4.7242 6.6211551,5.8841 13.515625,2.3672 2.15293,-1.0982 7.254991,-2.6295 11.337891,-3.4024 6.04526,-1.1444 7.693387,-0.5584 8.873046,3.1583 0.79674,2.5102 1.899189,4.5644 2.449219,4.5644 0.55004,0 5.970192,-3.5155 12.044922,-7.8125 13.80865,-9.7677 24.952254,-13.8577 58.689457,-21.543 41.35121,-9.4198 44.3879,-9.9394 59.26562,-10.1367 7.6696,-0.1017 24.11887,-1.5259 36.55469,-3.166 19.6706,-2.5943 24.21327,-4.086 34.93555,-11.4707 6.77864,-4.6687 23.27298,-12.5584 36.65429,-17.5332 13.38128,-4.9748 34.72456,-13.4798 47.42969,-18.8984 14.88534,-6.3485 30.17555,-10.9349 42.99609,-12.8965 10.9428,-1.6742 28.5352,-5.7983 39.09375,-9.166 10.55852,-3.3677 25.81304,-6.4832 33.89844,-6.9239 8.08543,-0.4407 20.62428,-2.1276 27.86524,-3.748 12.66204,-2.8337 13.16601,-3.2326 13.16601,-10.416 0,-4.1079 3.66084,-18.6431 8.13477,-32.3008 4.47393,-13.6577 8.13281,-27.3874 8.13281,-30.5098 0,-3.3513 1.35109,-5.6758 3.29687,-5.6758 1.81286,0 4.82077,-0.5859 6.6836,-1.3007 2.64552,-1.0152 3.67584,1.6554 4.70898,12.2011 0.7275,7.4258 2.02189,18.3165 2.87696,24.2012 1.5368,10.5766 1.41786,10.8276 -10.33008,21.8164 -6.5365,6.1141 -11.88282,13.0219 -11.88282,15.3496 0,2.5265 4.00984,6.5818 9.94922,10.0625 5.47221,3.207 12.98832,9.0034 16.70313,12.8809 9.96573,10.4019 12.84874,9.2497 12.89844,-5.1524 0.0459,-13.3225 3.09972,-19.8618 25.70703,-55.0605 l 12.59961,-19.6172 -0.61328,-19.4023 c -0.33744,-10.6721 0.42866,-21.3531 1.70312,-23.7344 1.27447,-2.3814 7.11665,-6.6527 12.98242,-9.4922 6.84152,-3.312 11.43793,-7.3505 12.82227,-11.2656 1.1869,-3.3567 3.21777,-7.9419 4.51172,-10.18753 1.60416,-2.784 1.53573,-7.32515 -0.21485,-14.27735 -2.96258,-11.7655 -0.0891,-19.98633 6.98633,-19.98633 5.60915,0 7.51804,-7.91521 4.76563,-19.75586 -3.24584,-13.96341 -2.70272,-32.81539 1.21484,-42.1914 1.9174,-4.589 3.49933,-14.75289 3.51563,-22.58594 0.0297,-14.20505 -5.598,-45.48696 -9.56055,-53.14062 -1.14919,-2.21962 -2.08985,-6.63871 -2.08985,-9.82227 0,-3.58505 -2.17616,-7.21592 -5.71875,-9.53711 -3.14581,-2.06122 -6.40178,-6.00777 -7.23437,-8.76953 -0.8326,-2.76175 -4.09877,-7.78287 -7.25781,-11.16016 -7.88723,-8.4321 -6.70508,-17.36349 2.17578,-16.43554 7.96769,0.83252 40.79016,-10.39435 47.26172,-16.16602 3.46287,-3.08834 4.53492,-6.26318 3.80273,-11.25195 -0.86517,-5.89485 -2.04772,-6.94727 -7.80078,-6.94727 -10.83479,0 -11.28304,-6.49954 -1.05859,-15.33789 8.5583,-7.39807 8.64568,-7.64293 4.84765,-13.43945 -2.12757,-3.2471 -5.88106,-6.54322 -8.34179,-7.32422 -5.91642,-1.8778 -3.317,-5.73242 3.86523,-5.73242 6.29672,0 6.78303,-2.07383 3.2793,-13.96094 -1.31619,-4.46549 -2.97048,-18.57672 -3.67578,-31.35938 -0.7053,-12.78266 -2.20777,-23.58012 -3.33985,-23.99218 -1.1321,-0.41207 -5.86555,-3.33134 -10.51758,-6.48828 -8.3644,-5.67625 -8.57266,-5.69603 -18.77734,-1.79883 -6.05798,2.31357 -11.11043,3.07271 -12.23633,1.83984 -1.05482,-1.15502 -2.57162,-10.32601 -3.37109,-20.38086 l -1.45313,-18.28125 6.38282,1.56836 c 3.51146,0.86287 15.53587,2.15887 26.7207,2.87891 17.74652,1.14246 20.33594,0.82941 20.33594,-2.46094 0,-2.07377 1.04596,-3.77148 2.32422,-3.77148 1.27826,0 2.32421,1.53186 2.32421,3.40429 0,4.14088 6.67915,8.0069 12.88086,7.45703 3.93464,-0.34885 4.45278,0.85871 3.82617,8.90235 -0.60352,7.74734 0.40181,10.3851 6.01172,15.75976 9.65812,9.25305 13.52643,6.65141 15.29688,-10.28711 0.86708,-8.29599 3.36981,-16.69354 6.1289,-20.56835 3.72936,-5.23736 4.66211,-10.25351 4.66211,-25.06055 v -18.51367 l 10.45899,-2.92774 c 16.00563,-4.4813 12.52209,-9.29687 -6.72656,-9.29687 -7.71735,0 -11.13228,-1.37476 -15.86133,-6.39063 -5.3389,-5.66272 -5.92887,-7.94027 -5.18945,-19.96875 0.45898,-7.46687 1.98584,-14.96474 3.39453,-16.66211 1.93137,-2.32715 1.56915,-3.64038 -1.47461,-5.34375 -4.63322,-2.5929 -11.05803,-21.35742 -7.3125,-21.35742 1.56853,0 1.58956,-0.9782 0.0625,-2.90625 -1.26551,-1.59783 -3.61,-11.50856 -5.20899,-22.02344 -1.599,-10.5149 -4.36091,-20.32341 -6.13867,-21.79882 -0.30474,-0.25291 -0.88988,-0.97059 -1.60937,-1.86329 -1.49781,-0.25367 -2.8535,-0.52929 -5.45508,-0.52929 -5.21027,0 -12.65314,-0.9129 -16.53907,-2.02735 -4.71824,-1.35319 -7.28914,-1.35319 -7.74023,0 -0.37153,1.11445 -5.87944,2.02735 -12.24023,2.02735 H 596.4707 l -0.18164,-0.38672 -0.92383,0.41211 0.70313,-0.88281 -3.63672,-7.74024 c -3.02498,-6.44109 -3.837,-11.56412 -3.23828,-20.42969 0.79873,-11.82741 0.80479,-11.83386 9.83008,-15.82617 8.32316,-3.68173 9.40868,-3.74592 13.88867,-0.81055 4.84694,3.17587 19.16211,4.47903 19.16211,1.74415 0,-0.79259 -2.43257,-3.38042 -5.4043,-5.75 l -5.40234,-4.3086 5.47656,-7.17969 c 5.03157,-6.59675 5.21252,-7.44566 2.22461,-10.43359 -1.78881,-1.78879 -4.45547,-3.25195 -5.92578,-3.25195 -1.47031,0 -3.19688,-1.36668 -3.83789,-3.03711 -0.91831,-2.39314 -7.23349,-6.19268 -16.93164,-10.18555 -0.2589,-0.10658 0.31638,-2.93941 1.27929,-6.29687 1.78251,-6.21517 -0.2742,-12.84375 -3.98437,-12.84375 -1.07932,0 -5.65432,-2.33159 -10.16602,-5.17969 -6.95644,-4.39143 -8.71397,-4.77454 -11.57031,-2.52735 -1.51601,1.1927 -7.57566,6.22308 -13.27734,10.97461 l -3.26648,-0.43765 c -2.38381,1.85322 -1.42754,4.51471 -3.3468,5.58023 -5.85082,4.48729 -10.70464,7.47438 -12.19532,6.90235 -1.65286,-0.63428 -3.3163,-1.1543 -3.69531,-1.1543 -0.37901,0 -1.76524,-3.41395 -3.08203,-7.58594 -3.56285,-11.28782 -16.37967,-43.7708 -17.94727,-45.48633 -0.74944,-0.82015 -24.54093,2.5045 -52.86914,7.38868 -28.32816,4.88424 -51.67583,8.72295 -51.88476,8.52929 -1.65109,-1.53071 -32.07167,-203.096081 -37.66602,-249.574217 -0.88205,-7.328145 -0.94348,-9.520579 -1.20117,-12.892578 -0.52849,-0.980642 -0.89258,-1.77113 -0.89258,-2.177734 z"
             transform="matrix(0.26458333,0,0,0.26458333,-412.73274,-185.16278)"
             sodipodi:nodetypes="cccccccccccccccscccsssssssssssssssssssssssssssssssssscsssssssssssssssssssssssssssssccsssssssssssccssssssssscsssscccccsssscccsssssssscccssssscscsc" />
          <path
             id="path4683"
             style="color:#000000;font-variation-settings:normal;overflow:visible;vector-effect:none;fill:#159393;fill-opacity:1;fill-rule:evenodd;stroke:none;stroke-width:20.642;stroke-linecap:butt;stroke-linejoin:miter;stroke-miterlimit:4;stroke-dasharray:none;stroke-dashoffset:0;stroke-opacity:1;-inkscape-stroke:none;stop-color:#000000"
             d="M 665.10547,0.00390625 C 651.54771,0.0919688 594.01954,1.391468 525.87695,3.1679688 447.99971,5.1982554 382.38776,6.9045592 380.07227,6.9589844 c -4.17582,0.098041 -4.18755,0.28379 -1.47071,22.8554686 5.59435,46.478136 36.01493,248.043507 37.66602,249.574217 0.20893,0.19366 23.5566,-3.64505 51.88476,-8.52929 28.32821,-4.88418 52.1197,-8.20883 52.86914,-7.38868 1.5676,1.71553 14.38442,34.19851 17.94727,45.48633 1.31679,4.17199 2.70302,7.58594 3.08203,7.58594 0.37901,0 2.04245,0.52002 3.69531,1.1543 1.81856,0.69785 8.08151,-3.09729 15.86133,-9.60938 7.07097,-5.91878 14.37211,-11.95273 16.22461,-13.41016 2.85634,-2.24719 4.61387,-1.86408 11.57031,2.52735 4.5117,2.8481 9.0867,5.17969 10.16602,5.17969 3.71017,0 5.76688,6.62858 3.98437,12.84375 -0.96291,3.35746 -1.53819,6.19029 -1.27929,6.29687 9.69815,3.99287 16.01333,7.79241 16.93164,10.18555 0.64101,1.67043 2.36758,3.03711 3.83789,3.03711 1.47031,0 4.13697,1.46316 5.92578,3.25195 2.98791,2.98793 2.80696,3.83684 -2.22461,10.43359 l -5.47656,7.17969 5.40234,4.3086 c 2.97173,2.36958 5.4043,4.95741 5.4043,5.75 0,2.73488 -14.31517,1.43172 -19.16211,-1.74415 -4.47999,-2.93537 -5.56551,-2.87118 -13.88867,0.81055 -9.02529,3.99231 -9.03135,3.99876 -9.83008,15.82617 -0.59872,8.86557 0.2133,13.9886 3.23828,20.42969 l 4.03906,8.59766 h 11.56446 c 6.36079,0 11.8687,-0.9129 12.24023,-2.02735 0.45109,-1.35319 3.02199,-1.35319 7.74023,0 3.88593,1.11445 11.3288,2.02735 16.53907,2.02735 7.32124,0 9.6835,0.80334 10.39843,3.53906 0.73478,2.81165 0.97383,2.65457 1.16016,-0.76367 0.12907,-2.36697 1.59877,-5.43533 3.26758,-6.82031 4.94389,-4.10308 3.5481,-8.2492 -5.72656,-17.00977 -5.83537,-5.51192 -10.22412,-12.22077 -13.14649,-20.08789 -5.81306,-15.64908 -5.71148,-16.1948 2.71875,-14.61328 7.53241,1.4131 8.16505,0.81911 9.85352,-9.25 1.0865,-6.47945 14.32863,-47.74135 17.6875,-55.11328 2.764,-6.06633 4.29901,-6.51474 7.8125,-2.28125 1.65173,1.99098 2.21017,7.64853 1.64453,16.6875 -0.7036,11.24364 -2.69738,17.54011 -11.20899,35.4082 -5.69397,11.95322 -10.63382,23.88453 -10.97851,26.51367 -0.41174,3.14207 1.91858,7.8876 6.80078,13.8457 4.49953,5.49107 9.13783,14.57575 11.76563,23.04493 2.38582,7.68925 5.14731,16.53738 6.13671,19.66211 1.2855,4.05987 0.85103,8.0461 -1.51953,13.9707 -3.30191,8.25228 -3.2927,8.31012 1.95899,12.52344 5.75331,4.61576 9.57812,12.81959 9.57812,20.54687 0,3.40437 1.12958,4.92578 3.66016,4.92578 4.77418,0 19.85676,22.81428 21.68359,32.79883 1.6492,9.01374 3.55758,10.7325 14.00586,12.61914 14.25389,2.57381 23.21386,8.52937 27.34961,18.17774 5.04231,11.76311 7.42306,12.7161 9.09766,3.64453 0.76838,-4.16226 3.25495,-9.56488 5.52539,-12.00586 7.17471,-7.71359 3.64965,-17.60478 -11.4668,-32.17774 -16.79864,-16.19472 -19.37715,-21.36826 -17.8789,-35.88476 1.06208,-10.29058 1.65623,-11.44531 5.88476,-11.44531 6.6319,0 9.91916,6.79154 6.86133,14.17382 -3.4035,8.21677 2.31018,19.69249 11.77344,23.64649 7.75536,3.24041 10.39265,1.57165 10.45312,-6.61914 0.017,-2.30925 2.35342,-6.3828 5.19336,-9.05078 4.35421,-4.09056 5.45998,-4.38306 7.05078,-1.86915 6.78758,10.7263 3.50225,49.82962 -6.11328,72.76758 -3.96038,9.44756 -6.80325,20.32142 -7.53516,28.82422 -0.82299,9.56033 -1.99692,13.6543 -3.91601,13.6543 -1.53332,0 -2.74024,2.10673 -2.74024,4.7832 0,2.6313 -1.75729,7.01861 -3.90429,9.74805 -4.7003,5.97566 -7.21429,25.58443 -4.75,37.04883 1.32544,6.16645 2.81335,8.2467 6.25586,8.74414 3.86165,0.55799 5.53017,-1.56844 11.49804,-14.66406 7.79324,-17.10113 12.45129,-19.55321 18.53516,-9.75586 1.89982,3.05946 4.98493,7.38235 6.85742,9.60742 1.87249,2.22506 3.93631,7.54123 4.58594,11.8125 0.64959,4.27127 2.2482,9.04962 3.55078,10.61914 1.30261,1.56952 3.97086,2.85351 5.93164,2.85351 3.40611,0 7.13926,-8.46338 10.89063,-24.69336 0.78311,-3.38813 4.68016,-7.82547 10.21679,-11.63476 4.92276,-3.38695 9.51311,-7.93163 10.20117,-10.09961 1.97175,-6.21246 -2.13469,-17.97775 -12.35937,-35.41016 -9.46023,-16.12917 -13.5755,-31.55026 -9.15039,-34.28515 1.29804,-0.80222 4.61569,3.45889 8.1582,10.47656 7.74973,15.35213 10.31866,17.49281 17.21289,14.35156 5.05588,-2.30361 6.02133,-4.40244 9.98828,-21.71094 0.8496,-3.70697 -3.85548,-12.19552 -20.85742,-37.63085 l -21.95508,-32.84376 -26.58007,-14.64648 c -28.4736,-15.69019 -54.99689,-33.16564 -62.03516,-40.87305 -2.38329,-2.60988 -8.01035,-10.80274 -12.50391,-18.20703 -7.20053,-11.86467 -8.4605,-15.86122 -10.61914,-33.67187 -2.37422,-19.58995 -2.31362,-20.40141 2.01367,-26.47852 3.05216,-4.28637 6.04629,-14.74849 9.4668,-33.08008 4.76674,-25.54631 4.85675,-27.40315 1.89258,-39.36328 -1.71103,-6.90383 -3.11133,-20.78538 -3.11133,-30.84765 0,-10.06228 -0.65592,-18.29493 -1.45703,-18.29493 -0.80107,0 -13.14364,2.82616 -27.42969,6.28125 -14.28601,3.4551 -26.22347,5.95815 -26.52734,5.5625 -0.30384,-0.39564 0.27392,-52.00534 1.2832,-114.68945 1.00933,-62.684068 1.54108,-114.22725023 1.18164,-114.53906125 -0.0449,-0.03896693 -1.08466,-0.05164286 -3.02148,-0.0390625 z M 904.52148,606.64648 c -1.10628,-0.13359 -3.36207,3.37403 -5.40625,8.57813 -13.33761,33.95483 -18.51054,101.55897 -8.96875,117.20898 5.94369,9.74852 5.84414,11.95853 -1.13476,25.08399 -3.17609,5.9735 -5.15607,11.86124 -4.40039,13.08398 2.17682,3.52219 5.28532,32.33147 3.88281,35.98633 -0.86521,2.25465 -3.27245,2.86694 -7.56641,1.92383 l -6.29492,-1.38281 1.08594,13.46484 c 0.59724,7.40552 1.94207,13.79451 2.98828,14.19922 1.04625,0.4047 4.65666,2.90494 8.02539,5.55469 5.34648,4.20557 5.91349,5.88405 4.45508,13.20898 -2.6496,13.30842 -1.14912,28.59456 3.55469,36.22266 3.82178,6.19764 3.95237,7.71716 1.10937,12.83984 -4.94661,8.91335 -4.13978,12.95347 5.90821,29.61328 10.44699,17.32139 11.66046,26.92636 5.83398,46.13281 -1.9036,6.2749 -3.47121,13.23957 -3.48633,15.47657 -0.0311,5.03861 -0.0101,5.03814 12.11524,-0.34766 5.46689,-2.4283 12.81489,-5.54463 16.33007,-6.92383 3.57959,-1.4043 6.41313,-4.31919 6.44336,-6.625 0.0794,-6.3289 6.92572,-13.39695 19.70313,-20.34179 16.5055,-8.9712 19.75586,-12.45781 19.75586,-21.20118 0,-7.23871 0.69372,-7.87524 12.74414,-11.67382 12.70458,-4.00477 12.74028,-4.04297 11.62888,-12.32032 -0.6131,-4.56671 -3.81373,-43.33823 -7.11326,-86.16015 l -6,-77.85938 -6.79101,-7.08203 c -6.29409,-6.56336 -6.79297,-8.38392 -6.79297,-24.80664 0,-15.60774 0.70692,-18.56311 5.92773,-24.76758 5.3765,-6.38968 5.69944,-7.89422 3.47266,-16.16406 -2.04121,-7.58034 -1.70435,-10.7938 1.99414,-19.05469 3.62589,-8.09861 3.95854,-11.05484 1.80273,-15.97265 -3.6263,-8.27189 -3.93519,-8.41935 -32.27148,-15.44922 -20.10678,-4.98823 -25.08398,-7.03998 -25.08398,-10.33789 0,-3.2427 -2.70049,-4.45191 -12.7461,-5.70703 -7.0103,-0.87588 -13.44749,-2.72638 -14.30468,-4.11329 -0.10715,-0.17336 -0.24235,-0.26802 -0.4004,-0.28711 z m -184.54296,17.03516 c -0.44892,-0.009 -0.92447,0.0186 -1.4336,0.0781 -3.7686,0.44065 -5.05486,1.54904 -6.36133,5.48242 -1.12754,3.3947 -1.13098,3.35985 1.75586,15.44336 l 1.98438,8.3125 -5.70899,5.78515 c -6.32035,6.4047 -7.35909,8.06674 -7.95312,12.72461 -0.33309,2.61182 -0.15441,3.64719 1.00976,5.80664 2.02674,3.75939 9.72883,12.00756 12.16016,13.02344 1.13386,0.47375 3.97336,0.86274 6.31055,0.86328 8.79753,0.002 10.53735,2.50949 9.99804,14.41016 -0.33705,7.43781 -2.37372,16.64111 -5.47656,24.75 -1.20926,3.16019 -1.48095,5.27859 -1.70508,13.29687 -0.2739,9.79708 0.67409,23.23254 1.78516,25.3086 0.70443,1.31622 3.72258,3.03905 6.54102,3.73437 4.49423,1.10877 8.90738,-1.04323 15.32812,-7.47461 5.82569,-5.83536 11.18671,-12.87389 13.75781,-18.06054 2.53917,-5.12227 10.51353,-28.99394 11.21289,-33.56641 2.03169,-13.28294 -5.39562,-22.68974 -28.70703,-36.35352 -14.15146,-8.29474 -15.10181,-10.11222 -13.75195,-26.32031 0.79918,-9.59617 0.4136,-11.86011 -3.44141,-20.22461 -2.36046,-5.12167 -4.16228,-6.95923 -7.30468,-7.01953 z m 150.11523,23.6582 c -1.2014,0 -2.49355,1.21677 -5.78125,5.44141 -2.32872,2.99241 -4.79908,6.0992 -5.48828,6.9043 -0.7172,0.83776 -6.17371,3.60827 -12.75977,6.47851 -16.81254,7.32698 -20.14785,9.87285 -24.87109,18.98438 -3.45797,6.67072 -4.94418,8.40432 -7.96875,9.30273 -1.63733,0.48634 -3.76742,1.90211 -5.58594,3.71289 -3.63764,3.6222 -4.47845,6.33317 -5.8164,18.72461 -1.50479,13.93627 -2.3315,16.99857 -6.60743,24.47656 -4.76031,8.32512 -6.4433,12.69639 -11.55859,30.03516 -4.70929,15.96239 -6.02426,19.19445 -9.70703,23.85352 -1.43342,1.8134 -3.0203,4.09555 -3.52539,5.07226 l -5.89844,7.62891 c 0,1.01615 -1.26233,4.60355 -2.80664,7.97265 -4.96414,10.82968 -5.94167,16.01625 -7.51758,39.89063 -0.9527,14.43269 -1.778,20.50711 -2.8789,21.1875 -0.31431,0.19426 -3.56185,-0.39538 -7.2168,-1.31055 -4.2079,-1.0537 -6.86461,-1.44612 -7.24219,-1.06836 -0.64532,0.64532 -2.39296,6.72648 -2.4043,8.36914 -0.004,0.55352 1.01279,2.34349 2.25977,3.97657 2.18555,2.86232 2.25131,3.10201 1.84766,6.66992 -0.24495,2.16635 -0.10701,5.28962 0.33398,7.53125 0.59577,3.02803 0.58314,5.70873 -0.0664,12.81055 -0.96472,10.54786 -0.54058,14.81679 2.91602,29.27539 1.21826,5.09594 2.05478,9.68224 1.85938,10.1914 -0.19541,0.50918 -1.13264,1.22229 -2.08399,1.58399 -3.80549,1.44685 -6.23305,2.84956 -10.41211,6.01562 -6.61515,5.01167 -10.51365,5.13918 -11.33789,0.37305 -1.13548,-6.56584 -1.76433,-8.94531 -2.36523,-8.94531 -0.36329,0 -1.96485,1.47452 -3.5586,3.27734 -6.53971,7.39746 -11.40757,12.20086 -18.07617,17.83594 -3.86816,3.2686 -7.60282,6.86679 -8.30078,7.99609 -1.83417,2.9678 -1.70069,7.29579 0.31641,10.24219 0.87216,1.274 2.03597,3.86642 2.58593,5.76172 1.21773,4.1965 3.04967,7.9812 4.7793,9.8691 0.7104,0.7753 1.54756,1.4082 1.85937,1.4082 0.31185,0 3.17929,-1.6901 6.3711,-3.7578 6.18142,-4.0043 7.45078,-4.3386 10.50781,-2.7578 4.39397,2.2722 7.13093,1.2256 18.05078,-6.90623 3.96303,-2.9512 7.65706,-5.3711 8.20899,-5.3711 0.55196,-0.002 5.01307,2.56975 9.91406,5.71485 4.90099,3.1452 9.13778,5.47198 9.41406,5.16988 0.27644,-0.3021 1.42209,-3.37027 2.54688,-6.81637 2.40446,-7.3667 4.06896,-10.83949 7.81054,-16.30469 3.02816,-4.423 3.20542,-5.21212 3.73633,-16.58984 0.36869,-7.90087 1.6905,-14.13192 3.35156,-15.79297 1.73836,-1.73837 12.87646,-4.22549 14.23047,-3.17773 0.34659,0.26818 1.44245,1.57543 2.4336,2.90429 2.08127,2.79041 4.89878,4.16211 8.54882,4.16211 4.26123,0 7.84203,-2.55135 8.5,-6.05859 0.45498,-2.42523 0.81388,-2.71876 4.2754,-3.48828 6.03046,-1.34061 6.31557,-1.31062 11.73046,1.23828 5.9336,2.79307 10.03506,6.67994 11.17969,10.59766 0.60919,2.08504 0.49251,3.02307 -0.85742,6.94531 l -1.56055,4.53515 1.35157,0.94727 c 0.74396,0.52109 2.12574,0.94727 3.06835,0.94727 1.97825,0 3.29183,-1.94386 7.19922,-10.65039 2.03021,-4.52348 2.39155,-5.98536 2.39454,-9.70313 0.003,-3.66863 0.18257,-4.4127 1.10156,-4.58984 1.38089,-0.26613 1.41144,-1.86512 0.0644,-3.35352 -1.47054,-1.62495 -1.47054,-9.79774 0,-10.87305 1.26399,-0.92434 1.34798,-2.72721 0.14844,-3.1875 -0.48582,-0.18643 -1.05586,-1.02474 -1.26563,-1.86132 -0.31271,-1.24598 -0.77591,-1.51954 -2.5625,-1.51954 -1.7749,0 -2.18164,-0.23722 -2.18164,-1.27343 0,-2.43024 3.77307,-11.03872 7.82227,-17.84571 4.27325,-7.18361 5.80759,-11.13882 7.53125,-19.41601 0.57411,-2.75689 1.89207,-8.46049 2.92773,-12.67578 l 1.88281,-7.66407 -4.65234,-5.23046 -4.6543,-5.22852 -0.41601,-14.30664 c -0.65167,-22.39172 -0.49666,-34.62052 0.56641,-44.82227 l 0.98242,-9.42382 -6.25782,-11.16407 -6.25781,-11.16211 2.38867,-14.10351 c 1.31301,-7.75672 2.71076,-17.73877 3.10743,-22.18164 0.39666,-4.44288 0.85953,-9.21481 1.02734,-10.60547 l 0.30469,-2.5293 8.91015,-2.96094 c 10.79702,-3.58776 13.57512,-5.06699 15.01172,-7.99609 2.54238,-5.1839 2.61093,-19.55031 0.14063,-29.09766 -0.535,-2.06768 -1.13235,-7.28413 -1.32813,-11.59179 -0.3908,-8.60135 -1.09606,-10.65235 -3.66992,-10.65235 z m -190.1543,139.11524 c -3.10783,0.0126 -7.2414,1.64661 -8.90625,3.52148 -1.65857,1.8678 -6.42134,12.40592 -8.5957,19.01758 -1.07664,3.27382 -2.64759,10.22054 -3.49023,15.43555 -2.1199,13.11935 -4.82218,25.62238 -8.19922,37.93359 l -2.86524,10.44727 3.43946,10.30273 c 3.89306,11.6593 6.96026,18.66457 10.28515,23.49219 l 2.28125,3.3125 -1.47656,5.45898 c -2.15615,7.97761 -2.22794,9.16142 -0.70899,11.61914 0.72541,1.17373 1.31836,2.56179 1.31836,3.08399 0,2.19673 -5.64775,2.24958 -14.37695,0.13476 -3.5997,-0.87208 -6.90002,-1.44973 -7.33398,-1.2832 -1.4242,0.54652 -3.35157,5.23973 -3.35157,8.16016 0,1.55817 0.71869,7.13678 1.59766,12.39843 1.99548,11.94497 2.57974,22.00801 1.60156,27.625 -0.40399,2.32011 -1.7118,7.33689 -2.90625,11.14649 -2.52457,8.0521 -2.65444,10.19555 -0.84961,14.03518 0.72718,1.547 1.7518,2.8144 2.27735,2.8144 0.52554,0 3.41041,-2.4671 6.41211,-5.48239 5.92187,-5.9488 6.27016,-6.70069 6.28906,-13.55079 0.0116,-4.65169 0.47687,-5.48187 3.55469,-6.32617 3.02226,-0.829 4.14707,-3.08863 7.37304,-14.82226 l 2.34766,-8.53907 11.05664,-0.27148 c 7.29812,-0.1788 11.55797,-0.54117 12.52734,-1.06836 0.8078,-0.43932 2.03196,-2.07387 2.72071,-3.63086 1.52723,-3.45257 1.13935,-5.46514 -2.79688,-14.51367 -2.36024,-5.42548 -2.62916,-6.55673 -2.63672,-11.05664 -0.009,-5.47284 0.40754,-6.6039 6.23047,-16.91797 4.17872,-7.4017 4.00081,-8.13551 -3.38476,-14.02539 -2.46161,-1.9631 -2.63042,-2.28837 -2.2793,-4.38477 0.99266,-5.92567 1.5518,-16.01335 1.58203,-28.62304 0.0194,-7.60433 0.34426,-15.49277 0.7207,-17.5293 0.37648,-2.03652 1.95563,-6.87994 3.50977,-10.76367 l 2.82617,-7.0625 -1.3457,-12.32227 c -1.44854,-13.2722 -2.68481,-18.11169 -5.7793,-22.60937 -2.47967,-3.60407 -5.11529,-5.17061 -8.66797,-5.15625 z"
             transform="matrix(0.26458333,0,0,0.26458333,-412.73274,-185.16278)" />
        </g>
        <text
           xml:space="preserve"
           style="font-size:24.6929px;line-height:125%;font-family:'Ford Script';-inkscape-font-specification:'Ford Script';letter-spacing:0px;word-spacing:0px;fill:#ffffff;stroke:none;stroke-width:0.617321px;stroke-linecap:butt;stroke-linejoin:miter;stroke-opacity:1"
           x="-404.1286"
           y="-547.28284"
           id="text13622-6"><tspan
             sodipodi:role="line"
             id="tspan13620-2"
             style="font-style:italic;font-variant:normal;font-weight:normal;font-stretch:normal;font-family:Caladea;-inkscape-font-specification:Caladea;fill:#ffffff;stroke:none;stroke-width:0.617321px"
             x="-404.1286"
             y="-547.28284">The Ocean State</tspan></text>
        <text
           xml:space="preserve"
           style="font-size:17.5018px;line-height:125%;font-family:'Ford Script';-inkscape-font-specification:'Ford Script';letter-spacing:0px;word-spacing:0px;fill:#ffffff;stroke:none;stroke-width:0.437544px;stroke-linecap:butt;stroke-linejoin:miter;stroke-opacity:1"
           x="-461.59192"
           y="-201.41599"
           id="text13622-6-2"><tspan
             sodipodi:role="line"
             id="tspan13620-2-7"
             style="font-style:italic;font-variant:normal;font-weight:normal;font-stretch:normal;font-family:Caladea;-inkscape-font-specification:Caladea;fill:#ffffff;stroke:none;stroke-width:0.437544px"
             x="-461.59192"
             y="-201.41599">We still have 2 Congressional Districts!</tspan></text>
      </g>
    </g>
  </g>
</svg>
