<?xml version="1.0" encoding="UTF-8" standalone="no"?>
<!-- Created with Inkscape (http://www.inkscape.org/) -->

<svg
   width="287.40005mm"
   height="191.60002mm"
   viewBox="0 0 287.40005 191.60003"
   version="1.1"
   id="svg5"
   inkscape:version="1.1.1 (eb90963e84, 2021-10-02)"
   sodipodi:docname="SC.svg"
   inkscape:export-filename="/home/kavi/temp.png"
   inkscape:export-xdpi="362.04279"
   inkscape:export-ydpi="362.04279"
   xmlns:inkscape="http://www.inkscape.org/namespaces/inkscape"
   xmlns:sodipodi="http://sodipodi.sourceforge.net/DTD/sodipodi-0.dtd"
   xmlns="http://www.w3.org/2000/svg"
   xmlns:svg="http://www.w3.org/2000/svg">
  <sodipodi:namedview
     id="namedview7"
     pagecolor="#ffffff"
     bordercolor="#666666"
     borderopacity="1.0"
     inkscape:pageshadow="2"
     inkscape:pageopacity="0.0"
     inkscape:pagecheckerboard="0"
     inkscape:document-units="mm"
     showgrid="false"
     inkscape:zoom="0.76379757"
     inkscape:cx="479.83918"
     inkscape:cy="337.13121"
     inkscape:window-width="1848"
     inkscape:window-height="1016"
     inkscape:window-x="72"
     inkscape:window-y="27"
     inkscape:window-maximized="1"
     inkscape:current-layer="layer1" />
  <defs
     id="defs2">
    <clipPath
       clipPathUnits="userSpaceOnUse"
       id="clipPath11049">
      <g
         id="g11059"
         transform="matrix(3.529466,0,0,3.529466,7.1082053,-346.29625)">
        <g
           id="g11055"
           transform="translate(4.0494889)">
          <path
             d="M 2.4948106,123.8153 C -5.9643778,152.01599 28.049021,174.80256 51.217845,154.35649 75.515457,128.84377 48.400097,94.385628 20.241526,105.3852 40.792941,101.85154 53.042937,125.59727 39.223641,140.41399 25.875377,154.04948 1.5331942,145.08903 2.4948106,123.8153 Z"
             id="path11051"
             style="fill:#ffffff;fill-opacity:1;fill-rule:evenodd;stroke:none;stroke-width:0.4" />
          <path
             d="m 268.70727,123.8153 c 8.45919,28.20069 -25.55421,50.98726 -48.72303,30.54119 -24.29762,-25.51272 2.81774,-59.97086 30.97631,-48.97129 -20.55141,-3.53366 -32.80141,20.21207 -18.98211,35.02879 13.34826,13.63549 37.69045,4.67504 36.72883,-16.59869 z"
             id="path11053"
             style="fill:#ffffff;fill-opacity:1;fill-rule:evenodd;stroke:none;stroke-width:0.4" />
        </g>
        <path
           d="m 150.91196,120.31915 c -1.07805,0.50109 -1.87421,1.95927 -2.32905,3.11005 -1.07941,3.21269 -2.18944,6.41869 -3.27428,9.62569 -0.56614,1.44224 -1.1125,2.90968 -1.68275,4.3406 -1.04658,-0.14117 0.41299,-1.92918 0.33244,-2.69424 0.34591,-1.57044 1.11462,-3.10557 1.18054,-4.70826 -0.2631,-1.20012 0.0267,-2.75762 -0.56919,-3.73425 -0.88921,2.05191 -2.01578,4.01745 -2.78104,6.11577 -0.57548,2.51785 -1.34806,4.99089 -1.67084,7.56006 -0.19285,1.32996 -0.42661,2.64136 -0.85852,3.91646 -1.06491,-0.0994 -0.78365,-1.97607 -1.41001,-2.74976 -0.56841,-1.80748 -1.71294,-3.37141 -2.54014,-5.06808 -0.42269,-0.42022 -1.39407,-3.37462 -1.37653,-1.7282 -0.0951,1.18958 -0.17689,2.38025 -0.28574,3.56869 -2.36664,-4.42292 -4.74045,-8.84201 -7.10989,-13.26343 0.1928,1.4363 -0.006,2.9845 0.51594,4.34145 1.14924,2.47743 2.19929,4.99961 3.29697,7.5 -0.57761,0.54663 -0.69396,-0.35681 -0.98259,-0.72401 -2.18925,-3.86521 -4.37849,-7.73042 -6.56774,-11.59562 -0.8842,0.62119 -0.2685,1.76629 -0.38244,2.66194 0.36108,1.25577 1.19329,2.38026 1.75998,3.56966 1.0361,1.93852 2.10105,3.8677 3.16524,5.78601 -0.76275,0.84079 -1.17789,-1.53999 -1.72399,-2.07634 -1.97975,-3.43428 -3.93891,-6.88109 -5.97735,-10.28104 -0.89317,0.30866 -1.16947,0.96292 -1.01929,1.82854 -0.14772,0.86715 0.21149,1.60479 0.71323,2.30173 1.53176,2.65113 3.07792,5.29392 4.62234,7.93768 -0.52337,0.6076 -0.68332,-0.27984 -0.98825,-0.6351 -2.48518,-3.93259 -4.97037,-7.86519 -7.45555,-11.79778 -0.60478,-0.27206 -1.45988,-0.99783 -1.26644,0.20727 -0.28743,1.50857 1.35203,2.56323 1.88814,3.86804 2.21052,3.41989 4.4883,6.85847 6.68955,10.24516 -0.46085,0.62107 -0.67214,-0.17207 -0.96936,-0.51309 -1.39668,-1.98082 -2.79336,-3.96163 -4.19004,-5.94245 -0.52144,-0.13568 -1.19148,-0.47445 -0.99455,0.37164 -0.0346,0.53719 -0.17779,1.10375 0.27821,1.50831 2.23421,3.35318 4.51029,6.68936 6.71858,10.05306 0.71645,1.46543 1.36931,2.97502 2.12495,4.41324 1.27584,1.313 2.55167,2.62599 3.82751,3.93898 -0.91583,0.7374 -1.84374,-1.60326 -2.75587,-2.026 -0.96609,-1.08736 -2.26541,-1.95638 -2.81094,-3.34861 -0.66266,-1.03594 -1.04294,-2.27291 -2.0653,-3.03058 -1.13232,-0.84965 -2.00246,-2.39729 -3.31588,-2.78189 -0.42444,0.93619 -0.0782,3.04219 1.19341,3.76563 0.12674,0.34906 1.9098,1.54992 0.93097,1.30362 -1.91986,-0.21085 -3.72304,-0.88258 -5.52203,-1.54575 -1.08707,1.0428 2.59533,1.87755 0.52853,2.30285 -1.49494,0.0204 -2.64798,-1.3351 -4.01427,-1.83725 -3.40569,-1.8623 -6.89498,-3.57759 -10.37731,-5.28532 -0.72294,-0.21809 -1.445887,-0.43618 -2.168827,-0.65428 -0.20114,1.26117 1.769407,1.61698 2.424177,2.50884 2.64174,1.42648 5.34825,2.77818 7.99529,4.21096 -0.0848,0.79567 -0.80287,0.19404 -1.28307,0.11727 -4.95403,-1.5953 -9.908045,-3.1906 -14.862069,-4.78589 -0.832116,-0.19894 -0.687068,0.23776 -0.35036,0.79914 0.08295,0.64916 0.727936,0.6815 1.23138,0.86917 3.888816,1.30492 7.774119,2.62089 11.665119,3.91893 0.1532,0.61301 0.28167,1.23222 0.41527,1.84984 -0.88393,-0.72818 -1.75524,-1.56084 -2.96606,-1.63957 -2.5328,-0.62733 -5.142705,-0.0955 -7.710521,-0.0662 -1.370256,-0.32841 -1.547876,0.77761 -0.183316,1.01364 1.0966,0.85215 2.510236,0.37367 3.785,0.44136 2.073237,-0.062 4.146347,-0.12838 6.219187,-0.20226 0.36706,1.18118 -2.02412,0.39066 -2.11482,1.34989 -0.23906,1.139 1.91034,1.13923 2.68611,0.90631 1.18569,0.0199 2.00745,-1.73758 3.01513,-1.43825 -0.26334,1.12725 -2.2426,1.37909 -2.46716,2.54538 -0.14901,1.16836 2.23532,0.82442 2.92114,0.32533 0.79576,-0.66113 2.16575,-1.65939 2.23897,0.11167 0.23157,1.60038 2.34771,0.98074 3.49832,1.52265 2.05083,0.31275 4.15067,0.44259 6.18283,0.7785 1.94409,0.88229 3.89478,1.7579 5.83479,2.64432 -0.39899,1.10092 -2.10895,-0.56821 -2.99497,-0.50335 -1.46819,-0.40978 -2.82063,-1.24316 -4.37998,-1.25852 -1.34832,-0.24751 -2.70232,-0.21877 -4.0556,-0.0613 -4.09934,0.34252 -8.2069,0.62031 -12.30111,1.00322 -3.810549,0.64349 -7.630545,1.25981 -11.440321,1.88954 -0.967796,0.30054 -3.072084,0.86767 -1.057048,1.25839 4.326036,-0.20308 8.643196,-0.56712 12.961409,-0.89346 0.31215,0.75524 -0.61566,0.49746 -1.08029,0.6181 -3.591243,0.36444 -7.182487,0.72888 -10.773735,1.09332 -1.105496,0.81752 -2.581068,1.26745 -3.183724,2.60486 0.173188,1.90387 2.556572,0.16278 3.737416,0.28943 3.107396,-0.52244 6.202724,-1.01705 9.198823,-1.97567 0.89262,0.0713 3.12412,-1.5227 3.25923,-0.37752 -3.38774,1.04507 -6.783941,2.10447 -10.200345,3.05138 -0.727404,0.16996 -1.454804,0.33991 -2.182208,0.50986 -0.212364,1.74867 2.432464,0.72878 3.510908,1.00672 2.370852,-0.55442 4.630225,-1.51106 6.973545,-2.17563 1.24949,-0.10275 3.14232,-1.56745 4.04769,-0.96597 -0.80439,0.82138 -2.6728,1.2547 -3.84095,1.93435 -2.41083,1.05463 -4.855749,2.02323 -7.205453,3.22067 -1.547636,1.56799 1.64442,1.42406 2.428208,0.61218 2.510325,-1.15148 4.989535,-2.36717 7.462735,-3.60715 0.60626,0.50142 -0.2851,0.74118 -0.60088,1.08531 -1.40109,1.09669 -2.76779,2.23125 -4.33014,3.09378 -0.60509,0.48604 -1.594775,0.65579 -1.713279,1.54658 1.372449,0.78042 2.683659,-0.16602 3.913589,-0.7802 3.21518,-2.0816 6.46743,-4.11768 9.73993,-6.10318 1.41496,-0.63368 2.8665,-1.18237 4.3037,-1.76175 0.55536,0.55431 -0.35221,0.72265 -0.69636,1.04794 -1.57922,1.0568 -3.16437,2.10635 -4.73989,3.16766 -1.7224,1.78151 -3.28184,3.74071 -5.31583,5.18671 -0.94854,0.79342 -1.91668,1.50782 -2.66635,2.3827 -1.48727,1.49599 -3.02737,2.93878 -4.501037,4.44821 -0.459736,1.52477 -1.439464,2.9581 -1.331164,4.59389 0.01884,1.76125 -0.181336,3.5418 -0.0154,5.29111 0.180744,0.72684 0.600168,2.38419 0.742188,0.7274 0.07987,-0.75753 0.602732,-3.36964 1.163823,-1.53675 0.30842,0.68568 0.61174,2.75271 0.97717,2.39416 0.53533,-1.06088 0.63445,-2.54909 1.49608,-3.3532 0.76754,0.44793 1.37409,1.55318 2.10544,0.28161 0.92808,-1.08057 0.79055,-2.70469 1.25232,-4.02032 0.39792,-1.70709 0.79711,-3.41387 1.19761,-5.12035 0.72725,-0.21051 0.55506,0.67021 0.73626,1.12218 0.23277,1.05212 0.46554,2.10423 0.69831,3.15634 1.58762,-0.68803 0.93944,-2.83404 1.4513,-4.19176 0.10168,-1.01741 0.42523,-3.69658 1.51793,-1.65158 0.64196,1.53942 2.42044,-0.23524 2.36634,-1.35464 0.36306,-1.77385 0.7107,-3.55089 1.08221,-5.32299 0.47637,0.84897 0.97317,1.68623 1.45973,2.52936 1.65768,-0.0769 2.22796,-1.73941 3.30334,-2.72495 0.96627,-1.00317 1.82809,-2.16557 2.90052,-3.03847 1.22204,-0.62983 2.36709,-1.4713 3.62416,-2.01342 1.22643,1.13371 -0.62455,2.66426 -1.3213,3.63674 -1.55501,1.92125 -3.47436,3.50386 -5.10237,5.36403 -0.64261,0.74175 -1.64795,1.36438 -1.37834,2.46837 0.81687,0.36419 1.66881,0.69516 2.49161,1.06441 -1.24266,0.62296 -2.57829,1.15863 -3.72483,1.91276 -1.11024,0.96038 -2.30879,1.8128 -3.47315,2.70553 -0.31437,0.84492 -0.51747,1.79901 0.73242,1.44769 0.8924,-0.15367 3.29536,0.22784 1.40684,1.10684 -1.77498,1.16014 -3.83014,1.88426 -5.58725,3.03272 -0.48658,0.64964 -1.79271,1.66922 -0.20135,1.62332 1.06286,-0.15287 2.65392,-1.77251 3.44356,-0.95255 -1.11718,1.23447 -2.5651,2.42561 -3.78776,3.65892 -0.62261,0.48182 -2.00364,1.82161 -1.18616,2.19817 1.93712,-0.92612 3.29811,-2.66675 4.94834,-3.993 0.57993,-0.9212 2.1339,-1.73958 1.64186,0.0563 -1.91594,2.38533 -3.76798,4.83846 -5.73936,7.16134 0.19853,2.33276 1.69852,-0.66947 2.43742,-1.29542 1.15228,-1.3602 2.2235,-2.81766 3.72968,-3.81224 0.52286,-0.11358 1.90178,-2.07819 1.97467,-1.27506 -0.0352,0.66792 0.17111,1.4135 -0.3965,1.93332 -1.19131,1.60584 -1.98755,3.44277 -2.96339,5.17926 -0.16116,0.74961 -0.32809,2.90356 0.75503,1.88759 1.28951,-2.40488 2.86289,-4.65398 3.87814,-7.20048 1.04065,-2.18412 1.74281,-4.52847 2.61515,-6.76764 0.73411,-1.09557 1.09293,-0.72423 0.99067,0.421 0.11847,1.06518 0.0734,3.34412 0.80882,3.50517 1.33675,-3.05402 3.01464,-5.94226 4.43977,-8.95085 0.49327,-1.46791 1.07934,-2.90966 1.68859,-4.33774 0.76778,-0.0805 0.41509,0.75302 0.49077,1.2371 -0.0516,0.97112 0.10281,1.97597 -0.0756,2.92635 -0.82818,2.37799 -1.44912,4.83058 -2.60396,7.0817 -0.7002,1.44758 -1.68962,2.75219 -2.36662,4.20787 -0.6785,0.8837 -0.42669,0.89028 0.3378,0.37082 1.35206,-0.61906 2.25993,-1.77981 3.19742,-2.88424 1.47458,-1.18255 0.37978,1.50645 0.0399,2.07682 -0.802,2.27362 -1.32098,4.65918 -2.22865,6.90472 -0.0113,0.68047 -0.24728,2.2448 0.61969,1.04721 1.62737,-1.27228 2.21976,-3.31043 3.19323,-5.04888 0.59027,0.86247 1.7008,1.3608 2.23875,0.29739 -0.0904,-1.34307 -0.70975,-2.73505 -0.10505,-4.03586 0.59713,-2.15157 1.08759,-4.34377 1.42439,-6.54911 0.16207,-1.34091 0.25243,-2.69676 0.41842,-4.0329 0.74617,-0.38426 0.43078,0.80007 0.49077,1.24969 0,1.02219 0,2.04439 0,3.06659 0.73082,0.0803 2.07214,-1.21488 2.45386,-0.36493 -0.73771,0.63199 -1.86425,1.02328 -2.53226,1.71069 -0.0284,0.85594 -0.0568,1.71189 -0.0852,2.56783 0.91024,-0.55369 1.82047,-1.10738 2.7307,-1.66107 0.64546,0.454 -0.21004,0.76818 -0.50273,1.14349 -0.74685,0.69686 -1.4937,1.39371 -2.24055,2.09057 -0.0126,0.60402 -0.0252,1.20805 -0.0378,1.81208 0.63277,-0.19889 1.27046,-0.38388 1.90016,-0.59144 0.51903,0.59088 -0.37635,0.72405 -0.74755,1.03207 -0.4199,0.38994 -1.3636,0.45699 -1.22731,1.19028 -0.0476,1.84369 -0.11516,3.68627 -0.18957,5.52932 0.33267,-0.65888 1.5067,-2.24523 1.33503,-2.3353 -0.38474,0.75318 -1.78524,0.80365 -0.83167,0.0199 0.39641,-0.48154 2.5573,-2.01967 1.7942,-0.48265 -0.74374,1.07264 -1.39,2.50061 -2.17081,3.3817 -0.22208,-0.0216 -0.48856,1.55514 0.18452,1.2437 0.55875,0.3802 2.28302,0.55355 1.09219,1.21534 -0.50969,0.51164 -1.14771,0.96689 -1.57963,1.51272 0.0354,1.54298 -0.35356,4.11289 -0.0516,5.00906 0.45518,-0.63976 1.95322,-1.79502 1.6388,-2.09722 -0.63179,0.30185 -2.55705,0.15798 -1.20967,-0.33214 0.82076,-0.31102 3.11369,-0.3989 1.64848,0.89345 -0.78075,1.39157 -2.63947,1.82944 -2.28863,3.35162 0.007,1.12318 -0.45288,1.80916 0.9217,1.60368 1.57334,-0.13774 1.68288,1.39539 0.26473,1.81469 -0.97523,0.56912 -1.82755,0.53194 -1.2384,1.82481 0.30376,0.84953 2.40163,1.42296 1.875,2.30285 -0.0785,-0.99244 -0.30154,0.38286 -0.84453,-0.61281 -0.6681,-0.53283 -1.52817,-1.79952 -1.24561,-0.11932 -0.12277,3.20556 -0.2496,6.41096 -0.3763,9.61636 0.66138,-0.20241 1.8342,0.72403 1.8458,1.15319 -0.68181,0.63233 -2.30972,-2.12944 -1.88632,0.0576 0.0228,0.98501 -0.23636,2.8054 -0.0358,3.26402 0.32816,-0.27615 0.84911,0.51333 1.2519,0.64964 0.45965,0.31787 0.91931,0.63574 1.37896,0.95361 -0.25325,0.78121 -0.79237,-0.0241 -1.22379,-0.2316 -0.5065,-0.35065 -1.013,-0.70131 -1.5195,-1.05196 0.11882,1.30337 -0.45367,3.70101 0.071,4.37517 0.59806,0.44076 2.16036,1.70832 2.12194,2.41682 -0.77323,0.20648 -1.8898,-2.10057 -2.37655,-1.96888 -0.0753,1.94507 -0.14495,3.89034 -0.21905,5.83545 0.81206,0.27241 2.45668,1.32959 2.8854,1.99531 -0.73351,0.62169 -2.28243,-1.68678 -2.91731,-1.39359 -0.11519,1.57137 -0.0207,3.17754 -0.24581,4.7305 -0.29784,1.12921 2.81279,0.85055 2.14014,2.00419 -1.14738,-0.37826 -2.73947,-2.01968 -2.74862,0.10156 -0.24502,1.69074 -1.78436,3.41752 -0.58612,5.02008 0.46112,1.30104 1.93893,1.8553 3.04531,2.51678 1.30668,-0.20614 2.56107,-0.85209 3.92183,-0.90295 2.00566,-0.31083 4.04564,-0.42266 6.04461,-0.74554 0.84473,-0.61603 1.89159,-1.1969 0.61824,-1.98694 -1.01371,-1.24429 -0.77279,-3.01783 -1.36069,-4.43084 -0.001,-1.15001 -0.23776,-1.64988 -1.24944,-0.81954 -0.79312,0.15704 -2.02584,1.84833 -2.47539,0.79437 1.18506,-0.57358 2.26051,-1.31946 3.46057,-1.875 -0.14192,-1.50498 -0.43272,-3.00158 -0.40269,-4.51762 -0.94809,0.61156 -2.34835,1.88297 -3.2585,1.70744 0.37115,-0.84681 2.18425,-1.2194 2.95649,-2.11012 0.56129,-0.008 0.19451,-0.8037 0.29007,-1.27412 -0.0128,-1.31187 -0.0256,-2.62374 -0.0384,-3.93561 -0.87827,0.99142 -1.92975,1.69845 -3.25923,1.91275 -0.98886,-0.86451 1.50938,-0.553 1.83209,-1.28906 0.59781,-0.67555 1.70309,-1.09621 1.40698,-2.1522 -0.01,-1.15996 -0.0201,-2.31992 -0.0302,-3.47988 -0.77283,0.51303 -2.18887,2.35364 -2.93523,1.59121 0.80706,-0.71907 2.55394,-1.40695 2.91988,-2.48264 -0.0159,-1.50655 -0.0317,-3.0131 -0.0476,-4.51965 -0.83307,1.11296 -1.97007,1.87524 -3.31555,2.22605 -0.66032,0.73249 -2.00758,0.082 -0.66488,-0.28455 1.31004,-0.43432 2.63295,-0.9088 3.44767,-2.09956 0.74049,-0.39682 0.49159,-1.10202 0.51819,-1.83265 -0.0119,-1.07301 -0.0238,-2.14601 -0.0358,-3.21902 -1.56473,1.38738 -2.97814,2.92544 -4.5302,4.32886 -0.81718,-0.86239 1.5184,-1.61055 1.84983,-2.46644 0.77244,-0.92569 2.08246,-1.82052 2.67858,-2.6161 -0.012,-1.17075 -0.024,-2.34151 -0.036,-3.51226 -0.59632,0.55162 -1.56212,1.25088 -0.33977,0.59145 0.5472,0.61602 -0.41337,0.6787 -0.81588,0.94618 -0.55413,0.2598 -1.11013,0.5157 -1.66314,0.77781 -0.5785,-1.08628 1.87195,-1.61875 2.36054,-2.5744 0.66136,0.16232 0.41621,-0.46065 0.44629,-1.10391 -0.009,-0.81668 -0.0172,-1.63336 -0.0258,-2.45005 -0.81746,1.48845 -2.4465,0.62535 -3.74641,0.3551 -0.9601,-0.0785 -0.0566,-0.3713 0.34222,-0.60863 1.02986,-0.55307 2.05973,-1.10614 3.08959,-1.65922 0.58071,0.58607 -0.37727,0.69728 -0.76548,0.98433 -0.60894,0.32206 -1.21787,0.64412 -1.8268,0.96617 1.14161,0.63961 2.54169,0.23027 2.89185,-0.87885 0.003,-1.96148 -0.0535,-3.8892 -0.14856,-5.85353 -0.90238,0.90673 -1.42037,1.89847 -2.54195,2.30286 0.52464,-0.24256 2.68799,0.0724 1.23322,0.45302 -0.83439,0.16672 -3.62011,0.27296 -1.6707,-0.79001 0.99549,-0.39103 1.64201,-1.11807 2.27509,-1.95342 0.75272,-0.43358 0.74559,-0.72743 0.64369,-1.61346 -0.0511,-1.2071 -0.10219,-2.4142 -0.15328,-3.6213 -0.45681,0.56179 -2.40286,2.09956 -1.90649,2.0981 0.58259,-0.3671 2.86596,-0.47363 1.50835,0.18554 -0.87065,-0.0551 -2.75279,1.15749 -3.06243,0.0947 1.21323,-0.69664 2.10513,-1.78427 3.11832,-2.74326 0.59332,0.0761 0.20222,-0.79618 0.27688,-1.33539 -0.14599,-3.62367 -0.29199,-7.24734 -0.43798,-10.87101 -0.5699,0.50608 -2.95659,2.4346 -2.08406,0.52029 0.58502,-0.67043 1.18116,-1.84324 1.83089,-2.07124 0.42518,-0.21821 0.037,-1.0095 0.13619,-1.45743 0.0981,-1.10922 -0.57832,-2.05395 -0.90918,-3.07208 -0.023,-0.416 -0.80282,-1.14309 -0.13977,-1.26629 0.72187,0.61307 1.06344,2.27789 1.64854,3.26307 0.8895,2.05905 1.9054,4.07288 2.68853,6.1726 0.43282,1.7472 0.8937,3.48869 0.95637,5.29782 0.44426,-0.16192 1.27325,0.10611 1.24254,-0.58661 0.10371,-0.68155 0.59601,-1.3842 0.16359,-2.03664 -1.94888,-5.30366 -4.16507,-10.50151 -6.22576,-15.76181 0.48888,-0.50757 0.65061,0.18457 0.84238,0.5967 1.19872,2.38964 1.98167,4.95984 2.9804,7.43817 1.01359,2.68725 2.07958,5.35927 3.2997,7.95925 1.87756,-1.09232 0.3249,-3.04844 0.0598,-4.63765 -0.87744,-2.90659 -2.06373,-5.71075 -3.08053,-8.57113 -0.3018,-0.50833 -0.96147,-0.74684 -1.4005,-1.15172 -0.64644,-0.47672 -1.30915,-0.95981 -1.94618,-1.43228 0.52969,-1.00007 1.70524,0.75806 2.5178,0.84494 1.39751,1.47256 1.74174,-0.79076 2.9817,-1.05086 0.3476,1.27602 -2.00948,2.30865 -0.7544,3.78224 0.90449,3.0856 1.71601,6.2024 2.91396,9.19125 0.1984,0.5387 0.39874,1.07669 0.59597,1.61582 -0.40525,0.58251 0.17184,3.07538 0.99799,2.43261 0.28322,-1.34565 1.14383,-2.67757 0.41283,-4.03774 -1.07285,-4.10048 -2.54575,-8.08362 -3.78551,-12.13563 0.0163,-1.47687 0.93888,0.62947 1.04181,1.2643 1.4253,3.87078 2.96728,7.70598 4.22717,11.63334 -0.26778,1.15362 -0.25931,3.59344 1.24581,2.21476 0.0675,-1.54021 0.18771,-3.11751 -0.45302,-4.56795 -1.30311,-3.46795 -2.33892,-7.03744 -3.49832,-10.55789 -0.66224,0.72038 -1.90776,0.0304 -2.10119,-0.76509 0.22234,-1.74926 -1.2219,-1.70032 -2.52634,-1.5881 -0.57059,-0.0556 0.99584,-0.87307 1.17954,-1.1703 0.70463,-0.38738 2.20648,-1.57274 0.75826,-1.89071 -0.46266,-0.21252 -0.9229,-0.4303 -1.38746,-0.63865 0.69108,-1.1894 1.40709,-2.3569 2.3227,-3.39207 0.56407,-1.02832 0.13552,-2.87325 -0.95872,-3.50027 -0.79376,-0.43614 -0.70439,-1.44165 -1.01832,-2.18676 -0.41422,-0.4388 0.001,-1.28421 0.33165,-0.64812 0.20628,0.70885 0.41256,1.4177 0.61884,2.12655 1.19519,0.64131 1.74995,1.69378 1.72228,3.02061 0.54518,1.23846 -0.89151,1.98967 -1.42144,2.92711 -0.31577,0.45917 -0.58226,0.95396 -0.8797,1.42644 0.66539,0.31355 1.34485,0.59867 2.00084,0.93121 0.13768,1.25047 -2.02051,2.07728 -1.86242,2.50419 2.09475,-0.56217 0.82317,2.35728 2.40429,2.59655 0.53732,-0.005 1.00454,-0.53964 1.51312,-0.7618 0.90733,0.1715 -0.38072,0.59421 -0.1672,0.99966 1.69068,4.59721 3.4269,9.19822 5.03335,13.81408 -0.15319,1.67008 1.43785,1.88808 2.42869,2.5797 0.1373,0.89033 0.56322,2.58117 1.50258,2.21807 0.0403,-2.38181 0.18964,-4.77745 0.19624,-7.15095 0.13598,-0.81313 -1.24551,-2.78359 -0.11325,-2.88172 0.63577,1.86244 1.47731,3.67818 1.91381,5.59515 0.30753,1.24519 -0.30532,3.26803 1.4806,3.45326 0.7881,0.32045 0.17814,-2.54149 1.02254,-1.76233 0.4656,0.36912 0.9312,0.73825 1.39681,1.10738 1.88998,0.0453 0.48474,-2.027 0.51594,-3.08305 -0.59453,-1.4778 -1.1586,-2.97362 -1.74917,-4.4547 0.87992,-0.36407 -0.47271,0.12883 -0.21788,-0.8149 -0.20316,-1.46127 -1.15001,-2.56027 -1.99772,-3.70268 -0.35949,-0.77422 -0.33539,-1.69131 -1.00688,-0.59169 -0.79894,0.66162 -0.447,1.75295 0.11362,2.45053 0.91133,1.41087 0.82122,3.27525 1.95951,4.5508 0.50066,0.82176 1.17243,1.65054 0.99835,2.66986 0.0446,0.46933 0.0818,1.4022 -0.50336,0.95049 -0.0782,-0.79624 0.21387,-1.65748 -0.27892,-2.29018 -0.60342,-1.18652 -1.46944,-1.92695 -1.70933,-3.25998 -0.26162,-1.3403 -1.0091,-2.48597 -1.57299,-3.69967 0.12632,-0.2946 -1.88032,0.16165 -1.72466,-0.4656 0.55503,-0.0779 0.45664,-0.32243 1.39748,-0.11326 0.7122,-0.60224 0.7053,-1.7367 0.22651,-2.49161 -0.94509,-2.11783 -2.40075,-3.97434 -3.46057,-6.02768 -0.26728,-1.34011 0.26513,-2.98999 -1.01999,-3.92379 -1.32795,-1.29311 -1.99988,-3.03729 -2.74259,-4.69618 -0.85322,-1.18909 -2.24232,-1.88963 -3.23406,-2.9698 -0.53998,0.17098 -2.57568,0.23444 -1.56482,-0.37525 1.39299,-0.55717 2.35142,0.23777 3.23847,1.18062 1.01084,0.78588 2.08435,1.59866 2.42306,2.88935 0.63042,1.50697 1.45104,2.901 2.6189,4.05727 1.02897,0.96615 0.49755,2.51056 0.7718,3.74969 1.26652,2.29738 2.96068,4.39465 3.81292,6.89597 -0.18415,1.09398 0.30224,-0.35008 0.82181,-0.22256 -0.0493,-1.23884 0.38215,-2.91384 -0.41912,-4.06854 -0.8366,-1.55533 -1.81072,-3.05481 -2.56712,-4.64346 -0.52641,-1.13392 -1.17067,-2.55204 -1.75747,-3.78955 -0.61599,-1.43012 -1.51103,-2.7138 -2.35746,-4.01246 0.84372,-0.88255 1.28322,1.65968 1.93792,2.10151 1.47369,2.6067 2.40108,5.48638 4.01205,8.01966 0.47003,1.11209 1.4664,2.08755 1.67703,3.27176 0.16197,0.70805 -0.28097,3.00132 0.29368,2.81114 0.28695,-0.55271 0.57889,-1.10287 0.86287,-1.65709 0.45918,-0.21771 1.36791,-0.0789 1.4783,-0.58155 0.15908,-1.5455 -1.39729,-2.6706 -1.5538,-4.18775 -0.43982,-2.06944 -1.26924,-4.02654 -2.29832,-5.86773 -1.10436,-2.42437 -2.72538,-4.57773 -3.59936,-7.10849 -0.23134,-1.47627 0.96586,0.40844 0.99093,1.09755 0.8499,1.93392 2.09097,3.67127 2.96883,5.59931 0.83639,1.56841 1.63611,3.15011 2.0958,4.87727 0.31474,1.62411 0.98486,3.12552 1.83038,4.54806 0.14526,0.64906 -0.0191,1.15485 0.53419,1.21382 0.25569,0.59643 -0.98644,0.2946 -0.4954,1.20827 0.14142,0.57207 -0.14846,2.73289 -0.57711,1.50319 0.0376,-1.01411 0.51558,-2.6632 -0.93306,-1.88663 -0.38589,0.33425 -0.53339,0.97188 -0.82981,1.41999 -0.24409,0.60926 -1.15621,0.56628 -0.53516,1.43087 0.81232,1.2099 1.89347,2.28665 2.10595,3.79298 0.17229,1.34329 1.288,2.25311 1.96307,3.4138 0.732,0.75204 1.59025,3.05483 2.32445,2.64144 0.32811,-1.42993 -0.92776,-2.38411 -1.38703,-3.62645 -0.98235,-2.10142 -1.87374,-4.24528 -2.81187,-6.36715 0.76247,0.54998 1.73404,0.87038 2.16874,1.77279 1.7454,2.32486 3.46147,4.6734 5.25576,6.96043 1.87961,0.90268 0.72532,-1.44025 0.151,-2.17701 -1.43348,-2.89294 -3.39602,-5.48082 -5.08965,-8.22464 -0.36788,-0.37522 -1.54431,-2.20068 -0.44575,-1.63872 1.93322,2.38594 3.86644,4.77188 5.79966,7.15782 0.65328,0.44625 1.83282,0.81798 1.44034,-0.2934 -1.65792,-3.02748 -3.76869,-5.77626 -5.61464,-8.69172 -1.92993,-2.74536 -3.56941,-5.68004 -5.30137,-8.55682 0.91139,-0.73753 2.10736,1.11417 3.12311,1.35634 1.62471,0.8874 3.07283,2.02096 4.403,3.30212 2.24176,1.94929 4.3967,4.01214 6.72616,5.85267 1.161,0.63587 2.06624,1.74667 3.31485,2.16085 0.0207,-0.41938 -1.27674,-1.99442 -0.73164,-1.98424 1.30851,0.36862 2.54559,0.912 3.7543,1.51632 0.80989,0.39865 3.3437,1.35179 2.07381,-0.2997 -0.40387,-0.8262 -2.32864,-1.27357 -2.01445,-2.17 0.35735,-0.19218 0.93735,0.41138 1.38041,0.52534 1.0168,0.61127 2.15988,0.88856 3.327,1.05322 1.70603,-0.0764 0.63406,-1.85307 -0.51823,-1.8647 -2.64457,-1.40872 -5.26845,-2.85898 -7.9004,-4.28883 0.54572,-1.10518 2.33087,0.64949 3.3599,0.59145 0.60133,-0.18916 2.81019,0.26496 2.0371,-0.77772 -0.32705,-0.40066 -1.00344,-0.41404 -1.47185,-0.65799 -3.60618,-1.30617 -7.21928,-2.59617 -10.82112,-3.91245 -1.5368,-1.03512 -3.09904,-2.03861 -4.64346,-3.05788 0.23612,-0.94633 1.78451,0.27294 2.55453,0.17617 1.34914,0.3525 2.70523,0.64361 4.10683,0.62668 0.90018,0.0248 2.78778,0.25368 3.11533,0.10389 -0.59617,-0.32179 -3.2263,-1.083 -1.72484,-1.49322 0.75324,-0.0464 3.1203,-0.0939 1.10236,-0.16906 -1.43147,-0.14868 -2.92716,-0.0976 -4.30941,-0.47768 0.17676,-0.51141 0.8921,-0.31875 1.82594,-0.21947 1.01955,0.34951 3.0849,-0.24939 3.48348,0.60591 1.01195,0.32395 2.78942,-0.0922 4.0919,-0.0134 1.80226,-0.15846 3.78496,0.0902 5.47332,-0.35484 0.58876,-0.91699 2.3493,-1.21439 2.31703,-2.40439 -0.11744,-1.10433 -0.13025,-2.24262 -0.31174,-3.32615 -0.37493,-0.40946 -0.45434,-1.24185 -1.08946,-1.27896 -1.70189,-0.27926 -3.32942,-0.74708 -4.94315,-1.32671 -3.35858,-0.0819 -6.73069,-0.0517 -10.0797,-0.25168 -1.0854,-0.0706 -2.37732,0.91219 -3.62416,0.84312 -1.92624,0.1936 -3.89381,0.0345 -5.76208,0.63007 -0.72031,0.55848 -1.72191,-0.24723 -0.56762,-0.39097 1.44304,-0.38194 2.90305,-0.64322 4.40075,-0.62049 1.52271,-0.0487 3.05377,-0.16233 4.46543,-0.78579 0.86562,-0.58719 1.05714,0.41033 1.2267,-0.67854 0.79199,-0.30028 3.32729,-0.0877 2.73011,-0.92273 -3.12817,0.10616 -6.25824,0.14398 -9.38759,0.20134 -1.12549,-0.11133 -2.5608,0.58418 -3.67449,1.11996 -1.30521,0.5278 -0.22837,-0.79542 0.57885,-0.83053 1.38548,-0.82159 3.10916,-0.61789 4.4547,-1.51007 2.10302,-0.97997 4.07908,-2.22014 6.12836,-3.29698 0.53239,-0.47118 2.014,-1.20565 0.44642,-1.35809 -1.22985,-0.28359 -2.54467,0.42485 -3.8189,0.43947 -1.68024,0.29682 0.002,-1.16749 0.63359,-1.44969 1.96231,-1.00883 3.8824,-2.11201 5.75902,-3.28186 0.59541,-0.45439 2.35249,-0.76432 1.78691,-1.52265 -1.59088,0.53133 -3.16582,1.29176 -4.79446,1.73658 -0.55068,0.13128 -3.04925,0.44009 -1.81516,-0.534 2.39872,-1.58421 4.75974,-3.22668 7.13815,-4.83932 0.79239,-1.06438 0.21834,-1.09167 -0.73259,-0.65712 -1.10135,0.33525 -1.9222,1.23567 -2.94803,1.75924 -0.35215,0.61731 -2.32569,1.14003 -1.27782,0.0705 1.06247,-0.92331 2.10049,-1.87758 3.20928,-2.74561 0.56043,-0.78029 1.13517,-2.63854 -0.38718,-1.763 -0.98106,0.51665 -2.24275,0.59364 -2.92646,1.54789 -1.208,1.25572 -2.43893,2.50247 -3.63267,3.76377 -0.87269,-0.81834 1.38451,-1.72084 1.66258,-2.58742 0.98047,-1.12281 2.01285,-2.21452 2.89279,-3.4151 0.18605,-0.98451 0.22914,-1.67771 -0.7701,-0.99171 -0.48575,0.20893 -0.9715,0.41786 -1.45725,0.62678 0.14612,1.01554 -2.00912,2.07611 -2.69295,3.08305 -1.15756,0.98807 -2.73161,1.40313 -3.75,2.5797 -0.81377,-0.86873 1.4252,-1.52831 2.00083,-2.03859 1.6278,-0.79205 2.72894,-2.28382 4.03944,-3.48574 -1.43412,0.29092 -3.08642,0.23173 -3.92618,1.66108 -2.17118,2.06378 -4.28402,4.20018 -6.50587,6.20386 -2.70897,1.8784 -5.46205,3.7192 -8.24245,5.47399 -1.27163,0.51216 -3.07892,0.0912 -3.68124,1.62483 -1.06222,1.49404 -2.32033,2.8306 -3.50416,4.22668 1.27266,-0.28025 2.48119,0.0106 3.63048,0.57478 1.10464,0.3865 2.04351,1.15022 3.1019,1.6274 -0.23608,1.05164 -1.68683,1.84882 -2.82886,1.65589 -0.71751,-0.0196 -1.36439,-0.50461 -2.05369,-0.7121 0.0683,-0.82739 0.77001,-0.15977 1.23846,-0.0428 0.91983,0.49806 2.16768,0.30395 2.84541,-0.5122 -0.35364,-0.72618 -2.23021,-1.45957 -3.31942,-1.86527 -0.9885,-0.59402 -2.12117,-0.18524 -3.19314,-0.17205 -1.26804,0.28781 0.35407,-0.83542 0.54138,-1.27422 1.40337,-1.5772 2.74614,-3.20353 3.96365,-4.92964 -0.0884,-1.2741 1.32444,-2.17426 1.79459,-3.34982 1.38442,-2.03999 2.09894,-4.44434 3.16062,-6.66097 0.45183,-0.9247 0.21878,-2.00494 0.33631,-3.00555 -0.0338,-0.54294 0.15865,-1.13469 -0.0314,-1.64389 -0.98524,1.81262 -1.9986,3.62359 -2.94463,5.44882 -1.16576,0.0673 -0.12017,-1.78016 0.21589,-2.25989 0.89595,-1.81085 1.90655,-3.5909 2.7441,-5.41557 0.0242,-0.76366 0.0485,-1.52732 0.0727,-2.29098 -0.75466,-0.65616 -1.13489,1.58237 -1.73416,2.10689 -1.31158,2.18381 -2.52288,4.44023 -3.89026,6.58306 -0.13418,0.72454 -1.58267,1.25096 -1.00192,0.22471 1.95405,-3.59445 3.96032,-7.17582 5.96471,-10.73256 0.80543,-1.42825 0.54686,-3.09586 0.66163,-4.66281 -0.77223,-1.22022 -1.31123,0.6568 -1.92984,1.14159 -0.79143,0.98301 -1.08261,2.27394 -1.6906,3.37802 -0.98643,2.14215 -2.00918,4.2706 -3.01127,6.40321 -1.12117,-0.46193 0.64688,-2.13633 0.66177,-3.078 0.96122,-2.4837 1.91768,-4.96924 2.8743,-7.45472 -0.47934,-0.99688 -1.55555,1.63361 -2.06376,2.23994 -0.91279,2.03954 -1.97248,4.01001 -2.98238,6.00251 -1.07978,-0.47059 0.65873,-2.12881 0.61165,-3.0316 0.52277,-1.50961 1.21075,-3.0048 1.71637,-4.49356 -0.076,-0.56199 0.72027,-2.02284 0.0126,-2.05118 z m 6.92114,27.08053 c 0.2485,0.993 -1.24739,1.44557 -1.86242,2.21477 -0.77322,0.28858 -3.5379,0.96713 -2.34784,1.58887 0.78659,-0.41679 1.57497,-0.8302 2.36042,-1.24911 1.00506,0.95398 2.52574,1.97506 2.40693,3.43195 -0.9552,0.23957 -0.5475,-1.87178 -1.68459,-2.06816 -0.52418,-0.90667 -1.18723,-0.67521 -1.89296,-0.17629 -0.56095,0.30233 -1.13349,0.5837 -1.68592,0.90143 -0.93885,-1.28221 0.10166,-2.31839 1.45243,-2.47139 1.33964,-0.2091 2.11978,-1.36342 3.12811,-2.13432 l 0.0277,-0.0228 z m 7.12248,2.76846 c 0.0929,1.1207 -1.87796,0.63193 -2.40922,1.57737 -0.85972,0.41569 -1.72939,1.69272 -2.49716,1.68186 -0.84768,-0.16518 1.01869,-0.98397 1.31601,-1.44495 1.07431,-0.86115 2.17101,-1.65455 3.59037,-1.81428 z m 9.1359,4.37919 c -0.21795,0.20852 -0.065,0.16699 0,0 z m -25.80956,1.0948 c 1.16782,0.43928 2.41238,0.71843 3.40122,1.52562 1.27756,0.45201 1.33802,1.91312 1.70881,3.01633 0.0358,0.71065 -0.57835,2.97215 -1.22281,2.48831 0.26032,-1.04243 1.185,-2.32697 0.40389,-3.51935 -0.103,-1.31073 -1.46381,-1.67497 -2.38524,-2.30691 -0.69402,-0.24613 -1.38803,-0.49226 -2.08204,-0.73839 0.0587,-0.1552 0.11745,-0.31041 0.17617,-0.46561 z m 32.8943,0.12584 c 2.37225,0.0972 4.76434,0.20084 7.12248,0.42786 0.26279,0.27773 -0.47383,0.29444 -0.36493,0.44043 -3.05499,-0.13911 -6.10963,-0.51051 -9.16791,-0.25729 -1.43188,-0.1841 -2.68247,0.90969 -4.13253,0.60093 -0.77279,0.15125 -2.55188,-0.26146 -1.33463,-0.58273 1.38889,0.15562 2.80293,0.17254 4.09881,-0.42297 1.22782,-0.22354 2.52833,-0.0742 3.77871,-0.20623 z m -3.64933,1.98826 c 2.45072,0.34894 4.91221,0.56633 7.38951,0.53655 1.56105,0.0873 3.3871,-0.0688 4.78951,0.18003 -0.23307,1.03946 -2.41302,0.0367 -3.34448,0.34722 -2.75133,-0.0327 -5.50814,-0.0323 -8.23052,-0.48494 -0.52688,0.0149 -0.69018,-0.0681 -0.60402,-0.57886 z m 2.6552,2.74328 c 1.0084,1.05052 2.45191,1.23959 3.9033,1.00385 1.70757,-0.11054 3.45714,0.35196 5.1135,-0.28389 1.44023,-0.13397 -0.10496,0.81056 -0.859,0.71664 -1.67372,0.35135 -3.38426,-0.11321 -5.07475,0.0986 -1.35045,0.47782 -2.45702,-0.66062 -3.42649,-0.91399 -0.72514,0.42837 -1.5217,0.52134 -2.34081,0.46097 -1.1774,0 -2.3548,0 -3.53219,0 -0.23841,-0.785 0.66603,-0.42716 1.13642,-0.50336 1.17688,-0.008 2.35791,0.0169 3.5322,-0.0126 0.51013,-0.19955 1.0062,-0.46334 1.54782,-0.56627 z m -48.10822,1.59816 c 1.22643,0.50486 -0.9968,1.71923 -0.6347,2.51782 0.0546,0.83778 0.15343,1.43301 0.54661,0.2758 0.17995,-0.54125 0.34638,-1.08708 0.54111,-1.62332 0.49564,0.8177 1.1473,1.2753 2.08892,1.28356 0.40248,0.69038 0.59513,2.25486 1.01895,0.80953 0.38789,-0.74602 0.68764,-1.60786 1.24616,-2.21893 0.90783,0.51853 -0.1257,2.36442 0.13842,3.30957 -0.0747,1.48967 0.24191,2.98048 0.031,4.47381 0.13031,0.88907 -0.74676,3.15186 0.83367,2.07299 0.54558,-0.25951 0.61714,-1.02845 0.95151,-1.51494 0.60517,-1.17105 0.38154,-2.59754 0.77606,-3.83639 1.17272,-0.30064 0.10796,3.25812 1.23938,2.12909 0.32991,-1.20426 -0.56236,-2.21875 -0.66053,-3.55107 0,-0.7886 0,-1.57718 0,-2.36578 0.785,-0.2384 0.42716,0.66604 0.50336,1.13643 -0.0578,0.94825 0.0418,1.89106 0.45302,2.76458 1.2928,0.69778 1.08515,-1.70639 2.11409,-2.18959 1.12013,-0.44771 0.49096,-2.78366 1.62332,-2.52937 -0.10532,1.43961 -0.90702,2.63041 -1.90016,3.61158 -0.40691,0.68606 -0.59628,2.34145 -1.76175,1.67366 0.84546,0.86703 -0.11417,2.68589 -1.15771,2.37835 -0.23075,-0.7706 -0.24918,-1.67287 -0.37213,-0.35535 -0.0365,1.09917 -0.80507,1.96902 -1.20086,2.96022 -0.95023,0.52178 -2.65903,1.09345 -2.03416,-0.67429 0.11589,-1.89395 0.25336,-3.78966 0.0207,-5.68058 -0.0221,-0.62118 0.31623,-2.57486 0.008,-2.19069 -0.43665,0.8835 -0.85421,1.78293 -1.29134,2.66888 -0.54087,-0.80945 -0.32561,-2.72044 -1.60677,-2.52673 -0.71046,-0.14115 -0.96141,-0.9892 -1.13652,0.16096 -0.3146,0.34007 -0.70547,2.24124 -1.27097,1.38423 -0.13785,-1.04599 -0.0513,-2.67023 -1.24581,-1.39681 -0.21948,-0.8501 -0.42713,-1.70321 -0.64178,-2.55454 0.70408,-0.42727 0.5793,0.53639 0.7664,0.97666 -0.0404,1.44525 1.50535,0.0368 1.68746,-0.71239 0.10822,-0.22273 0.21734,-0.44502 0.32718,-0.66695 z m 19.73154,6.38003 c 1.34125,2.71813 2.76297,5.4048 4.20302,8.07886 0.7777,1.8975 1.71718,3.75053 2.04485,5.79278 -0.30748,0.96964 1.97849,2.28527 0.86203,2.53776 -1.23271,-0.96329 -1.35976,-2.49348 -1.69883,-3.90101 -0.80522,-2.51126 -1.96607,-4.9053 -3.25464,-7.20724 -0.92908,-1.65251 -1.71814,-3.37022 -2.58428,-5.04947 0.14262,-0.0839 0.28524,-0.16779 0.42785,-0.25168 z m -2.74329,2.9698 c 1.28235,0.14693 -1.1652,1.48101 0.42961,1.63127 0.82598,0.13542 0.61294,1.30318 1.36136,1.49955 1.88378,0.10764 -0.20396,2.78752 1.73252,2.39351 0.92942,0.73163 -0.0477,2.6254 1.4094,3.10822 1.21097,0.58217 0.8677,2.01745 1.43372,3.01208 0.13459,0.76246 0.57104,0.6475 1.09733,0.27148 0.39159,-0.25937 1.17487,-0.6636 1.0274,0.0523 -0.68271,0.33956 -1.36617,0.67761 -2.04838,1.01816 -0.54368,-1.05342 -1.02791,-2.13924 -1.14514,-3.33473 -1.06639,-0.80214 -2.03261,-1.6944 -1.86551,-3.15988 0.2534,-1.12382 -1.88754,0.0208 -1.32235,-1.39375 0.74175,-1.43749 -0.91829,-1.25255 -1.26097,-2.21735 -0.0948,-0.96775 -1.54618,-0.80973 -1.62919,-1.66023 0.23866,-0.42031 0.53951,-0.80133 0.7802,-1.22064 z m -7.68876,13.88003 c -0.21051,0.62583 -2.22441,2.50532 -0.7353,1.31754 0.77025,-0.46599 0.88022,-0.16294 0.74097,-1.19588 l -0.004,-0.0873 z m -0.30201,4.46729 c 1.45551,0.24785 -1.80984,1.64861 -1.10865,1.68383 0.42725,-0.3102 1.34012,-0.27056 0.86605,0.26775 -0.70772,0.21776 -1.41545,0.43552 -2.12317,0.65328 -0.52742,-1.13007 1.7916,-1.69389 2.34061,-2.57969 z m 0.15101,4.81963 c 1.19493,0.0371 -0.65446,1.24442 -0.99413,1.76174 -1.30367,1.05981 1.55018,-1.05079 1.32131,-0.003 -0.54603,0.38318 -2.52828,1.63015 -3.21322,0.93997 0.85721,-0.97565 2.08602,-1.61258 2.88604,-2.69903 z m -7.17282,4.31627 c -0.0662,0.91965 -0.24184,2.07592 0.6428,0.93241 0.98416,-0.60406 -0.10314,-0.57709 -0.6428,-0.93241 z m -0.42785,11.13675 c -0.0215,0.864 -0.34779,2.23871 0.79278,1.15772 0.84455,-0.36721 1.47658,-1.03032 0.11815,-1.0188 -0.30309,-0.0493 -0.608,-0.0918 -0.91093,-0.13892 z m -0.21393,9.43792 c 0.75928,0.46309 2.69882,0.57892 2.64967,1.44402 -0.54356,-0.0845 -2.55382,-0.54792 -2.64967,-1.20292 0,-0.0804 0,-0.16074 0,-0.2411 z m -3.46057,31.79949 c -2.97228,0.0819 -5.95457,-0.0142 -8.92198,0.0881 -1.2823,0.81734 -2.76425,1.35429 -3.7674,2.53691 -0.75903,1.06691 1.27483,1.98073 2.32025,1.74161 0.52703,0.35006 2.40879,-0.33483 2.08893,0.65437 -0.49248,1.42821 -2.0987,1.67918 -3.15856,2.54194 -0.65379,1.35783 0.89774,3.04449 2.06376,1.74917 0.69107,-0.65642 1.28739,-0.73189 1.77696,0.0781 0.80903,0.63434 -0.56682,2.34208 1.20542,2.24989 1.15778,-0.58319 2.19088,-1.60184 3.27829,-2.37403 0.72152,-0.92241 1.88929,-1.94799 2.34671,-0.20567 1.05952,0.90616 2.38854,0.68105 3.65462,0.59734 1.55509,-0.0532 3.26723,-0.26193 4.16097,-1.72695 1.45363,-0.69447 2.83944,0.72359 3.57244,1.86157 0.9814,0.64459 2.61801,0.72974 2.11769,-0.90313 -0.38551,-1.06853 -0.0521,-2.19827 1.23233,-1.50977 1.40696,0.26864 2.49876,1.33428 3.84836,1.7061 -0.0817,-1.02592 -0.0958,-2.95823 1.32827,-1.64526 1.20059,0.86983 2.45463,1.71348 3.90663,2.09828 0.0518,-0.60608 -0.10797,-1.26902 0.0881,-1.83724 0.93315,-0.95924 2.80027,1.85478 2.39094,-0.28943 0.19445,-0.73601 -0.81356,-2.36335 0.21392,-2.25252 1.41833,0.59827 2.91501,1.01183 4.42953,1.28356 -1.00264,-1.66732 -2.7928,-2.58314 -4.31627,-3.69967 -1.47103,-0.61231 -3.02577,-1.09788 -4.63513,-1.06742 -1.73679,-0.15834 -3.51609,-0.0859 -5.22988,-0.34024 -0.73394,-0.53328 -0.61292,-0.0572 -0.47895,0.0989 -1.02459,1.46854 -2.85512,1.18414 -4.40505,1.46141 -2.1655,0.20699 -4.35323,0.42354 -6.40452,1.19379 -1.41768,0.18444 -2.67192,-1.06622 -3.69818,-1.93842 -0.45098,-0.62485 -0.66462,-1.44579 -1.00819,-2.15135 z"
           id="path11057"
           style="fill:#ffffff;fill-opacity:1;fill-rule:evenodd;stroke:none;stroke-width:0.4" />
      </g>
    </clipPath>
  </defs>
  <g
     inkscape:label="Layer 1"
     inkscape:groupmode="layer"
     id="layer1"
     transform="translate(4.6665435,-81.696175)">
    <rect
       width="287.40005"
       height="191.60002"
       x="-4.6665435"
       y="81.696175"
       id="rect552-7"
       style="fill:#003366;stroke-width:0.3832" />
    <g
       id="g2908"
       transform="translate(0,-11.101068)">
      <path
         d="m 17.316589,120.31884 c -7.7188061,25.73245 23.317602,46.52464 44.458597,27.86809 22.170987,-23.27973 -2.571127,-54.721963 -28.265146,-44.68512 18.752672,-3.22438 29.930499,18.44303 17.320723,31.96293 -12.17997,12.44206 -34.391626,4.26586 -33.514174,-15.1459 z"
         id="path557"
         style="fill:#ffffff;fill-opacity:1;fill-rule:evenodd;stroke:none;stroke-width:0.36499" />
      <path
         d="m 152.74367,117.12868 c -0.9837,0.45724 -1.71017,1.78779 -2.1252,2.83784 -0.98494,2.93151 -1.99782,5.8569 -2.9877,8.78322 -0.5166,1.31601 -1.01513,2.65501 -1.53547,3.96069 -0.95498,-0.12881 0.37683,-1.76033 0.30334,-2.45843 0.31563,-1.43299 1.01706,-2.83375 1.07722,-4.29617 -0.24007,-1.09509 0.0244,-2.51626 -0.51938,-3.40741 -0.81138,1.87231 -1.83935,3.66582 -2.53763,5.58049 -0.52512,2.29748 -1.23007,4.55407 -1.5246,6.89837 -0.17598,1.21355 -0.38927,2.41018 -0.78338,3.57367 -0.9717,-0.0907 -0.71507,-1.80311 -1.2866,-2.50908 -0.51866,-1.64929 -1.56301,-3.07633 -2.31781,-4.62451 -0.3857,-0.38343 -1.27206,-3.07925 -1.25606,-1.57694 -0.0867,1.08546 -0.16141,2.17193 -0.26073,3.25635 -2.1595,-4.03581 -4.32554,-8.06812 -6.48761,-12.10256 0.17593,1.31058 -0.005,2.72328 0.47079,3.96146 1.04865,2.2606 2.0068,4.56203 3.00841,6.84357 -0.52706,0.49879 -0.63322,-0.32558 -0.89659,-0.66064 -1.99764,-3.5269 -3.99527,-7.05381 -5.99291,-10.58072 -0.80681,0.56682 -0.245,1.6117 -0.34897,2.42896 0.32949,1.14585 1.08885,2.17192 1.60594,3.25723 0.94542,1.76885 1.91716,3.52918 2.88821,5.27959 -0.69599,0.7672 -1.07479,-1.4052 -1.5731,-1.89461 -1.80647,-3.1337 -3.59416,-6.27883 -5.45419,-9.3812 -0.815,0.28164 -1.06711,0.87864 -0.93008,1.6685 -0.13478,0.79125 0.19298,1.46433 0.65081,2.10027 1.39769,2.41909 2.80852,4.83057 4.21777,7.24295 -0.47756,0.55442 -0.62351,-0.25536 -0.90175,-0.57952 -2.26767,-3.5884 -4.53534,-7.1768 -6.80301,-10.76519 -0.55184,-0.24825 -1.3321,-0.9105 -1.15559,0.18913 -0.26228,1.37653 1.23369,2.33888 1.72288,3.52949 2.01705,3.12057 4.09546,6.25819 6.10405,9.34846 -0.42052,0.56672 -0.61331,-0.15701 -0.88452,-0.46818 -1.27443,-1.80745 -2.54887,-3.61489 -3.82331,-5.42234 -0.4758,-0.12381 -1.0872,-0.43292 -0.9075,0.33911 -0.0316,0.49017 -0.16223,1.00714 0.25386,1.37629 2.03866,3.0597 4.11553,6.10388 6.13054,9.17318 0.65374,1.33717 1.24947,2.71464 1.93897,4.02698 1.16417,1.19808 2.32834,2.39615 3.49251,3.59423 -0.83567,0.67285 -1.68237,-1.46295 -2.51467,-1.84868 -0.88153,-0.99219 -2.06713,-1.78515 -2.56492,-3.05553 -0.60465,-0.94527 -0.95165,-2.07398 -1.88453,-2.76533 -1.03321,-0.77529 -1.8272,-2.18747 -3.02566,-2.53841 -0.38729,0.85425 -0.0714,2.77593 1.08896,3.43605 0.11564,0.31851 1.74265,1.41426 0.84949,1.18952 -1.75183,-0.1924 -3.39719,-0.80534 -5.03872,-1.41046 -0.99193,0.95153 2.36818,1.71322 0.48226,2.10129 -1.36409,0.0186 -2.41622,-1.21824 -3.66292,-1.67644 -3.10761,-1.6993 -6.2915,-3.26447 -9.46905,-4.82272 -0.65966,-0.19901 -1.31933,-0.39802 -1.979,-0.59702 -0.18353,1.15079 1.61454,1.47545 2.212,2.28925 2.41053,1.30163 4.88016,2.53503 7.29551,3.8424 -0.0773,0.72603 -0.73259,0.17706 -1.17077,0.10701 -4.52042,-1.45568 -9.04085,-2.91135 -13.56128,-4.36701 -0.759282,-0.18153 -0.626929,0.21695 -0.31969,0.7292 0.0757,0.59233 0.66422,0.62184 1.1236,0.79309 3.54845,1.19071 7.0937,2.3915 10.64415,3.57593 0.13979,0.55936 0.25701,1.12438 0.37892,1.68793 -0.80657,-0.66444 -1.60161,-1.42422 -2.70646,-1.49606 -2.31112,-0.57242 -4.69259,-0.0871 -7.03567,-0.0604 -1.25032,-0.29966 -1.41239,0.70955 -0.16727,0.92493 1.00062,0.77756 2.29053,0.34096 3.45372,0.40273 1.89178,-0.0566 3.78344,-0.11715 5.67487,-0.18457 0.33493,1.0778 -1.84697,0.35648 -1.92972,1.23175 -0.21814,1.03931 1.74313,1.03952 2.451,0.82699 1.08192,0.0181 1.83176,-1.58551 2.75123,-1.31238 -0.24029,1.0286 -2.04631,1.25839 -2.25122,2.3226 -0.13597,1.06611 2.03967,0.75227 2.66547,0.29686 0.72611,-0.60327 1.9762,-1.51416 2.04301,0.1019 0.2113,1.4603 2.14223,0.8949 3.19213,1.38938 1.87133,0.28538 3.78739,0.40385 5.64168,0.71036 1.77394,0.80507 3.5539,1.60404 5.32411,2.41288 -0.36407,1.00456 -1.92437,-0.51848 -2.73284,-0.4593 -1.33969,-0.37391 -2.57376,-1.13435 -3.99662,-1.14836 -1.23032,-0.22586 -2.46581,-0.19962 -3.70065,-0.0559 -3.74054,0.31255 -7.48859,0.56602 -11.22446,0.91542 -3.47703,0.58717 -6.96269,1.14955 -10.439017,1.72416 -0.883091,0.27423 -2.803203,0.79173 -0.964531,1.14825 3.947408,-0.18531 7.886708,-0.51749 11.826978,-0.81526 0.28483,0.68913 -0.56178,0.45392 -0.98574,0.564 -3.27693,0.33254 -6.55385,0.66508 -9.830777,0.99763 -1.008738,0.74597 -2.355162,1.15651 -2.905071,2.37687 0.15803,1.73723 2.33281,0.14853 3.410302,0.2641 2.835426,-0.47672 5.659836,-0.92803 8.393706,-1.80275 0.81449,0.0651 2.85068,-1.38943 2.97397,-0.34448 -3.09123,0.9536 -6.19019,1.92028 -9.30757,2.78431 -0.66374,0.15508 -1.32748,0.31016 -1.991214,0.46524 -0.193777,1.59561 2.219564,0.66499 3.203614,0.9186 2.16335,-0.50589 4.22497,-1.3788 6.3632,-1.98521 1.14013,-0.0938 2.86729,-1.43026 3.69342,-0.88142 -0.73399,0.74949 -2.43887,1.14488 -3.50477,1.76505 -2.19983,0.96232 -4.43076,1.84615 -6.57481,2.93878 -1.41218,1.43076 1.50049,1.29942 2.21568,0.5586 2.29062,-1.05069 4.55284,-2.15999 6.80956,-3.29144 0.5532,0.45754 -0.26014,0.67631 -0.54828,0.99032 -1.27846,1.00071 -2.52554,2.03596 -3.95115,2.82301 -0.55213,0.4435 -1.45519,0.59838 -1.56333,1.41121 1.25233,0.71211 2.44878,-0.15149 3.57106,-0.71191 2.93378,-1.89941 5.90137,-3.75729 8.88746,-5.56901 1.29111,-0.57821 2.61561,-1.07889 3.92701,-1.60756 0.50675,0.5058 -0.32138,0.65941 -0.63541,0.95623 -1.44099,0.9643 -2.88741,1.92199 -4.32503,2.89041 -1.57165,1.62558 -2.9946,3.4133 -4.85057,4.73275 -0.86552,0.72397 -1.74893,1.37585 -2.43298,2.17415 -1.3571,1.36506 -2.7624,2.68157 -4.10709,4.05889 -0.4195,1.39131 -1.31347,2.69919 -1.21465,4.19182 0.0172,1.60709 -0.16547,3.2318 -0.0141,4.82801 0.16493,0.66322 0.54764,2.17551 0.67723,0.66373 0.0729,-0.69123 0.54998,-3.07472 1.06196,-1.40225 0.28143,0.62566 0.5582,2.51178 0.89165,2.18461 0.48847,-0.96802 0.57892,-2.32598 1.36514,-3.05971 0.70036,0.40872 1.25382,1.41724 1.92116,0.25696 0.84685,-0.98599 0.72136,-2.46797 1.14271,-3.66844 0.36309,-1.55768 0.72734,-3.11508 1.0928,-4.6722 0.66359,-0.19209 0.50647,0.61155 0.67181,1.02396 0.2124,0.96003 0.4248,1.92006 0.63719,2.88009 1.44867,-0.62781 0.85722,-2.58599 1.32428,-3.82488 0.0928,-0.92837 0.38801,-3.37304 1.38508,-1.50703 0.58577,1.40469 2.20859,-0.21465 2.15922,-1.23608 0.33129,-1.61859 0.6485,-3.2401 0.98749,-4.85709 0.43468,0.77466 0.888,1.53864 1.33197,2.30798 1.51259,-0.0701 2.03296,-1.58718 3.01422,-2.48645 0.8817,-0.91538 1.66809,-1.97604 2.64666,-2.77254 1.11508,-0.5747 2.15991,-1.34253 3.30696,-1.8372 1.11908,1.03449 -0.5699,2.43108 -1.20567,3.31844 -1.4189,1.75309 -3.17026,3.19719 -4.65578,4.89455 -0.58637,0.67683 -1.50372,1.24496 -1.2577,2.25233 0.74537,0.33232 1.52274,0.63432 2.27353,0.97125 -1.1339,0.56843 -2.35263,1.05722 -3.39882,1.74534 -1.01307,0.87633 -2.10672,1.65414 -3.16917,2.46874 -0.28685,0.77097 -0.47217,1.64155 0.66832,1.32097 0.8143,-0.14021 3.00694,0.2079 1.28371,1.00998 -1.61963,1.05859 -3.49491,1.71934 -5.09823,2.76728 -0.444,0.59278 -1.6358,1.52312 -0.18372,1.48124 0.96983,-0.13949 2.42163,-1.61738 3.14216,-0.86918 -1.0194,1.12642 -2.3406,2.21331 -3.45624,3.33868 -0.56812,0.43965 -1.82827,1.66217 -1.08235,2.00577 1.76758,-0.84506 3.00945,-2.43334 4.51524,-3.64351 0.52918,-0.84057 1.94714,-1.58733 1.49816,0.0514 -1.74824,2.17655 -3.43819,4.41498 -5.23703,6.53455 0.18116,2.12858 1.54986,-0.61088 2.22409,-1.18205 1.05143,-1.24115 2.0289,-2.57104 3.40324,-3.47857 0.4771,-0.10364 1.73534,-1.8963 1.80185,-1.16346 -0.0321,0.60946 0.15613,1.28979 -0.3618,1.7641 -1.08704,1.4653 -1.8136,3.14145 -2.70403,4.72596 -0.14704,0.684 -0.29937,2.64943 0.68895,1.72238 1.17665,-2.1944 2.61232,-4.24665 3.53871,-6.57027 0.94957,-1.99295 1.59028,-4.13212 2.38626,-6.17531 0.66986,-0.99968 0.99727,-0.66084 0.90396,0.38415 0.1081,0.97195 0.067,3.05143 0.73804,3.19839 1.21974,-2.78672 2.75078,-5.42217 4.05118,-8.16744 0.45009,-1.33943 0.98487,-2.65499 1.54079,-3.95808 0.70059,-0.0734 0.37877,0.68711 0.44782,1.12883 -0.0471,0.88612 0.0938,1.80302 -0.0689,2.67022 -0.75569,2.16986 -1.32229,4.40778 -2.37606,6.46188 -0.63891,1.32088 -1.54174,2.51131 -2.15948,3.83958 -0.61912,0.80635 -0.38935,0.81236 0.30824,0.33836 1.23372,-0.56487 2.06213,-1.62403 2.91757,-2.6318 1.34552,-1.07904 0.34653,1.3746 0.0364,1.89505 -0.73181,2.07463 -1.20537,4.25139 -2.03359,6.3004 -0.0103,0.6209 -0.22563,2.04832 0.56546,0.95555 1.48493,-1.16093 2.02547,-3.02069 2.91374,-4.60699 0.5386,0.78699 1.55194,1.24171 2.0428,0.27137 -0.0824,-1.22552 -0.64763,-2.49567 -0.0958,-3.68263 0.54487,-1.96326 0.9924,-3.96359 1.29972,-5.9759 0.14788,-1.22355 0.23033,-2.46073 0.38179,-3.67992 0.68087,-0.35064 0.39308,0.73003 0.44782,1.1403 0,0.93273 0,1.86546 0,2.79819 0.66686,0.0733 1.89078,-1.10855 2.23909,-0.33299 -0.67314,0.57668 -1.70108,0.93372 -2.31063,1.56096 -0.0259,0.78104 -0.0518,1.56206 -0.0777,2.34309 0.83057,-0.50523 1.66114,-1.01046 2.4917,-1.51569 0.58897,0.41427 -0.19165,0.70095 -0.45873,1.04341 -0.68148,0.63587 -1.36297,1.27173 -2.04445,1.90759 -0.0115,0.55116 -0.023,1.10232 -0.0345,1.65348 0.5774,-0.18148 1.15927,-0.35028 1.73386,-0.53967 0.4736,0.53916 -0.34341,0.66068 -0.68212,0.94174 -0.38315,0.35581 -1.24425,0.41699 -1.11989,1.0861 -0.0434,1.68232 -0.10508,3.36363 -0.17298,5.04537 0.30355,-0.60121 1.37482,-2.04872 1.21818,-2.1309 -0.35107,0.68725 -1.62899,0.73331 -0.75888,0.0181 0.36172,-0.43939 2.33348,-1.84291 1.63717,-0.44041 -0.67865,0.97876 -1.26835,2.28175 -1.98081,3.08572 -0.20265,-0.0197 -0.4458,1.41903 0.16837,1.13485 0.50984,0.34692 2.0832,0.5051 0.99659,1.10896 -0.46508,0.46687 -1.04725,0.88227 -1.44137,1.38032 0.0323,1.40794 -0.32261,3.75292 -0.0471,4.57066 0.41535,-0.58377 1.78227,-1.63792 1.49537,-1.91367 -0.5765,0.27543 -2.33324,0.14416 -1.1038,-0.30307 0.74893,-0.28379 2.84117,-0.36399 1.50421,0.81525 -0.71242,1.26977 -2.40846,1.66932 -2.08833,3.05828 0.007,1.02487 -0.41324,1.65081 0.84103,1.46332 1.43564,-0.12569 1.53558,1.27326 0.24156,1.65585 -0.88987,0.51931 -1.66759,0.48539 -1.13001,1.6651 0.27718,0.77518 2.19143,1.29842 1.71089,2.1013 -0.0717,-0.90558 -0.27514,0.34935 -0.77061,-0.55918 -0.60963,-0.48619 -1.39442,-1.64202 -1.13659,-0.10887 -0.11202,2.92499 -0.22776,5.84984 -0.34336,8.77469 0.60349,-0.18469 1.67366,0.66066 1.68425,1.05226 -0.62214,0.57699 -2.10756,-1.94306 -1.72123,0.0525 0.0208,0.8988 -0.21567,2.55987 -0.0327,2.97834 0.29944,-0.25198 0.77479,0.46841 1.14232,0.59278 0.41942,0.29005 0.83885,0.5801 1.25827,0.87015 -0.23108,0.71283 -0.72302,-0.022 -1.11667,-0.21133 -0.46217,-0.31996 -0.92434,-0.63992 -1.38651,-0.95989 0.10841,1.1893 -0.41397,3.37709 0.0648,3.99224 0.54572,0.40219 1.97128,1.5588 1.93622,2.20529 -0.70555,0.18841 -1.72439,-1.91672 -2.16854,-1.79655 -0.0687,1.77482 -0.13227,3.54984 -0.19988,5.3247 0.74099,0.24857 2.24166,1.21322 2.63286,1.82067 -0.66931,0.56728 -2.08266,-1.53914 -2.66198,-1.27161 -0.10511,1.43383 -0.0189,2.89943 -0.22429,4.31647 -0.27177,1.03037 2.5666,0.7761 1.95282,1.82877 -1.04696,-0.34515 -2.4997,-1.84291 -2.50804,0.0927 -0.22358,1.54276 -1.62819,3.11841 -0.53482,4.58071 0.42075,1.18716 1.76922,1.69291 2.77876,2.2965 1.19232,-0.1881 2.33692,-0.77752 3.57858,-0.82393 1.83012,-0.28362 3.69155,-0.38566 5.51556,-0.68028 0.7708,-0.56211 1.72603,-1.09215 0.56413,-1.81304 -0.92498,-1.13538 -0.70515,-2.7537 -1.2416,-4.04304 -10e-4,-1.04935 -0.21695,-1.50547 -1.14008,-0.7478 -0.7237,0.14329 -1.84853,1.68655 -2.25873,0.72484 1.08133,-0.52337 2.06266,-1.20398 3.15768,-1.71089 -0.12949,-1.37326 -0.39484,-2.73888 -0.36744,-4.12222 -0.86511,0.55803 -2.14281,1.71816 -2.97331,1.558 0.33867,-0.7727 1.99309,-1.11267 2.69773,-1.92544 0.51216,-0.007 0.17749,-0.73335 0.26469,-1.16261 -0.0117,-1.19704 -0.0234,-2.3941 -0.035,-3.59114 -0.80141,0.90465 -1.76085,1.54979 -2.97397,1.74534 -0.90232,-0.78885 1.37727,-0.50461 1.67174,-1.17624 0.54548,-0.61642 1.55403,-1.00027 1.28383,-1.96383 -0.009,-1.05844 -0.0184,-2.11688 -0.0275,-3.17531 -0.70519,0.46813 -1.9973,2.14764 -2.67832,1.45195 0.73641,-0.65614 2.3304,-1.28381 2.66432,-2.26536 -0.0145,-1.37469 -0.0289,-2.74938 -0.0434,-4.12406 -0.76015,1.01554 -1.79764,1.71111 -3.02536,2.03121 -0.60252,0.66838 -1.83187,0.0748 -0.60668,-0.25964 1.19538,-0.39631 2.4025,-0.82926 3.14592,-1.91581 0.67568,-0.36208 0.44856,-1.00556 0.47283,-1.67224 -0.0109,-0.97909 -0.0217,-1.95818 -0.0326,-2.93728 -1.42778,1.26595 -2.71748,2.66939 -4.1337,3.94998 -0.74565,-0.78691 1.38551,-1.46959 1.68793,-2.25057 0.70483,-0.84467 1.90019,-1.66118 2.44414,-2.38713 -0.0109,-1.06828 -0.0219,-2.13656 -0.0328,-3.20485 -0.54412,0.50334 -1.42539,1.1414 -0.31002,0.53968 0.4993,0.56211 -0.3772,0.6193 -0.74448,0.86337 -0.50563,0.23706 -1.01297,0.47057 -1.51758,0.70973 -0.52786,-0.9912 1.70812,-1.47707 2.15395,-2.34908 0.60346,0.14812 0.37978,-0.42033 0.40722,-1.00728 -0.008,-0.74521 -0.0157,-1.49041 -0.0235,-2.23561 -0.74591,1.35817 -2.23237,0.57061 -3.41851,0.32402 -0.87606,-0.0716 -0.0517,-0.33881 0.31226,-0.55536 0.93973,-0.50467 1.87946,-1.00934 2.81919,-1.514 0.52988,0.53477 -0.34425,0.63625 -0.69849,0.89817 -0.55564,0.29387 -1.11127,0.58775 -1.66691,0.88161 1.04169,0.58363 2.31923,0.21012 2.63875,-0.80193 0.003,-1.7898 -0.0488,-3.5488 -0.13557,-5.3412 -0.82339,0.82736 -1.29605,1.7323 -2.31946,2.1013 0.47872,-0.22133 2.45273,0.066 1.12529,0.41337 -0.76137,0.15212 -3.30327,0.24907 -1.52448,-0.72087 0.90836,-0.3568 1.49829,-1.0202 2.07597,-1.78244 0.68684,-0.39563 0.68033,-0.66377 0.58735,-1.47225 -0.0466,-1.10145 -0.0933,-2.2029 -0.13987,-3.30435 -0.41682,0.51262 -2.19255,1.9158 -1.73962,1.91447 0.53159,-0.33497 2.61511,-0.43217 1.37633,0.1693 -0.79445,-0.0503 -2.51185,1.05618 -2.79439,0.0864 1.10704,-0.63566 1.92088,-1.6281 2.84538,-2.50316 0.5414,0.0695 0.18453,-0.7265 0.25265,-1.21851 -0.13321,-3.30651 -0.26643,-6.61303 -0.39965,-9.91954 -0.52002,0.46179 -2.69781,2.22152 -1.90165,0.47475 0.53382,-0.61175 1.07779,-1.68191 1.67064,-1.88995 0.38797,-0.19911 0.0338,-0.92115 0.12428,-1.32987 0.0895,-1.01213 -0.52771,-1.87418 -0.82961,-2.8032 -0.021,-0.37959 -0.73255,-1.04304 -0.12753,-1.15546 0.65869,0.55942 0.97036,2.07852 1.50425,2.97748 0.81165,1.87883 1.73863,3.7164 2.45321,5.63235 0.39494,1.59427 0.81548,3.18334 0.87267,4.83413 0.40538,-0.14775 1.16181,0.0968 1.13379,-0.53527 0.0946,-0.6219 0.54384,-1.26305 0.14927,-1.85838 -1.77831,-4.83947 -3.80053,-9.58238 -5.68086,-14.38228 0.4461,-0.46315 0.59367,0.16842 0.76866,0.54448 1.0938,2.18048 1.80822,4.52573 2.71954,6.78715 0.92487,2.45205 1.89757,4.8902 3.0109,7.26263 1.71322,-0.99672 0.29646,-2.78164 0.0545,-4.23175 -0.80065,-2.6522 -1.88311,-5.21093 -2.81091,-7.82095 -0.27539,-0.46384 -0.87732,-0.68148 -1.27792,-1.05092 -0.58986,-0.435 -1.19457,-0.8758 -1.77585,-1.30692 0.48333,-0.91254 1.55599,0.69172 2.29744,0.77098 1.27519,1.34368 1.58929,-0.72154 2.72072,-0.95888 0.31718,1.16434 -1.8336,2.10659 -0.68837,3.4512 0.82532,2.81554 1.56582,5.65955 2.65892,8.3868 0.18104,0.49155 0.36384,0.98245 0.5438,1.4744 -0.36977,0.53152 0.15681,2.80621 0.91065,2.2197 0.25843,-1.22788 1.04371,-2.44322 0.37669,-3.68435 -0.97894,-3.74158 -2.32293,-7.3761 -3.45418,-11.07346 0.0149,-1.34761 0.8567,0.57437 0.95063,1.15364 1.30055,3.53199 2.70757,7.03152 3.85719,10.61514 -0.24435,1.05265 -0.23662,3.27893 1.13677,2.02092 0.0616,-1.40541 0.17128,-2.84466 -0.41337,-4.16815 -1.18906,-3.16442 -2.13421,-6.4215 -3.19214,-9.63382 -0.60427,0.65733 -1.74078,0.0278 -1.91728,-0.69813 0.20288,-1.59615 -1.11496,-1.55149 -2.30522,-1.44909 -0.52066,-0.0507 0.90867,-0.79666 1.0763,-1.06788 0.64295,-0.35348 2.01336,-1.43509 0.69189,-1.72523 -0.42216,-0.19391 -0.84213,-0.39264 -1.26602,-0.58275 0.63059,-1.0853 1.28394,-2.15061 2.1194,-3.09518 0.51471,-0.93832 0.12366,-2.62177 -0.8748,-3.19392 -0.72429,-0.39796 -0.64274,-1.31547 -0.9292,-1.99536 -0.37797,-0.40039 0.001,-1.17181 0.30263,-0.59139 0.18822,0.6468 0.37645,1.29361 0.56467,1.94042 1.09059,0.58518 1.59679,1.54554 1.57154,2.75624 0.49746,1.13006 -0.81348,1.81552 -1.29703,2.67092 -0.28813,0.41898 -0.53129,0.87046 -0.8027,1.30159 0.60715,0.28611 1.22714,0.54627 1.82571,0.8497 0.12563,1.14103 -1.84366,1.89547 -1.69941,2.28502 1.91142,-0.51297 0.75112,2.15096 2.19386,2.36929 0.49029,-0.005 0.91661,-0.49241 1.38069,-0.69513 0.82791,0.15649 -0.3474,0.54221 -0.15257,0.91217 1.5427,4.19484 3.12697,8.39315 4.59281,12.60502 -0.13978,1.5239 1.312,1.72282 2.21612,2.35391 0.12528,0.8124 0.51393,2.35525 1.37107,2.02393 0.0368,-2.17334 0.17304,-4.35931 0.17907,-6.52507 0.12408,-0.74196 -1.13651,-2.53995 -0.10335,-2.62949 0.58013,1.69943 1.34801,3.35625 1.74631,5.10543 0.28062,1.13621 -0.2786,2.982 1.35101,3.15102 0.71912,0.29241 0.16255,-2.31905 0.93304,-1.60809 0.42486,0.33682 0.84971,0.67364 1.27456,1.01046 1.72456,0.0414 0.44232,-1.84959 0.47078,-2.81321 -0.54249,-1.34845 -1.05719,-2.71335 -1.59607,-4.06481 0.8029,-0.3322 -0.43134,0.11756 -0.19881,-0.74357 -0.18538,-1.33337 -1.04936,-2.33618 -1.82288,-3.37861 -0.32802,-0.70645 -0.30603,-1.54327 -0.91875,-0.5399 -0.72901,0.60371 -0.40787,1.59953 0.10368,2.23605 0.83156,1.28739 0.74934,2.98859 1.78801,4.15249 0.45683,0.74984 1.06981,1.50609 0.91097,2.43619 0.0407,0.42826 0.0746,1.27947 -0.4593,0.8673 -0.0713,-0.72655 0.19514,-1.51241 -0.25452,-2.08974 -0.5506,-1.08266 -1.34083,-1.75829 -1.55972,-2.97465 -0.23872,-1.22299 -0.92078,-2.26839 -1.43531,-3.37586 0.11526,-0.26881 -1.71575,0.14751 -1.57372,-0.42485 0.50645,-0.0711 0.41668,-0.29421 1.27517,-0.10334 0.64987,-0.54954 0.64357,-1.5847 0.20669,-2.27354 -0.86238,-1.93247 -2.19063,-3.62649 -3.15769,-5.50011 -0.24389,-1.22282 0.24192,-2.7283 -0.93071,-3.58036 -1.21173,-1.17993 -1.82485,-2.77146 -2.50256,-4.28516 -0.77853,-1.08501 -2.04606,-1.72424 -2.951,-2.70987 -0.49271,0.15601 -2.35024,0.21392 -1.42786,-0.34241 1.27107,-0.5084 2.14562,0.21697 2.95503,1.0773 0.92237,0.71709 1.90191,1.45873 2.21098,2.63646 0.57524,1.37507 1.32404,2.64709 2.38969,3.70216 0.93891,0.88159 0.454,2.29083 0.70425,3.4215 1.15566,2.0963 2.70154,4.01001 3.4792,6.29241 -0.16804,0.99823 0.27578,-0.31944 0.74988,-0.20309 -0.045,-1.13041 0.3487,-2.6588 -0.38245,-3.71244 -0.76337,-1.4192 -1.65223,-2.78744 -2.34243,-4.23705 -0.48033,-1.03467 -1.0682,-2.32868 -1.60364,-3.45787 -0.56209,-1.30495 -1.37878,-2.47628 -2.15113,-3.66127 0.76987,-0.8053 1.1709,1.51442 1.7683,1.91757 1.34471,2.37856 2.19093,5.00619 3.66091,7.31775 0.42889,1.01476 1.33805,1.90484 1.53024,2.98541 0.1478,0.64607 -0.25637,2.73862 0.26798,2.56509 0.26183,-0.50433 0.52822,-1.00634 0.78735,-1.51206 0.41899,-0.19865 1.24818,-0.072 1.34891,-0.53064 0.14516,-1.41023 -1.275,-2.43686 -1.4178,-3.82122 -0.40133,-1.88832 -1.15815,-3.67412 -2.09716,-5.35417 -1.00771,-2.21218 -2.48685,-4.17706 -3.28433,-6.48632 -0.2111,-1.34706 0.88132,0.37269 0.90419,1.00149 0.77551,1.76465 1.90796,3.34994 2.70899,5.10923 0.76318,1.43114 1.49291,2.8744 1.91237,4.45039 0.28719,1.48196 0.89866,2.85196 1.67017,4.15 0.13255,0.59225 -0.0174,1.05377 0.48744,1.10758 0.23331,0.54423 -0.90011,0.26881 -0.45204,1.10252 0.12904,0.522 -0.13547,2.49369 -0.5266,1.37162 0.0343,-0.92535 0.47045,-2.43011 -0.8514,-1.72151 -0.35211,0.305 -0.4867,0.88682 -0.75718,1.29571 -0.22272,0.55594 -1.05501,0.51672 -0.48832,1.30564 0.74122,1.104 1.72775,2.08651 1.92163,3.461 0.15721,1.22572 1.17527,2.05591 1.79126,3.11501 0.66793,0.68622 1.45106,2.78746 2.121,2.41025 0.29939,-1.30478 -0.84656,-2.17544 -1.26563,-3.30904 -0.89637,-1.9175 -1.70975,-3.87372 -2.56576,-5.80988 0.69573,0.50184 1.58226,0.7942 1.97892,1.61763 1.59264,2.12138 3.1585,4.26436 4.79575,6.35123 1.7151,0.82367 0.66184,-1.3142 0.13779,-1.98647 -1.30802,-2.63974 -3.09879,-5.00112 -4.64418,-7.50479 -0.33569,-0.34238 -1.40915,-2.00807 -0.40674,-1.49529 1.76401,2.17711 3.52803,4.35423 5.29205,6.53134 0.5961,0.40719 1.6724,0.74638 1.31428,-0.26772 -1.51282,-2.76251 -3.43884,-5.27071 -5.12323,-7.93099 -1.76101,-2.50508 -3.257,-5.1829 -4.83737,-7.8079 0.83161,-0.67297 1.92291,1.01666 2.84976,1.23763 1.48251,0.80974 2.80388,1.84408 4.01763,3.01311 2.04556,1.77868 4.01188,3.66098 6.13746,5.34042 1.05938,0.58021 1.88539,1.59379 3.02472,1.97172 0.0189,-0.38267 -1.165,-1.81985 -0.6676,-1.81057 1.19398,0.33636 2.32279,0.83218 3.4257,1.38361 0.73901,0.36375 3.05105,1.23348 1.89231,-0.27347 -0.36852,-0.75389 -2.12483,-1.1621 -1.83814,-1.98008 0.32607,-0.17536 0.85531,0.37538 1.25959,0.47936 0.9278,0.55777 1.97084,0.8108 3.0358,0.96104 1.55672,-0.0697 0.57857,-1.69088 -0.47286,-1.70149 -2.41311,-1.28542 -4.80734,-2.60875 -7.20893,-3.91345 0.49796,-1.00845 2.12687,0.59264 3.06583,0.53968 0.5487,-0.17261 2.56423,0.24177 1.8588,-0.70965 -0.29842,-0.36559 -0.91561,-0.37781 -1.34303,-0.6004 -3.29054,-1.19185 -6.58742,-2.36894 -9.87401,-3.57002 -1.40228,-0.94452 -2.8278,-1.86018 -4.23704,-2.79024 0.21545,-0.8635 1.62832,0.24906 2.33095,0.16075 1.23106,0.32165 2.46846,0.58728 3.74738,0.57183 0.82139,0.0226 2.54379,0.23148 2.84267,0.0948 -0.54399,-0.29362 -2.94393,-0.98821 -1.57388,-1.36253 0.68731,-0.0423 2.8472,-0.0857 1.00587,-0.15426 -1.30618,-0.13567 -2.67096,-0.089 -3.93223,-0.43588 0.16129,-0.46664 0.81402,-0.29085 1.66613,-0.20025 0.93031,0.31892 2.8149,-0.22757 3.17859,0.55287 0.92338,0.2956 2.54528,-0.0841 3.73376,-0.0122 1.64452,-0.14458 3.45368,0.0823 4.99427,-0.32378 0.53724,-0.83673 2.14369,-1.1081 2.11424,-2.19395 -0.10716,-1.00767 -0.11885,-2.04634 -0.28446,-3.03503 -0.34212,-0.37363 -0.41457,-1.13316 -0.99411,-1.16702 -1.55293,-0.25482 -3.03801,-0.68169 -4.5105,-1.21059 -3.06462,-0.0747 -6.14159,-0.0472 -9.19748,-0.22965 -0.9904,-0.0645 -2.16925,0.83235 -3.30697,0.76933 -1.75764,0.17665 -3.553,0.0315 -5.25775,0.57492 -0.65727,0.50959 -1.5712,-0.2256 -0.51794,-0.35675 1.31673,-0.34852 2.64896,-0.58692 4.01558,-0.56619 1.38944,-0.0444 2.78649,-0.14812 4.0746,-0.71701 0.78986,-0.5358 0.96461,0.37442 1.11933,-0.61915 0.72267,-0.274 3.03607,-0.0801 2.49116,-0.84197 -2.85438,0.0969 -5.7105,0.13138 -8.56595,0.18372 -1.02698,-0.10159 -2.33667,0.53305 -3.35289,1.02194 -1.19097,0.4816 -0.20838,-0.7258 0.5282,-0.75785 1.26421,-0.74968 2.83703,-0.5638 4.0648,-1.3779 1.91895,-0.89419 3.72206,-2.02582 5.59198,-3.00841 0.48579,-0.42994 1.83773,-1.10013 0.40735,-1.23922 -1.12221,-0.25878 -2.32195,0.38766 -3.48466,0.401 -1.53318,0.27084 0.002,-1.06531 0.57814,-1.32281 1.79056,-0.92053 3.54259,-1.92716 5.25497,-2.99461 0.5433,-0.41463 2.14659,-0.69743 1.63051,-1.38939 -1.45165,0.48483 -2.88874,1.17871 -4.37483,1.58459 -0.50248,0.11979 -2.78237,0.40157 -1.65629,-0.48727 2.18877,-1.44554 4.34315,-2.94426 6.51339,-4.41576 0.72303,-0.97121 0.19923,-0.99612 -0.66848,-0.5996 -1.00495,0.3059 -1.75395,1.12752 -2.69,1.60527 -0.32133,0.56328 -2.12213,1.04024 -1.16598,0.0643 0.96948,-0.8425 1.91665,-1.71325 2.92839,-2.5053 0.51138,-0.712 1.03582,-2.40761 -0.35329,-1.60869 -0.8952,0.47142 -2.04645,0.54168 -2.67032,1.4124 -1.10227,1.14582 -2.22547,2.28345 -3.31473,3.43435 -0.79631,-0.74671 1.26333,-1.57022 1.51707,-2.36095 0.89465,-1.02454 1.83668,-2.0207 2.6396,-3.1162 0.16976,-0.89834 0.20908,-1.53087 -0.7027,-0.90491 -0.44323,0.19064 -0.88647,0.38128 -1.32971,0.57192 0.13334,0.92666 -1.83327,1.8944 -2.45725,2.81321 -1.05625,0.90159 -2.49252,1.28033 -3.42178,2.35392 -0.74255,-0.7927 1.30046,-1.39456 1.82571,-1.86017 1.48532,-0.72272 2.49009,-2.08393 3.68588,-3.18065 -1.30859,0.26545 -2.81628,0.21145 -3.58254,1.51569 -1.98115,1.88315 -3.90906,3.83257 -5.93645,5.66087 -2.47187,1.714 -4.98398,3.39369 -7.52103,4.99489 -1.16034,0.46733 -2.80945,0.0832 -3.35905,1.48262 -0.96925,1.36328 -2.11724,2.58286 -3.19746,3.85674 1.16128,-0.25572 2.26403,0.01 3.31272,0.52447 1.00796,0.35267 1.86466,1.04956 2.83042,1.48497 -0.21542,0.95959 -1.53919,1.687 -2.58127,1.51096 -0.65471,-0.0179 -1.24498,-0.46044 -1.87394,-0.64977 0.0623,-0.75498 0.70262,-0.14579 1.13006,-0.039 0.83932,0.45447 1.97796,0.27734 2.59637,-0.46737 -0.32268,-0.66262 -2.03501,-1.33182 -3.02889,-1.70201 -0.90198,-0.54204 -1.93552,-0.16903 -2.91367,-0.157 -1.15705,0.26262 0.32308,-0.7623 0.494,-1.1627 1.28054,-1.43915 2.50579,-2.92314 3.61674,-4.49817 -0.0807,-1.16259 1.20852,-1.98396 1.63752,-3.05664 1.26325,-1.86143 1.91523,-4.05534 2.88399,-6.07796 0.41228,-0.84377 0.19963,-1.82946 0.30687,-2.7425 -0.0308,-0.49542 0.14477,-1.03538 -0.0287,-1.50001 -0.89901,1.65398 -1.82368,3.30644 -2.68691,4.97192 -1.06372,0.0614 -0.10965,-1.62436 0.197,-2.0621 0.81753,-1.65236 1.73968,-3.27661 2.50392,-4.94158 0.0221,-0.69682 0.0442,-1.39364 0.0664,-2.09046 -0.6886,-0.59873 -1.03556,1.44388 -1.58238,1.92249 -1.19678,1.99267 -2.30207,4.0516 -3.54977,6.00688 -0.12243,0.66113 -1.44414,1.14147 -0.91423,0.20505 1.78303,-3.27986 3.61371,-6.54777 5.44266,-9.79321 0.73494,-1.30324 0.499,-2.82489 0.60372,-4.2547 -0.70464,-1.11342 -1.19646,0.59931 -1.76093,1.04167 -0.72216,0.89698 -0.98785,2.07492 -1.54263,3.08236 -0.90009,1.95466 -1.83333,3.89682 -2.74771,5.84278 -1.02304,-0.42151 0.59026,-1.94935 0.60385,-2.8086 0.87709,-2.26632 1.74983,-4.53432 2.62273,-6.80225 -0.43739,-0.90963 -1.4194,1.49062 -1.88313,2.04388 -0.8329,1.86103 -1.79985,3.65904 -2.72135,5.47716 -0.98528,-0.42941 0.60107,-1.94249 0.55811,-2.76627 0.47702,-1.37748 1.10479,-2.74181 1.56615,-4.10027 -0.0694,-0.5128 0.65722,-1.84579 0.0115,-1.87165 z m 6.31537,24.71034 c 0.22675,0.90608 -1.13821,1.31904 -1.69941,2.02092 -0.70554,0.26332 -3.22825,0.88248 -2.14234,1.4498 0.71773,-0.38031 1.43712,-0.75753 2.15382,-1.13977 0.9171,0.87047 2.30468,1.80219 2.19627,3.13157 -0.8716,0.2186 -0.49958,-1.70796 -1.53715,-1.88715 -0.47831,-0.82731 -1.08332,-0.61612 -1.72728,-0.16086 -0.51186,0.27586 -1.03428,0.53261 -1.53837,0.82253 -0.85668,-1.16998 0.0928,-2.11548 1.32531,-2.25508 1.22239,-0.19081 1.93425,-1.2441 2.85432,-1.94752 l 0.0253,-0.0208 z m 6.49909,2.52615 c 0.0848,1.02261 -1.71359,0.57662 -2.19835,1.43931 -0.78448,0.37931 -1.57803,1.54456 -2.2786,1.53466 -0.77349,-0.15073 0.92953,-0.89785 1.20083,-1.31849 0.98028,-0.78577 1.98099,-1.50974 3.27612,-1.65548 z m 8.3363,3.99591 c -0.19888,0.19026 -0.0593,0.15237 0,0 z m -23.55061,0.99898 c 1.06561,0.40082 2.20124,0.65554 3.10353,1.39208 1.16575,0.41245 1.22092,1.74568 1.55925,2.75233 0.0327,0.64845 -0.52773,2.71201 -1.11578,2.27052 0.23753,-0.95119 1.08128,-2.1233 0.36853,-3.21132 -0.094,-1.196 -1.33569,-1.52837 -2.17647,-2.10499 -0.63327,-0.22459 -1.26654,-0.44918 -1.89981,-0.67377 0.0536,-0.14162 0.10717,-0.28324 0.16075,-0.42485 z m 30.01525,0.11482 c 2.16463,0.0887 4.34735,0.18326 6.4991,0.39041 0.23979,0.25342 -0.43236,0.26867 -0.333,0.40188 -2.78759,-0.12694 -5.57488,-0.46582 -8.36549,-0.23477 -1.30655,-0.16799 -2.44768,0.83007 -3.77083,0.54833 -0.70515,0.13802 -2.32854,-0.23857 -1.21782,-0.53173 1.26733,0.142 2.55761,0.15745 3.74007,-0.38594 1.12035,-0.20398 2.30704,-0.0677 3.44797,-0.18818 z m -3.32992,1.81423 c 2.23622,0.3184 4.48228,0.51677 6.74275,0.4896 1.42443,0.0797 3.09065,-0.0628 4.37032,0.16427 -0.21268,0.94848 -2.20183,0.0335 -3.05177,0.31683 -2.51051,-0.0299 -5.02604,-0.0295 -7.51014,-0.4425 -0.48077,0.0136 -0.62977,-0.0621 -0.55116,-0.5282 z m 2.42281,2.50319 c 0.92014,0.95857 2.23731,1.13109 3.56166,0.91598 1.55812,-0.10086 3.15456,0.32116 4.66595,-0.25904 1.31417,-0.12225 -0.0958,0.73962 -0.78382,0.65392 -1.52722,0.3206 -3.08806,-0.10331 -4.63058,0.09 -1.23226,0.436 -2.24198,-0.60279 -3.12659,-0.83399 -0.66167,0.39088 -1.38851,0.47571 -2.13593,0.42062 -1.07435,0 -2.1487,0 -3.22305,0 -0.21754,-0.71629 0.60774,-0.38977 1.03696,-0.4593 1.07387,-0.008 2.15154,0.0154 3.22305,-0.0115 0.46548,-0.18209 0.91813,-0.4228 1.41235,-0.51672 z m -43.8976,1.45828 c 1.11909,0.46067 -0.90955,1.56875 -0.57914,2.29745 0.0498,0.76445 0.14,1.30759 0.49877,0.25166 0.1642,-0.49388 0.31606,-0.99194 0.49374,-1.48124 0.45226,0.74613 1.04689,1.16368 1.9061,1.17122 0.36725,0.62995 0.54303,2.0575 0.92976,0.73867 0.35394,-0.68073 0.62746,-1.46713 1.13709,-2.02471 0.82838,0.47314 -0.11469,2.15747 0.1263,3.01989 -0.0681,1.35929 0.22074,2.71962 0.0283,4.08225 0.11891,0.81125 -0.6814,2.876 0.7607,1.89155 0.49783,-0.2368 0.56313,-0.93843 0.86823,-1.38234 0.55221,-1.06856 0.34815,-2.3702 0.70814,-3.50062 1.07008,-0.27432 0.0985,2.97296 1.13091,1.94275 0.30103,-1.09886 -0.51314,-2.02456 -0.60272,-3.24027 0,-0.71958 0,-1.43914 0,-2.15871 0.71629,-0.21755 0.38977,0.60774 0.4593,1.03696 -0.0527,0.86525 0.0381,1.72555 0.41337,2.52261 1.17965,0.63671 0.99017,-1.55704 1.92906,-1.99795 1.02209,-0.40852 0.44799,-2.54002 1.48124,-2.30799 -0.0961,1.31362 -0.82764,2.40019 -1.73386,3.29548 -0.37129,0.62602 -0.54408,2.13652 -1.60755,1.52718 0.77146,0.79114 -0.10417,2.45081 -1.05638,2.17019 -0.21055,-0.70316 -0.22737,-1.52646 -0.33956,-0.32426 -0.0333,1.00298 -0.73461,1.79669 -1.09576,2.70113 -0.86706,0.47612 -2.42629,0.99775 -1.85612,-0.61527 0.10575,-1.72818 0.23119,-3.45797 0.0189,-5.18339 -0.0202,-0.56681 0.28855,-2.34949 0.007,-1.99895 -0.39842,0.80617 -0.77944,1.62687 -1.17831,2.43529 -0.49353,-0.73861 -0.29711,-2.48234 -1.46614,-2.30558 -0.64827,-0.1288 -0.87726,-0.90263 -1.03705,0.14687 -0.28706,0.3103 -0.64372,2.04508 -1.15973,1.26307 -0.12578,-0.95444 -0.0468,-2.43652 -1.13677,-1.27455 -0.20027,-0.7757 -0.38974,-1.55414 -0.5856,-2.33095 0.64245,-0.38988 0.52859,0.48943 0.69932,0.89117 -0.0369,1.31876 1.37359,0.0335 1.53976,-0.65004 0.0987,-0.20323 0.19832,-0.40607 0.29855,-0.60857 z m 18.00456,5.82162 c 1.22386,2.48023 2.52114,4.93175 3.83516,7.37177 0.70963,1.73142 1.56688,3.42226 1.86587,5.28577 -0.28057,0.88477 1.80533,2.08525 0.78658,2.31564 -1.12481,-0.87898 -1.24075,-2.27524 -1.55013,-3.55957 -0.73475,-2.29147 -1.794,-4.47597 -2.96979,-6.57644 -0.84776,-1.50787 -1.56776,-3.07524 -2.35809,-4.60752 0.13013,-0.0765 0.26027,-0.1531 0.3904,-0.22965 z m -2.50318,2.70987 c 1.1701,0.13407 -1.06323,1.35139 0.39201,1.4885 0.75367,0.12356 0.55928,1.18912 1.2422,1.3683 1.7189,0.0982 -0.18611,2.54354 1.58089,2.18402 0.84806,0.6676 -0.0435,2.39562 1.28604,2.83618 1.10498,0.53121 0.79176,1.84087 1.30824,2.74845 0.1228,0.69572 0.52106,0.59083 1.00128,0.24771 0.35732,-0.23666 1.07204,-0.60552 0.93748,0.0477 -0.62296,0.30984 -1.2466,0.6183 -1.8691,0.92904 -0.4961,-0.96122 -0.93794,-1.952 -1.04491,-3.04286 -0.97306,-0.73193 -1.85471,-1.5461 -1.70224,-2.88331 0.23122,-1.02546 -1.72233,0.019 -1.20661,-1.27177 0.67683,-1.31167 -0.83792,-1.14292 -1.1506,-2.02327 -0.0865,-0.88305 -1.41086,-0.73886 -1.4866,-1.51493 0.21777,-0.38351 0.49229,-0.73118 0.71192,-1.1138 z m -7.01581,12.6652 c -0.19209,0.57105 -2.02972,2.28604 -0.67095,1.20222 0.70284,-0.4252 0.80318,-0.14868 0.67611,-1.09121 l -0.004,-0.0797 z m -0.27558,4.07629 c 1.32812,0.22615 -1.65144,1.50432 -1.01162,1.53646 0.38986,-0.28306 1.22283,-0.24688 0.79025,0.24431 -0.64578,0.1987 -1.29156,0.3974 -1.93734,0.5961 -0.48126,-1.03116 1.63479,-1.54563 2.13575,-2.35391 z m 0.13779,4.3978 c 1.09035,0.0338 -0.59718,1.1355 -0.90712,1.60755 -1.18957,0.96705 1.4145,-0.95883 1.20567,-0.003 -0.49824,0.34964 -2.30699,1.48747 -2.93199,0.8577 0.78219,-0.89026 1.90344,-1.47144 2.63344,-2.4628 z m -6.54502,3.93849 c -0.0605,0.83916 -0.22068,1.89423 0.58653,0.8508 0.89803,-0.55119 -0.0941,-0.52658 -0.58653,-0.8508 z m -0.39041,10.16202 c -0.0196,0.78838 -0.31735,2.04277 0.7234,1.05638 0.77063,-0.33506 1.34733,-0.94014 0.10781,-0.92962 -0.27657,-0.045 -0.55479,-0.0838 -0.83121,-0.12676 z m -0.1952,8.61187 c 0.69282,0.42256 2.46261,0.52825 2.41776,1.31763 -0.49599,-0.0771 -2.3303,-0.49996 -2.41776,-1.09763 0,-0.0733 0,-0.14667 0,-0.22 z m -3.15769,29.01627 c -2.71213,0.0747 -5.4334,-0.013 -8.14109,0.0804 -1.17007,0.74581 -2.52232,1.23576 -3.43766,2.31487 -0.6926,0.97353 1.16324,1.80737 2.11717,1.58918 0.4809,0.31942 2.19796,-0.30553 1.9061,0.59709 -0.44938,1.30321 -1.91501,1.53221 -2.88211,2.31947 -0.59657,1.23898 0.81917,2.77802 1.88313,1.59607 0.63059,-0.59897 1.17471,-0.66783 1.62143,0.0713 0.73823,0.57882 -0.51721,2.13709 1.09992,2.05297 1.05644,-0.53214 1.99913,-1.46164 2.99136,-2.16624 0.65837,-0.84168 1.72393,-1.7775 2.14132,-0.18768 0.96678,0.82685 2.17948,0.62145 3.33475,0.54507 1.41898,-0.0485 2.98127,-0.23901 3.79679,-1.57581 1.32639,-0.63369 2.59091,0.66026 3.25976,1.69864 0.89551,0.58818 2.38887,0.66587 1.93234,-0.82408 -0.35177,-0.97501 -0.0475,-2.00587 1.12447,-1.37763 1.28382,0.24512 2.28006,1.2175 3.51154,1.55678 -0.0745,-0.93613 -0.0874,-2.69932 1.21201,-1.50127 1.09551,0.7937 2.23979,1.56351 3.56471,1.91464 0.0473,-0.55304 -0.0985,-1.15796 0.0804,-1.67645 0.85148,-0.87528 2.55518,1.69245 2.18167,-0.26409 0.17743,-0.6716 -0.74235,-2.1565 0.1952,-2.05537 1.2942,0.5459 2.65987,0.92327 4.04184,1.17122 -0.91489,-1.52139 -2.54836,-2.35705 -3.93849,-3.37586 -1.34229,-0.55872 -2.76095,-1.00179 -4.22945,-0.974 -1.58478,-0.14448 -3.20834,-0.0784 -4.77214,-0.31046 -0.6697,-0.48661 -0.55927,-0.0522 -0.43703,0.0903 -0.93491,1.34001 -2.60523,1.0805 -4.0195,1.3335 -1.97597,0.18888 -3.97222,0.38647 -5.84397,1.08931 -1.2936,0.1683 -2.43807,-0.97291 -3.3745,-1.76876 -0.41151,-0.57017 -0.60645,-1.31925 -0.91995,-1.96306 z"
         id="path554"
         style="fill:#ffffff;fill-opacity:1;fill-rule:evenodd;stroke:none;stroke-width:0.36499" />
    </g>
    <text
       xml:space="preserve"
       style="font-style:normal;font-variant:normal;font-weight:normal;font-stretch:normal;font-size:36.4805px;line-height:125%;font-family:Z003;-inkscape-font-specification:Z003;letter-spacing:0px;word-spacing:0px;fill:#ffffff;stroke:none;stroke-width:0.912014px;stroke-linecap:butt;stroke-linejoin:miter;stroke-opacity:1"
       x="15.413047"
       y="192.28358"
       id="text12921"><tspan
         sodipodi:role="line"
         id="tspan12919"
         style="font-style:normal;font-variant:normal;font-weight:normal;font-stretch:semi-expanded;font-family:'Edwardian Script ITC';-inkscape-font-specification:'Edwardian Script ITC Semi-Expanded';fill:#ffffff;stroke:none;stroke-width:0.912014px"
         x="15.413047"
         y="192.28358">First                    State</tspan></text>
    <text
       xml:space="preserve"
       style="font-style:normal;font-variant:normal;font-weight:normal;font-stretch:normal;font-size:29.8251px;line-height:125%;font-family:Z003;-inkscape-font-specification:Z003;letter-spacing:0px;word-spacing:0px;fill:#ffffff;stroke:none;stroke-width:0.745629px;stroke-linecap:butt;stroke-linejoin:miter;stroke-opacity:1"
       x="41.009682"
       y="262.80838"
       id="text12921-5"><tspan
         sodipodi:role="line"
         style="font-style:normal;font-variant:normal;font-weight:normal;font-stretch:semi-expanded;font-family:'Edwardian Script ITC';-inkscape-font-specification:'Edwardian Script ITC Semi-Expanded';fill:#ffffff;stroke:none;stroke-width:0.745629px"
         x="41.009682"
         y="262.80838"
         id="tspan3971">December 20, 1860</tspan></text>
  </g>
</svg>
