<?xml version="1.0" encoding="UTF-8" standalone="no"?>
<!-- Created with Inkscape (http://www.inkscape.org/) -->

<svg
   width="300mm"
   height="200mm"
   viewBox="0 0 300 200"
   version="1.1"
   id="svg5"
   inkscape:version="1.1.1 (eb90963e84, 2021-10-02)"
   sodipodi:docname="SD.svg"
   inkscape:export-filename="/home/kavi/temp.png"
   inkscape:export-xdpi="346.70999"
   inkscape:export-ydpi="346.70999"
   xmlns:inkscape="http://www.inkscape.org/namespaces/inkscape"
   xmlns:sodipodi="http://sodipodi.sourceforge.net/DTD/sodipodi-0.dtd"
   xmlns="http://www.w3.org/2000/svg"
   xmlns:svg="http://www.w3.org/2000/svg">
  <sodipodi:namedview
     id="namedview7"
     pagecolor="#ffffff"
     bordercolor="#666666"
     borderopacity="1.0"
     inkscape:pageshadow="2"
     inkscape:pageopacity="0.0"
     inkscape:pagecheckerboard="0"
     inkscape:document-units="mm"
     showgrid="false"
     inkscape:zoom="0.60060003"
     inkscape:cx="513.65299"
     inkscape:cy="393.77287"
     inkscape:window-width="1848"
     inkscape:window-height="1016"
     inkscape:window-x="72"
     inkscape:window-y="27"
     inkscape:window-maximized="1"
     inkscape:current-layer="layer1" />
  <defs
     id="defs2" />
  <g
     inkscape:label="Layer 1"
     inkscape:groupmode="layer"
     id="layer1"
     transform="translate(34.152641,-46.013615)">
    <rect
       style="color:#000000;overflow:visible;fill:#000080;fill-rule:evenodd;stroke-width:0.746267;stop-color:#000000"
       id="rect846"
       width="300"
       height="200"
       x="-34.152641"
       y="46.013615" />
    <g
       aria-label="South Dakota"
       id="text1273"
       style="font-size:28.9658px;line-height:125%;font-family:'Ford Script';-inkscape-font-specification:'Ford Script';letter-spacing:0px;word-spacing:0px;fill:#ffffff;stroke-width:0.724146px">
      <path
         d="m 41.042619,188.47846 v 6.57671 h -0.537451 q -0.297013,-2.29124 -1.782076,-3.86116 -1.485063,-1.56993 -3.521721,-1.56993 -1.470919,0 -2.475104,0.86275 -0.990042,0.84861 -0.990042,2.05081 0,0.89103 0.622312,1.68307 0.608168,0.80617 3.238851,2.34781 1.697215,0.99004 3.139848,1.92351 1.442632,0.93347 2.460961,2.24881 1.018329,1.3012 1.018329,2.99841 0,2.47511 -1.909367,3.98846 -1.895223,1.4992 -4.21475,1.4992 -1.541637,0 -4.186463,-0.87689 -0.537451,-0.16972 -0.919325,-0.16972 -0.763746,0 -1.173907,1.04661 h -0.537451 v -6.70399 h 0.537451 q 0.608169,2.88526 2.192236,4.22889 1.584067,1.32948 3.521721,1.32948 1.683071,0 2.757974,-0.87689 1.074903,-0.89104 1.074903,-2.2771 0,-1.1739 -0.933468,-2.33367 -0.947612,-1.14562 -3.988455,-2.87112 -3.083274,-1.73964 -4.17232,-2.99841 -1.089046,-1.24463 -1.089046,-3.12571 0,-2.16394 1.626497,-3.64901 1.626498,-1.4992 4.002599,-1.4992 1.357772,0 3.578294,0.8486 0.565739,0.2263 0.990042,0.2263 0.749603,0 1.131477,-1.04662 z"
         style="font-family:'Times New Roman Cyr';-inkscape-font-specification:'Times New Roman Cyr'"
         id="path1606" />
      <path
         d="m 58.39664,201.64602 q 0,2.98427 -2.050801,5.26137 -2.036658,2.27709 -4.893636,2.27709 -2.588253,0 -4.525906,-1.93765 -1.937654,-1.9518 -1.937654,-4.79463 0,-2.80041 1.980084,-5.10579 1.980084,-2.30538 4.964353,-2.30538 2.61654,0 4.54005,1.98008 1.92351,1.96594 1.92351,4.62491 z m -2.616539,1.2022 q 0,-2.74384 -1.230481,-4.76635 -1.230481,-2.03666 -3.295425,-2.03666 -1.683072,0 -2.673114,1.41435 -0.975898,1.4002 -0.975898,3.83288 0,2.74383 1.244624,4.82291 1.244624,2.07909 3.252995,2.07909 1.598211,0 2.630683,-1.42849 1.046616,-1.42849 1.046616,-3.91773 z"
         style="font-family:'Times New Roman Cyr';-inkscape-font-specification:'Times New Roman Cyr'"
         id="path1608" />
      <path
         d="m 60.221146,195.35218 h 4.780488 v 8.9811 q 0,1.4992 0.551595,2.26295 0.565738,0.7496 1.683071,0.7496 0.876895,0 1.739645,-0.43844 0.862751,-0.45259 1.697215,-1.34363 v -7.6799 q 0,-0.99004 -0.282869,-1.31534 -0.268726,-0.3253 -0.537451,-0.49502 -0.254582,-0.18387 -1.428489,-0.19801 v -0.52331 h 4.639053 v 9.51855 q 0,1.32948 0.297013,1.85279 0.297013,0.52331 0.975899,0.52331 0.396016,0 0.961755,-0.24044 v 0.56574 l -4.087459,1.61235 H 70.67316 v -2.88526 q -1.216337,1.44263 -2.361957,2.16395 -1.14562,0.72131 -2.234666,0.72131 -1.173907,0 -2.036658,-0.69303 -0.862751,-0.70717 -1.131476,-1.66892 -0.254583,-0.9759 -0.254583,-2.7014 v -6.23727 q 0,-1.0749 -0.45259,-1.54163 -0.438447,-0.46674 -1.598211,-0.46674 h -0.381873 z"
         style="font-family:'Times New Roman Cyr';-inkscape-font-specification:'Times New Roman Cyr'"
         id="path1610" />
      <path
         d="m 80.941309,191.08086 v 4.27132 h 3.083273 v 0.84861 h -3.083273 v 8.8538 q 0,1.23049 0.41016,1.8528 0.424303,0.60817 1.258767,0.60817 0.495021,0 0.947612,-0.28287 0.452591,-0.28287 0.862751,-0.83447 h 0.579882 q -0.721317,1.38606 -1.640641,2.09323 -0.919325,0.69303 -2.036658,0.69303 -1.357772,0 -2.050801,-0.96175 -0.678886,-0.96176 -0.678886,-2.88527 v -9.13667 h -2.050802 v -0.55159 q 2.970126,-1.2022 3.946025,-4.56834 z"
         style="font-family:'Times New Roman Cyr';-inkscape-font-specification:'Times New Roman Cyr'"
         id="path1612" />
      <path
         d="m 90.530574,188.01173 v 9.84385 q 1.018329,-1.34363 2.29124,-2.07909 1.272911,-0.73546 2.361958,-0.73546 1.202193,0 2.064944,0.73546 0.876895,0.72131 1.14562,1.81036 0.268726,1.08905 0.268726,3.05499 v 4.95021 q 0,1.45677 0.353586,2.06494 0.36773,0.60817 1.838652,0.60817 v 0.52331 h -6.732288 v -0.52331 q 1.456776,-0.0141 1.796219,-0.63646 0.353587,-0.63645 0.353587,-2.03665 v -5.54424 q 0,-1.21634 -0.141435,-1.78207 -0.127291,-0.56574 -0.73546,-1.01833 -0.608168,-0.46674 -1.386058,-0.46674 -0.579882,0 -1.371916,0.29702 -0.792033,0.28286 -2.107375,1.4992 v 7.01516 q 0,1.69721 0.495021,2.19223 0.495021,0.48088 1.83865,0.48088 v 0.52331 h -6.803003 v -0.52331 q 1.173907,-0.0141 1.626498,-0.53745 0.466734,-0.52331 0.466734,-2.13566 v -12.20581 q 0,-2.13566 -0.226296,-2.71554 -0.226295,-0.57988 -1.046615,-0.57988 -0.36773,0 -0.820321,0.15558 l -0.155578,-0.49503 4.115746,-1.73964 z"
         style="font-family:'Times New Roman Cyr';-inkscape-font-specification:'Times New Roman Cyr'"
         id="path1614" />
      <path
         d="m 109.51109,189.42608 v -0.52331 h 9.10839 q 3.23885,0 5.00678,0.33944 1.76793,0.3253 3.56415,1.58407 1.81036,1.24462 2.94184,3.40857 1.13148,2.16395 1.13148,4.59662 0,2.3761 -1.10319,4.45519 -1.08905,2.07909 -3.01256,3.36615 -1.92351,1.28705 -3.86116,1.71135 -1.93766,0.42431 -4.55419,0.42431 h -9.22154 v -0.52331 q 1.31534,0 1.9518,-0.3253 0.63645,-0.33944 0.80618,-0.84861 0.16972,-0.50916 0.16972,-2.16395 v -12.17751 q 0,-1.69722 -0.18387,-2.19224 -0.18386,-0.50916 -0.80617,-0.80618 -0.62232,-0.31115 -1.93766,-0.32529 z m 6.06754,1.01832 v 16.90143 q 1.32949,0.42431 3.12571,0.42431 4.03088,0 6.44941,-2.39025 2.43268,-2.40438 2.43268,-6.37869 0,-4.10161 -2.48925,-6.57671 -2.48925,-2.47511 -6.26555,-2.47511 -1.73965,0 -3.253,0.49502 z"
         style="font-family:'Times New Roman Cyr';-inkscape-font-specification:'Times New Roman Cyr'"
         id="path1616" />
      <path
         d="m 146.39723,206.25679 v 0.73546 q -1.73965,2.19223 -3.253,2.19223 -1.78207,0 -1.83865,-2.43267 -1.25876,1.21634 -2.44681,1.82451 -1.17391,0.60816 -2.2771,0.60816 -1.27291,0 -2.14981,-0.96175 -0.86275,-0.96176 -0.86275,-2.31953 0,-1.81036 1.76793,-3.11156 1.78208,-1.31534 5.96854,-2.74383 -0.0141,-2.00837 -0.14143,-2.74383 -0.11315,-0.7496 -0.67889,-1.20219 -0.56574,-0.46674 -1.78207,-0.46674 -0.96176,0 -1.59821,0.52331 -0.63646,0.52331 -0.63646,1.41435 0,0.198 0.0283,0.46673 0.0141,0.19801 0.0141,0.36773 0,1.21634 -1.13147,1.21634 -1.25877,0 -1.25877,-1.2022 0,-1.42849 1.4002,-2.40438 1.4002,-0.9759 3.74802,-0.9759 1.73964,0 2.74383,0.49502 1.01833,0.48088 1.32948,1.3012 0.31116,0.82032 0.31116,2.53168 v 6.73228 q 0,1.37192 0.8486,1.37192 0.83447,0 1.89523,-1.21634 z m -5.09165,-0.15558 v -5.27551 q -3.2247,1.32949 -4.27132,2.20638 -1.04662,0.86275 -1.04662,2.13566 0,0.9759 0.62232,1.66893 0.63645,0.69303 1.58406,0.69303 0.73546,0 1.51335,-0.35359 0.77789,-0.36773 1.59821,-1.0749 z"
         style="font-family:'Times New Roman Cyr';-inkscape-font-specification:'Times New Roman Cyr'"
         id="path1618" />
      <path
         d="m 147.65599,189.60994 4.12989,-1.59821 h 0.49502 V 201.25 l 4.1016,-3.93188 q 0.52331,-0.49502 0.52331,-0.83446 0,-0.60817 -1.08904,-0.60817 v -0.52331 h 5.9261 v 0.52331 q -1.76793,0.0141 -2.81454,0.70717 -1.03248,0.69303 -1.56993,1.2022 l -2.87112,2.71554 3.62073,4.70977 q 1.4992,1.9518 2.31952,2.50339 0.83447,0.5516 1.9518,0.5516 v 0.52331 h -6.44942 v -0.52331 q 0.91933,-0.0424 0.91933,-0.5516 0,-0.39601 -0.46674,-1.00418 l -4.1016,-5.31794 v 4.18646 q 0,1.44264 0.35359,2.06495 0.35358,0.62231 1.85279,0.62231 v 0.52331 h -6.83129 v -0.52331 q 1.27291,-0.0141 1.73965,-0.52331 0.48087,-0.50916 0.48087,-2.16395 v -12.68668 q 0,-1.86693 -0.25458,-2.39024 -0.25458,-0.52331 -1.0749,-0.52331 -0.31116,0 -0.70717,0.12729 z"
         style="font-family:'Times New Roman Cyr';-inkscape-font-specification:'Times New Roman Cyr'"
         id="path1620" />
      <path
         d="m 177.58354,201.64602 q 0,2.98427 -2.0508,5.26137 -2.03666,2.27709 -4.89364,2.27709 -2.58825,0 -4.5259,-1.93765 -1.93765,-1.9518 -1.93765,-4.79463 0,-2.80041 1.98008,-5.10579 1.98008,-2.30538 4.96435,-2.30538 2.61654,0 4.54005,1.98008 1.92351,1.96594 1.92351,4.62491 z m -2.61654,1.2022 q 0,-2.74384 -1.23048,-4.76635 -1.23048,-2.03666 -3.29542,-2.03666 -1.68307,0 -2.67312,1.41435 -0.9759,1.4002 -0.9759,3.83288 0,2.74383 1.24463,4.82291 1.24462,2.07909 3.25299,2.07909 1.59821,0 2.63069,-1.42849 1.04661,-1.42849 1.04661,-3.91773 z"
         style="font-family:'Times New Roman Cyr';-inkscape-font-specification:'Times New Roman Cyr'"
         id="path1622" />
      <path
         d="m 184.13197,191.08086 v 4.27132 h 3.08328 v 0.84861 h -3.08328 v 8.8538 q 0,1.23049 0.41016,1.8528 0.42431,0.60817 1.25877,0.60817 0.49502,0 0.94761,-0.28287 0.45259,-0.28287 0.86276,-0.83447 h 0.57988 q -0.72132,1.38606 -1.64064,2.09323 -0.91933,0.69303 -2.03666,0.69303 -1.35777,0 -2.0508,-0.96175 -0.67889,-0.96176 -0.67889,-2.88527 v -9.13667 h -2.0508 v -0.55159 q 2.97013,-1.2022 3.94602,-4.56834 z"
         style="font-family:'Times New Roman Cyr';-inkscape-font-specification:'Times New Roman Cyr'"
         id="path1624" />
      <path
         d="m 202.51846,206.25679 v 0.73546 q -1.73965,2.19223 -3.253,2.19223 -1.78207,0 -1.83865,-2.43267 -1.25876,1.21634 -2.44681,1.82451 -1.17391,0.60816 -2.2771,0.60816 -1.27291,0 -2.14981,-0.96175 -0.86275,-0.96176 -0.86275,-2.31953 0,-1.81036 1.76794,-3.11156 1.78207,-1.31534 5.96853,-2.74383 -0.0141,-2.00837 -0.14143,-2.74383 -0.11315,-0.7496 -0.67889,-1.20219 -0.56573,-0.46674 -1.78207,-0.46674 -0.96176,0 -1.59821,0.52331 -0.63646,0.52331 -0.63646,1.41435 0,0.198 0.0283,0.46673 0.0141,0.19801 0.0141,0.36773 0,1.21634 -1.13147,1.21634 -1.25877,0 -1.25877,-1.2022 0,-1.42849 1.4002,-2.40438 1.4002,-0.9759 3.74802,-0.9759 1.73964,0 2.74383,0.49502 1.01833,0.48088 1.32948,1.3012 0.31116,0.82032 0.31116,2.53168 v 6.73228 q 0,1.37192 0.84861,1.37192 0.83446,0 1.89522,-1.21634 z m -5.09165,-0.15558 v -5.27551 q -3.2247,1.32949 -4.27132,2.20638 -1.04661,0.86275 -1.04661,2.13566 0,0.9759 0.62231,1.66893 0.63645,0.69303 1.58406,0.69303 0.73546,0 1.51335,-0.35359 0.77789,-0.36773 1.59821,-1.0749 z"
         style="font-family:'Times New Roman Cyr';-inkscape-font-specification:'Times New Roman Cyr'"
         id="path1626" />
    </g>
  </g>
</svg>
