<?xml version="1.0" encoding="UTF-8" standalone="no"?>
<!-- Created with Inkscape (http://www.inkscape.org/) -->

<svg
   width="657.59619mm"
   height="422.1669mm"
   viewBox="0 0 657.5962 422.1669"
   version="1.1"
   id="svg5"
   inkscape:version="1.1.1 (26b7af14f2, 2022-01-19)"
   sodipodi:docname="VT.svg"
   xmlns:inkscape="http://www.inkscape.org/namespaces/inkscape"
   xmlns:sodipodi="http://sodipodi.sourceforge.net/DTD/sodipodi-0.dtd"
   xmlns="http://www.w3.org/2000/svg"
   xmlns:svg="http://www.w3.org/2000/svg">
  <sodipodi:namedview
     id="namedview7"
     pagecolor="#ffffff"
     bordercolor="#666666"
     borderopacity="1.0"
     inkscape:pageshadow="2"
     inkscape:pageopacity="0.0"
     inkscape:pagecheckerboard="0"
     inkscape:document-units="mm"
     showgrid="false"
     inkscape:zoom="0.2963311"
     inkscape:cx="1447.705"
     inkscape:cy="443.76038"
     inkscape:window-width="1848"
     inkscape:window-height="1016"
     inkscape:window-x="72"
     inkscape:window-y="27"
     inkscape:window-maximized="1"
     inkscape:current-layer="layer1" />
  <defs
     id="defs2" />
  <g
     inkscape:label="Layer 1"
     inkscape:groupmode="layer"
     id="layer1"
     transform="translate(281.47137,94.422599)">
    <rect
       style="color:#000000;overflow:visible;fill:#387dc0;fill-opacity:1;fill-rule:evenodd;stroke:#fffffe;stroke-width:8.00183;stroke-miterlimit:4;stroke-dasharray:none;stroke-opacity:1;stop-color:#000000"
       id="rect1393"
       width="649.59436"
       height="414.16507"
       x="-277.47046"
       y="-90.421684"
       inkscape:export-filename="/home/kavi/temp.png"
       inkscape:export-xdpi="158.17583"
       inkscape:export-ydpi="158.17583" />
    <g
       id="g19151"
       transform="translate(0,-23.221276)"
       inkscape:export-filename="/home/kavi/temp.png"
       inkscape:export-xdpi="158.17583"
       inkscape:export-ydpi="158.17583">
      <g
         id="g11071"
         transform="translate(-21.650374,0.07842322)">
        <path
           style="color:#000000;overflow:visible;fill:#ea524e;fill-opacity:1;fill-rule:evenodd;stroke-width:0.531752;stop-color:#000000"
           d="m -117.07872,168.9955 c -21.35507,-1.05932 -41.67841,-3.83529 -54.87891,-7.49593 -5.84161,-1.61994 -15.39004,-5.16287 -14.99066,-5.56225 0.11614,-0.11614 1.77553,0.15164 3.68754,0.59506 25.36134,5.88169 90.407886,2.61412 189.7060451,-9.52976 29.2236699,-3.57396 63.4204429,-6.3881 101.8305849,-8.37987 17.93424,-0.92999 86.0343,-0.93004 102.89408,-8e-5 56.10736,3.09479 98.23676,9.38866 134.93952,20.15912 3.58672,1.05252 6.43787,1.99706 6.33597,2.09898 -0.10194,0.10191 -5.07047,-0.64446 -11.04119,-1.6586 -22.61092,-3.8405 -45.32521,-6.09713 -78.92021,-7.84058 -16.89237,-0.87665 -86.83597,-0.87381 -105.28696,0.004 -59.784978,2.84517 -98.431609,5.8955 -152.8788043,12.06653 -28.3138577,3.20909 -45.5924967,4.62752 -68.0568177,5.58691 -14.107684,0.6025 -40.752328,0.58062 -53.340188,-0.0438 z"
           id="path1141" />
        <path
           style="color:#000000;overflow:visible;fill:#ffffff;fill-rule:evenodd;stroke-width:0.531752;stop-color:#000000"
           d="m -144.6122,143.01312 c -21.35507,-1.05932 -41.67841,-3.8353 -54.87891,-7.49593 -5.84161,-1.61994 -15.39004,-5.16287 -14.99066,-5.56226 0.11614,-0.11613 1.77554,0.15165 3.68754,0.59507 25.36134,5.88169 90.40789,2.61412 189.706047,-9.52976 29.223669,-3.57397 63.420439,-6.3881 101.83058,-8.37987 17.934242,-0.92999 86.034313,-0.93005 102.894083,-9e-5 56.10737,3.09479 98.23676,9.38866 134.93952,20.15912 3.58672,1.05253 6.43787,1.99707 6.33598,2.09899 -0.10195,0.10191 -5.07048,-0.64446 -11.0412,-1.6586 -22.61092,-3.84051 -45.32521,-6.09713 -78.92021,-7.84058 -16.89237,-0.87665 -86.83597,-0.87381 -105.28696,0.004 -59.784981,2.84517 -98.431614,5.8955 -152.878803,12.06653 -28.313861,3.20909 -45.592501,4.62752 -68.056821,5.58691 -14.107686,0.6025 -40.752326,0.58062 -53.340186,-0.0438 z"
           id="path1141-3" />
      </g>
      <text
         xml:space="preserve"
         style="font-weight:bold;font-size:120.866px;line-height:125%;font-family:Cantarell;-inkscape-font-specification:'Cantarell Bold';letter-spacing:0px;word-spacing:0px;fill:none;stroke:#000000;stroke-width:3.02166px;stroke-linecap:butt;stroke-linejoin:miter;stroke-opacity:1"
         x="-220.7536"
         y="81.301186"
         id="text11691"><tspan
           sodipodi:role="line"
           id="tspan11689"
           style="font-style:normal;font-variant:normal;font-weight:bold;font-stretch:normal;font-family:C059;-inkscape-font-specification:'C059 Bold';fill:#ffffff;stroke:none;stroke-width:3.02166px"
           x="-220.7536"
           y="81.301186">Vermont</tspan></text>
      <text
         xml:space="preserve"
         style="font-weight:bold;font-size:120.866px;line-height:125%;font-family:Cantarell;-inkscape-font-specification:'Cantarell Bold';letter-spacing:0px;word-spacing:0px;fill:none;stroke:#000000;stroke-width:3.02166px;stroke-linecap:butt;stroke-linejoin:miter;stroke-opacity:1"
         x="-91.427338"
         y="284.03619"
         id="text11691-2"><tspan
           sodipodi:role="line"
           id="tspan11689-2"
           style="font-style:normal;font-variant:normal;font-weight:bold;font-stretch:normal;font-family:C059;-inkscape-font-specification:'C059 Bold';fill:#ffffff;stroke:none;stroke-width:3.02166px"
           x="-91.427338"
           y="284.03619">1791</tspan></text>
    </g>
  </g>
</svg>
